<svg width="734" height="85" viewBox="0 0 734 85" fill="none" xmlns="http://www.w3.org/2000/svg">
<path d="M1.5 42.9255C1.5 20.2819 19.8563 1.92554 42.5 1.92554H499.5V83.9255H42.5C19.8563 83.9255 1.5 65.5692 1.5 42.9255Z" fill="white"/>
<path d="M51.5 51.9255L47.014 47.4315L51.5 51.9255ZM49.5 41.4255C49.5 43.6799 48.6045 45.8419 47.0104 47.4359C45.4163 49.03 43.2543 49.9255 41 49.9255C38.7457 49.9255 36.5837 49.03 34.9896 47.4359C33.3955 45.8419 32.5 43.6799 32.5 41.4255C32.5 39.1712 33.3955 37.0092 34.9896 35.4151C36.5837 33.8211 38.7457 32.9255 41 32.9255C43.2543 32.9255 45.4163 33.8211 47.0104 35.4151C48.6045 37.0092 49.5 39.1712 49.5 41.4255V41.4255Z" stroke="black" stroke-width="2" stroke-linecap="round"/>
<path d="M75.134 48.9255L69.554 36.3255H70.994L76.214 48.1875H75.422L80.678 36.3255H82.028L76.448 48.9255H75.134ZM83.534 48.9255V39.4755H84.812V48.9255H83.534ZM84.182 37.3875C83.918 37.3875 83.696 37.2975 83.516 37.1175C83.336 36.9375 83.246 36.7215 83.246 36.4695C83.246 36.2175 83.336 36.0075 83.516 35.8395C83.696 35.6595 83.918 35.5695 84.182 35.5695C84.446 35.5695 84.668 35.6535 84.848 35.8215C85.028 35.9895 85.118 36.1995 85.118 36.4515C85.118 36.7155 85.028 36.9375 84.848 37.1175C84.68 37.2975 84.458 37.3875 84.182 37.3875ZM88.3679 48.9255V39.4755H89.5919V42.0495L89.4659 41.5995C89.7299 40.8795 90.1739 40.3335 90.7979 39.9615C91.4219 39.5775 92.1959 39.3855 93.1199 39.3855V40.6275C93.0719 40.6275 93.0239 40.6275 92.9759 40.6275C92.9279 40.6155 92.8799 40.6095 92.8319 40.6095C91.8359 40.6095 91.0559 40.9155 90.4919 41.5275C89.9279 42.1275 89.6459 42.9855 89.6459 44.1015V48.9255H88.3679ZM98.8442 49.0155C97.9562 49.0155 97.2722 48.7755 96.7922 48.2955C96.3122 47.8155 96.0722 47.1375 96.0722 46.2615V37.3875H97.3502V46.1895C97.3502 46.7415 97.4882 47.1675 97.7642 47.4675C98.0522 47.7675 98.4602 47.9175 98.9882 47.9175C99.5522 47.9175 100.02 47.7555 100.392 47.4315L100.842 48.3495C100.59 48.5775 100.284 48.7455 99.9242 48.8535C99.5762 48.9615 99.2162 49.0155 98.8442 49.0155ZM94.3802 40.5375V39.4755H100.23V40.5375H94.3802ZM107.075 49.0155C106.271 49.0155 105.569 48.8655 104.969 48.5655C104.369 48.2655 103.901 47.8155 103.565 47.2155C103.241 46.6155 103.079 45.8655 103.079 44.9655V39.4755H104.357V44.8215C104.357 45.8295 104.603 46.5915 105.095 47.1075C105.599 47.6115 106.301 47.8635 107.201 47.8635C107.861 47.8635 108.431 47.7315 108.911 47.4675C109.403 47.1915 109.775 46.7955 110.027 46.2795C110.291 45.7635 110.423 45.1455 110.423 44.4255V39.4755H111.701V48.9255H110.477V46.3335L110.675 46.8015C110.375 47.4975 109.907 48.0435 109.271 48.4395C108.647 48.8235 107.915 49.0155 107.075 49.0155ZM121.184 48.9255V46.8375L121.13 46.4955V43.0035C121.13 42.1995 120.902 41.5815 120.446 41.1495C120.002 40.7175 119.336 40.5015 118.448 40.5015C117.836 40.5015 117.254 40.6035 116.702 40.8075C116.15 41.0115 115.682 41.2815 115.298 41.6175L114.722 40.6635C115.202 40.2555 115.778 39.9435 116.45 39.7275C117.122 39.4995 117.83 39.3855 118.574 39.3855C119.798 39.3855 120.74 39.6915 121.4 40.3035C122.072 40.9035 122.408 41.8215 122.408 43.0575V48.9255H121.184ZM117.926 49.0155C117.218 49.0155 116.6 48.9015 116.072 48.6735C115.556 48.4335 115.16 48.1095 114.884 47.7015C114.608 47.2815 114.47 46.8015 114.47 46.2615C114.47 45.7695 114.584 45.3255 114.812 44.9295C115.052 44.5215 115.436 44.1975 115.964 43.9575C116.504 43.7055 117.224 43.5795 118.124 43.5795H121.382V44.5335H118.16C117.248 44.5335 116.612 44.6955 116.252 45.0195C115.904 45.3435 115.73 45.7455 115.73 46.2255C115.73 46.7655 115.94 47.1975 116.36 47.5215C116.78 47.8455 117.368 48.0075 118.124 48.0075C118.844 48.0075 119.462 47.8455 119.978 47.5215C120.506 47.1855 120.89 46.7055 121.13 46.0815L121.418 46.9635C121.178 47.5875 120.758 48.0855 120.158 48.4575C119.57 48.8295 118.826 49.0155 117.926 49.0155ZM125.88 48.9255V35.5695H127.158V48.9255H125.88ZM141.347 48.9255V46.8375L141.293 46.4955V43.0035C141.293 42.1995 141.065 41.5815 140.609 41.1495C140.165 40.7175 139.499 40.5015 138.611 40.5015C137.999 40.5015 137.417 40.6035 136.865 40.8075C136.313 41.0115 135.845 41.2815 135.461 41.6175L134.885 40.6635C135.365 40.2555 135.941 39.9435 136.613 39.7275C137.285 39.4995 137.993 39.3855 138.737 39.3855C139.961 39.3855 140.903 39.6915 141.563 40.3035C142.235 40.9035 142.571 41.8215 142.571 43.0575V48.9255H141.347ZM138.089 49.0155C137.381 49.0155 136.763 48.9015 136.235 48.6735C135.719 48.4335 135.323 48.1095 135.047 47.7015C134.771 47.2815 134.633 46.8015 134.633 46.2615C134.633 45.7695 134.747 45.3255 134.975 44.9295C135.215 44.5215 135.599 44.1975 136.127 43.9575C136.667 43.7055 137.387 43.5795 138.287 43.5795H141.545V44.5335H138.323C137.411 44.5335 136.775 44.6955 136.415 45.0195C136.067 45.3435 135.893 45.7455 135.893 46.2255C135.893 46.7655 136.103 47.1975 136.523 47.5215C136.943 47.8455 137.531 48.0075 138.287 48.0075C139.007 48.0075 139.625 47.8455 140.141 47.5215C140.669 47.1855 141.053 46.7055 141.293 46.0815L141.581 46.9635C141.341 47.5875 140.921 48.0855 140.321 48.4575C139.733 48.8295 138.989 49.0155 138.089 49.0155ZM148.58 49.0155C147.8 49.0155 147.062 48.9075 146.366 48.6915C145.67 48.4635 145.124 48.1815 144.728 47.8455L145.304 46.8375C145.688 47.1255 146.18 47.3775 146.78 47.5935C147.38 47.7975 148.01 47.8995 148.67 47.8995C149.57 47.8995 150.218 47.7615 150.614 47.4855C151.01 47.1975 151.208 46.8195 151.208 46.3515C151.208 46.0035 151.094 45.7335 150.866 45.5415C150.65 45.3375 150.362 45.1875 150.002 45.0915C149.642 44.9835 149.24 44.8935 148.796 44.8215C148.352 44.7495 147.908 44.6655 147.464 44.5695C147.032 44.4735 146.636 44.3355 146.276 44.1555C145.916 43.9635 145.622 43.7055 145.394 43.3815C145.178 43.0575 145.07 42.6255 145.07 42.0855C145.07 41.5695 145.214 41.1075 145.502 40.6995C145.79 40.2915 146.21 39.9735 146.762 39.7455C147.326 39.5055 148.01 39.3855 148.814 39.3855C149.426 39.3855 150.038 39.4695 150.65 39.6375C151.262 39.7935 151.766 40.0035 152.162 40.2675L151.604 41.2935C151.184 41.0055 150.734 40.8015 150.254 40.6815C149.774 40.5495 149.294 40.4835 148.814 40.4835C147.962 40.4835 147.332 40.6335 146.924 40.9335C146.528 41.2215 146.33 41.5935 146.33 42.0495C146.33 42.4095 146.438 42.6915 146.654 42.8955C146.882 43.0995 147.176 43.2615 147.536 43.3815C147.908 43.4895 148.31 43.5795 148.742 43.6515C149.186 43.7235 149.624 43.8135 150.056 43.9215C150.5 44.0175 150.902 44.1555 151.262 44.3355C151.634 44.5035 151.928 44.7495 152.144 45.0735C152.372 45.3855 152.486 45.7995 152.486 46.3155C152.486 46.8675 152.33 47.3475 152.018 47.7555C151.718 48.1515 151.274 48.4635 150.686 48.6915C150.11 48.9075 149.408 49.0155 148.58 49.0155ZM157.369 49.0155C156.589 49.0155 155.851 48.9075 155.155 48.6915C154.459 48.4635 153.913 48.1815 153.517 47.8455L154.093 46.8375C154.477 47.1255 154.969 47.3775 155.569 47.5935C156.169 47.7975 156.799 47.8995 157.459 47.8995C158.359 47.8995 159.007 47.7615 159.403 47.4855C159.799 47.1975 159.997 46.8195 159.997 46.3515C159.997 46.0035 159.883 45.7335 159.655 45.5415C159.439 45.3375 159.151 45.1875 158.791 45.0915C158.431 44.9835 158.029 44.8935 157.585 44.8215C157.141 44.7495 156.697 44.6655 156.253 44.5695C155.821 44.4735 155.425 44.3355 155.065 44.1555C154.705 43.9635 154.411 43.7055 154.183 43.3815C153.967 43.0575 153.859 42.6255 153.859 42.0855C153.859 41.5695 154.003 41.1075 154.291 40.6995C154.579 40.2915 154.999 39.9735 155.551 39.7455C156.115 39.5055 156.799 39.3855 157.603 39.3855C158.215 39.3855 158.827 39.4695 159.439 39.6375C160.051 39.7935 160.555 40.0035 160.951 40.2675L160.393 41.2935C159.973 41.0055 159.523 40.8015 159.043 40.6815C158.563 40.5495 158.083 40.4835 157.603 40.4835C156.751 40.4835 156.121 40.6335 155.713 40.9335C155.317 41.2215 155.119 41.5935 155.119 42.0495C155.119 42.4095 155.227 42.6915 155.443 42.8955C155.671 43.0995 155.965 43.2615 156.325 43.3815C156.697 43.4895 157.099 43.5795 157.531 43.6515C157.975 43.7235 158.413 43.8135 158.845 43.9215C159.289 44.0175 159.691 44.1555 160.051 44.3355C160.423 44.5035 160.717 44.7495 160.933 45.0735C161.161 45.3855 161.275 45.7995 161.275 46.3155C161.275 46.8675 161.119 47.3475 160.807 47.7555C160.507 48.1515 160.063 48.4635 159.475 48.6915C158.899 48.9075 158.197 49.0155 157.369 49.0155ZM163.62 48.9255V39.4755H164.898V48.9255H163.62ZM164.268 37.3875C164.004 37.3875 163.782 37.2975 163.602 37.1175C163.422 36.9375 163.332 36.7215 163.332 36.4695C163.332 36.2175 163.422 36.0075 163.602 35.8395C163.782 35.6595 164.004 35.5695 164.268 35.5695C164.532 35.5695 164.754 35.6535 164.934 35.8215C165.114 35.9895 165.204 36.1995 165.204 36.4515C165.204 36.7155 165.114 36.9375 164.934 37.1175C164.766 37.2975 164.544 37.3875 164.268 37.3875ZM170.992 49.0155C170.212 49.0155 169.474 48.9075 168.778 48.6915C168.082 48.4635 167.536 48.1815 167.14 47.8455L167.716 46.8375C168.1 47.1255 168.592 47.3775 169.192 47.5935C169.792 47.7975 170.422 47.8995 171.082 47.8995C171.982 47.8995 172.63 47.7615 173.026 47.4855C173.422 47.1975 173.62 46.8195 173.62 46.3515C173.62 46.0035 173.506 45.7335 173.278 45.5415C173.062 45.3375 172.774 45.1875 172.414 45.0915C172.054 44.9835 171.652 44.8935 171.208 44.8215C170.764 44.7495 170.32 44.6655 169.876 44.5695C169.444 44.4735 169.048 44.3355 168.688 44.1555C168.328 43.9635 168.034 43.7055 167.806 43.3815C167.59 43.0575 167.482 42.6255 167.482 42.0855C167.482 41.5695 167.626 41.1075 167.914 40.6995C168.202 40.2915 168.622 39.9735 169.174 39.7455C169.738 39.5055 170.422 39.3855 171.226 39.3855C171.838 39.3855 172.45 39.4695 173.062 39.6375C173.674 39.7935 174.178 40.0035 174.574 40.2675L174.016 41.2935C173.596 41.0055 173.146 40.8015 172.666 40.6815C172.186 40.5495 171.706 40.4835 171.226 40.4835C170.374 40.4835 169.744 40.6335 169.336 40.9335C168.94 41.2215 168.742 41.5935 168.742 42.0495C168.742 42.4095 168.85 42.6915 169.066 42.8955C169.294 43.0995 169.588 43.2615 169.948 43.3815C170.32 43.4895 170.722 43.5795 171.154 43.6515C171.598 43.7235 172.036 43.8135 172.468 43.9215C172.912 44.0175 173.314 44.1555 173.674 44.3355C174.046 44.5035 174.34 44.7495 174.556 45.0735C174.784 45.3855 174.898 45.7995 174.898 46.3155C174.898 46.8675 174.742 47.3475 174.43 47.7555C174.13 48.1515 173.686 48.4635 173.098 48.6915C172.522 48.9075 171.82 49.0155 170.992 49.0155ZM180.231 49.0155C179.343 49.0155 178.659 48.7755 178.179 48.2955C177.699 47.8155 177.459 47.1375 177.459 46.2615V37.3875H178.737V46.1895C178.737 46.7415 178.875 47.1675 179.151 47.4675C179.439 47.7675 179.847 47.9175 180.375 47.9175C180.939 47.9175 181.407 47.7555 181.779 47.4315L182.229 48.3495C181.977 48.5775 181.671 48.7455 181.311 48.8535C180.963 48.9615 180.603 49.0155 180.231 49.0155ZM175.767 40.5375V39.4755H181.617V40.5375H175.767ZM190.477 48.9255V46.8375L190.423 46.4955V43.0035C190.423 42.1995 190.195 41.5815 189.739 41.1495C189.295 40.7175 188.629 40.5015 187.741 40.5015C187.129 40.5015 186.547 40.6035 185.995 40.8075C185.443 41.0115 184.975 41.2815 184.591 41.6175L184.015 40.6635C184.495 40.2555 185.071 39.9435 185.743 39.7275C186.415 39.4995 187.123 39.3855 187.867 39.3855C189.091 39.3855 190.033 39.6915 190.693 40.3035C191.365 40.9035 191.701 41.8215 191.701 43.0575V48.9255H190.477ZM187.219 49.0155C186.511 49.0155 185.893 48.9015 185.365 48.6735C184.849 48.4335 184.453 48.1095 184.177 47.7015C183.901 47.2815 183.763 46.8015 183.763 46.2615C183.763 45.7695 183.877 45.3255 184.105 44.9295C184.345 44.5215 184.729 44.1975 185.257 43.9575C185.797 43.7055 186.517 43.5795 187.417 43.5795H190.675V44.5335H187.453C186.541 44.5335 185.905 44.6955 185.545 45.0195C185.197 45.3435 185.023 45.7455 185.023 46.2255C185.023 46.7655 185.233 47.1975 185.653 47.5215C186.073 47.8455 186.661 48.0075 187.417 48.0075C188.137 48.0075 188.755 47.8455 189.271 47.5215C189.799 47.1855 190.183 46.7055 190.423 46.0815L190.711 46.9635C190.471 47.5875 190.051 48.0855 189.451 48.4575C188.863 48.8295 188.119 49.0155 187.219 49.0155ZM199.997 39.3855C200.765 39.3855 201.437 39.5355 202.013 39.8355C202.601 40.1235 203.057 40.5675 203.381 41.1675C203.717 41.7675 203.885 42.5235 203.885 43.4355V48.9255H202.607V43.5615C202.607 42.5655 202.355 41.8155 201.851 41.3115C201.359 40.7955 200.663 40.5375 199.763 40.5375C199.091 40.5375 198.503 40.6755 197.999 40.9515C197.507 41.2155 197.123 41.6055 196.847 42.1215C196.583 42.6255 196.451 43.2375 196.451 43.9575V48.9255H195.173V39.4755H196.397V42.0675L196.199 41.5815C196.499 40.8975 196.979 40.3635 197.639 39.9795C198.299 39.5835 199.085 39.3855 199.997 39.3855ZM210.325 49.0155C209.437 49.0155 208.753 48.7755 208.273 48.2955C207.793 47.8155 207.553 47.1375 207.553 46.2615V37.3875H208.831V46.1895C208.831 46.7415 208.969 47.1675 209.245 47.4675C209.533 47.7675 209.941 47.9175 210.469 47.9175C211.033 47.9175 211.501 47.7555 211.873 47.4315L212.323 48.3495C212.071 48.5775 211.765 48.7455 211.405 48.8535C211.057 48.9615 210.697 49.0155 210.325 49.0155ZM205.861 40.5375V39.4755H211.711V40.5375H205.861ZM214.051 51.5535L214.843 48.2235L214.987 48.9975C214.711 48.9975 214.477 48.9075 214.285 48.7275C214.105 48.5475 214.015 48.3135 214.015 48.0255C214.015 47.7375 214.105 47.5035 214.285 47.3235C214.477 47.1435 214.705 47.0535 214.969 47.0535C215.245 47.0535 215.467 47.1495 215.635 47.3415C215.815 47.5335 215.905 47.7615 215.905 48.0255C215.905 48.1215 215.899 48.2175 215.887 48.3135C215.875 48.4095 215.851 48.5175 215.815 48.6375C215.779 48.7575 215.731 48.9015 215.671 49.0695L214.915 51.5535H214.051ZM223.62 48.9255V36.3255H224.952V48.9255H223.62ZM231.5 48.9255V37.4775H227.072V36.3255H237.26V37.4775H232.832V48.9255H231.5ZM247.573 49.0335C246.637 49.0335 245.737 48.8835 244.873 48.5835C244.021 48.2715 243.361 47.8755 242.893 47.3955L243.415 46.3695C243.859 46.8015 244.453 47.1675 245.197 47.4675C245.953 47.7555 246.745 47.8995 247.573 47.8995C248.365 47.8995 249.007 47.8035 249.499 47.6115C250.003 47.4075 250.369 47.1375 250.597 46.8015C250.837 46.4655 250.957 46.0935 250.957 45.6855C250.957 45.1935 250.813 44.7975 250.525 44.4975C250.249 44.1975 249.883 43.9635 249.427 43.7955C248.971 43.6155 248.467 43.4595 247.915 43.3275C247.363 43.1955 246.811 43.0575 246.259 42.9135C245.707 42.7575 245.197 42.5535 244.729 42.3015C244.273 42.0495 243.901 41.7195 243.613 41.3115C243.337 40.8915 243.199 40.3455 243.199 39.6735C243.199 39.0495 243.361 38.4795 243.685 37.9635C244.021 37.4355 244.531 37.0155 245.215 36.7035C245.899 36.3795 246.775 36.2175 247.843 36.2175C248.551 36.2175 249.253 36.3195 249.949 36.5235C250.645 36.7155 251.245 36.9855 251.749 37.3335L251.299 38.3955C250.759 38.0355 250.183 37.7715 249.571 37.6035C248.971 37.4355 248.389 37.3515 247.825 37.3515C247.069 37.3515 246.445 37.4535 245.953 37.6575C245.461 37.8615 245.095 38.1375 244.855 38.4855C244.627 38.8215 244.513 39.2055 244.513 39.6375C244.513 40.1295 244.651 40.5255 244.927 40.8255C245.215 41.1255 245.587 41.3595 246.043 41.5275C246.511 41.6955 247.021 41.8455 247.573 41.9775C248.125 42.1095 248.671 42.2535 249.211 42.4095C249.763 42.5655 250.267 42.7695 250.723 43.0215C251.191 43.2615 251.563 43.5855 251.839 43.9935C252.127 44.4015 252.271 44.9355 252.271 45.5955C252.271 46.2075 252.103 46.7775 251.767 47.3055C251.431 47.8215 250.915 48.2415 250.219 48.5655C249.535 48.8775 248.653 49.0335 247.573 49.0335ZM258.809 49.0155C258.005 49.0155 257.303 48.8655 256.703 48.5655C256.103 48.2655 255.635 47.8155 255.299 47.2155C254.975 46.6155 254.813 45.8655 254.813 44.9655V39.4755H256.091V44.8215C256.091 45.8295 256.337 46.5915 256.829 47.1075C257.333 47.6115 258.035 47.8635 258.935 47.8635C259.595 47.8635 260.165 47.7315 260.645 47.4675C261.137 47.1915 261.509 46.7955 261.761 46.2795C262.025 45.7635 262.157 45.1455 262.157 44.4255V39.4755H263.435V48.9255H262.211V46.3335L262.409 46.8015C262.109 47.4975 261.641 48.0435 261.005 48.4395C260.381 48.8235 259.649 49.0155 258.809 49.0155ZM271.875 49.0155C271.059 49.0155 270.321 48.8295 269.661 48.4575C269.001 48.0735 268.473 47.5275 268.077 46.8195C267.693 46.0995 267.501 45.2235 267.501 44.1915C267.501 43.1595 267.693 42.2895 268.077 41.5815C268.461 40.8615 268.983 40.3155 269.643 39.9435C270.303 39.5715 271.047 39.3855 271.875 39.3855C272.775 39.3855 273.579 39.5895 274.287 39.9975C275.007 40.3935 275.571 40.9575 275.979 41.6895C276.387 42.4095 276.591 43.2435 276.591 44.1915C276.591 45.1515 276.387 45.9915 275.979 46.7115C275.571 47.4315 275.007 47.9955 274.287 48.4035C273.579 48.8115 272.775 49.0155 271.875 49.0155ZM266.997 52.4175V39.4755H268.221V42.3195L268.095 44.2095L268.275 46.1175V52.4175H266.997ZM271.785 47.8815C272.457 47.8815 273.057 47.7315 273.585 47.4315C274.113 47.1195 274.533 46.6875 274.845 46.1355C275.157 45.5715 275.313 44.9235 275.313 44.1915C275.313 43.4595 275.157 42.8175 274.845 42.2655C274.533 41.7135 274.113 41.2815 273.585 40.9695C273.057 40.6575 272.457 40.5015 271.785 40.5015C271.113 40.5015 270.507 40.6575 269.967 40.9695C269.439 41.2815 269.019 41.7135 268.707 42.2655C268.407 42.8175 268.257 43.4595 268.257 44.1915C268.257 44.9235 268.407 45.5715 268.707 46.1355C269.019 46.6875 269.439 47.1195 269.967 47.4315C270.507 47.7315 271.113 47.8815 271.785 47.8815ZM284.074 49.0155C283.258 49.0155 282.52 48.8295 281.86 48.4575C281.2 48.0735 280.672 47.5275 280.276 46.8195C279.892 46.0995 279.7 45.2235 279.7 44.1915C279.7 43.1595 279.892 42.2895 280.276 41.5815C280.66 40.8615 281.182 40.3155 281.842 39.9435C282.502 39.5715 283.246 39.3855 284.074 39.3855C284.974 39.3855 285.778 39.5895 286.486 39.9975C287.206 40.3935 287.77 40.9575 288.178 41.6895C288.586 42.4095 288.79 43.2435 288.79 44.1915C288.79 45.1515 288.586 45.9915 288.178 46.7115C287.77 47.4315 287.206 47.9955 286.486 48.4035C285.778 48.8115 284.974 49.0155 284.074 49.0155ZM279.196 52.4175V39.4755H280.42V42.3195L280.294 44.2095L280.474 46.1175V52.4175H279.196ZM283.984 47.8815C284.656 47.8815 285.256 47.7315 285.784 47.4315C286.312 47.1195 286.732 46.6875 287.044 46.1355C287.356 45.5715 287.512 44.9235 287.512 44.1915C287.512 43.4595 287.356 42.8175 287.044 42.2655C286.732 41.7135 286.312 41.2815 285.784 40.9695C285.256 40.6575 284.656 40.5015 283.984 40.5015C283.312 40.5015 282.706 40.6575 282.166 40.9695C281.638 41.2815 281.218 41.7135 280.906 42.2655C280.606 42.8175 280.456 43.4595 280.456 44.1915C280.456 44.9235 280.606 45.5715 280.906 46.1355C281.218 46.6875 281.638 47.1195 282.166 47.4315C282.706 47.7315 283.312 47.8815 283.984 47.8815ZM295.247 49.0155C294.335 49.0155 293.513 48.8115 292.781 48.4035C292.061 47.9835 291.491 47.4135 291.071 46.6935C290.651 45.9615 290.441 45.1275 290.441 44.1915C290.441 43.2435 290.651 42.4095 291.071 41.6895C291.491 40.9695 292.061 40.4055 292.781 39.9975C293.501 39.5895 294.323 39.3855 295.247 39.3855C296.183 39.3855 297.011 39.5895 297.731 39.9975C298.463 40.4055 299.033 40.9695 299.441 41.6895C299.861 42.4095 300.071 43.2435 300.071 44.1915C300.071 45.1275 299.861 45.9615 299.441 46.6935C299.033 47.4135 298.463 47.9835 297.731 48.4035C296.999 48.8115 296.171 49.0155 295.247 49.0155ZM295.247 47.8815C295.931 47.8815 296.537 47.7315 297.065 47.4315C297.593 47.1195 298.007 46.6875 298.307 46.1355C298.619 45.5715 298.775 44.9235 298.775 44.1915C298.775 43.4475 298.619 42.7995 298.307 42.2475C298.007 41.6955 297.593 41.2695 297.065 40.9695C296.537 40.6575 295.937 40.5015 295.265 40.5015C294.593 40.5015 293.993 40.6575 293.465 40.9695C292.937 41.2695 292.517 41.6955 292.205 42.2475C291.893 42.7995 291.737 43.4475 291.737 44.1915C291.737 44.9235 291.893 45.5715 292.205 46.1355C292.517 46.6875 292.937 47.1195 293.465 47.4315C293.993 47.7315 294.587 47.8815 295.247 47.8815ZM302.68 48.9255V39.4755H303.904V42.0495L303.778 41.5995C304.042 40.8795 304.486 40.3335 305.11 39.9615C305.734 39.5775 306.508 39.3855 307.432 39.3855V40.6275C307.384 40.6275 307.336 40.6275 307.288 40.6275C307.24 40.6155 307.192 40.6095 307.144 40.6095C306.148 40.6095 305.368 40.9155 304.804 41.5275C304.24 42.1275 303.958 42.9855 303.958 44.1015V48.9255H302.68ZM313.157 49.0155C312.269 49.0155 311.585 48.7755 311.105 48.2955C310.625 47.8155 310.385 47.1375 310.385 46.2615V37.3875H311.663V46.1895C311.663 46.7415 311.801 47.1675 312.077 47.4675C312.365 47.7675 312.773 47.9175 313.301 47.9175C313.865 47.9175 314.333 47.7555 314.705 47.4315L315.155 48.3495C314.903 48.5775 314.597 48.7455 314.237 48.8535C313.889 48.9615 313.529 49.0155 313.157 49.0155ZM308.693 40.5375V39.4755H314.543V40.5375H308.693ZM316.883 51.5535L317.675 48.2235L317.819 48.9975C317.543 48.9975 317.309 48.9075 317.117 48.7275C316.937 48.5475 316.847 48.3135 316.847 48.0255C316.847 47.7375 316.937 47.5035 317.117 47.3235C317.309 47.1435 317.537 47.0535 317.801 47.0535C318.077 47.0535 318.299 47.1495 318.467 47.3415C318.647 47.5335 318.737 47.7615 318.737 48.0255C318.737 48.1215 318.731 48.2175 318.719 48.3135C318.707 48.4095 318.683 48.5175 318.647 48.6375C318.611 48.7575 318.563 48.9015 318.503 49.0695L317.747 51.5535H316.883ZM330.196 49.0155C329.212 49.0155 328.348 48.8115 327.604 48.4035C326.86 47.9835 326.278 47.4135 325.858 46.6935C325.438 45.9615 325.228 45.1275 325.228 44.1915C325.228 43.2555 325.426 42.4275 325.822 41.7075C326.23 40.9875 326.782 40.4235 327.478 40.0155C328.186 39.5955 328.978 39.3855 329.854 39.3855C330.742 39.3855 331.528 39.5895 332.212 39.9975C332.908 40.3935 333.454 40.9575 333.85 41.6895C334.246 42.4095 334.444 43.2435 334.444 44.1915C334.444 44.2515 334.438 44.3175 334.426 44.3895C334.426 44.4495 334.426 44.5155 334.426 44.5875H326.2V43.6335H333.742L333.238 44.0115C333.238 43.3275 333.088 42.7215 332.788 42.1935C332.5 41.6535 332.104 41.2335 331.6 40.9335C331.096 40.6335 330.514 40.4835 329.854 40.4835C329.206 40.4835 328.624 40.6335 328.108 40.9335C327.592 41.2335 327.19 41.6535 326.902 42.1935C326.614 42.7335 326.47 43.3515 326.47 44.0475V44.2455C326.47 44.9655 326.626 45.6015 326.938 46.1535C327.262 46.6935 327.706 47.1195 328.27 47.4315C328.846 47.7315 329.5 47.8815 330.232 47.8815C330.808 47.8815 331.342 47.7795 331.834 47.5755C332.338 47.3715 332.77 47.0595 333.13 46.6395L333.85 47.4675C333.43 47.9715 332.902 48.3555 332.266 48.6195C331.642 48.8835 330.952 49.0155 330.196 49.0155ZM340.034 49.0155C339.146 49.0155 338.462 48.7755 337.982 48.2955C337.502 47.8155 337.262 47.1375 337.262 46.2615V37.3875H338.54V46.1895C338.54 46.7415 338.678 47.1675 338.954 47.4675C339.242 47.7675 339.65 47.9175 340.178 47.9175C340.742 47.9175 341.21 47.7555 341.582 47.4315L342.032 48.3495C341.78 48.5775 341.474 48.7455 341.114 48.8535C340.766 48.9615 340.406 49.0155 340.034 49.0155ZM335.57 40.5375V39.4755H341.42V40.5375H335.57ZM347.948 49.0155C347.012 49.0155 346.172 48.8115 345.428 48.4035C344.696 47.9835 344.12 47.4135 343.7 46.6935C343.28 45.9615 343.07 45.1275 343.07 44.1915C343.07 43.2435 343.28 42.4095 343.7 41.6895C344.12 40.9695 344.696 40.4055 345.428 39.9975C346.172 39.5895 347.012 39.3855 347.948 39.3855C348.752 39.3855 349.478 39.5415 350.126 39.8535C350.774 40.1655 351.284 40.6335 351.656 41.2575L350.702 41.9055C350.378 41.4255 349.976 41.0715 349.496 40.8435C349.016 40.6155 348.494 40.5015 347.93 40.5015C347.258 40.5015 346.652 40.6575 346.112 40.9695C345.572 41.2695 345.146 41.6955 344.834 42.2475C344.522 42.7995 344.366 43.4475 344.366 44.1915C344.366 44.9355 344.522 45.5835 344.834 46.1355C345.146 46.6875 345.572 47.1195 346.112 47.4315C346.652 47.7315 347.258 47.8815 347.93 47.8815C348.494 47.8815 349.016 47.7675 349.496 47.5395C349.976 47.3115 350.378 46.9635 350.702 46.4955L351.656 47.1435C351.284 47.7555 350.774 48.2235 350.126 48.5475C349.478 48.8595 348.752 49.0155 347.948 49.0155ZM354.644 49.0155C354.38 49.0155 354.152 48.9195 353.96 48.7275C353.78 48.5355 353.69 48.3015 353.69 48.0255C353.69 47.7375 353.78 47.5035 353.96 47.3235C354.152 47.1435 354.38 47.0535 354.644 47.0535C354.908 47.0535 355.13 47.1435 355.31 47.3235C355.502 47.5035 355.598 47.7375 355.598 48.0255C355.598 48.3015 355.502 48.5355 355.31 48.7275C355.13 48.9195 354.908 49.0155 354.644 49.0155Z" fill="#888888"/>
<path d="M1.5 42.9255C1.5 20.2819 19.8563 1.92554 42.5 1.92554H499.5V83.9255H42.5C19.8563 83.9255 1.5 65.5692 1.5 42.9255Z" stroke="#DEDEDE" stroke-width="2"/>
<path d="M500.5 0.925537H691.5C714.696 0.925537 733.5 19.7296 733.5 42.9255C733.5 66.1215 714.696 84.9255 691.5 84.9255H500.5V0.925537Z" fill="black"/>
<path d="M549.92 35.9855V37.4655H543.86V42.1655H548.78V43.6455H543.86V49.9255H542.04V35.9855H549.92ZM552.058 37.1855C551.711 37.1855 551.418 37.0655 551.178 36.8255C550.938 36.5855 550.818 36.2922 550.818 35.9455C550.818 35.5989 550.938 35.3055 551.178 35.0655C551.418 34.8255 551.711 34.7055 552.058 34.7055C552.391 34.7055 552.671 34.8255 552.898 35.0655C553.138 35.3055 553.258 35.5989 553.258 35.9455C553.258 36.2922 553.138 36.5855 552.898 36.8255C552.671 37.0655 552.391 37.1855 552.058 37.1855ZM552.938 38.9655V49.9255H551.118V38.9655H552.938ZM560.38 38.7655C561.713 38.7655 562.793 39.1722 563.62 39.9855C564.447 40.7855 564.86 41.9455 564.86 43.4655V49.9255H563.06V43.7255C563.06 42.6322 562.787 41.7989 562.24 41.2255C561.693 40.6389 560.947 40.3455 560 40.3455C559.04 40.3455 558.273 40.6455 557.7 41.2455C557.14 41.8455 556.86 42.7189 556.86 43.8655V49.9255H555.04V38.9655H556.86V40.5255C557.22 39.9655 557.707 39.5322 558.32 39.2255C558.947 38.9189 559.633 38.7655 560.38 38.7655ZM566.153 44.4055C566.153 43.2855 566.38 42.3055 566.833 41.4655C567.286 40.6122 567.906 39.9522 568.693 39.4855C569.493 39.0189 570.386 38.7855 571.373 38.7855C572.226 38.7855 573.02 38.9855 573.753 39.3855C574.486 39.7722 575.046 40.2855 575.433 40.9255V35.1255H577.273V49.9255H575.433V47.8655C575.073 48.5189 574.54 49.0589 573.833 49.4855C573.126 49.8989 572.3 50.1055 571.353 50.1055C570.38 50.1055 569.493 49.8655 568.693 49.3855C567.906 48.9055 567.286 48.2322 566.833 47.3655C566.38 46.4989 566.153 45.5122 566.153 44.4055ZM575.433 44.4255C575.433 43.5989 575.266 42.8789 574.933 42.2655C574.6 41.6522 574.146 41.1855 573.573 40.8655C573.013 40.5322 572.393 40.3655 571.713 40.3655C571.033 40.3655 570.413 40.5255 569.853 40.8455C569.293 41.1655 568.846 41.6322 568.513 42.2455C568.18 42.8589 568.013 43.5789 568.013 44.4055C568.013 45.2455 568.18 45.9789 568.513 46.6055C568.846 47.2189 569.293 47.6922 569.853 48.0255C570.413 48.3455 571.033 48.5055 571.713 48.5055C572.393 48.5055 573.013 48.3455 573.573 48.0255C574.146 47.6922 574.6 47.2189 574.933 46.6055C575.266 45.9789 575.433 45.2522 575.433 44.4255ZM583.001 44.4055C583.001 43.2855 583.227 42.3055 583.681 41.4655C584.134 40.6122 584.754 39.9522 585.541 39.4855C586.341 39.0189 587.227 38.7855 588.201 38.7855C589.161 38.7855 589.994 38.9922 590.701 39.4055C591.407 39.8189 591.934 40.3389 592.281 40.9655V38.9655H594.121V49.9255H592.281V47.8855C591.921 48.5255 591.381 49.0589 590.661 49.4855C589.954 49.8989 589.127 50.1055 588.181 50.1055C587.207 50.1055 586.327 49.8655 585.541 49.3855C584.754 48.9055 584.134 48.2322 583.681 47.3655C583.227 46.4989 583.001 45.5122 583.001 44.4055ZM592.281 44.4255C592.281 43.5989 592.114 42.8789 591.781 42.2655C591.447 41.6522 590.994 41.1855 590.421 40.8655C589.861 40.5322 589.241 40.3655 588.561 40.3655C587.881 40.3655 587.261 40.5255 586.701 40.8455C586.141 41.1655 585.694 41.6322 585.361 42.2455C585.027 42.8589 584.861 43.5789 584.861 44.4055C584.861 45.2455 585.027 45.9789 585.361 46.6055C585.694 47.2189 586.141 47.6922 586.701 48.0255C587.261 48.3455 587.881 48.5055 588.561 48.5055C589.241 48.5055 589.861 48.3455 590.421 48.0255C590.994 47.6922 591.447 47.2189 591.781 46.6055C592.114 45.9789 592.281 45.2522 592.281 44.4255ZM601.536 38.7655C602.87 38.7655 603.95 39.1722 604.776 39.9855C605.603 40.7855 606.016 41.9455 606.016 43.4655V49.9255H604.216V43.7255C604.216 42.6322 603.943 41.7989 603.396 41.2255C602.85 40.6389 602.103 40.3455 601.156 40.3455C600.196 40.3455 599.43 40.6455 598.856 41.2455C598.296 41.8455 598.016 42.7189 598.016 43.8655V49.9255H596.196V38.9655H598.016V40.5255C598.376 39.9655 598.863 39.5322 599.476 39.2255C600.103 38.9189 600.79 38.7655 601.536 38.7655ZM620.561 46.8255H614.481L613.361 49.9255H611.441L616.481 36.0655H618.581L623.601 49.9255H621.681L620.561 46.8255ZM620.041 45.3455L617.521 38.3055L615.001 45.3455H620.041ZM628.678 50.1055C627.838 50.1055 627.084 49.9655 626.418 49.6855C625.751 49.3922 625.224 48.9922 624.838 48.4855C624.451 47.9655 624.238 47.3722 624.198 46.7055H626.078C626.131 47.2522 626.384 47.6989 626.838 48.0455C627.304 48.3922 627.911 48.5655 628.658 48.5655C629.351 48.5655 629.898 48.4122 630.298 48.1055C630.698 47.7989 630.898 47.4122 630.898 46.9455C630.898 46.4655 630.684 46.1122 630.258 45.8855C629.831 45.6455 629.171 45.4122 628.278 45.1855C627.464 44.9722 626.798 44.7589 626.278 44.5455C625.771 44.3189 625.331 43.9922 624.958 43.5655C624.598 43.1255 624.418 42.5522 624.418 41.8455C624.418 41.2855 624.584 40.7722 624.918 40.3055C625.251 39.8389 625.724 39.4722 626.338 39.2055C626.951 38.9255 627.651 38.7855 628.438 38.7855C629.651 38.7855 630.631 39.0922 631.378 39.7055C632.124 40.3189 632.524 41.1589 632.578 42.2255H630.758C630.718 41.6522 630.484 41.1922 630.058 40.8455C629.644 40.4989 629.084 40.3255 628.378 40.3255C627.724 40.3255 627.204 40.4655 626.818 40.7455C626.431 41.0255 626.238 41.3922 626.238 41.8455C626.238 42.2055 626.351 42.5055 626.578 42.7455C626.818 42.9722 627.111 43.1589 627.458 43.3055C627.818 43.4389 628.311 43.5922 628.938 43.7655C629.724 43.9789 630.364 44.1922 630.858 44.4055C631.351 44.6055 631.771 44.9122 632.118 45.3255C632.478 45.7389 632.664 46.2789 632.678 46.9455C632.678 47.5455 632.511 48.0855 632.178 48.5655C631.844 49.0455 631.371 49.4255 630.758 49.7055C630.158 49.9722 629.464 50.1055 628.678 50.1055ZM638.127 50.1055C637.287 50.1055 636.534 49.9655 635.867 49.6855C635.2 49.3922 634.674 48.9922 634.287 48.4855C633.9 47.9655 633.687 47.3722 633.647 46.7055H635.527C635.58 47.2522 635.834 47.6989 636.287 48.0455C636.754 48.3922 637.36 48.5655 638.107 48.5655C638.8 48.5655 639.347 48.4122 639.747 48.1055C640.147 47.7989 640.347 47.4122 640.347 46.9455C640.347 46.4655 640.134 46.1122 639.707 45.8855C639.28 45.6455 638.62 45.4122 637.727 45.1855C636.914 44.9722 636.247 44.7589 635.727 44.5455C635.22 44.3189 634.78 43.9922 634.407 43.5655C634.047 43.1255 633.867 42.5522 633.867 41.8455C633.867 41.2855 634.034 40.7722 634.367 40.3055C634.7 39.8389 635.174 39.4722 635.787 39.2055C636.4 38.9255 637.1 38.7855 637.887 38.7855C639.1 38.7855 640.08 39.0922 640.827 39.7055C641.574 40.3189 641.974 41.1589 642.027 42.2255H640.207C640.167 41.6522 639.934 41.1922 639.507 40.8455C639.094 40.4989 638.534 40.3255 637.827 40.3255C637.174 40.3255 636.654 40.4655 636.267 40.7455C635.88 41.0255 635.687 41.3922 635.687 41.8455C635.687 42.2055 635.8 42.5055 636.027 42.7455C636.267 42.9722 636.56 43.1589 636.907 43.3055C637.267 43.4389 637.76 43.5922 638.387 43.7655C639.174 43.9789 639.814 44.1922 640.307 44.4055C640.8 44.6055 641.22 44.9122 641.567 45.3255C641.927 45.7389 642.114 46.2789 642.127 46.9455C642.127 47.5455 641.96 48.0855 641.627 48.5655C641.294 49.0455 640.82 49.4255 640.207 49.7055C639.607 49.9722 638.914 50.1055 638.127 50.1055ZM644.636 37.1855C644.29 37.1855 643.996 37.0655 643.756 36.8255C643.516 36.5855 643.396 36.2922 643.396 35.9455C643.396 35.5989 643.516 35.3055 643.756 35.0655C643.996 34.8255 644.29 34.7055 644.636 34.7055C644.97 34.7055 645.25 34.8255 645.476 35.0655C645.716 35.3055 645.836 35.5989 645.836 35.9455C645.836 36.2922 645.716 36.5855 645.476 36.8255C645.25 37.0655 644.97 37.1855 644.636 37.1855ZM645.516 38.9655V49.9255H643.696V38.9655H645.516ZM651.498 50.1055C650.658 50.1055 649.905 49.9655 649.238 49.6855C648.571 49.3922 648.045 48.9922 647.658 48.4855C647.271 47.9655 647.058 47.3722 647.018 46.7055H648.898C648.951 47.2522 649.205 47.6989 649.658 48.0455C650.125 48.3922 650.731 48.5655 651.478 48.5655C652.171 48.5655 652.718 48.4122 653.118 48.1055C653.518 47.7989 653.718 47.4122 653.718 46.9455C653.718 46.4655 653.505 46.1122 653.078 45.8855C652.651 45.6455 651.991 45.4122 651.098 45.1855C650.285 44.9722 649.618 44.7589 649.098 44.5455C648.591 44.3189 648.151 43.9922 647.778 43.5655C647.418 43.1255 647.238 42.5522 647.238 41.8455C647.238 41.2855 647.405 40.7722 647.738 40.3055C648.071 39.8389 648.545 39.4722 649.158 39.2055C649.771 38.9255 650.471 38.7855 651.258 38.7855C652.471 38.7855 653.451 39.0922 654.198 39.7055C654.945 40.3189 655.345 41.1589 655.398 42.2255H653.578C653.538 41.6522 653.305 41.1922 652.878 40.8455C652.465 40.4989 651.905 40.3255 651.198 40.3255C650.545 40.3255 650.025 40.4655 649.638 40.7455C649.251 41.0255 649.058 41.3922 649.058 41.8455C649.058 42.2055 649.171 42.5055 649.398 42.7455C649.638 42.9722 649.931 43.1589 650.278 43.3055C650.638 43.4389 651.131 43.5922 651.758 43.7655C652.545 43.9789 653.185 44.1922 653.678 44.4055C654.171 44.6055 654.591 44.9122 654.938 45.3255C655.298 45.7389 655.485 46.2789 655.498 46.9455C655.498 47.5455 655.331 48.0855 654.998 48.5655C654.665 49.0455 654.191 49.4255 653.578 49.7055C652.978 49.9722 652.285 50.1055 651.498 50.1055ZM659.287 40.4655V46.9255C659.287 47.4589 659.401 47.8389 659.627 48.0655C659.854 48.2789 660.247 48.3855 660.807 48.3855H662.147V49.9255H660.507C659.494 49.9255 658.734 49.6922 658.227 49.2255C657.721 48.7589 657.467 47.9922 657.467 46.9255V40.4655H656.047V38.9655H657.467V36.2055H659.287V38.9655H662.147V40.4655H659.287ZM662.673 44.4055C662.673 43.2855 662.899 42.3055 663.353 41.4655C663.806 40.6122 664.426 39.9522 665.213 39.4855C666.013 39.0189 666.899 38.7855 667.873 38.7855C668.833 38.7855 669.666 38.9922 670.373 39.4055C671.079 39.8189 671.606 40.3389 671.953 40.9655V38.9655H673.793V49.9255H671.953V47.8855C671.593 48.5255 671.053 49.0589 670.333 49.4855C669.626 49.8989 668.799 50.1055 667.853 50.1055C666.879 50.1055 665.999 49.8655 665.213 49.3855C664.426 48.9055 663.806 48.2322 663.353 47.3655C662.899 46.4989 662.673 45.5122 662.673 44.4055ZM671.953 44.4255C671.953 43.5989 671.786 42.8789 671.453 42.2655C671.119 41.6522 670.666 41.1855 670.093 40.8655C669.533 40.5322 668.913 40.3655 668.233 40.3655C667.553 40.3655 666.933 40.5255 666.373 40.8455C665.813 41.1655 665.366 41.6322 665.033 42.2455C664.699 42.8589 664.533 43.5789 664.533 44.4055C664.533 45.2455 664.699 45.9789 665.033 46.6055C665.366 47.2189 665.813 47.6922 666.373 48.0255C666.933 48.3455 667.553 48.5055 668.233 48.5055C668.913 48.5055 669.533 48.3455 670.093 48.0255C670.666 47.6922 671.119 47.2189 671.453 46.6055C671.786 45.9789 671.953 45.2522 671.953 44.4255ZM681.208 38.7655C682.541 38.7655 683.621 39.1722 684.448 39.9855C685.275 40.7855 685.688 41.9455 685.688 43.4655V49.9255H683.888V43.7255C683.888 42.6322 683.615 41.7989 683.068 41.2255C682.521 40.6389 681.775 40.3455 680.828 40.3455C679.868 40.3455 679.101 40.6455 678.528 41.2455C677.968 41.8455 677.688 42.7189 677.688 43.8655V49.9255H675.868V38.9655H677.688V40.5255C678.048 39.9655 678.535 39.5322 679.148 39.2255C679.775 38.9189 680.461 38.7655 681.208 38.7655ZM689.881 40.4655V46.9255C689.881 47.4589 689.994 47.8389 690.221 48.0655C690.448 48.2789 690.841 48.3855 691.401 48.3855H692.741V49.9255H691.101C690.088 49.9255 689.328 49.6922 688.821 49.2255C688.314 48.7589 688.061 47.9922 688.061 46.9255V40.4655H686.641V38.9655H688.061V36.2055H689.881V38.9655H692.741V40.4655H689.881Z" fill="white"/>
</svg>
