<svg width="748" height="126" viewBox="0 0 748 126" fill="none" xmlns="http://www.w3.org/2000/svg">
<path d="M5.268 21.0375C4.532 21.0375 3.87067 20.9095 3.284 20.6535C2.708 20.3869 2.25467 20.0242 1.924 19.5655C1.59333 19.0962 1.42267 18.5575 1.412 17.9495H2.964C3.01733 18.4722 3.23067 18.9149 3.604 19.2775C3.988 19.6295 4.54267 19.8055 5.268 19.8055C5.96133 19.8055 6.50533 19.6349 6.9 19.2935C7.30533 18.9415 7.508 18.4935 7.508 17.9495C7.508 17.5229 7.39067 17.1762 7.156 16.9095C6.92133 16.6429 6.628 16.4402 6.276 16.3015C5.924 16.1629 5.44933 16.0135 4.852 15.8535C4.116 15.6615 3.524 15.4695 3.076 15.2775C2.63867 15.0855 2.26 14.7869 1.94 14.3815C1.63067 13.9655 1.476 13.4109 1.476 12.7175C1.476 12.1095 1.63067 11.5709 1.94 11.1015C2.24933 10.6322 2.68133 10.2695 3.236 10.0135C3.80133 9.75754 4.44667 9.62954 5.172 9.62954C6.21733 9.62954 7.07067 9.89087 7.732 10.4135C8.404 10.9362 8.78267 11.6295 8.868 12.4935H7.268C7.21467 12.0669 6.99067 11.6935 6.596 11.3735C6.20133 11.0429 5.67867 10.8775 5.028 10.8775C4.42 10.8775 3.924 11.0375 3.54 11.3575C3.156 11.6669 2.964 12.1042 2.964 12.6695C2.964 13.0749 3.076 13.4055 3.3 13.6615C3.53467 13.9175 3.81733 14.1149 4.148 14.2535C4.48933 14.3815 4.964 14.5309 5.572 14.7015C6.308 14.9042 6.9 15.1069 7.348 15.3095C7.796 15.5015 8.18 15.8055 8.5 16.2215C8.82 16.6269 8.98 17.1815 8.98 17.8855C8.98 18.4295 8.836 18.9415 8.548 19.4215C8.26 19.9015 7.83333 20.2909 7.268 20.5895C6.70267 20.8882 6.036 21.0375 5.268 21.0375ZM18.3226 16.2055C18.3226 16.4829 18.3066 16.7762 18.2746 17.0855H11.2666C11.32 17.9495 11.6133 18.6269 12.1466 19.1175C12.6906 19.5975 13.3466 19.8375 14.1146 19.8375C14.744 19.8375 15.2666 19.6935 15.6826 19.4055C16.1093 19.1069 16.408 18.7122 16.5786 18.2215H18.1466C17.912 19.0642 17.4426 19.7522 16.7386 20.2855C16.0346 20.8082 15.16 21.0695 14.1146 21.0695C13.2826 21.0695 12.536 20.8829 11.8746 20.5095C11.224 20.1362 10.712 19.6082 10.3386 18.9255C9.96529 18.2322 9.77862 17.4322 9.77862 16.5255C9.77862 15.6189 9.95996 14.8242 10.3226 14.1415C10.6853 13.4589 11.192 12.9362 11.8426 12.5735C12.504 12.2002 13.2613 12.0135 14.1146 12.0135C14.9466 12.0135 15.6826 12.1949 16.3226 12.5575C16.9626 12.9202 17.4533 13.4215 17.7946 14.0615C18.1466 14.6909 18.3226 15.4055 18.3226 16.2055ZM16.8186 15.9015C16.8186 15.3469 16.696 14.8722 16.4506 14.4775C16.2053 14.0722 15.8693 13.7682 15.4426 13.5655C15.0266 13.3522 14.5626 13.2455 14.0506 13.2455C13.3146 13.2455 12.6853 13.4802 12.1626 13.9495C11.6506 14.4189 11.3573 15.0695 11.2826 15.9015H16.8186ZM18.9005 16.5095C18.9005 15.6135 19.0818 14.8295 19.4445 14.1575C19.8072 13.4749 20.3032 12.9469 20.9325 12.5735C21.5725 12.2002 22.2818 12.0135 23.0605 12.0135C23.8285 12.0135 24.4952 12.1789 25.0605 12.5095C25.6258 12.8402 26.0472 13.2562 26.3245 13.7575V12.1575H27.7965V20.9255H26.3245V19.2935C26.0365 19.8055 25.6045 20.2322 25.0285 20.5735C24.4632 20.9042 23.8018 21.0695 23.0445 21.0695C22.2658 21.0695 21.5618 20.8775 20.9325 20.4935C20.3032 20.1095 19.8072 19.5709 19.4445 18.8775C19.0818 18.1842 18.9005 17.3949 18.9005 16.5095ZM26.3245 16.5255C26.3245 15.8642 26.1912 15.2882 25.9245 14.7975C25.6578 14.3069 25.2952 13.9335 24.8365 13.6775C24.3885 13.4109 23.8925 13.2775 23.3485 13.2775C22.8045 13.2775 22.3085 13.4055 21.8605 13.6615C21.4125 13.9175 21.0552 14.2909 20.7885 14.7815C20.5218 15.2722 20.3885 15.8482 20.3885 16.5095C20.3885 17.1815 20.5218 17.7682 20.7885 18.2695C21.0552 18.7602 21.4125 19.1389 21.8605 19.4055C22.3085 19.6615 22.8045 19.7895 23.3485 19.7895C23.8925 19.7895 24.3885 19.6615 24.8365 19.4055C25.2952 19.1389 25.6578 18.7602 25.9245 18.2695C26.1912 17.7682 26.3245 17.1869 26.3245 16.5255ZM30.913 13.5815C31.169 13.0802 31.5317 12.6909 32.001 12.4135C32.481 12.1362 33.0623 11.9975 33.745 11.9975V13.5015H33.361C31.729 13.5015 30.913 14.3869 30.913 16.1575V20.9255H29.457V12.1575H30.913V13.5815ZM34.0817 16.5255C34.0817 15.6189 34.2631 14.8295 34.6257 14.1575C34.9884 13.4749 35.4897 12.9469 36.1297 12.5735C36.7804 12.2002 37.5217 12.0135 38.3537 12.0135C39.4311 12.0135 40.3164 12.2749 41.0097 12.7975C41.7137 13.3202 42.1777 14.0455 42.4017 14.9735H40.8337C40.6844 14.4402 40.3911 14.0189 39.9537 13.7095C39.5271 13.4002 38.9937 13.2455 38.3537 13.2455C37.5217 13.2455 36.8497 13.5335 36.3377 14.1095C35.8257 14.6749 35.5697 15.4802 35.5697 16.5255C35.5697 17.5815 35.8257 18.3975 36.3377 18.9735C36.8497 19.5495 37.5217 19.8375 38.3537 19.8375C38.9937 19.8375 39.5271 19.6882 39.9537 19.3895C40.3804 19.0909 40.6737 18.6642 40.8337 18.1095H42.4017C42.1671 19.0055 41.6977 19.7255 40.9937 20.2695C40.2897 20.8029 39.4097 21.0695 38.3537 21.0695C37.5217 21.0695 36.7804 20.8829 36.1297 20.5095C35.4897 20.1362 34.9884 19.6082 34.6257 18.9255C34.2631 18.2429 34.0817 17.4429 34.0817 16.5255ZM47.8965 11.9975C48.5578 11.9975 49.1552 12.1415 49.6885 12.4295C50.2218 12.7069 50.6378 13.1282 50.9365 13.6935C51.2458 14.2589 51.4005 14.9469 51.4005 15.7575V20.9255H49.9605V15.9655C49.9605 15.0909 49.7418 14.4242 49.3045 13.9655C48.8672 13.4962 48.2698 13.2615 47.5125 13.2615C46.7445 13.2615 46.1312 13.5015 45.6725 13.9815C45.2245 14.4615 45.0005 15.1602 45.0005 16.0775V20.9255H43.5445V9.08554H45.0005V13.4055C45.2885 12.9575 45.6832 12.6109 46.1845 12.3655C46.6965 12.1202 47.2672 11.9975 47.8965 11.9975ZM60.2685 21.0695C59.4472 21.0695 58.7005 20.8829 58.0285 20.5095C57.3672 20.1362 56.8445 19.6082 56.4605 18.9255C56.0872 18.2322 55.9005 17.4322 55.9005 16.5255C55.9005 15.6295 56.0925 14.8402 56.4765 14.1575C56.8712 13.4642 57.4045 12.9362 58.0765 12.5735C58.7485 12.2002 59.5005 12.0135 60.3325 12.0135C61.1645 12.0135 61.9165 12.2002 62.5885 12.5735C63.2605 12.9362 63.7885 13.4589 64.1725 14.1415C64.5672 14.8242 64.7645 15.6189 64.7645 16.5255C64.7645 17.4322 64.5618 18.2322 64.1565 18.9255C63.7618 19.6082 63.2232 20.1362 62.5405 20.5095C61.8578 20.8829 61.1005 21.0695 60.2685 21.0695ZM60.2685 19.7895C60.7912 19.7895 61.2818 19.6669 61.7405 19.4215C62.1992 19.1762 62.5672 18.8082 62.8445 18.3175C63.1325 17.8269 63.2765 17.2295 63.2765 16.5255C63.2765 15.8215 63.1378 15.2242 62.8605 14.7335C62.5832 14.2429 62.2205 13.8802 61.7725 13.6455C61.3245 13.4002 60.8392 13.2775 60.3165 13.2775C59.7832 13.2775 59.2925 13.4002 58.8445 13.6455C58.4072 13.8802 58.0552 14.2429 57.7885 14.7335C57.5218 15.2242 57.3885 15.8215 57.3885 16.5255C57.3885 17.2402 57.5165 17.8429 57.7725 18.3335C58.0392 18.8242 58.3912 19.1922 58.8285 19.4375C59.2658 19.6722 59.7458 19.7895 60.2685 19.7895ZM70.1509 11.9975C71.2175 11.9975 72.0815 12.3229 72.7429 12.9735C73.4042 13.6135 73.7349 14.5415 73.7349 15.7575V20.9255H72.2949V15.9655C72.2949 15.0909 72.0762 14.4242 71.6389 13.9655C71.2015 13.4962 70.6042 13.2615 69.8469 13.2615C69.0789 13.2615 68.4655 13.5015 68.0069 13.9815C67.5589 14.4615 67.3349 15.1602 67.3349 16.0775V20.9255H65.8789V12.1575H67.3349V13.4055C67.6229 12.9575 68.0122 12.6109 68.5029 12.3655C69.0042 12.1202 69.5535 11.9975 70.1509 11.9975ZM85.6429 9.77354V10.9575H82.6029V20.9255H81.1469V10.9575H78.0909V9.77354H85.6429ZM90.4591 21.0695C89.6378 21.0695 88.8911 20.8829 88.2191 20.5095C87.5578 20.1362 87.0351 19.6082 86.6511 18.9255C86.2778 18.2322 86.0911 17.4322 86.0911 16.5255C86.0911 15.6295 86.2831 14.8402 86.6671 14.1575C87.0618 13.4642 87.5951 12.9362 88.2671 12.5735C88.9391 12.2002 89.6911 12.0135 90.5231 12.0135C91.3551 12.0135 92.1071 12.2002 92.7791 12.5735C93.4511 12.9362 93.9791 13.4589 94.3631 14.1415C94.7578 14.8242 94.9551 15.6189 94.9551 16.5255C94.9551 17.4322 94.7525 18.2322 94.3471 18.9255C93.9525 19.6082 93.4138 20.1362 92.7311 20.5095C92.0485 20.8829 91.2911 21.0695 90.4591 21.0695ZM90.4591 19.7895C90.9818 19.7895 91.4725 19.6669 91.9311 19.4215C92.3898 19.1762 92.7578 18.8082 93.0351 18.3175C93.3231 17.8269 93.4671 17.2295 93.4671 16.5255C93.4671 15.8215 93.3285 15.2242 93.0511 14.7335C92.7738 14.2429 92.4111 13.8802 91.9631 13.6455C91.5151 13.4002 91.0298 13.2775 90.5071 13.2775C89.9738 13.2775 89.4831 13.4002 89.0351 13.6455C88.5978 13.8802 88.2458 14.2429 87.9791 14.7335C87.7125 15.2242 87.5791 15.8215 87.5791 16.5255C87.5791 17.2402 87.7071 17.8429 87.9631 18.3335C88.2298 18.8242 88.5818 19.1922 89.0191 19.4375C89.4565 19.6722 89.9365 19.7895 90.4591 19.7895ZM97.5255 13.7735C97.8135 13.2722 98.2402 12.8562 98.8055 12.5255C99.3815 12.1842 100.048 12.0135 100.806 12.0135C101.584 12.0135 102.288 12.2002 102.918 12.5735C103.558 12.9469 104.059 13.4749 104.422 14.1575C104.784 14.8295 104.966 15.6135 104.966 16.5095C104.966 17.3949 104.784 18.1842 104.422 18.8775C104.059 19.5709 103.558 20.1095 102.918 20.4935C102.288 20.8775 101.584 21.0695 100.806 21.0695C100.059 21.0695 99.3975 20.9042 98.8215 20.5735C98.2562 20.2322 97.8242 19.8109 97.5255 19.3095V25.0855H96.0695V12.1575H97.5255V13.7735ZM103.478 16.5095C103.478 15.8482 103.344 15.2722 103.078 14.7815C102.811 14.2909 102.448 13.9175 101.99 13.6615C101.542 13.4055 101.046 13.2775 100.502 13.2775C99.9682 13.2775 99.4722 13.4109 99.0135 13.6775C98.5655 13.9335 98.2028 14.3122 97.9255 14.8135C97.6588 15.3042 97.5255 15.8749 97.5255 16.5255C97.5255 17.1869 97.6588 17.7682 97.9255 18.2695C98.2028 18.7602 98.5655 19.1389 99.0135 19.4055C99.4722 19.6615 99.9682 19.7895 100.502 19.7895C101.046 19.7895 101.542 19.6615 101.99 19.4055C102.448 19.1389 102.811 18.7602 103.078 18.2695C103.344 17.7682 103.478 17.1815 103.478 16.5095ZM106.546 21.0215C106.269 21.0215 106.034 20.9255 105.842 20.7335C105.65 20.5415 105.554 20.3069 105.554 20.0295C105.554 19.7522 105.65 19.5175 105.842 19.3255C106.034 19.1335 106.269 19.0375 106.546 19.0375C106.813 19.0375 107.037 19.1335 107.218 19.3255C107.41 19.5175 107.506 19.7522 107.506 20.0295C107.506 20.3069 107.41 20.5415 107.218 20.7335C107.037 20.9255 106.813 21.0215 106.546 21.0215ZM106.546 14.1735C106.269 14.1735 106.034 14.0775 105.842 13.8855C105.65 13.6935 105.554 13.4589 105.554 13.1815C105.554 12.9042 105.65 12.6695 105.842 12.4775C106.034 12.2855 106.269 12.1895 106.546 12.1895C106.813 12.1895 107.037 12.2855 107.218 12.4775C107.41 12.6695 107.506 12.9042 107.506 13.1815C107.506 13.4589 107.41 13.6935 107.218 13.8855C107.037 14.0775 106.813 14.1735 106.546 14.1735Z" fill="black"/>
<rect x="1" y="50.4255" width="68" height="32" rx="16" fill="white" fill-opacity="0.4"/>
<path d="M21.842 61.1675L19.014 70.9255H17.586L15.318 63.0715L12.966 70.9255L11.552 70.9395L8.822 61.1675H10.18L12.308 69.4415L14.66 61.1675H16.088L18.328 69.4135L20.47 61.1675H21.842ZM29.5362 66.7955C29.5362 67.0382 29.5222 67.2949 29.4942 67.5655H23.3622C23.4089 68.3215 23.6655 68.9142 24.1322 69.3435C24.6082 69.7635 25.1822 69.9735 25.8542 69.9735C26.4049 69.9735 26.8622 69.8475 27.2262 69.5955C27.5995 69.3342 27.8609 68.9889 28.0102 68.5595H29.3822C29.1769 69.2969 28.7662 69.8989 28.1502 70.3655C27.5342 70.8229 26.7689 71.0515 25.8542 71.0515C25.1262 71.0515 24.4729 70.8882 23.8942 70.5615C23.3249 70.2349 22.8769 69.7729 22.5502 69.1755C22.2235 68.5689 22.0602 67.8689 22.0602 67.0755C22.0602 66.2822 22.2189 65.5869 22.5362 64.9895C22.8535 64.3922 23.2969 63.9349 23.8662 63.6175C24.4449 63.2909 25.1075 63.1275 25.8542 63.1275C26.5822 63.1275 27.2262 63.2862 27.7862 63.6035C28.3462 63.9209 28.7755 64.3595 29.0742 64.9195C29.3822 65.4702 29.5362 66.0955 29.5362 66.7955ZM28.2202 66.5295C28.2202 66.0442 28.1129 65.6289 27.8982 65.2835C27.6835 64.9289 27.3895 64.6629 27.0162 64.4855C26.6522 64.2989 26.2462 64.2055 25.7982 64.2055C25.1542 64.2055 24.6035 64.4109 24.1462 64.8215C23.6982 65.2322 23.4415 65.8015 23.3762 66.5295H28.2202ZM31.7918 64.6815C32.0532 64.2242 32.4358 63.8509 32.9398 63.5615C33.4438 63.2722 34.0178 63.1275 34.6618 63.1275C35.3525 63.1275 35.9732 63.2909 36.5238 63.6175C37.0745 63.9442 37.5085 64.4062 37.8258 65.0035C38.1432 65.5915 38.3018 66.2775 38.3018 67.0615C38.3018 67.8362 38.1432 68.5269 37.8258 69.1335C37.5085 69.7402 37.0698 70.2115 36.5098 70.5475C35.9592 70.8835 35.3432 71.0515 34.6618 71.0515C33.9992 71.0515 33.4158 70.9069 32.9118 70.6175C32.4172 70.3282 32.0438 69.9595 31.7918 69.5115V70.9255H30.5178V60.5655H31.7918V64.6815ZM36.9998 67.0615C36.9998 66.4829 36.8832 65.9789 36.6498 65.5495C36.4165 65.1202 36.0992 64.7935 35.6978 64.5695C35.3058 64.3455 34.8718 64.2335 34.3958 64.2335C33.9292 64.2335 33.4952 64.3502 33.0938 64.5835C32.7018 64.8075 32.3845 65.1389 32.1418 65.5775C31.9085 66.0069 31.7918 66.5062 31.7918 67.0755C31.7918 67.6542 31.9085 68.1629 32.1418 68.6015C32.3845 69.0309 32.7018 69.3622 33.0938 69.5955C33.4952 69.8195 33.9292 69.9315 34.3958 69.9315C34.8718 69.9315 35.3058 69.8195 35.6978 69.5955C36.0992 69.3622 36.4165 69.0309 36.6498 68.6015C36.8832 68.1629 36.9998 67.6495 36.9998 67.0615ZM41.9948 71.0515C41.4068 71.0515 40.8794 70.9535 40.4128 70.7575C39.9461 70.5522 39.5774 70.2722 39.3068 69.9175C39.0361 69.5535 38.8868 69.1382 38.8588 68.6715H40.1748C40.2121 69.0542 40.3894 69.3669 40.7068 69.6095C41.0334 69.8522 41.4581 69.9735 41.9808 69.9735C42.4661 69.9735 42.8488 69.8662 43.1288 69.6515C43.4088 69.4369 43.5488 69.1662 43.5488 68.8395C43.5488 68.5035 43.3994 68.2562 43.1008 68.0975C42.8021 67.9295 42.3401 67.7662 41.7148 67.6075C41.1454 67.4582 40.6788 67.3089 40.3148 67.1595C39.9601 67.0009 39.6521 66.7722 39.3908 66.4735C39.1388 66.1655 39.0128 65.7642 39.0128 65.2695C39.0128 64.8775 39.1294 64.5182 39.3628 64.1915C39.5961 63.8649 39.9274 63.6082 40.3568 63.4215C40.7861 63.2255 41.2761 63.1275 41.8268 63.1275C42.6761 63.1275 43.3621 63.3422 43.8848 63.7715C44.4074 64.2009 44.6874 64.7889 44.7248 65.5355H43.4508C43.4228 65.1342 43.2594 64.8122 42.9608 64.5695C42.6714 64.3269 42.2794 64.2055 41.7848 64.2055C41.3274 64.2055 40.9634 64.3035 40.6928 64.4995C40.4221 64.6955 40.2868 64.9522 40.2868 65.2695C40.2868 65.5215 40.3661 65.7315 40.5248 65.8995C40.6928 66.0582 40.8981 66.1889 41.1408 66.2915C41.3928 66.3849 41.7381 66.4922 42.1768 66.6135C42.7274 66.7629 43.1754 66.9122 43.5208 67.0615C43.8661 67.2015 44.1601 67.4162 44.4028 67.7055C44.6548 67.9949 44.7854 68.3729 44.7948 68.8395C44.7948 69.2595 44.6781 69.6375 44.4448 69.9735C44.2114 70.3095 43.8801 70.5755 43.4508 70.7715C43.0308 70.9582 42.5454 71.0515 41.9948 71.0515ZM46.5512 62.0075C46.3086 62.0075 46.1032 61.9235 45.9352 61.7555C45.7672 61.5875 45.6832 61.3822 45.6832 61.1395C45.6832 60.8969 45.7672 60.6915 45.9352 60.5235C46.1032 60.3555 46.3086 60.2715 46.5512 60.2715C46.7846 60.2715 46.9806 60.3555 47.1392 60.5235C47.3072 60.6915 47.3912 60.8969 47.3912 61.1395C47.3912 61.3822 47.3072 61.5875 47.1392 61.7555C46.9806 61.9235 46.7846 62.0075 46.5512 62.0075ZM47.1672 63.2535V70.9255H45.8932V63.2535H47.1672ZM50.1925 64.3035V68.8255C50.1925 69.1989 50.2719 69.4649 50.4305 69.6235C50.5892 69.7729 50.8645 69.8475 51.2565 69.8475H52.1945V70.9255H51.0465C50.3372 70.9255 49.8052 70.7622 49.4505 70.4355C49.0959 70.1089 48.9185 69.5722 48.9185 68.8255V64.3035H47.9245V63.2535H48.9185V61.3215H50.1925V63.2535H52.1945V64.3035H50.1925ZM60.0382 66.7955C60.0382 67.0382 60.0242 67.2949 59.9962 67.5655H53.8642C53.9108 68.3215 54.1675 68.9142 54.6342 69.3435C55.1102 69.7635 55.6842 69.9735 56.3562 69.9735C56.9068 69.9735 57.3642 69.8475 57.7282 69.5955C58.1015 69.3342 58.3628 68.9889 58.5122 68.5595H59.8842C59.6788 69.2969 59.2682 69.8989 58.6522 70.3655C58.0362 70.8229 57.2708 71.0515 56.3562 71.0515C55.6282 71.0515 54.9748 70.8882 54.3962 70.5615C53.8268 70.2349 53.3788 69.7729 53.0522 69.1755C52.7255 68.5689 52.5622 67.8689 52.5622 67.0755C52.5622 66.2822 52.7208 65.5869 53.0382 64.9895C53.3555 64.3922 53.7988 63.9349 54.3682 63.6175C54.9468 63.2909 55.6095 63.1275 56.3562 63.1275C57.0842 63.1275 57.7282 63.2862 58.2882 63.6035C58.8482 63.9209 59.2775 64.3595 59.5762 64.9195C59.8842 65.4702 60.0382 66.0955 60.0382 66.7955ZM58.7222 66.5295C58.7222 66.0442 58.6148 65.6289 58.4002 65.2835C58.1855 64.9289 57.8915 64.6629 57.5182 64.4855C57.1542 64.2989 56.7482 64.2055 56.3002 64.2055C55.6562 64.2055 55.1055 64.4109 54.6482 64.8215C54.2002 65.2322 53.9435 65.8015 53.8782 66.5295H58.7222Z" fill="black"/>
<rect x="1" y="50.4255" width="68" height="32" rx="16" stroke="#5A5A5A"/>
<rect x="80" y="50.4255" width="87" height="32" rx="16" fill="white" fill-opacity="0.4"/>
<path d="M98.476 61.2375V70.9255H97.202V63.7015L93.982 70.9255H93.086L89.852 63.6875V70.9255H88.578V61.2375H89.95L93.534 69.2455L97.118 61.2375H98.476ZM103.283 71.0515C102.564 71.0515 101.911 70.8882 101.323 70.5615C100.744 70.2349 100.287 69.7729 99.9506 69.1755C99.6239 68.5689 99.4606 67.8689 99.4606 67.0755C99.4606 66.2915 99.6286 65.6009 99.9646 65.0035C100.31 64.3969 100.777 63.9349 101.365 63.6175C101.953 63.2909 102.611 63.1275 103.339 63.1275C104.067 63.1275 104.725 63.2909 105.313 63.6175C105.901 63.9349 106.363 64.3922 106.699 64.9895C107.044 65.5869 107.217 66.2822 107.217 67.0755C107.217 67.8689 107.039 68.5689 106.685 69.1755C106.339 69.7729 105.868 70.2349 105.271 70.5615C104.673 70.8882 104.011 71.0515 103.283 71.0515ZM103.283 69.9315C103.74 69.9315 104.169 69.8242 104.571 69.6095C104.972 69.3949 105.294 69.0729 105.537 68.6435C105.789 68.2142 105.915 67.6915 105.915 67.0755C105.915 66.4595 105.793 65.9369 105.551 65.5075C105.308 65.0782 104.991 64.7609 104.599 64.5555C104.207 64.3409 103.782 64.2335 103.325 64.2335C102.858 64.2335 102.429 64.3409 102.037 64.5555C101.654 64.7609 101.346 65.0782 101.113 65.5075C100.879 65.9369 100.763 66.4595 100.763 67.0755C100.763 67.7009 100.875 68.2282 101.099 68.6575C101.332 69.0869 101.64 69.4089 102.023 69.6235C102.405 69.8289 102.825 69.9315 103.283 69.9315ZM109.466 64.6815C109.727 64.2242 110.11 63.8509 110.614 63.5615C111.118 63.2722 111.692 63.1275 112.336 63.1275C113.026 63.1275 113.647 63.2909 114.198 63.6175C114.748 63.9442 115.182 64.4062 115.5 65.0035C115.817 65.5915 115.976 66.2775 115.976 67.0615C115.976 67.8362 115.817 68.5269 115.5 69.1335C115.182 69.7402 114.744 70.2115 114.184 70.5475C113.633 70.8835 113.017 71.0515 112.336 71.0515C111.673 71.0515 111.09 70.9069 110.586 70.6175C110.091 70.3282 109.718 69.9595 109.466 69.5115V70.9255H108.192V60.5655H109.466V64.6815ZM114.674 67.0615C114.674 66.4829 114.557 65.9789 114.324 65.5495C114.09 65.1202 113.773 64.7935 113.372 64.5695C112.98 64.3455 112.546 64.2335 112.07 64.2335C111.603 64.2335 111.169 64.3502 110.768 64.5835C110.376 64.8075 110.058 65.1389 109.816 65.5775C109.582 66.0069 109.466 66.5062 109.466 67.0755C109.466 67.6542 109.582 68.1629 109.816 68.6015C110.058 69.0309 110.376 69.3622 110.768 69.5955C111.169 69.8195 111.603 69.9315 112.07 69.9315C112.546 69.9315 112.98 69.8195 113.372 69.5955C113.773 69.3622 114.09 69.0309 114.324 68.6015C114.557 68.1629 114.674 67.6495 114.674 67.0615ZM117.611 62.0075C117.368 62.0075 117.163 61.9235 116.995 61.7555C116.827 61.5875 116.743 61.3822 116.743 61.1395C116.743 60.8969 116.827 60.6915 116.995 60.5235C117.163 60.3555 117.368 60.2715 117.611 60.2715C117.844 60.2715 118.04 60.3555 118.199 60.5235C118.367 60.6915 118.451 60.8969 118.451 61.1395C118.451 61.3822 118.367 61.5875 118.199 61.7555C118.04 61.9235 117.844 62.0075 117.611 62.0075ZM118.227 63.2535V70.9255H116.953V63.2535H118.227ZM120.972 60.5655V70.9255H119.698V60.5655H120.972ZM129.443 66.7955C129.443 67.0382 129.429 67.2949 129.401 67.5655H123.269C123.316 68.3215 123.573 68.9142 124.039 69.3435C124.515 69.7635 125.089 69.9735 125.761 69.9735C126.312 69.9735 126.769 69.8475 127.133 69.5955C127.507 69.3342 127.768 68.9889 127.917 68.5595H129.289C129.084 69.2969 128.673 69.8989 128.057 70.3655C127.441 70.8229 126.676 71.0515 125.761 71.0515C125.033 71.0515 124.38 70.8882 123.801 70.5615C123.232 70.2349 122.784 69.7729 122.457 69.1755C122.131 68.5689 121.967 67.8689 121.967 67.0755C121.967 66.2822 122.126 65.5869 122.443 64.9895C122.761 64.3922 123.204 63.9349 123.773 63.6175C124.352 63.2909 125.015 63.1275 125.761 63.1275C126.489 63.1275 127.133 63.2862 127.693 63.6035C128.253 63.9209 128.683 64.3595 128.981 64.9195C129.289 65.4702 129.443 66.0955 129.443 66.7955ZM128.127 66.5295C128.127 66.0442 128.02 65.6289 127.805 65.2835C127.591 64.9289 127.297 64.6629 126.923 64.4855C126.559 64.2989 126.153 64.2055 125.705 64.2055C125.061 64.2055 124.511 64.4109 124.053 64.8215C123.605 65.2322 123.349 65.8015 123.283 66.5295H128.127ZM139.225 68.7555H134.969L134.185 70.9255H132.841L136.369 61.2235H137.839L141.353 70.9255H140.009L139.225 68.7555ZM138.861 67.7195L137.097 62.7915L135.333 67.7195H138.861ZM143.465 64.6675C143.717 64.2289 144.09 63.8649 144.585 63.5755C145.089 63.2769 145.672 63.1275 146.335 63.1275C147.016 63.1275 147.632 63.2909 148.183 63.6175C148.743 63.9442 149.182 64.4062 149.499 65.0035C149.816 65.5915 149.975 66.2775 149.975 67.0615C149.975 67.8362 149.816 68.5269 149.499 69.1335C149.182 69.7402 148.743 70.2115 148.183 70.5475C147.632 70.8835 147.016 71.0515 146.335 71.0515C145.682 71.0515 145.103 70.9069 144.599 70.6175C144.104 70.3189 143.726 69.9502 143.465 69.5115V74.5655H142.191V63.2535H143.465V64.6675ZM148.673 67.0615C148.673 66.4829 148.556 65.9789 148.323 65.5495C148.09 65.1202 147.772 64.7935 147.371 64.5695C146.979 64.3455 146.545 64.2335 146.069 64.2335C145.602 64.2335 145.168 64.3502 144.767 64.5835C144.375 64.8075 144.058 65.1389 143.815 65.5775C143.582 66.0069 143.465 66.5062 143.465 67.0755C143.465 67.6542 143.582 68.1629 143.815 68.6015C144.058 69.0309 144.375 69.3622 144.767 69.5955C145.168 69.8195 145.602 69.9315 146.069 69.9315C146.545 69.9315 146.979 69.8195 147.371 69.5955C147.772 69.3622 148.09 69.0309 148.323 68.6015C148.556 68.1629 148.673 67.6495 148.673 67.0615ZM152.226 64.6675C152.478 64.2289 152.851 63.8649 153.346 63.5755C153.85 63.2769 154.433 63.1275 155.096 63.1275C155.777 63.1275 156.393 63.2909 156.944 63.6175C157.504 63.9442 157.942 64.4062 158.26 65.0035C158.577 65.5915 158.736 66.2775 158.736 67.0615C158.736 67.8362 158.577 68.5269 158.26 69.1335C157.942 69.7402 157.504 70.2115 156.944 70.5475C156.393 70.8835 155.777 71.0515 155.096 71.0515C154.442 71.0515 153.864 70.9069 153.36 70.6175C152.865 70.3189 152.487 69.9502 152.226 69.5115V74.5655H150.952V63.2535H152.226V64.6675ZM157.434 67.0615C157.434 66.4829 157.317 65.9789 157.084 65.5495C156.85 65.1202 156.533 64.7935 156.132 64.5695C155.74 64.3455 155.306 64.2335 154.83 64.2335C154.363 64.2335 153.929 64.3502 153.528 64.5835C153.136 64.8075 152.818 65.1389 152.576 65.5775C152.342 66.0069 152.226 66.5062 152.226 67.0755C152.226 67.6542 152.342 68.1629 152.576 68.6015C152.818 69.0309 153.136 69.3622 153.528 69.5955C153.929 69.8195 154.363 69.9315 154.83 69.9315C155.306 69.9315 155.74 69.8195 156.132 69.5955C156.533 69.3622 156.85 69.0309 157.084 68.6015C157.317 68.1629 157.434 67.6495 157.434 67.0615Z" fill="black"/>
<rect x="80" y="50.4255" width="87" height="32" rx="16" stroke="#5A5A5A"/>
<rect x="178" y="50.4255" width="117" height="32" rx="16" fill="white" fill-opacity="0.4"/>
<path d="M194.642 61.1675L190.96 70.9255H189.49L185.808 61.1675H187.166L190.232 69.5815L193.298 61.1675H194.642ZM195.997 62.0075C195.754 62.0075 195.549 61.9235 195.381 61.7555C195.213 61.5875 195.129 61.3822 195.129 61.1395C195.129 60.8969 195.213 60.6915 195.381 60.5235C195.549 60.3555 195.754 60.2715 195.997 60.2715C196.23 60.2715 196.426 60.3555 196.585 60.5235C196.753 60.6915 196.837 60.8969 196.837 61.1395C196.837 61.3822 196.753 61.5875 196.585 61.7555C196.426 61.9235 196.23 62.0075 195.997 62.0075ZM196.613 63.2535V70.9255H195.339V63.2535H196.613ZM199.358 64.4995C199.582 64.0609 199.9 63.7202 200.31 63.4775C200.73 63.2349 201.239 63.1135 201.836 63.1135V64.4295H201.5C200.072 64.4295 199.358 65.2042 199.358 66.7535V70.9255H198.084V63.2535H199.358V64.4995ZM204.161 64.3035V68.8255C204.161 69.1989 204.24 69.4649 204.399 69.6235C204.558 69.7729 204.833 69.8475 205.225 69.8475H206.163V70.9255H205.015C204.306 70.9255 203.774 70.7622 203.419 70.4355C203.064 70.1089 202.887 69.5722 202.887 68.8255V64.3035H201.893V63.2535H202.887V61.3215H204.161V63.2535H206.163V64.3035H204.161ZM213.811 63.2535V70.9255H212.537V69.7915C212.294 70.1835 211.953 70.4915 211.515 70.7155C211.085 70.9302 210.609 71.0375 210.087 71.0375C209.489 71.0375 208.953 70.9162 208.477 70.6735C208.001 70.4215 207.623 70.0482 207.343 69.5535C207.072 69.0589 206.937 68.4569 206.937 67.7475V63.2535H208.197V67.5795C208.197 68.3355 208.388 68.9189 208.771 69.3295C209.153 69.7309 209.676 69.9315 210.339 69.9315C211.02 69.9315 211.557 69.7215 211.949 69.3015C212.341 68.8815 212.537 68.2702 212.537 67.4675V63.2535H213.811ZM214.786 67.0615C214.786 66.2775 214.944 65.5915 215.262 65.0035C215.579 64.4062 216.013 63.9442 216.564 63.6175C217.124 63.2909 217.744 63.1275 218.426 63.1275C219.098 63.1275 219.681 63.2722 220.176 63.5615C220.67 63.8509 221.039 64.2149 221.282 64.6535V63.2535H222.57V70.9255H221.282V69.4975C221.03 69.9455 220.652 70.3189 220.148 70.6175C219.653 70.9069 219.074 71.0515 218.412 71.0515C217.73 71.0515 217.114 70.8835 216.564 70.5475C216.013 70.2115 215.579 69.7402 215.262 69.1335C214.944 68.5269 214.786 67.8362 214.786 67.0615ZM221.282 67.0755C221.282 66.4969 221.165 65.9929 220.932 65.5635C220.698 65.1342 220.381 64.8075 219.98 64.5835C219.588 64.3502 219.154 64.2335 218.678 64.2335C218.202 64.2335 217.768 64.3455 217.376 64.5695C216.984 64.7935 216.671 65.1202 216.438 65.5495C216.204 65.9789 216.088 66.4829 216.088 67.0615C216.088 67.6495 216.204 68.1629 216.438 68.6015C216.671 69.0309 216.984 69.3622 217.376 69.5955C217.768 69.8195 218.202 69.9315 218.678 69.9315C219.154 69.9315 219.588 69.8195 219.98 69.5955C220.381 69.3622 220.698 69.0309 220.932 68.6015C221.165 68.1629 221.282 67.6542 221.282 67.0755ZM225.297 60.5655V70.9255H224.023V60.5655H225.297ZM235.568 68.7555H231.312L230.528 70.9255H229.184L232.712 61.2235H234.182L237.696 70.9255H236.352L235.568 68.7555ZM235.204 67.7195L233.44 62.7915L231.676 67.7195H235.204ZM241.25 71.0515C240.662 71.0515 240.135 70.9535 239.668 70.7575C239.201 70.5522 238.833 70.2722 238.562 69.9175C238.291 69.5535 238.142 69.1382 238.114 68.6715H239.43C239.467 69.0542 239.645 69.3669 239.962 69.6095C240.289 69.8522 240.713 69.9735 241.236 69.9735C241.721 69.9735 242.104 69.8662 242.384 69.6515C242.664 69.4369 242.804 69.1662 242.804 68.8395C242.804 68.5035 242.655 68.2562 242.356 68.0975C242.057 67.9295 241.595 67.7662 240.97 67.6075C240.401 67.4582 239.934 67.3089 239.57 67.1595C239.215 67.0009 238.907 66.7722 238.646 66.4735C238.394 66.1655 238.268 65.7642 238.268 65.2695C238.268 64.8775 238.385 64.5182 238.618 64.1915C238.851 63.8649 239.183 63.6082 239.612 63.4215C240.041 63.2255 240.531 63.1275 241.082 63.1275C241.931 63.1275 242.617 63.3422 243.14 63.7715C243.663 64.2009 243.943 64.7889 243.98 65.5355H242.706C242.678 65.1342 242.515 64.8122 242.216 64.5695C241.927 64.3269 241.535 64.2055 241.04 64.2055C240.583 64.2055 240.219 64.3035 239.948 64.4995C239.677 64.6955 239.542 64.9522 239.542 65.2695C239.542 65.5215 239.621 65.7315 239.78 65.8995C239.948 66.0582 240.153 66.1889 240.396 66.2915C240.648 66.3849 240.993 66.4922 241.432 66.6135C241.983 66.7629 242.431 66.9122 242.776 67.0615C243.121 67.2015 243.415 67.4162 243.658 67.7055C243.91 67.9949 244.041 68.3729 244.05 68.8395C244.05 69.2595 243.933 69.6375 243.7 69.9735C243.467 70.3095 243.135 70.5755 242.706 70.7715C242.286 70.9582 241.801 71.0515 241.25 71.0515ZM247.864 71.0515C247.276 71.0515 246.749 70.9535 246.282 70.7575C245.816 70.5522 245.447 70.2722 245.176 69.9175C244.906 69.5535 244.756 69.1382 244.728 68.6715H246.044C246.082 69.0542 246.259 69.3669 246.576 69.6095C246.903 69.8522 247.328 69.9735 247.85 69.9735C248.336 69.9735 248.718 69.8662 248.998 69.6515C249.278 69.4369 249.418 69.1662 249.418 68.8395C249.418 68.5035 249.269 68.2562 248.97 68.0975C248.672 67.9295 248.21 67.7662 247.584 67.6075C247.015 67.4582 246.548 67.3089 246.184 67.1595C245.83 67.0009 245.522 66.7722 245.26 66.4735C245.008 66.1655 244.882 65.7642 244.882 65.2695C244.882 64.8775 244.999 64.5182 245.232 64.1915C245.466 63.8649 245.797 63.6082 246.226 63.4215C246.656 63.2255 247.146 63.1275 247.696 63.1275C248.546 63.1275 249.232 63.3422 249.754 63.7715C250.277 64.2009 250.557 64.7889 250.594 65.5355H249.32C249.292 65.1342 249.129 64.8122 248.83 64.5695C248.541 64.3269 248.149 64.2055 247.654 64.2055C247.197 64.2055 246.833 64.3035 246.562 64.4995C246.292 64.6955 246.156 64.9522 246.156 65.2695C246.156 65.5215 246.236 65.7315 246.394 65.8995C246.562 66.0582 246.768 66.1889 247.01 66.2915C247.262 66.3849 247.608 66.4922 248.046 66.6135C248.597 66.7629 249.045 66.9122 249.39 67.0615C249.736 67.2015 250.03 67.4162 250.272 67.7055C250.524 67.9949 250.655 68.3729 250.664 68.8395C250.664 69.2595 250.548 69.6375 250.314 69.9735C250.081 70.3095 249.75 70.5755 249.32 70.7715C248.9 70.9582 248.415 71.0515 247.864 71.0515ZM252.421 62.0075C252.178 62.0075 251.973 61.9235 251.805 61.7555C251.637 61.5875 251.553 61.3822 251.553 61.1395C251.553 60.8969 251.637 60.6915 251.805 60.5235C251.973 60.3555 252.178 60.2715 252.421 60.2715C252.654 60.2715 252.85 60.3555 253.009 60.5235C253.177 60.6915 253.261 60.8969 253.261 61.1395C253.261 61.3822 253.177 61.5875 253.009 61.7555C252.85 61.9235 252.654 62.0075 252.421 62.0075ZM253.037 63.2535V70.9255H251.763V63.2535H253.037ZM257.224 71.0515C256.636 71.0515 256.109 70.9535 255.642 70.7575C255.175 70.5522 254.807 70.2722 254.536 69.9175C254.265 69.5535 254.116 69.1382 254.088 68.6715H255.404C255.441 69.0542 255.619 69.3669 255.936 69.6095C256.263 69.8522 256.687 69.9735 257.21 69.9735C257.695 69.9735 258.078 69.8662 258.358 69.6515C258.638 69.4369 258.778 69.1662 258.778 68.8395C258.778 68.5035 258.629 68.2562 258.33 68.0975C258.031 67.9295 257.569 67.7662 256.944 67.6075C256.375 67.4582 255.908 67.3089 255.544 67.1595C255.189 67.0009 254.881 66.7722 254.62 66.4735C254.368 66.1655 254.242 65.7642 254.242 65.2695C254.242 64.8775 254.359 64.5182 254.592 64.1915C254.825 63.8649 255.157 63.6082 255.586 63.4215C256.015 63.2255 256.505 63.1275 257.056 63.1275C257.905 63.1275 258.591 63.3422 259.114 63.7715C259.637 64.2009 259.917 64.7889 259.954 65.5355H258.68C258.652 65.1342 258.489 64.8122 258.19 64.5695C257.901 64.3269 257.509 64.2055 257.014 64.2055C256.557 64.2055 256.193 64.3035 255.922 64.4995C255.651 64.6955 255.516 64.9522 255.516 65.2695C255.516 65.5215 255.595 65.7315 255.754 65.8995C255.922 66.0582 256.127 66.1889 256.37 66.2915C256.622 66.3849 256.967 66.4922 257.406 66.6135C257.957 66.7629 258.405 66.9122 258.75 67.0615C259.095 67.2015 259.389 67.4162 259.632 67.7055C259.884 67.9949 260.015 68.3729 260.024 68.8395C260.024 69.2595 259.907 69.6375 259.674 69.9735C259.441 70.3095 259.109 70.5755 258.68 70.7715C258.26 70.9582 257.775 71.0515 257.224 71.0515ZM262.677 64.3035V68.8255C262.677 69.1989 262.756 69.4649 262.915 69.6235C263.073 69.7729 263.349 69.8475 263.741 69.8475H264.679V70.9255H263.531C262.821 70.9255 262.289 70.7622 261.935 70.4355C261.58 70.1089 261.403 69.5722 261.403 68.8255V64.3035H260.409V63.2535H261.403V61.3215H262.677V63.2535H264.679V64.3035H262.677ZM265.046 67.0615C265.046 66.2775 265.205 65.5915 265.522 65.0035C265.839 64.4062 266.273 63.9442 266.824 63.6175C267.384 63.2909 268.005 63.1275 268.686 63.1275C269.358 63.1275 269.941 63.2722 270.436 63.5615C270.931 63.8509 271.299 64.2149 271.542 64.6535V63.2535H272.83V70.9255H271.542V69.4975C271.29 69.9455 270.912 70.3189 270.408 70.6175C269.913 70.9069 269.335 71.0515 268.672 71.0515C267.991 71.0515 267.375 70.8835 266.824 70.5475C266.273 70.2115 265.839 69.7402 265.522 69.1335C265.205 68.5269 265.046 67.8362 265.046 67.0615ZM271.542 67.0755C271.542 66.4969 271.425 65.9929 271.192 65.5635C270.959 65.1342 270.641 64.8075 270.24 64.5835C269.848 64.3502 269.414 64.2335 268.938 64.2335C268.462 64.2335 268.028 64.3455 267.636 64.5695C267.244 64.7935 266.931 65.1202 266.698 65.5495C266.465 65.9789 266.348 66.4829 266.348 67.0615C266.348 67.6495 266.465 68.1629 266.698 68.6015C266.931 69.0309 267.244 69.3622 267.636 69.5955C268.028 69.8195 268.462 69.9315 268.938 69.9315C269.414 69.9315 269.848 69.8195 270.24 69.5955C270.641 69.3622 270.959 69.0309 271.192 68.6015C271.425 68.1629 271.542 67.6542 271.542 67.0755ZM278.021 63.1135C278.954 63.1135 279.71 63.3982 280.289 63.9675C280.868 64.5275 281.157 65.3395 281.157 66.4035V70.9255H279.897V66.5855C279.897 65.8202 279.706 65.2369 279.323 64.8355C278.94 64.4249 278.418 64.2195 277.755 64.2195C277.083 64.2195 276.546 64.4295 276.145 64.8495C275.753 65.2695 275.557 65.8809 275.557 66.6835V70.9255H274.283V63.2535H275.557V64.3455C275.809 63.9535 276.15 63.6502 276.579 63.4355C277.018 63.2209 277.498 63.1135 278.021 63.1135ZM284.092 64.3035V68.8255C284.092 69.1989 284.171 69.4649 284.33 69.6235C284.489 69.7729 284.764 69.8475 285.156 69.8475H286.094V70.9255H284.946C284.237 70.9255 283.705 70.7622 283.35 70.4355C282.995 70.1089 282.818 69.5722 282.818 68.8255V64.3035H281.824V63.2535H282.818V61.3215H284.092V63.2535H286.094V64.3035H284.092Z" fill="black"/>
<rect x="178" y="50.4255" width="117" height="32" rx="16" stroke="#5A5A5A"/>
<rect x="306" y="50.4255" width="91" height="32" rx="16" fill="white" fill-opacity="0.4"/>
<path d="M315.824 61.1675V67.3415C315.824 68.2095 316.034 68.8535 316.454 69.2735C316.883 69.6935 317.476 69.9035 318.232 69.9035C318.979 69.9035 319.562 69.6935 319.982 69.2735C320.411 68.8535 320.626 68.2095 320.626 67.3415V61.1675H321.9V67.3275C321.9 68.1395 321.737 68.8255 321.41 69.3855C321.083 69.9362 320.64 70.3469 320.08 70.6175C319.529 70.8882 318.909 71.0235 318.218 71.0235C317.527 71.0235 316.902 70.8882 316.342 70.6175C315.791 70.3469 315.353 69.9362 315.026 69.3855C314.709 68.8255 314.55 68.1395 314.55 67.3275V61.1675H315.824ZM326.041 71.0515C325.453 71.0515 324.926 70.9535 324.459 70.7575C323.993 70.5522 323.624 70.2722 323.353 69.9175C323.083 69.5535 322.933 69.1382 322.905 68.6715H324.221C324.259 69.0542 324.436 69.3669 324.753 69.6095C325.08 69.8522 325.505 69.9735 326.027 69.9735C326.513 69.9735 326.895 69.8662 327.175 69.6515C327.455 69.4369 327.595 69.1662 327.595 68.8395C327.595 68.5035 327.446 68.2562 327.147 68.0975C326.849 67.9295 326.387 67.7662 325.761 67.6075C325.192 67.4582 324.725 67.3089 324.361 67.1595C324.007 67.0009 323.699 66.7722 323.437 66.4735C323.185 66.1655 323.059 65.7642 323.059 65.2695C323.059 64.8775 323.176 64.5182 323.409 64.1915C323.643 63.8649 323.974 63.6082 324.403 63.4215C324.833 63.2255 325.323 63.1275 325.873 63.1275C326.723 63.1275 327.409 63.3422 327.931 63.7715C328.454 64.2009 328.734 64.7889 328.771 65.5355H327.497C327.469 65.1342 327.306 64.8122 327.007 64.5695C326.718 64.3269 326.326 64.2055 325.831 64.2055C325.374 64.2055 325.01 64.3035 324.739 64.4995C324.469 64.6955 324.333 64.9522 324.333 65.2695C324.333 65.5215 324.413 65.7315 324.571 65.8995C324.739 66.0582 324.945 66.1889 325.187 66.2915C325.439 66.3849 325.785 66.4922 326.223 66.6135C326.774 66.7629 327.222 66.9122 327.567 67.0615C327.913 67.2015 328.207 67.4162 328.449 67.7055C328.701 67.9949 328.832 68.3729 328.841 68.8395C328.841 69.2595 328.725 69.6375 328.491 69.9735C328.258 70.3095 327.927 70.5755 327.497 70.7715C327.077 70.9582 326.592 71.0515 326.041 71.0515ZM336.94 66.7955C336.94 67.0382 336.926 67.2949 336.898 67.5655H330.766C330.812 68.3215 331.069 68.9142 331.536 69.3435C332.012 69.7635 332.586 69.9735 333.258 69.9735C333.808 69.9735 334.266 69.8475 334.63 69.5955C335.003 69.3342 335.264 68.9889 335.414 68.5595H336.786C336.58 69.2969 336.17 69.8989 335.554 70.3655C334.938 70.8229 334.172 71.0515 333.258 71.0515C332.53 71.0515 331.876 70.8882 331.298 70.5615C330.728 70.2349 330.28 69.7729 329.954 69.1755C329.627 68.5689 329.464 67.8689 329.464 67.0755C329.464 66.2822 329.622 65.5869 329.94 64.9895C330.257 64.3922 330.7 63.9349 331.27 63.6175C331.848 63.2909 332.511 63.1275 333.258 63.1275C333.986 63.1275 334.63 63.2862 335.19 63.6035C335.75 63.9209 336.179 64.3595 336.478 64.9195C336.786 65.4702 336.94 66.0955 336.94 66.7955ZM335.624 66.5295C335.624 66.0442 335.516 65.6289 335.302 65.2835C335.087 64.9289 334.793 64.6629 334.42 64.4855C334.056 64.2989 333.65 64.2055 333.202 64.2055C332.558 64.2055 332.007 64.4109 331.55 64.8215C331.102 65.2322 330.845 65.8015 330.78 66.5295H335.624ZM339.195 64.4995C339.419 64.0609 339.737 63.7202 340.147 63.4775C340.567 63.2349 341.076 63.1135 341.673 63.1135V64.4295H341.337C339.909 64.4295 339.195 65.2042 339.195 66.7535V70.9255H337.921V63.2535H339.195V64.4995ZM348.514 61.1675C349.578 61.1675 350.498 61.3682 351.272 61.7695C352.056 62.1615 352.654 62.7262 353.064 63.4635C353.484 64.2009 353.694 65.0689 353.694 66.0675C353.694 67.0662 353.484 67.9342 353.064 68.6715C352.654 69.3995 352.056 69.9595 351.272 70.3515C350.498 70.7342 349.578 70.9255 348.514 70.9255H345.476V61.1675H348.514ZM348.514 69.8755C349.774 69.8755 350.736 69.5442 351.398 68.8815C352.061 68.2095 352.392 67.2715 352.392 66.0675C352.392 64.8542 352.056 63.9069 351.384 63.2255C350.722 62.5442 349.765 62.2035 348.514 62.2035H346.75V69.8755H348.514ZM361.675 66.7955C361.675 67.0382 361.661 67.2949 361.633 67.5655H355.501C355.548 68.3215 355.804 68.9142 356.271 69.3435C356.747 69.7635 357.321 69.9735 357.993 69.9735C358.544 69.9735 359.001 69.8475 359.365 69.5955C359.738 69.3342 360 68.9889 360.149 68.5595H361.521C361.316 69.2969 360.905 69.8989 360.289 70.3655C359.673 70.8229 358.908 71.0515 357.993 71.0515C357.265 71.0515 356.612 70.8882 356.033 70.5615C355.464 70.2349 355.016 69.7729 354.689 69.1755C354.362 68.5689 354.199 67.8689 354.199 67.0755C354.199 66.2822 354.358 65.5869 354.675 64.9895C354.992 64.3922 355.436 63.9349 356.005 63.6175C356.584 63.2909 357.246 63.1275 357.993 63.1275C358.721 63.1275 359.365 63.2862 359.925 63.6035C360.485 63.9209 360.914 64.3595 361.213 64.9195C361.521 65.4702 361.675 66.0955 361.675 66.7955ZM360.359 66.5295C360.359 66.0442 360.252 65.6289 360.037 65.2835C359.822 64.9289 359.528 64.6629 359.155 64.4855C358.791 64.2989 358.385 64.2055 357.937 64.2055C357.293 64.2055 356.742 64.4109 356.285 64.8215C355.837 65.2322 355.58 65.8015 355.515 66.5295H360.359ZM365.373 71.0515C364.785 71.0515 364.257 70.9535 363.791 70.7575C363.324 70.5522 362.955 70.2722 362.685 69.9175C362.414 69.5535 362.265 69.1382 362.237 68.6715H363.553C363.59 69.0542 363.767 69.3669 364.085 69.6095C364.411 69.8522 364.836 69.9735 365.359 69.9735C365.844 69.9735 366.227 69.8662 366.507 69.6515C366.787 69.4369 366.927 69.1662 366.927 68.8395C366.927 68.5035 366.777 68.2562 366.479 68.0975C366.18 67.9295 365.718 67.7662 365.093 67.6075C364.523 67.4582 364.057 67.3089 363.693 67.1595C363.338 67.0009 363.03 66.7722 362.769 66.4735C362.517 66.1655 362.391 65.7642 362.391 65.2695C362.391 64.8775 362.507 64.5182 362.741 64.1915C362.974 63.8649 363.305 63.6082 363.735 63.4215C364.164 63.2255 364.654 63.1275 365.205 63.1275C366.054 63.1275 366.74 63.3422 367.263 63.7715C367.785 64.2009 368.065 64.7889 368.103 65.5355H366.829C366.801 65.1342 366.637 64.8122 366.339 64.5695C366.049 64.3269 365.657 64.2055 365.163 64.2055C364.705 64.2055 364.341 64.3035 364.071 64.4995C363.8 64.6955 363.665 64.9522 363.665 65.2695C363.665 65.5215 363.744 65.7315 363.903 65.8995C364.071 66.0582 364.276 66.1889 364.519 66.2915C364.771 66.3849 365.116 66.4922 365.555 66.6135C366.105 66.7629 366.553 66.9122 366.899 67.0615C367.244 67.2015 367.538 67.4162 367.781 67.7055C368.033 67.9949 368.163 68.3729 368.173 68.8395C368.173 69.2595 368.056 69.6375 367.823 69.9735C367.589 70.3095 367.258 70.5755 366.829 70.7715C366.409 70.9582 365.923 71.0515 365.373 71.0515ZM369.929 62.0075C369.686 62.0075 369.481 61.9235 369.313 61.7555C369.145 61.5875 369.061 61.3822 369.061 61.1395C369.061 60.8969 369.145 60.6915 369.313 60.5235C369.481 60.3555 369.686 60.2715 369.929 60.2715C370.162 60.2715 370.358 60.3555 370.517 60.5235C370.685 60.6915 370.769 60.8969 370.769 61.1395C370.769 61.3822 370.685 61.5875 370.517 61.7555C370.358 61.9235 370.162 62.0075 369.929 62.0075ZM370.545 63.2535V70.9255H369.271V63.2535H370.545ZM375.18 63.1275C375.843 63.1275 376.422 63.2722 376.916 63.5615C377.42 63.8509 377.794 64.2149 378.036 64.6535V63.2535H379.324V71.0935C379.324 71.7935 379.175 72.4142 378.876 72.9555C378.578 73.5062 378.148 73.9355 377.588 74.2435C377.038 74.5515 376.394 74.7055 375.656 74.7055C374.648 74.7055 373.808 74.4675 373.136 73.9915C372.464 73.5155 372.068 72.8669 371.946 72.0455H373.206C373.346 72.5122 373.636 72.8855 374.074 73.1655C374.513 73.4549 375.04 73.5995 375.656 73.5995C376.356 73.5995 376.926 73.3802 377.364 72.9415C377.812 72.5029 378.036 71.8869 378.036 71.0935V69.4835C377.784 69.9315 377.411 70.3049 376.916 70.6035C376.422 70.9022 375.843 71.0515 375.18 71.0515C374.499 71.0515 373.878 70.8835 373.318 70.5475C372.768 70.2115 372.334 69.7402 372.016 69.1335C371.699 68.5269 371.54 67.8362 371.54 67.0615C371.54 66.2775 371.699 65.5915 372.016 65.0035C372.334 64.4062 372.768 63.9442 373.318 63.6175C373.878 63.2909 374.499 63.1275 375.18 63.1275ZM378.036 67.0755C378.036 66.4969 377.92 65.9929 377.686 65.5635C377.453 65.1342 377.136 64.8075 376.734 64.5835C376.342 64.3502 375.908 64.2335 375.432 64.2335C374.956 64.2335 374.522 64.3455 374.13 64.5695C373.738 64.7935 373.426 65.1202 373.192 65.5495C372.959 65.9789 372.842 66.4829 372.842 67.0615C372.842 67.6495 372.959 68.1629 373.192 68.6015C373.426 69.0309 373.738 69.3622 374.13 69.5955C374.522 69.8195 374.956 69.9315 375.432 69.9315C375.908 69.9315 376.342 69.8195 376.734 69.5955C377.136 69.3622 377.453 69.0309 377.686 68.6015C377.92 68.1629 378.036 67.6542 378.036 67.0755ZM384.515 63.1135C385.449 63.1135 386.205 63.3982 386.783 63.9675C387.362 64.5275 387.651 65.3395 387.651 66.4035V70.9255H386.391V66.5855C386.391 65.8202 386.2 65.2369 385.817 64.8355C385.435 64.4249 384.912 64.2195 384.249 64.2195C383.577 64.2195 383.041 64.4295 382.639 64.8495C382.247 65.2695 382.051 65.8809 382.051 66.6835V70.9255H380.777V63.2535H382.051V64.3455C382.303 63.9535 382.644 63.6502 383.073 63.4355C383.512 63.2209 383.993 63.1135 384.515 63.1135Z" fill="black"/>
<rect x="306" y="50.4255" width="91" height="32" rx="16" stroke="#5A5A5A"/>
<rect x="1" y="93.4255" width="101" height="32" rx="16" fill="white" fill-opacity="0.4"/>
<path d="M16.97 106.996C16.6993 106.426 16.3073 105.988 15.794 105.68C15.2807 105.362 14.6833 105.204 14.002 105.204C13.3207 105.204 12.7047 105.362 12.154 105.68C11.6127 105.988 11.1833 106.436 10.866 107.024C10.558 107.602 10.404 108.274 10.404 109.04C10.404 109.805 10.558 110.477 10.866 111.056C11.1833 111.634 11.6127 112.082 12.154 112.4C12.7047 112.708 13.3207 112.862 14.002 112.862C14.954 112.862 15.738 112.577 16.354 112.008C16.97 111.438 17.3293 110.668 17.432 109.698H13.54V108.662H18.79V109.642C18.7153 110.444 18.4633 111.182 18.034 111.854C17.6047 112.516 17.04 113.044 16.34 113.436C15.64 113.818 14.8607 114.01 14.002 114.01C13.0967 114.01 12.2707 113.8 11.524 113.38C10.7773 112.95 10.1847 112.358 9.746 111.602C9.31667 110.846 9.102 109.992 9.102 109.04C9.102 108.088 9.31667 107.234 9.746 106.478C10.1847 105.712 10.7773 105.12 11.524 104.7C12.2707 104.27 13.0967 104.056 14.002 104.056C15.038 104.056 15.9527 104.312 16.746 104.826C17.5487 105.339 18.132 106.062 18.496 106.996H16.97ZM23.1205 114.052C22.4018 114.052 21.7485 113.888 21.1605 113.562C20.5818 113.235 20.1245 112.773 19.7885 112.176C19.4618 111.569 19.2985 110.869 19.2985 110.076C19.2985 109.292 19.4665 108.601 19.8025 108.004C20.1478 107.397 20.6145 106.935 21.2025 106.618C21.7905 106.291 22.4485 106.128 23.1765 106.128C23.9045 106.128 24.5625 106.291 25.1505 106.618C25.7385 106.935 26.2005 107.392 26.5365 107.99C26.8818 108.587 27.0545 109.282 27.0545 110.076C27.0545 110.869 26.8772 111.569 26.5225 112.176C26.1772 112.773 25.7058 113.235 25.1085 113.562C24.5112 113.888 23.8485 114.052 23.1205 114.052ZM23.1205 112.932C23.5778 112.932 24.0072 112.824 24.4085 112.61C24.8098 112.395 25.1318 112.073 25.3745 111.644C25.6265 111.214 25.7525 110.692 25.7525 110.076C25.7525 109.46 25.6312 108.937 25.3885 108.508C25.1458 108.078 24.8285 107.761 24.4365 107.556C24.0445 107.341 23.6198 107.234 23.1625 107.234C22.6958 107.234 22.2665 107.341 21.8745 107.556C21.4918 107.761 21.1838 108.078 20.9505 108.508C20.7172 108.937 20.6005 109.46 20.6005 110.076C20.6005 110.701 20.7125 111.228 20.9365 111.658C21.1698 112.087 21.4778 112.409 21.8605 112.624C22.2432 112.829 22.6632 112.932 23.1205 112.932ZM31.3756 114.052C30.6569 114.052 30.0036 113.888 29.4156 113.562C28.8369 113.235 28.3796 112.773 28.0436 112.176C27.7169 111.569 27.5536 110.869 27.5536 110.076C27.5536 109.292 27.7216 108.601 28.0576 108.004C28.4029 107.397 28.8696 106.935 29.4576 106.618C30.0456 106.291 30.7036 106.128 31.4316 106.128C32.1596 106.128 32.8176 106.291 33.4056 106.618C33.9936 106.935 34.4556 107.392 34.7916 107.99C35.1369 108.587 35.3096 109.282 35.3096 110.076C35.3096 110.869 35.1322 111.569 34.7776 112.176C34.4322 112.773 33.9609 113.235 33.3636 113.562C32.7662 113.888 32.1036 114.052 31.3756 114.052ZM31.3756 112.932C31.8329 112.932 32.2622 112.824 32.6636 112.61C33.0649 112.395 33.3869 112.073 33.6296 111.644C33.8816 111.214 34.0076 110.692 34.0076 110.076C34.0076 109.46 33.8862 108.937 33.6436 108.508C33.4009 108.078 33.0836 107.761 32.6916 107.556C32.2996 107.341 31.8749 107.234 31.4176 107.234C30.9509 107.234 30.5216 107.341 30.1296 107.556C29.7469 107.761 29.4389 108.078 29.2056 108.508C28.9722 108.937 28.8556 109.46 28.8556 110.076C28.8556 110.701 28.9676 111.228 29.1916 111.658C29.4249 112.087 29.7329 112.409 30.1156 112.624C30.4982 112.829 30.9182 112.932 31.3756 112.932ZM39.4486 106.128C40.1113 106.128 40.69 106.272 41.1846 106.562C41.6886 106.851 42.062 107.215 42.3046 107.654V106.254H43.5926V114.094C43.5926 114.794 43.4433 115.414 43.1446 115.956C42.846 116.506 42.4166 116.936 41.8566 117.244C41.306 117.552 40.662 117.706 39.9246 117.706C38.9166 117.706 38.0766 117.468 37.4046 116.992C36.7326 116.516 36.336 115.867 36.2146 115.046H37.4746C37.6146 115.512 37.904 115.886 38.3426 116.166C38.7813 116.455 39.3086 116.6 39.9246 116.6C40.6246 116.6 41.194 116.38 41.6326 115.942C42.0806 115.503 42.3046 114.887 42.3046 114.094V112.484C42.0526 112.932 41.6793 113.305 41.1846 113.604C40.69 113.902 40.1113 114.052 39.4486 114.052C38.7673 114.052 38.1466 113.884 37.5866 113.548C37.036 113.212 36.602 112.74 36.2846 112.134C35.9673 111.527 35.8086 110.836 35.8086 110.062C35.8086 109.278 35.9673 108.592 36.2846 108.004C36.602 107.406 37.036 106.944 37.5866 106.618C38.1466 106.291 38.7673 106.128 39.4486 106.128ZM42.3046 110.076C42.3046 109.497 42.188 108.993 41.9546 108.564C41.7213 108.134 41.404 107.808 41.0026 107.584C40.6106 107.35 40.1766 107.234 39.7006 107.234C39.2246 107.234 38.7906 107.346 38.3986 107.57C38.0066 107.794 37.694 108.12 37.4606 108.55C37.2273 108.979 37.1106 109.483 37.1106 110.062C37.1106 110.65 37.2273 111.163 37.4606 111.602C37.694 112.031 38.0066 112.362 38.3986 112.596C38.7906 112.82 39.2246 112.932 39.7006 112.932C40.1766 112.932 40.6106 112.82 41.0026 112.596C41.404 112.362 41.7213 112.031 41.9546 111.602C42.188 111.163 42.3046 110.654 42.3046 110.076ZM46.3196 103.566V113.926H45.0456V103.566H46.3196ZM54.7909 109.796C54.7909 110.038 54.7769 110.295 54.7489 110.566H48.6169C48.6636 111.322 48.9202 111.914 49.3869 112.344C49.8629 112.764 50.4369 112.974 51.1089 112.974C51.6596 112.974 52.1169 112.848 52.4809 112.596C52.8542 112.334 53.1156 111.989 53.2649 111.56H54.6369C54.4316 112.297 54.0209 112.899 53.4049 113.366C52.7889 113.823 52.0236 114.052 51.1089 114.052C50.3809 114.052 49.7276 113.888 49.1489 113.562C48.5796 113.235 48.1316 112.773 47.8049 112.176C47.4782 111.569 47.3149 110.869 47.3149 110.076C47.3149 109.282 47.4736 108.587 47.7909 107.99C48.1082 107.392 48.5516 106.935 49.1209 106.618C49.6996 106.291 50.3622 106.128 51.1089 106.128C51.8369 106.128 52.4809 106.286 53.0409 106.604C53.6009 106.921 54.0302 107.36 54.3289 107.92C54.6369 108.47 54.7909 109.096 54.7909 109.796ZM53.4749 109.53C53.4749 109.044 53.3676 108.629 53.1529 108.284C52.9382 107.929 52.6442 107.663 52.2709 107.486C51.9069 107.299 51.5009 107.206 51.0529 107.206C50.4089 107.206 49.8582 107.411 49.4009 107.822C48.9529 108.232 48.6962 108.802 48.6309 109.53H53.4749ZM66.869 104.168L63.187 113.926H61.717L58.035 104.168H59.393L62.459 112.582L65.525 104.168H66.869ZM70.9119 114.052C70.1932 114.052 69.5399 113.888 68.9519 113.562C68.3732 113.235 67.9159 112.773 67.5799 112.176C67.2532 111.569 67.0899 110.869 67.0899 110.076C67.0899 109.292 67.2579 108.601 67.5939 108.004C67.9392 107.397 68.4059 106.935 68.9939 106.618C69.5819 106.291 70.2399 106.128 70.9679 106.128C71.6959 106.128 72.3539 106.291 72.9419 106.618C73.5299 106.935 73.9919 107.392 74.3279 107.99C74.6732 108.587 74.8459 109.282 74.8459 110.076C74.8459 110.869 74.6686 111.569 74.3139 112.176C73.9686 112.773 73.4972 113.235 72.8999 113.562C72.3026 113.888 71.6399 114.052 70.9119 114.052ZM70.9119 112.932C71.3692 112.932 71.7986 112.824 72.1999 112.61C72.6012 112.395 72.9232 112.073 73.1659 111.644C73.4179 111.214 73.5439 110.692 73.5439 110.076C73.5439 109.46 73.4226 108.937 73.1799 108.508C72.9372 108.078 72.6199 107.761 72.2279 107.556C71.8359 107.341 71.4112 107.234 70.9539 107.234C70.4872 107.234 70.0579 107.341 69.6659 107.556C69.2832 107.761 68.9752 108.078 68.7419 108.508C68.5086 108.937 68.3919 109.46 68.3919 110.076C68.3919 110.701 68.5039 111.228 68.7279 111.658C68.9612 112.087 69.2692 112.409 69.6519 112.624C70.0346 112.829 70.4546 112.932 70.9119 112.932ZM76.479 105.008C76.2363 105.008 76.031 104.924 75.863 104.756C75.695 104.588 75.611 104.382 75.611 104.14C75.611 103.897 75.695 103.692 75.863 103.524C76.031 103.356 76.2363 103.272 76.479 103.272C76.7123 103.272 76.9083 103.356 77.067 103.524C77.235 103.692 77.319 103.897 77.319 104.14C77.319 104.382 77.235 104.588 77.067 104.756C76.9083 104.924 76.7123 105.008 76.479 105.008ZM77.095 106.254V113.926H75.821V106.254H77.095ZM78.0903 110.076C78.0903 109.282 78.2489 108.592 78.5663 108.004C78.8836 107.406 79.3223 106.944 79.8823 106.618C80.4516 106.291 81.1003 106.128 81.8283 106.128C82.7709 106.128 83.5456 106.356 84.1523 106.814C84.7683 107.271 85.1743 107.906 85.3703 108.718H83.9983C83.8676 108.251 83.6109 107.882 83.2283 107.612C82.8549 107.341 82.3883 107.206 81.8283 107.206C81.1003 107.206 80.5123 107.458 80.0643 107.962C79.6163 108.456 79.3923 109.161 79.3923 110.076C79.3923 111 79.6163 111.714 80.0643 112.218C80.5123 112.722 81.1003 112.974 81.8283 112.974C82.3883 112.974 82.8549 112.843 83.2283 112.582C83.6016 112.32 83.8583 111.947 83.9983 111.462H85.3703C85.1649 112.246 84.7543 112.876 84.1383 113.352C83.5223 113.818 82.7523 114.052 81.8283 114.052C81.1003 114.052 80.4516 113.888 79.8823 113.562C79.3223 113.235 78.8836 112.773 78.5663 112.176C78.2489 111.578 78.0903 110.878 78.0903 110.076ZM93.3702 109.796C93.3702 110.038 93.3562 110.295 93.3282 110.566H87.1962C87.2429 111.322 87.4995 111.914 87.9662 112.344C88.4422 112.764 89.0162 112.974 89.6882 112.974C90.2389 112.974 90.6962 112.848 91.0602 112.596C91.4335 112.334 91.6949 111.989 91.8442 111.56H93.2162C93.0109 112.297 92.6002 112.899 91.9842 113.366C91.3682 113.823 90.6029 114.052 89.6882 114.052C88.9602 114.052 88.3069 113.888 87.7282 113.562C87.1589 113.235 86.7109 112.773 86.3842 112.176C86.0575 111.569 85.8942 110.869 85.8942 110.076C85.8942 109.282 86.0529 108.587 86.3702 107.99C86.6875 107.392 87.1309 106.935 87.7002 106.618C88.2789 106.291 88.9415 106.128 89.6882 106.128C90.4162 106.128 91.0602 106.286 91.6202 106.604C92.1802 106.921 92.6095 107.36 92.9082 107.92C93.2162 108.47 93.3702 109.096 93.3702 109.796ZM92.0542 109.53C92.0542 109.044 91.9469 108.629 91.7322 108.284C91.5175 107.929 91.2235 107.663 90.8502 107.486C90.4862 107.299 90.0802 107.206 89.6322 107.206C88.9882 107.206 88.4375 107.411 87.9802 107.822C87.5322 108.232 87.2755 108.802 87.2102 109.53H92.0542Z" fill="black"/>
<rect x="1" y="93.4255" width="101" height="32" rx="16" stroke="#5A5A5A"/>
<rect x="113" y="93.4255" width="34" height="32" rx="16" fill="white" fill-opacity="0.4"/>
<path d="M124.672 114.024C124.028 114.024 123.449 113.912 122.936 113.688C122.432 113.454 122.035 113.137 121.746 112.736C121.457 112.325 121.307 111.854 121.298 111.322H122.656C122.703 111.779 122.889 112.166 123.216 112.484C123.552 112.792 124.037 112.946 124.672 112.946C125.279 112.946 125.755 112.796 126.1 112.498C126.455 112.19 126.632 111.798 126.632 111.322C126.632 110.948 126.529 110.645 126.324 110.412C126.119 110.178 125.862 110.001 125.554 109.88C125.246 109.758 124.831 109.628 124.308 109.488C123.664 109.32 123.146 109.152 122.754 108.984C122.371 108.816 122.04 108.554 121.76 108.2C121.489 107.836 121.354 107.35 121.354 106.744C121.354 106.212 121.489 105.74 121.76 105.33C122.031 104.919 122.409 104.602 122.894 104.378C123.389 104.154 123.953 104.042 124.588 104.042C125.503 104.042 126.249 104.27 126.828 104.728C127.416 105.185 127.747 105.792 127.822 106.548H126.422C126.375 106.174 126.179 105.848 125.834 105.568C125.489 105.278 125.031 105.134 124.462 105.134C123.93 105.134 123.496 105.274 123.16 105.554C122.824 105.824 122.656 106.207 122.656 106.702C122.656 107.056 122.754 107.346 122.95 107.57C123.155 107.794 123.403 107.966 123.692 108.088C123.991 108.2 124.406 108.33 124.938 108.48C125.582 108.657 126.1 108.834 126.492 109.012C126.884 109.18 127.22 109.446 127.5 109.81C127.78 110.164 127.92 110.65 127.92 111.266C127.92 111.742 127.794 112.19 127.542 112.61C127.29 113.03 126.917 113.37 126.422 113.632C125.927 113.893 125.344 114.024 124.672 114.024ZM129.753 105.008C129.51 105.008 129.305 104.924 129.137 104.756C128.969 104.588 128.885 104.382 128.885 104.14C128.885 103.897 128.969 103.692 129.137 103.524C129.305 103.356 129.51 103.272 129.753 103.272C129.986 103.272 130.182 103.356 130.341 103.524C130.509 103.692 130.593 103.897 130.593 104.14C130.593 104.382 130.509 104.588 130.341 104.756C130.182 104.924 129.986 105.008 129.753 105.008ZM130.369 106.254V113.926H129.095V106.254H130.369ZM133.114 107.5C133.338 107.061 133.655 106.72 134.066 106.478C134.486 106.235 134.995 106.114 135.592 106.114V107.43H135.256C133.828 107.43 133.114 108.204 133.114 109.754V113.926H131.84V106.254H133.114V107.5ZM137.021 105.008C136.778 105.008 136.573 104.924 136.405 104.756C136.237 104.588 136.153 104.382 136.153 104.14C136.153 103.897 136.237 103.692 136.405 103.524C136.573 103.356 136.778 103.272 137.021 103.272C137.254 103.272 137.45 103.356 137.609 103.524C137.777 103.692 137.861 103.897 137.861 104.14C137.861 104.382 137.777 104.588 137.609 104.756C137.45 104.924 137.254 105.008 137.021 105.008ZM137.637 106.254V113.926H136.363V106.254H137.637Z" fill="black"/>
<rect x="113" y="93.4255" width="34" height="32" rx="16" stroke="#5A5A5A"/>
<rect x="158" y="93.4255" width="110" height="32" rx="16" fill="white" fill-opacity="0.4"/>
<path d="M169.616 104.168C170.68 104.168 171.599 104.368 172.374 104.77C173.158 105.162 173.755 105.726 174.166 106.464C174.586 107.201 174.796 108.069 174.796 109.068C174.796 110.066 174.586 110.934 174.166 111.672C173.755 112.4 173.158 112.96 172.374 113.352C171.599 113.734 170.68 113.926 169.616 113.926H166.578V104.168H169.616ZM169.616 112.876C170.876 112.876 171.837 112.544 172.5 111.882C173.163 111.21 173.494 110.272 173.494 109.068C173.494 107.854 173.158 106.907 172.486 106.226C171.823 105.544 170.867 105.204 169.616 105.204H167.852V112.876H169.616ZM182.776 109.796C182.776 110.038 182.762 110.295 182.734 110.566H176.602C176.649 111.322 176.906 111.914 177.372 112.344C177.848 112.764 178.422 112.974 179.094 112.974C179.645 112.974 180.102 112.848 180.466 112.596C180.84 112.334 181.101 111.989 181.25 111.56H182.622C182.417 112.297 182.006 112.899 181.39 113.366C180.774 113.823 180.009 114.052 179.094 114.052C178.366 114.052 177.713 113.888 177.134 113.562C176.565 113.235 176.117 112.773 175.79 112.176C175.464 111.569 175.3 110.869 175.3 110.076C175.3 109.282 175.459 108.587 175.776 107.99C176.094 107.392 176.537 106.935 177.106 106.618C177.685 106.291 178.348 106.128 179.094 106.128C179.822 106.128 180.466 106.286 181.026 106.604C181.586 106.921 182.016 107.36 182.314 107.92C182.622 108.47 182.776 109.096 182.776 109.796ZM181.46 109.53C181.46 109.044 181.353 108.629 181.138 108.284C180.924 107.929 180.63 107.663 180.256 107.486C179.892 107.299 179.486 107.206 179.038 107.206C178.394 107.206 177.844 107.411 177.386 107.822C176.938 108.232 176.682 108.802 176.616 109.53H181.46ZM186.474 114.052C185.886 114.052 185.359 113.954 184.892 113.758C184.425 113.552 184.057 113.272 183.786 112.918C183.515 112.554 183.366 112.138 183.338 111.672H184.654C184.691 112.054 184.869 112.367 185.186 112.61C185.513 112.852 185.937 112.974 186.46 112.974C186.945 112.974 187.328 112.866 187.608 112.652C187.888 112.437 188.028 112.166 188.028 111.84C188.028 111.504 187.879 111.256 187.58 111.098C187.281 110.93 186.819 110.766 186.194 110.608C185.625 110.458 185.158 110.309 184.794 110.16C184.439 110.001 184.131 109.772 183.87 109.474C183.618 109.166 183.492 108.764 183.492 108.27C183.492 107.878 183.609 107.518 183.842 107.192C184.075 106.865 184.407 106.608 184.836 106.422C185.265 106.226 185.755 106.128 186.306 106.128C187.155 106.128 187.841 106.342 188.364 106.772C188.887 107.201 189.167 107.789 189.204 108.536H187.93C187.902 108.134 187.739 107.812 187.44 107.57C187.151 107.327 186.759 107.206 186.264 107.206C185.807 107.206 185.443 107.304 185.172 107.5C184.901 107.696 184.766 107.952 184.766 108.27C184.766 108.522 184.845 108.732 185.004 108.9C185.172 109.058 185.377 109.189 185.62 109.292C185.872 109.385 186.217 109.492 186.656 109.614C187.207 109.763 187.655 109.912 188 110.062C188.345 110.202 188.639 110.416 188.882 110.706C189.134 110.995 189.265 111.373 189.274 111.84C189.274 112.26 189.157 112.638 188.924 112.974C188.691 113.31 188.359 113.576 187.93 113.772C187.51 113.958 187.025 114.052 186.474 114.052ZM191.031 105.008C190.788 105.008 190.583 104.924 190.415 104.756C190.247 104.588 190.163 104.382 190.163 104.14C190.163 103.897 190.247 103.692 190.415 103.524C190.583 103.356 190.788 103.272 191.031 103.272C191.264 103.272 191.46 103.356 191.619 103.524C191.787 103.692 191.871 103.897 191.871 104.14C191.871 104.382 191.787 104.588 191.619 104.756C191.46 104.924 191.264 105.008 191.031 105.008ZM191.647 106.254V113.926H190.373V106.254H191.647ZM196.282 106.128C196.945 106.128 197.523 106.272 198.018 106.562C198.522 106.851 198.895 107.215 199.138 107.654V106.254H200.426V114.094C200.426 114.794 200.277 115.414 199.978 115.956C199.679 116.506 199.25 116.936 198.69 117.244C198.139 117.552 197.495 117.706 196.758 117.706C195.75 117.706 194.91 117.468 194.238 116.992C193.566 116.516 193.169 115.867 193.048 115.046H194.308C194.448 115.512 194.737 115.886 195.176 116.166C195.615 116.455 196.142 116.6 196.758 116.6C197.458 116.6 198.027 116.38 198.466 115.942C198.914 115.503 199.138 114.887 199.138 114.094V112.484C198.886 112.932 198.513 113.305 198.018 113.604C197.523 113.902 196.945 114.052 196.282 114.052C195.601 114.052 194.98 113.884 194.42 113.548C193.869 113.212 193.435 112.74 193.118 112.134C192.801 111.527 192.642 110.836 192.642 110.062C192.642 109.278 192.801 108.592 193.118 108.004C193.435 107.406 193.869 106.944 194.42 106.618C194.98 106.291 195.601 106.128 196.282 106.128ZM199.138 110.076C199.138 109.497 199.021 108.993 198.788 108.564C198.555 108.134 198.237 107.808 197.836 107.584C197.444 107.35 197.01 107.234 196.534 107.234C196.058 107.234 195.624 107.346 195.232 107.57C194.84 107.794 194.527 108.12 194.294 108.55C194.061 108.979 193.944 109.483 193.944 110.062C193.944 110.65 194.061 111.163 194.294 111.602C194.527 112.031 194.84 112.362 195.232 112.596C195.624 112.82 196.058 112.932 196.534 112.932C197.01 112.932 197.444 112.82 197.836 112.596C198.237 112.362 198.555 112.031 198.788 111.602C199.021 111.163 199.138 110.654 199.138 110.076ZM205.617 106.114C206.55 106.114 207.306 106.398 207.885 106.968C208.463 107.528 208.753 108.34 208.753 109.404V113.926H207.493V109.586C207.493 108.82 207.301 108.237 206.919 107.836C206.536 107.425 206.013 107.22 205.351 107.22C204.679 107.22 204.142 107.43 203.741 107.85C203.349 108.27 203.153 108.881 203.153 109.684V113.926H201.879V106.254H203.153V107.346C203.405 106.954 203.745 106.65 204.175 106.436C204.613 106.221 205.094 106.114 205.617 106.114ZM216.26 114.024C215.616 114.024 215.038 113.912 214.524 113.688C214.02 113.454 213.624 113.137 213.334 112.736C213.045 112.325 212.896 111.854 212.886 111.322H214.244C214.291 111.779 214.478 112.166 214.804 112.484C215.14 112.792 215.626 112.946 216.26 112.946C216.867 112.946 217.343 112.796 217.688 112.498C218.043 112.19 218.22 111.798 218.22 111.322C218.22 110.948 218.118 110.645 217.912 110.412C217.707 110.178 217.45 110.001 217.142 109.88C216.834 109.758 216.419 109.628 215.896 109.488C215.252 109.32 214.734 109.152 214.342 108.984C213.96 108.816 213.628 108.554 213.348 108.2C213.078 107.836 212.942 107.35 212.942 106.744C212.942 106.212 213.078 105.74 213.348 105.33C213.619 104.919 213.997 104.602 214.482 104.378C214.977 104.154 215.542 104.042 216.176 104.042C217.091 104.042 217.838 104.27 218.416 104.728C219.004 105.185 219.336 105.792 219.41 106.548H218.01C217.964 106.174 217.768 105.848 217.422 105.568C217.077 105.278 216.62 105.134 216.05 105.134C215.518 105.134 215.084 105.274 214.748 105.554C214.412 105.824 214.244 106.207 214.244 106.702C214.244 107.056 214.342 107.346 214.538 107.57C214.744 107.794 214.991 107.966 215.28 108.088C215.579 108.2 215.994 108.33 216.526 108.48C217.17 108.657 217.688 108.834 218.08 109.012C218.472 109.18 218.808 109.446 219.088 109.81C219.368 110.164 219.508 110.65 219.508 111.266C219.508 111.742 219.382 112.19 219.13 112.61C218.878 113.03 218.505 113.37 218.01 113.632C217.516 113.893 216.932 114.024 216.26 114.024ZM227.291 106.254L222.671 117.538H221.355L222.867 113.842L219.773 106.254H221.187L223.595 112.47L225.975 106.254H227.291ZM230.588 114.052C230 114.052 229.472 113.954 229.006 113.758C228.539 113.552 228.17 113.272 227.9 112.918C227.629 112.554 227.48 112.138 227.452 111.672H228.768C228.805 112.054 228.982 112.367 229.3 112.61C229.626 112.852 230.051 112.974 230.574 112.974C231.059 112.974 231.442 112.866 231.722 112.652C232.002 112.437 232.142 112.166 232.142 111.84C232.142 111.504 231.992 111.256 231.694 111.098C231.395 110.93 230.933 110.766 230.308 110.608C229.738 110.458 229.272 110.309 228.908 110.16C228.553 110.001 228.245 109.772 227.984 109.474C227.732 109.166 227.606 108.764 227.606 108.27C227.606 107.878 227.722 107.518 227.956 107.192C228.189 106.865 228.52 106.608 228.95 106.422C229.379 106.226 229.869 106.128 230.42 106.128C231.269 106.128 231.955 106.342 232.478 106.772C233 107.201 233.28 107.789 233.318 108.536H232.044C232.016 108.134 231.852 107.812 231.554 107.57C231.264 107.327 230.872 107.206 230.378 107.206C229.92 107.206 229.556 107.304 229.286 107.5C229.015 107.696 228.88 107.952 228.88 108.27C228.88 108.522 228.959 108.732 229.118 108.9C229.286 109.058 229.491 109.189 229.734 109.292C229.986 109.385 230.331 109.492 230.77 109.614C231.32 109.763 231.768 109.912 232.114 110.062C232.459 110.202 232.753 110.416 232.996 110.706C233.248 110.995 233.378 111.373 233.388 111.84C233.388 112.26 233.271 112.638 233.038 112.974C232.804 113.31 232.473 113.576 232.044 113.772C231.624 113.958 231.138 114.052 230.588 114.052ZM236.04 107.304V111.826C236.04 112.199 236.12 112.465 236.278 112.624C236.437 112.773 236.712 112.848 237.104 112.848H238.042V113.926H236.894C236.185 113.926 235.653 113.762 235.298 113.436C234.944 113.109 234.766 112.572 234.766 111.826V107.304H233.772V106.254H234.766V104.322H236.04V106.254H238.042V107.304H236.04ZM245.886 109.796C245.886 110.038 245.872 110.295 245.844 110.566H239.712C239.758 111.322 240.015 111.914 240.482 112.344C240.958 112.764 241.532 112.974 242.204 112.974C242.754 112.974 243.212 112.848 243.576 112.596C243.949 112.334 244.21 111.989 244.36 111.56H245.732C245.526 112.297 245.116 112.899 244.5 113.366C243.884 113.823 243.118 114.052 242.204 114.052C241.476 114.052 240.822 113.888 240.244 113.562C239.674 113.235 239.226 112.773 238.9 112.176C238.573 111.569 238.41 110.869 238.41 110.076C238.41 109.282 238.568 108.587 238.886 107.99C239.203 107.392 239.646 106.935 240.216 106.618C240.794 106.291 241.457 106.128 242.204 106.128C242.932 106.128 243.576 106.286 244.136 106.604C244.696 106.921 245.125 107.36 245.424 107.92C245.732 108.47 245.886 109.096 245.886 109.796ZM244.57 109.53C244.57 109.044 244.462 108.629 244.248 108.284C244.033 107.929 243.739 107.663 243.366 107.486C243.002 107.299 242.596 107.206 242.148 107.206C241.504 107.206 240.953 107.411 240.496 107.822C240.048 108.232 239.791 108.802 239.726 109.53H244.57ZM256.093 106.114C256.691 106.114 257.223 106.24 257.689 106.492C258.156 106.734 258.525 107.103 258.795 107.598C259.066 108.092 259.201 108.694 259.201 109.404V113.926H257.941V109.586C257.941 108.82 257.75 108.237 257.367 107.836C256.994 107.425 256.485 107.22 255.841 107.22C255.179 107.22 254.651 107.434 254.259 107.864C253.867 108.284 253.671 108.895 253.671 109.698V113.926H252.411V109.586C252.411 108.82 252.22 108.237 251.837 107.836C251.464 107.425 250.955 107.22 250.311 107.22C249.649 107.22 249.121 107.434 248.729 107.864C248.337 108.284 248.141 108.895 248.141 109.698V113.926H246.867V106.254H248.141V107.36C248.393 106.958 248.729 106.65 249.149 106.436C249.579 106.221 250.05 106.114 250.563 106.114C251.207 106.114 251.777 106.258 252.271 106.548C252.766 106.837 253.135 107.262 253.377 107.822C253.592 107.28 253.947 106.86 254.441 106.562C254.936 106.263 255.487 106.114 256.093 106.114Z" fill="black"/>
<rect x="158" y="93.4255" width="110" height="32" rx="16" stroke="#5A5A5A"/>
<rect x="279" y="93.4255" width="79" height="32" rx="16" fill="white" fill-opacity="0.4"/>
<path d="M293.094 104.168V105.204H288.852V108.494H292.296V109.53H288.852V113.926H287.578V104.168H293.094ZM300.933 109.796C300.933 110.038 300.919 110.295 300.891 110.566H294.759C294.805 111.322 295.062 111.914 295.529 112.344C296.005 112.764 296.579 112.974 297.251 112.974C297.801 112.974 298.259 112.848 298.623 112.596C298.996 112.334 299.257 111.989 299.407 111.56H300.779C300.573 112.297 300.163 112.899 299.547 113.366C298.931 113.823 298.165 114.052 297.251 114.052C296.523 114.052 295.869 113.888 295.291 113.562C294.721 113.235 294.273 112.773 293.947 112.176C293.62 111.569 293.457 110.869 293.457 110.076C293.457 109.282 293.615 108.587 293.933 107.99C294.25 107.392 294.693 106.935 295.263 106.618C295.841 106.291 296.504 106.128 297.251 106.128C297.979 106.128 298.623 106.286 299.183 106.604C299.743 106.921 300.172 107.36 300.471 107.92C300.779 108.47 300.933 109.096 300.933 109.796ZM299.617 109.53C299.617 109.044 299.509 108.629 299.295 108.284C299.08 107.929 298.786 107.663 298.413 107.486C298.049 107.299 297.643 107.206 297.195 107.206C296.551 107.206 296 107.411 295.543 107.822C295.095 108.232 294.838 108.802 294.773 109.53H299.617ZM308.914 109.796C308.914 110.038 308.9 110.295 308.872 110.566H302.74C302.787 111.322 303.044 111.914 303.51 112.344C303.986 112.764 304.56 112.974 305.232 112.974C305.783 112.974 306.24 112.848 306.604 112.596C306.978 112.334 307.239 111.989 307.388 111.56H308.76C308.555 112.297 308.144 112.899 307.528 113.366C306.912 113.823 306.147 114.052 305.232 114.052C304.504 114.052 303.851 113.888 303.272 113.562C302.703 113.235 302.255 112.773 301.928 112.176C301.602 111.569 301.438 110.869 301.438 110.076C301.438 109.282 301.597 108.587 301.914 107.99C302.232 107.392 302.675 106.935 303.244 106.618C303.823 106.291 304.486 106.128 305.232 106.128C305.96 106.128 306.604 106.286 307.164 106.604C307.724 106.921 308.154 107.36 308.452 107.92C308.76 108.47 308.914 109.096 308.914 109.796ZM307.598 109.53C307.598 109.044 307.491 108.629 307.276 108.284C307.062 107.929 306.768 107.663 306.394 107.486C306.03 107.299 305.624 107.206 305.176 107.206C304.532 107.206 303.982 107.411 303.524 107.822C303.076 108.232 302.82 108.802 302.754 109.53H307.598ZM309.42 110.062C309.42 109.278 309.579 108.592 309.896 108.004C310.213 107.406 310.647 106.944 311.198 106.618C311.758 106.291 312.383 106.128 313.074 106.128C313.671 106.128 314.227 106.268 314.74 106.548C315.253 106.818 315.645 107.178 315.916 107.626V103.566H317.204V113.926H315.916V112.484C315.664 112.941 315.291 113.319 314.796 113.618C314.301 113.907 313.723 114.052 313.06 114.052C312.379 114.052 311.758 113.884 311.198 113.548C310.647 113.212 310.213 112.74 309.896 112.134C309.579 111.527 309.42 110.836 309.42 110.062ZM315.916 110.076C315.916 109.497 315.799 108.993 315.566 108.564C315.333 108.134 315.015 107.808 314.614 107.584C314.222 107.35 313.788 107.234 313.312 107.234C312.836 107.234 312.402 107.346 312.01 107.57C311.618 107.794 311.305 108.12 311.072 108.55C310.839 108.979 310.722 109.483 310.722 110.062C310.722 110.65 310.839 111.163 311.072 111.602C311.305 112.031 311.618 112.362 312.01 112.596C312.402 112.82 312.836 112.932 313.312 112.932C313.788 112.932 314.222 112.82 314.614 112.596C315.015 112.362 315.333 112.031 315.566 111.602C315.799 111.163 315.916 110.654 315.916 110.076ZM319.931 107.682C320.192 107.224 320.575 106.851 321.079 106.562C321.583 106.272 322.157 106.128 322.801 106.128C323.492 106.128 324.112 106.291 324.663 106.618C325.214 106.944 325.648 107.406 325.965 108.004C326.282 108.592 326.441 109.278 326.441 110.062C326.441 110.836 326.282 111.527 325.965 112.134C325.648 112.74 325.209 113.212 324.649 113.548C324.098 113.884 323.482 114.052 322.801 114.052C322.138 114.052 321.555 113.907 321.051 113.618C320.556 113.328 320.183 112.96 319.931 112.512V113.926H318.657V103.566H319.931V107.682ZM325.139 110.062C325.139 109.483 325.022 108.979 324.789 108.55C324.556 108.12 324.238 107.794 323.837 107.57C323.445 107.346 323.011 107.234 322.535 107.234C322.068 107.234 321.634 107.35 321.233 107.584C320.841 107.808 320.524 108.139 320.281 108.578C320.048 109.007 319.931 109.506 319.931 110.076C319.931 110.654 320.048 111.163 320.281 111.602C320.524 112.031 320.841 112.362 321.233 112.596C321.634 112.82 322.068 112.932 322.535 112.932C323.011 112.932 323.445 112.82 323.837 112.596C324.238 112.362 324.556 112.031 324.789 111.602C325.022 111.163 325.139 110.65 325.139 110.062ZM326.942 110.062C326.942 109.278 327.101 108.592 327.418 108.004C327.735 107.406 328.169 106.944 328.72 106.618C329.28 106.291 329.901 106.128 330.582 106.128C331.254 106.128 331.837 106.272 332.332 106.562C332.827 106.851 333.195 107.215 333.438 107.654V106.254H334.726V113.926H333.438V112.498C333.186 112.946 332.808 113.319 332.304 113.618C331.809 113.907 331.231 114.052 330.568 114.052C329.887 114.052 329.271 113.884 328.72 113.548C328.169 113.212 327.735 112.74 327.418 112.134C327.101 111.527 326.942 110.836 326.942 110.062ZM333.438 110.076C333.438 109.497 333.321 108.993 333.088 108.564C332.855 108.134 332.537 107.808 332.136 107.584C331.744 107.35 331.31 107.234 330.834 107.234C330.358 107.234 329.924 107.346 329.532 107.57C329.14 107.794 328.827 108.12 328.594 108.55C328.361 108.979 328.244 109.483 328.244 110.062C328.244 110.65 328.361 111.163 328.594 111.602C328.827 112.031 329.14 112.362 329.532 112.596C329.924 112.82 330.358 112.932 330.834 112.932C331.31 112.932 331.744 112.82 332.136 112.596C332.537 112.362 332.855 112.031 333.088 111.602C333.321 111.163 333.438 110.654 333.438 110.076ZM335.703 110.076C335.703 109.282 335.861 108.592 336.179 108.004C336.496 107.406 336.935 106.944 337.495 106.618C338.064 106.291 338.713 106.128 339.441 106.128C340.383 106.128 341.158 106.356 341.765 106.814C342.381 107.271 342.787 107.906 342.983 108.718H341.611C341.48 108.251 341.223 107.882 340.841 107.612C340.467 107.341 340.001 107.206 339.441 107.206C338.713 107.206 338.125 107.458 337.677 107.962C337.229 108.456 337.005 109.161 337.005 110.076C337.005 111 337.229 111.714 337.677 112.218C338.125 112.722 338.713 112.974 339.441 112.974C340.001 112.974 340.467 112.843 340.841 112.582C341.214 112.32 341.471 111.947 341.611 111.462H342.983C342.777 112.246 342.367 112.876 341.751 113.352C341.135 113.818 340.365 114.052 339.441 114.052C338.713 114.052 338.064 113.888 337.495 113.562C336.935 113.235 336.496 112.773 336.179 112.176C335.861 111.578 335.703 110.878 335.703 110.076ZM348.267 113.926L345.257 110.538V113.926H343.983V103.566H345.257V109.656L348.211 106.254H349.989L346.377 110.076L350.003 113.926H348.267Z" fill="black"/>
<rect x="279" y="93.4255" width="79" height="32" rx="16" stroke="#5A5A5A"/>
</svg>
