<svg width="1920" height="1529" viewBox="0 0 1920 1529" fill="none" xmlns="http://www.w3.org/2000/svg">
<g filter="url(#filter0_f_113_1172)">
<path d="M-10.6329 357.829C-11.919 355.947 -11.7502 354.431 -10.6329 353.314V357.829C-4.60437 366.65 33.3914 383.511 155.5 405.06C340.697 437.742 485.042 421.401 493.212 445.912C501.383 470.424 493.212 565.746 493.212 617.492C493.212 669.239 588.534 764.561 386.996 748.22C185.458 731.879 109.2 761.837 49.2838 696.473C-10.6329 631.11 -10.6329 535.788 -10.6329 503.106V357.829Z" fill="#FCE196"/>
<path d="M849.989 260.715L702.921 189.905L621.216 225.31C603.06 237.112 566.747 265.618 566.747 285.227C566.747 309.738 564.023 350.59 566.747 364.208C569.47 377.825 702.921 424.125 732.879 421.401C762.838 418.678 869.054 437.742 912.63 473.147C956.205 508.553 958.929 524.894 1056.97 560.299C1155.02 595.704 1165.91 549.405 1201.32 524.894C1236.72 500.382 1261.24 407.784 1285.75 350.59C1310.26 293.397 1266.68 260.715 1261.24 225.31C1256.88 196.986 1206.77 189.905 1182.25 189.905L1056.97 173.564L849.989 260.715Z" fill="#BCF78C"/>
<path d="M1568.99 410.507C1586.42 406.149 1596.23 285.227 1598.95 225.31H1675.21C1716.06 225.31 1767.8 266.162 1816.83 315.185C1865.85 364.208 1884.91 410.507 1917.6 443.189C1950.28 475.871 1914.87 538.511 1917.6 565.746C1920.32 592.981 1835.89 712.814 1816.83 764.561C1797.76 816.307 1699.72 892.565 1634.35 952.481C1582.06 1000.41 1547.2 1023.29 1536.31 1028.74C1480.93 1019.66 1370.18 999.87 1370.18 993.334C1370.18 985.163 1266.68 963.375 1174.08 892.565C1081.49 821.754 1174.08 832.648 1223.11 764.561C1272.13 696.473 1293.92 644.727 1370.18 565.746C1446.43 486.765 1427.37 486.765 1454.6 475.871C1481.84 464.977 1547.2 415.954 1568.99 410.507Z" fill="#BE78FB"/>
</g>
<defs>
<filter id="filter0_f_113_1172" x="-511.535" y="-326.436" width="2943.07" height="1855.18" filterUnits="userSpaceOnUse" color-interpolation-filters="sRGB">
<feFlood flood-opacity="0" result="BackgroundImageFix"/>
<feBlend mode="normal" in="SourceGraphic" in2="BackgroundImageFix" result="shape"/>
<feGaussianBlur stdDeviation="250" result="effect1_foregroundBlur_113_1172"/>
</filter>
</defs>
</svg>
