<svg width="79" height="24" viewBox="0 0 79 24" fill="none" xmlns="http://www.w3.org/2000/svg">
<path fill-rule="evenodd" clip-rule="evenodd" d="M12 11.52C9.61418 11.52 7.68005 9.58588 7.68005 7.20001C7.68005 4.81413 9.61418 2.88 12 2.88C14.3859 2.88 16.32 4.81413 16.32 7.20001C16.32 9.58588 14.3859 11.52 12 11.52ZM12 12.48C15.9765 12.48 19.2 15.7036 19.2 19.68V21.6C19.2 21.8651 18.9851 22.08 18.72 22.08H5.28005C5.01495 22.08 4.80005 21.8651 4.80005 21.6V19.68C4.80005 15.7036 8.0236 12.48 12 12.48Z" fill="#454F5B"/>
<path d="M37.76 17C37.6427 17 37.552 16.968 37.488 16.904C37.424 16.8293 37.392 16.7387 37.392 16.632V6.168C37.392 6.06133 37.424 5.976 37.488 5.912C37.552 5.83733 37.6427 5.8 37.76 5.8H38.608C38.7147 5.8 38.8 5.83733 38.864 5.912C38.9387 5.976 38.976 6.06133 38.976 6.168V15.608H44.288C44.4053 15.608 44.496 15.6453 44.56 15.72C44.6347 15.784 44.672 15.8747 44.672 15.992V16.632C44.672 16.7387 44.6347 16.8293 44.56 16.904C44.496 16.968 44.4053 17 44.288 17H37.76ZM49.6135 17.16C48.8029 17.16 48.1255 17.0053 47.5815 16.696C47.0375 16.3867 46.6215 15.96 46.3335 15.416C46.0455 14.8613 45.8855 14.232 45.8535 13.528C45.8429 13.3467 45.8375 13.1173 45.8375 12.84C45.8375 12.552 45.8429 12.3227 45.8535 12.152C45.8855 11.4373 46.0455 10.808 46.3335 10.264C46.6322 9.72 47.0535 9.29333 47.5975 8.984C48.1415 8.67467 48.8135 8.52 49.6135 8.52C50.4135 8.52 51.0855 8.67467 51.6295 8.984C52.1735 9.29333 52.5895 9.72 52.8775 10.264C53.1762 10.808 53.3415 11.4373 53.3735 12.152C53.3842 12.3227 53.3895 12.552 53.3895 12.84C53.3895 13.1173 53.3842 13.3467 53.3735 13.528C53.3415 14.232 53.1815 14.8613 52.8935 15.416C52.6055 15.96 52.1895 16.3867 51.6455 16.696C51.1015 17.0053 50.4242 17.16 49.6135 17.16ZM49.6135 15.928C50.2749 15.928 50.8029 15.72 51.1975 15.304C51.5922 14.8773 51.8055 14.2587 51.8375 13.448C51.8482 13.288 51.8535 13.0853 51.8535 12.84C51.8535 12.5947 51.8482 12.392 51.8375 12.232C51.8055 11.4213 51.5922 10.808 51.1975 10.392C50.8029 9.96533 50.2749 9.752 49.6135 9.752C48.9522 9.752 48.4189 9.96533 48.0135 10.392C47.6189 10.808 47.4109 11.4213 47.3895 12.232C47.3789 12.392 47.3735 12.5947 47.3735 12.84C47.3735 13.0853 47.3789 13.288 47.3895 13.448C47.4109 14.2587 47.6189 14.8773 48.0135 15.304C48.4189 15.72 48.9522 15.928 49.6135 15.928ZM58.9788 20.52C58.2535 20.52 57.6561 20.424 57.1868 20.232C56.7281 20.04 56.3655 19.8053 56.0988 19.528C55.8428 19.2613 55.6561 18.9893 55.5388 18.712C55.4321 18.4453 55.3735 18.232 55.3628 18.072C55.3521 17.9653 55.3841 17.8747 55.4588 17.8C55.5441 17.7253 55.6348 17.688 55.7308 17.688H56.4988C56.5948 17.688 56.6748 17.7093 56.7388 17.752C56.8028 17.7947 56.8561 17.8853 56.8988 18.024C56.9628 18.184 57.0588 18.36 57.1868 18.552C57.3148 18.7547 57.5121 18.9253 57.7788 19.064C58.0455 19.2133 58.4188 19.288 58.8988 19.288C59.4001 19.288 59.8215 19.2187 60.1628 19.08C60.5041 18.9413 60.7601 18.7067 60.9308 18.376C61.1121 18.0453 61.2028 17.5867 61.2028 17V15.912C60.9468 16.2427 60.6108 16.52 60.1948 16.744C59.7788 16.9573 59.2561 17.064 58.6268 17.064C58.0295 17.064 57.5175 16.9627 57.0908 16.76C56.6641 16.5467 56.3121 16.264 56.0348 15.912C55.7681 15.5493 55.5655 15.1387 55.4268 14.68C55.2988 14.2213 55.2241 13.7413 55.2028 13.24C55.1921 12.9413 55.1921 12.648 55.2028 12.36C55.2241 11.8587 55.2988 11.3787 55.4268 10.92C55.5655 10.4613 55.7681 10.0507 56.0348 9.688C56.3121 9.32533 56.6641 9.04267 57.0908 8.84C57.5175 8.62667 58.0295 8.52 58.6268 8.52C59.2668 8.52 59.7948 8.63733 60.2108 8.872C60.6375 9.10667 60.9841 9.4 61.2508 9.752V9.064C61.2508 8.95733 61.2828 8.86667 61.3468 8.792C61.4215 8.71733 61.5121 8.68 61.6188 8.68H62.3548C62.4615 8.68 62.5521 8.71733 62.6268 8.792C62.7015 8.86667 62.7388 8.95733 62.7388 9.064V16.824C62.7388 17.5387 62.6161 18.1733 62.3708 18.728C62.1361 19.2827 61.7415 19.72 61.1868 20.04C60.6428 20.36 59.9068 20.52 58.9788 20.52ZM58.9468 15.784C59.4801 15.784 59.9068 15.6613 60.2268 15.416C60.5575 15.1707 60.7975 14.8613 60.9468 14.488C61.1068 14.1147 61.1921 13.736 61.2028 13.352C61.2135 13.2027 61.2188 13.0213 61.2188 12.808C61.2188 12.584 61.2135 12.3973 61.2028 12.248C61.1921 11.864 61.1068 11.4853 60.9468 11.112C60.7975 10.7387 60.5575 10.4293 60.2268 10.184C59.9068 9.93867 59.4801 9.816 58.9468 9.816C58.4135 9.816 57.9868 9.93867 57.6668 10.184C57.3468 10.4187 57.1175 10.7333 56.9788 11.128C56.8401 11.512 56.7601 11.928 56.7388 12.376C56.7281 12.6533 56.7281 12.936 56.7388 13.224C56.7601 13.672 56.8401 14.0933 56.9788 14.488C57.1175 14.872 57.3468 15.1867 57.6668 15.432C57.9868 15.6667 58.4135 15.784 58.9468 15.784ZM65.6635 17C65.5568 17 65.4661 16.968 65.3915 16.904C65.3275 16.8293 65.2955 16.7387 65.2955 16.632V9.048C65.2955 8.94133 65.3275 8.856 65.3915 8.792C65.4661 8.71733 65.5568 8.68 65.6635 8.68H66.4315C66.5381 8.68 66.6235 8.71733 66.6875 8.792C66.7621 8.856 66.7995 8.94133 66.7995 9.048V16.632C66.7995 16.7387 66.7621 16.8293 66.6875 16.904C66.6235 16.968 66.5381 17 66.4315 17H65.6635ZM65.5355 7.128C65.4288 7.128 65.3381 7.096 65.2635 7.032C65.1995 6.95733 65.1675 6.86667 65.1675 6.76V5.896C65.1675 5.78933 65.1995 5.69867 65.2635 5.624C65.3381 5.54933 65.4288 5.512 65.5355 5.512H66.5435C66.6501 5.512 66.7408 5.54933 66.8155 5.624C66.8901 5.69867 66.9275 5.78933 66.9275 5.896V6.76C66.9275 6.86667 66.8901 6.95733 66.8155 7.032C66.7408 7.096 66.6501 7.128 66.5435 7.128H65.5355ZM69.7162 17C69.6096 17 69.5189 16.968 69.4442 16.904C69.3802 16.8293 69.3482 16.7387 69.3482 16.632V9.048C69.3482 8.94133 69.3802 8.856 69.4442 8.792C69.5189 8.71733 69.6096 8.68 69.7162 8.68H70.4682C70.5749 8.68 70.6602 8.71733 70.7242 8.792C70.7989 8.856 70.8362 8.94133 70.8362 9.048V9.752C71.1136 9.38933 71.4602 9.096 71.8762 8.872C72.3029 8.63733 72.8469 8.52 73.5082 8.52C74.2016 8.52 74.7882 8.67467 75.2682 8.984C75.7589 9.28267 76.1269 9.704 76.3722 10.248C76.6282 10.7813 76.7562 11.4053 76.7562 12.12V16.632C76.7562 16.7387 76.7189 16.8293 76.6442 16.904C76.5802 16.968 76.4949 17 76.3882 17H75.5882C75.4816 17 75.3909 16.968 75.3162 16.904C75.2522 16.8293 75.2202 16.7387 75.2202 16.632V12.2C75.2202 11.4533 75.0389 10.872 74.6762 10.456C74.3136 10.0293 73.7802 9.816 73.0762 9.816C72.4149 9.816 71.8816 10.0293 71.4762 10.456C71.0816 10.872 70.8842 11.4533 70.8842 12.2V16.632C70.8842 16.7387 70.8469 16.8293 70.7722 16.904C70.7082 16.968 70.6229 17 70.5162 17H69.7162Z" fill="#161D25"/>
</svg>
