<svg width="55" height="56" viewBox="0 0 55 56" fill="none" xmlns="http://www.w3.org/2000/svg">
<path d="M28.0452 29.7983C28.4458 29.6196 28.7753 29.3123 28.9813 28.9251C29.1874 28.5378 29.2582 28.0928 29.1825 27.6608C29.1068 27.2287 28.8889 26.8343 28.5635 26.5401C28.2381 26.246 27.8238 26.069 27.3863 26.0372C26.9488 26.0054 26.5132 26.1206 26.1486 26.3646C25.7841 26.6085 25.5115 26.9673 25.3741 27.3838C25.2367 27.8004 25.2424 28.2509 25.3902 28.6639C25.538 29.0769 25.8196 29.4287 26.1902 29.6634" stroke="black" stroke-linecap="round"/>
<path d="M24.2588 25.0156C24.9677 24.3067 25.9058 23.8733 26.9051 23.7929C27.9044 23.7125 28.8997 23.9904 29.7128 24.5769C30.5259 25.1634 31.1037 26.0201 31.3428 26.9938C31.5819 27.9674 31.4666 28.9943 31.0177 29.8907C30.5687 30.7871 29.8153 31.4944 28.8924 31.8861C27.9696 32.2777 26.9374 32.3281 25.9808 32.0281C25.0241 31.7282 24.2055 31.0976 23.6714 30.2492C23.1373 29.4007 22.9226 28.3899 23.0657 27.3976" stroke="black" stroke-linecap="round"/>
<path d="M33.378 28.0004C33.378 26.6281 32.9178 25.2954 32.0711 24.2154C31.2243 23.1354 30.0399 22.3706 28.7072 22.0431C27.3745 21.7157 25.9705 21.8446 24.7197 22.4092C23.4689 22.9738 22.4435 23.9415 21.8075 25.1576C21.1716 26.3737 20.9617 27.7679 21.2116 29.1173C21.4615 30.4667 22.1566 31.6934 23.1858 32.6011C24.215 33.5089 25.5189 34.0453 26.889 34.1246C28.259 34.2039 29.6161 33.8216 30.7432 33.0386" stroke="black" stroke-width="1.5" stroke-linecap="round"/>
<path d="M34.299 20.9449C35.9314 22.5773 36.9472 24.7251 37.1735 27.0224C37.3997 29.3198 36.8224 31.6245 35.5399 33.5439C34.2574 35.4633 32.349 36.8787 30.14 37.5488C27.9309 38.2189 25.5579 38.1023 23.4251 37.2189C21.2924 36.3355 19.5319 34.7399 18.4437 32.704C17.3555 30.6681 17.0069 28.3179 17.4573 26.0538C17.9077 23.7897 19.1291 21.7518 20.9136 20.2873C22.6981 18.8229 24.9351 18.0225 27.2436 18.0225" stroke="black" stroke-width="2" stroke-linecap="round"/>
<path d="M18.6649 41.0271C21.6047 42.963 25.1129 43.8476 28.6191 43.5372C32.1254 43.2268 35.4235 41.7395 37.9774 39.3172C40.5314 36.8949 42.1909 33.68 42.6862 30.195C43.1816 26.7101 42.4836 23.1601 40.7058 20.1221C38.928 17.0841 36.1749 14.7367 32.894 13.4616C29.6132 12.1864 25.9974 12.0585 22.6347 13.0986C19.2719 14.1386 16.3597 16.2855 14.3717 19.1903C12.3836 22.0951 11.4365 25.5869 11.6843 29.0981" stroke="black" stroke-width="3" stroke-linecap="round"/>
<path d="M52.4871 28.0001C52.4871 21.7719 50.1846 15.7635 46.0223 11.1302C41.86 6.497 36.1319 3.56604 29.9392 2.90094C23.7466 2.23583 17.5267 3.88354 12.4755 7.52722C7.42424 11.1709 3.89834 16.5533 2.57574 22.6395C1.25314 28.7257 2.2272 35.086 5.31064 40.4975C8.39408 45.9089 13.3692 49.9894 19.2794 51.9544C25.1895 53.9194 31.6175 53.6301 37.3273 51.1422C43.037 48.6542 47.6255 44.1433 50.2104 38.4768" stroke="black" stroke-width="4" stroke-linecap="round"/>
</svg>
