<svg width="73" height="20" viewBox="0 0 73 20" fill="none" xmlns="http://www.w3.org/2000/svg">
<path d="M29.648 15C29.5307 15 29.4347 14.9627 29.36 14.888C29.2853 14.8133 29.248 14.7227 29.248 14.616V4.2C29.248 4.08267 29.2853 3.98667 29.36 3.912C29.4347 3.83733 29.5307 3.8 29.648 3.8H30.912C31.0613 3.8 31.1733 3.84267 31.248 3.928C31.3227 4.00267 31.3707 4.06133 31.392 4.104L34.48 9.864L37.6 4.104C37.6213 4.06133 37.6693 4.00267 37.744 3.928C37.8187 3.84267 37.9307 3.8 38.08 3.8H39.328C39.4453 3.8 39.5413 3.83733 39.616 3.912C39.6907 3.98667 39.728 4.08267 39.728 4.2V14.616C39.728 14.7227 39.6907 14.8133 39.616 14.888C39.5413 14.9627 39.4453 15 39.328 15H37.984C37.8667 15 37.7707 14.9627 37.696 14.888C37.632 14.8133 37.6 14.7227 37.6 14.616V7.688L35.36 11.96C35.3067 12.056 35.2373 12.1413 35.152 12.216C35.0667 12.28 34.9547 12.312 34.816 12.312H34.16C34.0107 12.312 33.8933 12.28 33.808 12.216C33.7333 12.1413 33.6693 12.056 33.616 11.96L31.376 7.688V14.616C31.376 14.7227 31.3387 14.8133 31.264 14.888C31.1893 14.9627 31.0987 15 30.992 15H29.648ZM45.7865 15.16C44.6025 15.16 43.6639 14.8187 42.9705 14.136C42.2772 13.4533 41.9039 12.4827 41.8505 11.224C41.8399 11.1173 41.8345 10.984 41.8345 10.824C41.8345 10.6533 41.8399 10.52 41.8505 10.424C41.8932 9.624 42.0745 8.93067 42.3945 8.344C42.7252 7.75733 43.1785 7.30933 43.7545 7C44.3305 6.68 45.0079 6.52 45.7865 6.52C46.6505 6.52 47.3759 6.70133 47.9625 7.064C48.5492 7.416 48.9919 7.912 49.2905 8.552C49.5892 9.18133 49.7385 9.912 49.7385 10.744V11.08C49.7385 11.1867 49.7012 11.2773 49.6265 11.352C49.5519 11.4267 49.4559 11.464 49.3385 11.464H44.0265C44.0265 11.464 44.0265 11.48 44.0265 11.512C44.0265 11.544 44.0265 11.5707 44.0265 11.592C44.0372 11.9653 44.1065 12.312 44.2345 12.632C44.3732 12.9413 44.5705 13.192 44.8265 13.384C45.0932 13.576 45.4079 13.672 45.7705 13.672C46.0692 13.672 46.3199 13.6293 46.5225 13.544C46.7252 13.448 46.8905 13.3413 47.0185 13.224C47.1465 13.1067 47.2372 13.0107 47.2905 12.936C47.3865 12.808 47.4612 12.7333 47.5145 12.712C47.5785 12.68 47.6692 12.664 47.7865 12.664H49.1625C49.2692 12.664 49.3545 12.696 49.4185 12.76C49.4932 12.824 49.5252 12.904 49.5145 13C49.5039 13.1707 49.4132 13.3787 49.2425 13.624C49.0825 13.8693 48.8479 14.1093 48.5385 14.344C48.2292 14.5787 47.8399 14.776 47.3705 14.936C46.9119 15.0853 46.3839 15.16 45.7865 15.16ZM44.0265 10.12H47.5625V10.072C47.5625 9.656 47.4932 9.29333 47.3545 8.984C47.2159 8.67467 47.0132 8.42933 46.7465 8.248C46.4799 8.06667 46.1599 7.976 45.7865 7.976C45.4132 7.976 45.0932 8.06667 44.8265 8.248C44.5599 8.42933 44.3572 8.67467 44.2185 8.984C44.0905 9.29333 44.0265 9.656 44.0265 10.072V10.12ZM51.9987 15C51.892 15 51.8013 14.9627 51.7267 14.888C51.652 14.8133 51.6147 14.7227 51.6147 14.616V7.064C51.6147 6.95733 51.652 6.86667 51.7267 6.792C51.8013 6.71733 51.892 6.68 51.9987 6.68H53.3107C53.4173 6.68 53.508 6.71733 53.5827 6.792C53.6573 6.86667 53.6947 6.95733 53.6947 7.064V7.72C53.972 7.37867 54.324 7.096 54.7507 6.872C55.188 6.63733 55.7267 6.52 56.3667 6.52C57.0173 6.52 57.5827 6.66933 58.0627 6.968C58.5427 7.256 58.9107 7.66667 59.1667 8.2C59.4333 8.73333 59.5667 9.37333 59.5667 10.12V14.616C59.5667 14.7227 59.5293 14.8133 59.4547 14.888C59.38 14.9627 59.2893 15 59.1827 15H57.7747C57.668 15 57.5773 14.9627 57.5027 14.888C57.428 14.8133 57.3907 14.7227 57.3907 14.616V10.216C57.3907 9.59733 57.236 9.112 56.9267 8.76C56.628 8.408 56.1907 8.232 55.6147 8.232C55.06 8.232 54.6173 8.408 54.2867 8.76C53.956 9.112 53.7907 9.59733 53.7907 10.216V14.616C53.7907 14.7227 53.7533 14.8133 53.6787 14.888C53.604 14.9627 53.5133 15 53.4067 15H51.9987ZM64.8648 15.16C64.2142 15.16 63.6488 15.016 63.1688 14.728C62.6995 14.4293 62.3368 14.0133 62.0808 13.48C61.8248 12.936 61.6968 12.296 61.6968 11.56V7.064C61.6968 6.95733 61.7342 6.86667 61.8088 6.792C61.8835 6.71733 61.9742 6.68 62.0808 6.68H63.4888C63.6062 6.68 63.6968 6.71733 63.7608 6.792C63.8355 6.86667 63.8728 6.95733 63.8728 7.064V11.464C63.8728 12.7867 64.4542 13.448 65.6168 13.448C66.1715 13.448 66.6088 13.272 66.9288 12.92C67.2595 12.568 67.4248 12.0827 67.4248 11.464V7.064C67.4248 6.95733 67.4622 6.86667 67.5368 6.792C67.6115 6.71733 67.7022 6.68 67.8088 6.68H69.2168C69.3235 6.68 69.4142 6.71733 69.4888 6.792C69.5635 6.86667 69.6008 6.95733 69.6008 7.064V14.616C69.6008 14.7227 69.5635 14.8133 69.4888 14.888C69.4142 14.9627 69.3235 15 69.2168 15H67.9208C67.8035 15 67.7075 14.9627 67.6328 14.888C67.5688 14.8133 67.5368 14.7227 67.5368 14.616V13.96C67.2488 14.3333 66.8915 14.6267 66.4648 14.84C66.0382 15.0533 65.5048 15.16 64.8648 15.16Z" fill="#161D25"/>
<path fill-rule="evenodd" clip-rule="evenodd" d="M3.8 4.39995C3.46863 4.39995 3.2 4.13132 3.2 3.79995C3.2 3.46858 3.46863 3.19995 3.8 3.19995H16.6C16.9314 3.19995 17.2 3.46858 17.2 3.79995C17.2 4.13132 16.9314 4.39995 16.6 4.39995H3.8ZM3.8 15.6C3.46863 15.6 3.2 15.3313 3.2 15C3.2 14.6686 3.46863 14.4 3.8 14.4H16.6C16.9314 14.4 17.2 14.6686 17.2 15C17.2 15.3313 16.9314 15.6 16.6 15.6H3.8ZM3.2 9.39995C3.2 9.73132 3.46863 9.99995 3.8 9.99995H16.6C16.9314 9.99995 17.2 9.73132 17.2 9.39995C17.2 9.06858 16.9314 8.79995 16.6 8.79995H3.8C3.46863 8.79995 3.2 9.06858 3.2 9.39995Z" fill="#454F5B"/>
</svg>
