<svg width="119" height="24" viewBox="0 0 119 24" fill="none" xmlns="http://www.w3.org/2000/svg">
<g clip-path="url(#clip0_0_747)">
<path fill-rule="evenodd" clip-rule="evenodd" d="M3.82443 6.02642L3.64203 4.52976C3.57632 3.89527 3.03543 3.41278 2.38991 3.41278H1.71551C1.29822 3.41278 0.959961 3.0786 0.959961 2.66641C0.959961 2.25422 1.29822 1.92004 1.71551 1.92004H2.38991C3.81047 1.92004 5.0007 2.98176 5.14528 4.37784L5.28294 5.70708H20.6162C20.9332 5.70708 21.1714 5.99297 21.1104 6.30029L19.7708 13.0491C19.4465 14.6829 17.9971 15.8614 16.3119 15.8614H8.28333C8.51487 16.8708 9.42793 17.6024 10.493 17.6024H16.8165C16.8537 17.6024 16.8907 17.6051 16.8722 17.6084C16.9276 17.6044 16.9832 17.6024 17.0391 17.6024C18.2907 17.6024 19.3053 18.6048 19.3053 19.8412C19.3053 21.0777 18.2907 22.08 17.0391 22.08C15.7875 22.08 14.7729 21.0777 14.7729 19.8412C14.7729 19.5836 14.8171 19.3321 14.9019 19.0952H12.1267C12.2114 19.3321 12.2556 19.5836 12.2556 19.8412C12.2556 21.0777 11.241 22.08 9.98944 22.08C8.73783 22.08 7.72324 21.0777 7.72324 19.8412C7.72324 19.296 7.92191 18.7821 8.27103 18.3815C7.4122 17.7637 6.84565 16.8105 6.7358 15.7468L6.7242 15.6345C5.49457 15.172 4.58707 14.0478 4.46619 12.6825L4.16169 9.24306C4.15655 9.22179 4.15277 9.19993 4.15045 9.17758L3.82443 6.02642ZM9.98944 20.8362C10.5456 20.8362 10.9965 20.3907 10.9965 19.8412C10.9965 19.2917 10.5456 18.8463 9.98944 18.8463C9.43323 18.8463 8.98234 19.2917 8.98234 19.8412C8.98234 20.3907 9.43323 20.8362 9.98944 20.8362ZM17.0391 20.8362C17.5953 20.8362 18.0462 20.3907 18.0462 19.8412C18.0462 19.2917 17.5953 18.8463 17.0391 18.8463C16.4829 18.8463 16.032 19.2917 16.032 19.8412C16.032 20.3907 16.4829 20.8362 17.0391 20.8362Z" fill="#454F5B"/>
<path d="M37.76 17C37.6533 17 37.5627 16.968 37.488 16.904C37.424 16.8293 37.392 16.7387 37.392 16.632V6.184C37.392 6.06667 37.424 5.976 37.488 5.912C37.5627 5.83733 37.6533 5.8 37.76 5.8H38.56C38.688 5.8 38.784 5.832 38.848 5.896C38.912 5.96 38.9547 6.01333 38.976 6.056L42.352 12.52L45.76 6.056C45.7813 6.01333 45.8187 5.96 45.872 5.896C45.936 5.832 46.032 5.8 46.16 5.8H46.944C47.0613 5.8 47.152 5.83733 47.216 5.912C47.2907 5.976 47.328 6.06667 47.328 6.184V16.632C47.328 16.7387 47.2907 16.8293 47.216 16.904C47.152 16.968 47.0613 17 46.944 17H46.16C46.0533 17 45.9627 16.968 45.888 16.904C45.824 16.8293 45.792 16.7387 45.792 16.632V8.76L43.12 13.976C43.0773 14.0827 43.0133 14.168 42.928 14.232C42.8427 14.2853 42.736 14.312 42.608 14.312H42.112C41.9733 14.312 41.8667 14.2853 41.792 14.232C41.7173 14.168 41.6533 14.0827 41.6 13.976L38.912 8.76V16.632C38.912 16.7387 38.8747 16.8293 38.8 16.904C38.736 16.968 38.6507 17 38.544 17H37.76ZM51.5209 20.04C51.4356 20.04 51.3609 20.008 51.2969 19.944C51.2329 19.88 51.2009 19.8053 51.2009 19.72C51.2009 19.6773 51.2062 19.6347 51.2169 19.592C51.2276 19.5493 51.2489 19.496 51.2809 19.432L52.5129 16.504L49.4569 9.288C49.4036 9.16 49.3769 9.06933 49.3769 9.016C49.3769 8.92 49.4089 8.84 49.4729 8.776C49.5369 8.712 49.6169 8.68 49.7129 8.68H50.4969C50.6142 8.68 50.6996 8.70667 50.7529 8.76C50.8062 8.81333 50.8489 8.87733 50.8809 8.952L53.3129 14.776L55.8089 8.952C55.8409 8.87733 55.8836 8.81333 55.9369 8.76C56.0009 8.70667 56.0916 8.68 56.2089 8.68H56.9609C57.0569 8.68 57.1369 8.712 57.2009 8.776C57.2649 8.84 57.2969 8.91467 57.2969 9C57.2969 9.05333 57.2702 9.14933 57.2169 9.288L52.6729 19.768C52.6409 19.8427 52.5929 19.9067 52.5289 19.96C52.4756 20.0133 52.3902 20.04 52.2729 20.04H51.5209ZM66.9886 17.16C66.0072 17.16 65.1912 16.9787 64.5406 16.616C63.9006 16.2533 63.4152 15.7467 63.0846 15.096C62.7539 14.4453 62.5726 13.688 62.5406 12.824C62.5299 12.3867 62.5246 11.9173 62.5246 11.416C62.5246 10.9147 62.5299 10.4347 62.5406 9.976C62.5726 9.112 62.7539 8.35467 63.0846 7.704C63.4152 7.05333 63.9006 6.54667 64.5406 6.184C65.1912 5.82133 66.0072 5.64 66.9886 5.64C67.7246 5.64 68.3699 5.74133 68.9246 5.944C69.4792 6.14667 69.9379 6.41867 70.3006 6.76C70.6739 7.10133 70.9566 7.48533 71.1486 7.912C71.3406 8.328 71.4473 8.76 71.4686 9.208C71.4792 9.304 71.4472 9.384 71.3726 9.448C71.3086 9.512 71.2286 9.544 71.1326 9.544H70.2526C70.1566 9.544 70.0712 9.51733 69.9966 9.464C69.9326 9.41067 69.8846 9.31467 69.8526 9.176C69.6713 8.344 69.3299 7.77333 68.8286 7.464C68.3379 7.15467 67.7246 7 66.9886 7C66.1246 7 65.4419 7.24533 64.9406 7.736C64.4392 8.216 64.1726 8.98933 64.1406 10.056C64.1086 10.9307 64.1086 11.8267 64.1406 12.744C64.1726 13.8107 64.4392 14.5893 64.9406 15.08C65.4419 15.56 66.1246 15.8 66.9886 15.8C67.7246 15.8 68.3379 15.6453 68.8286 15.336C69.3299 15.0267 69.6713 14.456 69.8526 13.624C69.8846 13.4853 69.9326 13.3893 69.9966 13.336C70.0712 13.2827 70.1566 13.256 70.2526 13.256H71.1326C71.2286 13.256 71.3086 13.288 71.3726 13.352C71.4472 13.4053 71.4792 13.48 71.4686 13.576C71.4473 14.024 71.3406 14.4613 71.1486 14.888C70.9566 15.3147 70.6739 15.6987 70.3006 16.04C69.9379 16.3813 69.4792 16.6533 68.9246 16.856C68.3699 17.0587 67.7246 17.16 66.9886 17.16ZM75.9026 17.16C75.3693 17.16 74.8839 17.0533 74.4466 16.84C74.0093 16.6267 73.6573 16.3387 73.3906 15.976C73.1239 15.6133 72.9906 15.2027 72.9906 14.744C72.9906 14.008 73.2893 13.4213 73.8866 12.984C74.4839 12.5467 75.2626 12.2587 76.2226 12.12L78.6066 11.784V11.32C78.6066 10.808 78.4573 10.408 78.1586 10.12C77.8706 9.832 77.3959 9.688 76.7346 9.688C76.2653 9.688 75.8813 9.784 75.5826 9.976C75.2839 10.168 75.0759 10.4133 74.9586 10.712C74.8946 10.872 74.7826 10.952 74.6226 10.952H73.9026C73.7853 10.952 73.6946 10.92 73.6306 10.856C73.5773 10.7813 73.5506 10.696 73.5506 10.6C73.5506 10.44 73.6093 10.2427 73.7266 10.008C73.8546 9.77333 74.0466 9.544 74.3026 9.32C74.5586 9.096 74.8839 8.90933 75.2786 8.76C75.6839 8.6 76.1746 8.52 76.7506 8.52C77.3906 8.52 77.9293 8.60533 78.3666 8.776C78.8039 8.936 79.1453 9.15467 79.3906 9.432C79.6466 9.70933 79.8279 10.024 79.9346 10.376C80.0519 10.728 80.1106 11.0853 80.1106 11.448V16.632C80.1106 16.7387 80.0733 16.8293 79.9986 16.904C79.9346 16.968 79.8493 17 79.7426 17H79.0066C78.8893 17 78.7986 16.968 78.7346 16.904C78.6706 16.8293 78.6386 16.7387 78.6386 16.632V15.944C78.4999 16.136 78.3133 16.328 78.0786 16.52C77.8439 16.7013 77.5506 16.856 77.1986 16.984C76.8466 17.1013 76.4146 17.16 75.9026 17.16ZM76.2386 15.96C76.6759 15.96 77.0759 15.8693 77.4386 15.688C77.8013 15.496 78.0839 15.2027 78.2866 14.808C78.4999 14.4133 78.6066 13.9173 78.6066 13.32V12.872L76.7506 13.144C75.9933 13.2507 75.4226 13.432 75.0386 13.688C74.6546 13.9333 74.4626 14.248 74.4626 14.632C74.4626 14.9307 74.5479 15.1813 74.7186 15.384C74.8999 15.576 75.1239 15.72 75.3906 15.816C75.6679 15.912 75.9506 15.96 76.2386 15.96ZM82.9565 17C82.8498 17 82.7592 16.968 82.6845 16.904C82.6205 16.8293 82.5885 16.7387 82.5885 16.632V9.064C82.5885 8.95733 82.6205 8.86667 82.6845 8.792C82.7592 8.71733 82.8498 8.68 82.9565 8.68H83.6925C83.7992 8.68 83.8898 8.71733 83.9645 8.792C84.0392 8.86667 84.0765 8.95733 84.0765 9.064V9.768C84.2898 9.40533 84.5832 9.13333 84.9565 8.952C85.3298 8.77067 85.7832 8.68 86.3165 8.68H86.9405C87.0472 8.68 87.1325 8.71733 87.1965 8.792C87.2712 8.856 87.3085 8.94133 87.3085 9.048V9.704C87.3085 9.81067 87.2712 9.896 87.1965 9.96C87.1325 10.024 87.0472 10.056 86.9405 10.056H85.9805C85.4045 10.056 84.9512 10.2267 84.6205 10.568C84.2898 10.8987 84.1245 11.352 84.1245 11.928V16.632C84.1245 16.7387 84.0872 16.8293 84.0125 16.904C83.9378 16.968 83.8472 17 83.7405 17H82.9565ZM92.0924 17C91.4951 17 91.0097 16.888 90.6364 16.664C90.2631 16.4293 89.9911 16.104 89.8204 15.688C89.6497 15.2613 89.5644 14.76 89.5644 14.184V9.96H88.3164C88.2097 9.96 88.1191 9.928 88.0444 9.864C87.9804 9.78933 87.9484 9.69867 87.9484 9.592V9.048C87.9484 8.94133 87.9804 8.856 88.0444 8.792C88.1191 8.71733 88.2097 8.68 88.3164 8.68H89.5644V6.008C89.5644 5.90133 89.5964 5.816 89.6604 5.752C89.7351 5.67733 89.8257 5.64 89.9324 5.64H90.6844C90.7911 5.64 90.8764 5.67733 90.9404 5.752C91.0151 5.816 91.0524 5.90133 91.0524 6.008V8.68H93.0364C93.1537 8.68 93.2444 8.71733 93.3084 8.792C93.3724 8.856 93.4044 8.94133 93.4044 9.048V9.592C93.4044 9.69867 93.3724 9.78933 93.3084 9.864C93.2444 9.928 93.1537 9.96 93.0364 9.96H91.0524V14.072C91.0524 14.5733 91.1377 14.968 91.3084 15.256C91.4791 15.544 91.7831 15.688 92.2204 15.688H93.1964C93.3031 15.688 93.3884 15.7253 93.4524 15.8C93.5271 15.864 93.5644 15.9493 93.5644 16.056V16.632C93.5644 16.7387 93.5271 16.8293 93.4524 16.904C93.3884 16.968 93.3031 17 93.1964 17H92.0924ZM102.844 19.544C102.151 19.544 101.564 19.3947 101.084 19.096C100.604 18.808 100.22 18.36 99.9318 17.752C99.6438 17.144 99.4305 16.3707 99.2918 15.432C99.1638 14.4827 99.0998 13.3573 99.0998 12.056C99.0998 10.7547 99.1638 9.62933 99.2918 8.68C99.4305 7.73067 99.6438 6.95733 99.9318 6.36C100.22 5.752 100.604 5.304 101.084 5.016C101.564 4.728 102.151 4.584 102.844 4.584C102.951 4.584 103.036 4.62133 103.1 4.696C103.175 4.77067 103.212 4.856 103.212 4.952V5.512C103.212 5.608 103.175 5.69333 103.1 5.768C103.036 5.84267 102.967 5.88 102.892 5.88C102.444 5.89067 102.065 6.008 101.756 6.232C101.457 6.44533 101.212 6.792 101.02 7.272C100.839 7.752 100.705 8.38667 100.62 9.176C100.545 9.95467 100.508 10.9147 100.508 12.056C100.508 13.1973 100.545 14.1627 100.62 14.952C100.705 15.7307 100.839 16.36 101.02 16.84C101.212 17.32 101.457 17.672 101.756 17.896C102.065 18.12 102.444 18.2373 102.892 18.248C102.967 18.248 103.036 18.28 103.1 18.344C103.175 18.4187 103.212 18.5093 103.212 18.616V19.176C103.212 19.272 103.175 19.3573 103.1 19.432C103.036 19.5067 102.951 19.544 102.844 19.544ZM108.406 17.16C107.67 17.16 107.046 17.048 106.534 16.824C106.033 16.5893 105.622 16.2693 105.302 15.864C104.982 15.4587 104.748 14.9947 104.598 14.472C104.46 13.9493 104.38 13.3947 104.358 12.808C104.348 12.52 104.337 12.216 104.326 11.896C104.326 11.576 104.326 11.2507 104.326 10.92C104.337 10.5893 104.348 10.2747 104.358 9.976C104.369 9.38933 104.449 8.83467 104.598 8.312C104.758 7.78933 104.998 7.33067 105.318 6.936C105.638 6.53067 106.049 6.216 106.55 5.992C107.062 5.75733 107.681 5.64 108.406 5.64C109.142 5.64 109.761 5.75733 110.262 5.992C110.774 6.216 111.19 6.53067 111.51 6.936C111.83 7.33067 112.065 7.78933 112.214 8.312C112.374 8.83467 112.46 9.38933 112.47 9.976C112.481 10.2747 112.486 10.5893 112.486 10.92C112.497 11.2507 112.497 11.576 112.486 11.896C112.486 12.216 112.481 12.52 112.47 12.808C112.46 13.3947 112.374 13.9493 112.214 14.472C112.065 14.9947 111.83 15.4587 111.51 15.864C111.201 16.2693 110.79 16.5893 110.278 16.824C109.777 17.048 109.153 17.16 108.406 17.16ZM108.406 15.784C109.238 15.784 109.852 15.512 110.246 14.968C110.652 14.424 110.86 13.6773 110.87 12.728C110.892 12.4187 110.902 12.12 110.902 11.832C110.902 11.5333 110.902 11.24 110.902 10.952C110.902 10.6533 110.892 10.36 110.87 10.072C110.86 9.144 110.652 8.40267 110.246 7.848C109.852 7.28267 109.238 7 108.406 7C107.585 7 106.972 7.28267 106.566 7.848C106.172 8.40267 105.964 9.144 105.942 10.072C105.942 10.36 105.937 10.6533 105.926 10.952C105.926 11.24 105.926 11.5333 105.926 11.832C105.937 12.12 105.942 12.4187 105.942 12.728C105.964 13.6773 106.177 14.424 106.582 14.968C106.988 15.512 107.596 15.784 108.406 15.784ZM113.967 19.544C113.871 19.544 113.786 19.5067 113.711 19.432C113.637 19.3573 113.599 19.272 113.599 19.176V18.616C113.599 18.5093 113.631 18.4187 113.695 18.344C113.77 18.28 113.85 18.248 113.935 18.248C114.383 18.2373 114.757 18.12 115.055 17.896C115.365 17.672 115.61 17.32 115.791 16.84C115.973 16.36 116.106 15.7307 116.191 14.952C116.277 14.1627 116.319 13.1973 116.319 12.056C116.319 10.9147 116.277 9.95467 116.191 9.176C116.106 8.38667 115.973 7.752 115.791 7.272C115.61 6.792 115.365 6.44533 115.055 6.232C114.757 6.008 114.383 5.89067 113.935 5.88C113.85 5.88 113.77 5.84267 113.695 5.768C113.631 5.69333 113.599 5.608 113.599 5.512V4.952C113.599 4.856 113.637 4.77067 113.711 4.696C113.786 4.62133 113.871 4.584 113.967 4.584C114.661 4.584 115.247 4.728 115.727 5.016C116.207 5.304 116.591 5.752 116.879 6.36C117.178 6.95733 117.391 7.73067 117.519 8.68C117.647 9.62933 117.711 10.7547 117.711 12.056C117.711 13.3573 117.647 14.4827 117.519 15.432C117.391 16.3707 117.178 17.144 116.879 17.752C116.591 18.36 116.207 18.808 115.727 19.096C115.247 19.3947 114.661 19.544 113.967 19.544Z" fill="#161D25"/>
</g>
<defs>
<clipPath id="clip0_0_747">
<rect width="119" height="24" fill="white"/>
</clipPath>
</defs>
</svg>
