<svg width="13" height="14" viewBox="0 0 13 14" fill="none" xmlns="http://www.w3.org/2000/svg">
<path fill-rule="evenodd" clip-rule="evenodd" d="M12.25 11.8125C12.25 13.0206 11.2706 14 10.0625 14H2.18749C0.979379 14 0 13.0206 0 11.8125V4.37499H2.62499V3.49999C2.62499 1.57007 4.19507 0 6.12499 0C8.05488 0 9.62498 1.57007 9.62498 3.49999V4.37499H12.25V11.8125ZM4.37499 3.49999V4.37499H7.87498V3.49999C7.87498 2.53503 7.08994 1.75 6.12499 1.75C5.16003 1.75 4.37499 2.53503 4.37499 3.49999ZM8.74998 6.78123C8.38754 6.78123 8.09373 6.48742 8.09373 6.12499C8.09373 5.76255 8.38754 5.46874 8.74998 5.46874C9.11242 5.46874 9.40623 5.76255 9.40623 6.12499C9.40623 6.48742 9.11242 6.78123 8.74998 6.78123ZM2.84374 6.12499C2.84374 6.48742 3.13755 6.78123 3.49999 6.78123C3.86243 6.78123 4.15624 6.48742 4.15624 6.12499C4.15624 5.76255 3.86243 5.46874 3.49999 5.46874C3.13755 5.46874 2.84374 5.76255 2.84374 6.12499Z" fill="#2F2F23"/>
</svg>
