<svg width="682" height="380" viewBox="0 0 682 380" fill="none" xmlns="http://www.w3.org/2000/svg">
<path d="M9.44 35.924C8.096 35.924 6.99733 35.7214 6.144 35.316C5.312 34.8894 4.72533 34.324 4.384 33.62H4.224V35.54H1.92V28.98H4.224V30.452C4.224 30.9854 4.29867 31.4867 4.448 31.956C4.61867 32.404 4.88533 32.7987 5.248 33.14C5.632 33.4814 6.12267 33.748 6.72 33.94C7.33867 34.132 8.08533 34.228 8.96 34.228C10.816 34.228 12.1493 33.8334 12.96 33.044C13.792 32.2547 14.208 31.1987 14.208 29.876C14.208 28.7454 13.888 27.86 13.248 27.22C12.6293 26.58 11.648 26.0787 10.304 25.716L8.544 25.268C6.56 24.756 5.024 23.988 3.936 22.964C2.848 21.94 2.304 20.532 2.304 18.74C2.304 17.844 2.47467 17.0334 2.816 16.308C3.15733 15.5614 3.63733 14.932 4.256 14.42C4.87467 13.908 5.61067 13.5134 6.464 13.236C7.33867 12.9587 8.29867 12.82 9.344 12.82C10.56 12.82 11.552 13.012 12.32 13.396C13.1093 13.7587 13.664 14.2707 13.984 14.932H14.176V13.204H16.48V19.444H14.176V17.972C14.176 17.4387 14.0907 16.9587 13.92 16.532C13.7707 16.1054 13.504 15.7427 13.12 15.444C12.736 15.1454 12.2347 14.9214 11.616 14.772C10.9973 14.6014 10.24 14.516 9.344 14.516C7.85067 14.516 6.73067 14.8574 5.984 15.54C5.23733 16.2227 4.864 17.1187 4.864 18.228C4.864 19.38 5.19467 20.2867 5.856 20.948C6.53867 21.588 7.60533 22.1 9.056 22.484L10.688 22.9C12.6293 23.412 14.1227 24.18 15.168 25.204C16.2133 26.228 16.736 27.572 16.736 29.236C16.736 30.196 16.576 31.092 16.256 31.924C15.936 32.7347 15.4667 33.4387 14.848 34.036C14.2293 34.6334 13.4613 35.1027 12.544 35.444C11.648 35.764 10.6133 35.924 9.44 35.924ZM25.2765 35.732C24.1458 35.732 23.3672 35.508 22.9405 35.06C22.5138 34.5907 22.3005 33.8014 22.3005 32.692V20.596H20.1885V19.028H20.4765C20.9245 19.028 21.2765 18.996 21.5325 18.932C21.8098 18.868 22.0232 18.7827 22.1725 18.676C22.3432 18.548 22.4605 18.3987 22.5245 18.228C22.6098 18.036 22.6845 17.8227 22.7485 17.588L23.4845 14.74H24.9245V19.028H29.1805V20.596H24.9245V33.972H29.1805V35.028C28.9885 35.1347 28.7432 35.2307 28.4445 35.316C28.1672 35.4014 27.8472 35.476 27.4845 35.54C27.1432 35.604 26.7805 35.6467 26.3965 35.668C26.0125 35.7107 25.6392 35.732 25.2765 35.732ZM36.5898 35.924C35.0538 35.924 33.8484 35.5294 32.9738 34.74C32.1204 33.9294 31.6938 32.8307 31.6938 31.444C31.6938 30.6547 31.8218 29.9614 32.0778 29.364C32.3338 28.7454 32.7498 28.2334 33.3258 27.828C33.9231 27.4227 34.6911 27.1134 35.6298 26.9C36.5684 26.6867 37.7098 26.58 39.0538 26.58H41.4218V24.148C41.4218 22.8467 41.1018 21.8547 40.4618 21.172C39.8431 20.468 38.9044 20.116 37.6458 20.116C37.0911 20.116 36.5791 20.1694 36.1098 20.276C35.6404 20.3614 35.2564 20.4894 34.9578 20.66V20.724C35.1924 20.852 35.4164 21.044 35.6298 21.3C35.8644 21.556 35.9818 21.9187 35.9818 22.388C35.9818 22.9427 35.8218 23.38 35.5018 23.7C35.1818 23.9987 34.7551 24.148 34.2218 24.148C33.7098 24.148 33.2831 23.9987 32.9418 23.7C32.6218 23.38 32.4618 22.9107 32.4618 22.292C32.4618 21.8227 32.6004 21.3747 32.8778 20.948C33.1551 20.5 33.5498 20.1054 34.0618 19.764C34.5738 19.4227 35.2031 19.156 35.9498 18.964C36.7178 18.7507 37.5818 18.644 38.5417 18.644C40.2698 18.644 41.6138 19.092 42.5738 19.988C43.5551 20.884 44.0458 22.1427 44.0458 23.764V34.164H46.4458V35.284C46.2111 35.4547 45.8911 35.604 45.4858 35.732C45.1018 35.86 44.6644 35.924 44.1738 35.924C43.3418 35.924 42.7018 35.6894 42.2538 35.22C41.8058 34.7507 41.5818 34.1214 41.5818 33.332V33.108H41.4218C41.2724 33.4707 41.0698 33.8227 40.8138 34.164C40.5791 34.5054 40.2698 34.804 39.8858 35.06C39.5018 35.316 39.0324 35.5187 38.4778 35.668C37.9444 35.8387 37.3151 35.924 36.5898 35.924ZM37.7098 34.164C38.7338 34.164 39.6084 33.908 40.3338 33.396C41.0591 32.8627 41.4218 32.052 41.4218 30.964V27.86H39.3418C38.4244 27.86 37.6564 27.9347 37.0378 28.084C36.4191 28.212 35.9284 28.4147 35.5658 28.692C35.2031 28.948 34.9364 29.268 34.7658 29.652C34.6164 30.036 34.5418 30.484 34.5418 30.996V31.668C34.5418 32.4787 34.8191 33.0974 35.3738 33.524C35.9284 33.9507 36.7071 34.164 37.7098 34.164ZM49.1625 34.068H51.5305V21.108L49.1625 20.692V19.604L54.0905 18.644V21.524H54.2505C54.3998 21.1827 54.5812 20.8414 54.7945 20.5C55.0292 20.1587 55.3065 19.8494 55.6265 19.572C55.9678 19.2947 56.3518 19.0707 56.7785 18.9C57.2265 18.7294 57.7385 18.644 58.3145 18.644C59.2532 18.644 59.9998 18.868 60.5545 19.316C61.1305 19.764 61.4185 20.4147 61.4185 21.268C61.4185 21.908 61.2585 22.4094 60.9385 22.772C60.6185 23.1347 60.2025 23.316 59.6905 23.316C59.1145 23.316 58.6558 23.1667 58.3145 22.868C57.9732 22.548 57.8025 22.1427 57.8025 21.652C57.8025 21.2254 57.8878 20.884 58.0585 20.628C58.2505 20.3507 58.4638 20.1907 58.6985 20.148V20.084C58.6132 20.0627 58.5065 20.052 58.3785 20.052C58.2505 20.0307 58.0905 20.02 57.8985 20.02C57.4505 20.02 57.0025 20.1374 56.5545 20.372C56.1065 20.5854 55.7012 20.8734 55.3385 21.236C54.9972 21.5774 54.7092 21.972 54.4745 22.42C54.2612 22.868 54.1545 23.316 54.1545 23.764V34.068H57.1625V35.54H49.1625V34.068ZM68.5265 35.732C67.3958 35.732 66.6172 35.508 66.1905 35.06C65.7638 34.5907 65.5505 33.8014 65.5505 32.692V20.596H63.4385V19.028H63.7265C64.1745 19.028 64.5265 18.996 64.7825 18.932C65.0598 18.868 65.2732 18.7827 65.4225 18.676C65.5932 18.548 65.7105 18.3987 65.7745 18.228C65.8598 18.036 65.9345 17.8227 65.9985 17.588L66.7345 14.74H68.1745V19.028H72.4305V20.596H68.1745V33.972H72.4305V35.028C72.2385 35.1347 71.9932 35.2307 71.6945 35.316C71.4172 35.4014 71.0972 35.476 70.7345 35.54C70.3932 35.604 70.0305 35.6467 69.6465 35.668C69.2625 35.7107 68.8892 35.732 68.5265 35.732ZM82.2718 35.924C81.0984 35.924 80.0424 35.7214 79.1038 35.316C78.1864 34.8894 77.4078 34.3027 76.7678 33.556C76.1278 32.8094 75.6371 31.9027 75.2958 30.836C74.9544 29.7694 74.7838 28.5854 74.7838 27.284C74.7838 26.004 74.9651 24.8414 75.3278 23.796C75.7118 22.7294 76.2238 21.812 76.8638 21.044C77.5251 20.276 78.3038 19.6894 79.1998 19.284C80.0958 18.8574 81.0771 18.644 82.1438 18.644C83.2318 18.644 84.2024 18.836 85.0558 19.22C85.9091 19.604 86.6238 20.148 87.1998 20.852C87.7971 21.5347 88.2558 22.356 88.5758 23.316C88.8958 24.276 89.0558 25.3214 89.0558 26.452V27.188H77.6958V28.02C77.6958 29.8334 78.1438 31.2627 79.0398 32.308C79.9571 33.3534 81.1731 33.876 82.6878 33.876C84.0104 33.876 85.0558 33.6094 85.8238 33.076C86.6131 32.5214 87.2318 31.8067 87.6798 30.932L88.7358 31.604C88.5224 32.1587 88.2238 32.7027 87.8398 33.236C87.4771 33.748 87.0291 34.2067 86.4958 34.612C85.9624 34.996 85.3438 35.3054 84.6398 35.54C83.9358 35.796 83.1464 35.924 82.2718 35.924ZM77.6958 25.716H86.3038V25.396C86.3038 24.6494 86.2184 23.956 86.0478 23.316C85.8984 22.676 85.6531 22.1214 85.3118 21.652C84.9704 21.1827 84.5331 20.82 83.9998 20.564C83.4878 20.2867 82.8691 20.148 82.1438 20.148C81.4184 20.148 80.7784 20.276 80.2238 20.532C79.6691 20.788 79.1998 21.1507 78.8158 21.62C78.4531 22.0894 78.1758 22.644 77.9838 23.284C77.7918 23.9027 77.6958 24.5854 77.6958 25.332V25.716ZM92.1 34.068H94.468V21.108L92.1 20.692V19.604L97.028 18.644V21.524H97.188C97.3373 21.1827 97.5187 20.8414 97.732 20.5C97.9667 20.1587 98.244 19.8494 98.564 19.572C98.9053 19.2947 99.2893 19.0707 99.716 18.9C100.164 18.7294 100.676 18.644 101.252 18.644C102.191 18.644 102.937 18.868 103.492 19.316C104.068 19.764 104.356 20.4147 104.356 21.268C104.356 21.908 104.196 22.4094 103.876 22.772C103.556 23.1347 103.14 23.316 102.628 23.316C102.052 23.316 101.593 23.1667 101.252 22.868C100.911 22.548 100.74 22.1427 100.74 21.652C100.74 21.2254 100.825 20.884 100.996 20.628C101.188 20.3507 101.401 20.1907 101.636 20.148V20.084C101.551 20.0627 101.444 20.052 101.316 20.052C101.188 20.0307 101.028 20.02 100.836 20.02C100.388 20.02 99.94 20.1374 99.492 20.372C99.044 20.5854 98.6387 20.8734 98.276 21.236C97.9347 21.5774 97.6467 21.972 97.412 22.42C97.1987 22.868 97.092 23.316 97.092 23.764V34.068H100.1V35.54H92.1V34.068Z" fill="black"/>
<path d="M9.774 68.666C9.774 69.71 9.414 70.58 8.694 71.276C7.986 71.96 6.9 72.302 5.436 72.302H3.024V77.54H1.386V64.994H5.436C6.852 64.994 7.926 65.336 8.658 66.02C9.402 66.704 9.774 67.586 9.774 68.666ZM5.436 70.952C6.348 70.952 7.02 70.754 7.452 70.358C7.884 69.962 8.1 69.398 8.1 68.666C8.1 67.118 7.212 66.344 5.436 66.344H3.024V70.952H5.436ZM19.9098 72.23C19.9098 72.542 19.8918 72.872 19.8558 73.22H11.9718C12.0318 74.192 12.3618 74.954 12.9618 75.506C13.5738 76.046 14.3118 76.316 15.1758 76.316C15.8838 76.316 16.4718 76.154 16.9398 75.83C17.4198 75.494 17.7558 75.05 17.9478 74.498H19.7118C19.4478 75.446 18.9198 76.22 18.1278 76.82C17.3358 77.408 16.3518 77.702 15.1758 77.702C14.2398 77.702 13.3998 77.492 12.6558 77.072C11.9238 76.652 11.3478 76.058 10.9278 75.29C10.5078 74.51 10.2978 73.61 10.2978 72.59C10.2978 71.57 10.5018 70.676 10.9098 69.908C11.3178 69.14 11.8878 68.552 12.6198 68.144C13.3638 67.724 14.2158 67.514 15.1758 67.514C16.1118 67.514 16.9398 67.718 17.6598 68.126C18.3798 68.534 18.9318 69.098 19.3158 69.818C19.7118 70.526 19.9098 71.33 19.9098 72.23ZM18.2178 71.888C18.2178 71.264 18.0798 70.73 17.8038 70.286C17.5278 69.83 17.1498 69.488 16.6698 69.26C16.2018 69.02 15.6798 68.9 15.1038 68.9C14.2758 68.9 13.5678 69.164 12.9798 69.692C12.4038 70.22 12.0738 70.952 11.9898 71.888H18.2178ZM22.8099 69.278C23.0979 68.714 23.5059 68.276 24.0339 67.964C24.5739 67.652 25.2279 67.496 25.9959 67.496V69.188H25.5639C23.7279 69.188 22.8099 70.184 22.8099 72.176V77.54H21.1719V67.676H22.8099V69.278ZM31.0008 69.026H28.9308V77.54H27.2928V69.026H26.0148V67.676H27.2928V66.974C27.2928 65.87 27.5748 65.066 28.1388 64.562C28.7148 64.046 29.6328 63.788 30.8928 63.788V65.156C30.1728 65.156 29.6628 65.3 29.3628 65.588C29.0748 65.864 28.9308 66.326 28.9308 66.974V67.676H31.0008V69.026ZM41.0106 72.23C41.0106 72.542 40.9926 72.872 40.9566 73.22H33.0726C33.1326 74.192 33.4626 74.954 34.0626 75.506C34.6746 76.046 35.4126 76.316 36.2766 76.316C36.9846 76.316 37.5726 76.154 38.0406 75.83C38.5206 75.494 38.8566 75.05 39.0486 74.498H40.8126C40.5486 75.446 40.0206 76.22 39.2286 76.82C38.4366 77.408 37.4526 77.702 36.2766 77.702C35.3406 77.702 34.5006 77.492 33.7566 77.072C33.0246 76.652 32.4486 76.058 32.0286 75.29C31.6086 74.51 31.3986 73.61 31.3986 72.59C31.3986 71.57 31.6026 70.676 32.0106 69.908C32.4186 69.14 32.9886 68.552 33.7206 68.144C34.4646 67.724 35.3166 67.514 36.2766 67.514C37.2126 67.514 38.0406 67.718 38.7606 68.126C39.4806 68.534 40.0326 69.098 40.4166 69.818C40.8126 70.526 41.0106 71.33 41.0106 72.23ZM39.3186 71.888C39.3186 71.264 39.1806 70.73 38.9046 70.286C38.6286 69.83 38.2506 69.488 37.7706 69.26C37.3026 69.02 36.7806 68.9 36.2046 68.9C35.3766 68.9 34.6686 69.164 34.0806 69.692C33.5046 70.22 33.1746 70.952 33.0906 71.888H39.3186ZM41.6607 72.59C41.6607 71.57 41.8647 70.682 42.2727 69.926C42.6807 69.158 43.2447 68.564 43.9647 68.144C44.6967 67.724 45.5307 67.514 46.4667 67.514C47.6787 67.514 48.6747 67.808 49.4547 68.396C50.2467 68.984 50.7687 69.8 51.0207 70.844H49.2567C49.0887 70.244 48.7587 69.77 48.2667 69.422C47.7867 69.074 47.1867 68.9 46.4667 68.9C45.5307 68.9 44.7747 69.224 44.1987 69.872C43.6227 70.508 43.3347 71.414 43.3347 72.59C43.3347 73.778 43.6227 74.696 44.1987 75.344C44.7747 75.992 45.5307 76.316 46.4667 76.316C47.1867 76.316 47.7867 76.148 48.2667 75.812C48.7467 75.476 49.0767 74.996 49.2567 74.372H51.0207C50.7567 75.38 50.2287 76.19 49.4367 76.802C48.6447 77.402 47.6547 77.702 46.4667 77.702C45.5307 77.702 44.6967 77.492 43.9647 77.072C43.2447 76.652 42.6807 76.058 42.2727 75.29C41.8647 74.522 41.6607 73.622 41.6607 72.59ZM54.3043 69.026V74.84C54.3043 75.32 54.4063 75.662 54.6103 75.866C54.8143 76.058 55.1683 76.154 55.6723 76.154H56.8783V77.54H55.4023C54.4903 77.54 53.8063 77.33 53.3503 76.91C52.8943 76.49 52.6663 75.8 52.6663 74.84V69.026H51.3883V67.676H52.6663V65.192H54.3043V67.676H56.8783V69.026H54.3043ZM65.8758 69.026H63.8058V77.54H62.1678V69.026H60.8898V67.676H62.1678V66.974C62.1678 65.87 62.4498 65.066 63.0138 64.562C63.5898 64.046 64.5078 63.788 65.7678 63.788V65.156C65.0478 65.156 64.5378 65.3 64.2378 65.588C63.9498 65.864 63.8058 66.326 63.8058 66.974V67.676H65.8758V69.026ZM71.1876 77.702C70.2636 77.702 69.4236 77.492 68.6676 77.072C67.9236 76.652 67.3356 76.058 66.9036 75.29C66.4836 74.51 66.2736 73.61 66.2736 72.59C66.2736 71.582 66.4896 70.694 66.9216 69.926C67.3656 69.146 67.9656 68.552 68.7216 68.144C69.4776 67.724 70.3236 67.514 71.2596 67.514C72.1956 67.514 73.0416 67.724 73.7976 68.144C74.5536 68.552 75.1476 69.14 75.5796 69.908C76.0236 70.676 76.2456 71.57 76.2456 72.59C76.2456 73.61 76.0176 74.51 75.5616 75.29C75.1176 76.058 74.5116 76.652 73.7436 77.072C72.9756 77.492 72.1236 77.702 71.1876 77.702ZM71.1876 76.262C71.7756 76.262 72.3276 76.124 72.8436 75.848C73.3596 75.572 73.7736 75.158 74.0856 74.606C74.4096 74.054 74.5716 73.382 74.5716 72.59C74.5716 71.798 74.4156 71.126 74.1036 70.574C73.7916 70.022 73.3836 69.614 72.8796 69.35C72.3756 69.074 71.8296 68.936 71.2416 68.936C70.6416 68.936 70.0896 69.074 69.5856 69.35C69.0936 69.614 68.6976 70.022 68.3976 70.574C68.0976 71.126 67.9476 71.798 67.9476 72.59C67.9476 73.394 68.0916 74.072 68.3796 74.624C68.6796 75.176 69.0756 75.59 69.5676 75.866C70.0596 76.13 70.5996 76.262 71.1876 76.262ZM79.1373 69.278C79.4253 68.714 79.8333 68.276 80.3613 67.964C80.9013 67.652 81.5553 67.496 82.3233 67.496V69.188H81.8913C80.0553 69.188 79.1373 70.184 79.1373 72.176V77.54H77.4993V67.676H79.1373V69.278ZM89.211 69.026V74.84C89.211 75.32 89.313 75.662 89.517 75.866C89.721 76.058 90.075 76.154 90.579 76.154H91.785V77.54H90.309C89.397 77.54 88.713 77.33 88.257 76.91C87.801 76.49 87.573 75.8 87.573 74.84V69.026H86.295V67.676H87.573V65.192H89.211V67.676H91.785V69.026H89.211ZM101.87 72.23C101.87 72.542 101.852 72.872 101.816 73.22H93.9316C93.9916 74.192 94.3216 74.954 94.9216 75.506C95.5336 76.046 96.2716 76.316 97.1356 76.316C97.8436 76.316 98.4316 76.154 98.8996 75.83C99.3796 75.494 99.7156 75.05 99.9076 74.498H101.672C101.408 75.446 100.88 76.22 100.088 76.82C99.2956 77.408 98.3116 77.702 97.1356 77.702C96.1996 77.702 95.3596 77.492 94.6156 77.072C93.8836 76.652 93.3076 76.058 92.8876 75.29C92.4676 74.51 92.2576 73.61 92.2576 72.59C92.2576 71.57 92.4616 70.676 92.8696 69.908C93.2776 69.14 93.8476 68.552 94.5796 68.144C95.3236 67.724 96.1756 67.514 97.1356 67.514C98.0716 67.514 98.8996 67.718 99.6196 68.126C100.34 68.534 100.892 69.098 101.276 69.818C101.672 70.526 101.87 71.33 101.87 72.23ZM100.178 71.888C100.178 71.264 100.04 70.73 99.7636 70.286C99.4876 69.83 99.1096 69.488 98.6296 69.26C98.1616 69.02 97.6396 68.9 97.0636 68.9C96.2356 68.9 95.5276 69.164 94.9396 69.692C94.3636 70.22 94.0336 70.952 93.9496 71.888H100.178ZM106.624 77.702C105.868 77.702 105.19 77.576 104.59 77.324C103.99 77.06 103.516 76.7 103.168 76.244C102.82 75.776 102.628 75.242 102.592 74.642H104.284C104.332 75.134 104.56 75.536 104.968 75.848C105.388 76.16 105.934 76.316 106.606 76.316C107.23 76.316 107.722 76.178 108.082 75.902C108.442 75.626 108.622 75.278 108.622 74.858C108.622 74.426 108.43 74.108 108.046 73.904C107.662 73.688 107.068 73.478 106.264 73.274C105.532 73.082 104.932 72.89 104.464 72.698C104.008 72.494 103.612 72.2 103.276 71.816C102.952 71.42 102.79 70.904 102.79 70.268C102.79 69.764 102.94 69.302 103.24 68.882C103.54 68.462 103.966 68.132 104.518 67.892C105.07 67.64 105.7 67.514 106.408 67.514C107.5 67.514 108.382 67.79 109.054 68.342C109.726 68.894 110.086 69.65 110.134 70.61H108.496C108.46 70.094 108.25 69.68 107.866 69.368C107.494 69.056 106.99 68.9 106.354 68.9C105.766 68.9 105.298 69.026 104.95 69.278C104.602 69.53 104.428 69.86 104.428 70.268C104.428 70.592 104.53 70.862 104.734 71.078C104.95 71.282 105.214 71.45 105.526 71.582C105.85 71.702 106.294 71.84 106.858 71.996C107.566 72.188 108.142 72.38 108.586 72.572C109.03 72.752 109.408 73.028 109.72 73.4C110.044 73.772 110.212 74.258 110.224 74.858C110.224 75.398 110.074 75.884 109.774 76.316C109.474 76.748 109.048 77.09 108.496 77.342C107.956 77.582 107.332 77.702 106.624 77.702ZM113.634 69.026V74.84C113.634 75.32 113.736 75.662 113.94 75.866C114.144 76.058 114.498 76.154 115.002 76.154H116.208V77.54H114.732C113.82 77.54 113.136 77.33 112.68 76.91C112.224 76.49 111.996 75.8 111.996 74.84V69.026H110.718V67.676H111.996V65.192H113.634V67.676H116.208V69.026H113.634ZM118.139 66.074C117.827 66.074 117.563 65.966 117.347 65.75C117.131 65.534 117.023 65.27 117.023 64.958C117.023 64.646 117.131 64.382 117.347 64.166C117.563 63.95 117.827 63.842 118.139 63.842C118.439 63.842 118.691 63.95 118.895 64.166C119.111 64.382 119.219 64.646 119.219 64.958C119.219 65.27 119.111 65.534 118.895 65.75C118.691 65.966 118.439 66.074 118.139 66.074ZM118.931 67.676V77.54H117.293V67.676H118.931ZM125.628 67.496C126.828 67.496 127.8 67.862 128.544 68.594C129.288 69.314 129.66 70.358 129.66 71.726V77.54H128.04V71.96C128.04 70.976 127.794 70.226 127.302 69.71C126.81 69.182 126.138 68.918 125.286 68.918C124.422 68.918 123.732 69.188 123.216 69.728C122.712 70.268 122.46 71.054 122.46 72.086V77.54H120.822V67.676H122.46V69.08C122.784 68.576 123.222 68.186 123.774 67.91C124.338 67.634 124.956 67.496 125.628 67.496ZM135.504 67.514C136.356 67.514 137.1 67.7 137.736 68.072C138.384 68.444 138.864 68.912 139.176 69.476V67.676H140.832V77.756C140.832 78.656 140.64 79.454 140.256 80.15C139.872 80.858 139.32 81.41 138.6 81.806C137.892 82.202 137.064 82.4 136.116 82.4C134.82 82.4 133.74 82.094 132.876 81.482C132.012 80.87 131.502 80.036 131.346 78.98H132.966C133.146 79.58 133.518 80.06 134.082 80.42C134.646 80.792 135.324 80.978 136.116 80.978C137.016 80.978 137.748 80.696 138.312 80.132C138.888 79.568 139.176 78.776 139.176 77.756V75.686C138.852 76.262 138.372 76.742 137.736 77.126C137.1 77.51 136.356 77.702 135.504 77.702C134.628 77.702 133.83 77.486 133.11 77.054C132.402 76.622 131.844 76.016 131.436 75.236C131.028 74.456 130.824 73.568 130.824 72.572C130.824 71.564 131.028 70.682 131.436 69.926C131.844 69.158 132.402 68.564 133.11 68.144C133.83 67.724 134.628 67.514 135.504 67.514ZM139.176 72.59C139.176 71.846 139.026 71.198 138.726 70.646C138.426 70.094 138.018 69.674 137.502 69.386C136.998 69.086 136.44 68.936 135.828 68.936C135.216 68.936 134.658 69.08 134.154 69.368C133.65 69.656 133.248 70.076 132.948 70.628C132.648 71.18 132.498 71.828 132.498 72.572C132.498 73.328 132.648 73.988 132.948 74.552C133.248 75.104 133.65 75.53 134.154 75.83C134.658 76.118 135.216 76.262 135.828 76.262C136.44 76.262 136.998 76.118 137.502 75.83C138.018 75.53 138.426 75.104 138.726 74.552C139.026 73.988 139.176 73.334 139.176 72.59Z" fill="#5A5A5A"/>
<path d="M560.1 41.14C559.713 40.3267 559.153 39.7 558.42 39.26C557.687 38.8067 556.833 38.58 555.86 38.58C554.887 38.58 554.007 38.8067 553.22 39.26C552.447 39.7 551.833 40.34 551.38 41.18C550.94 42.0067 550.72 42.9667 550.72 44.06C550.72 45.1534 550.94 46.1134 551.38 46.94C551.833 47.7667 552.447 48.4067 553.22 48.86C554.007 49.3 554.887 49.52 555.86 49.52C557.22 49.52 558.34 49.1134 559.22 48.3C560.1 47.4867 560.613 46.3867 560.76 45H555.2V43.52H562.7V44.92C562.593 46.0667 562.233 47.12 561.62 48.08C561.007 49.0267 560.2 49.78 559.2 50.34C558.2 50.8867 557.087 51.16 555.86 51.16C554.567 51.16 553.387 50.86 552.32 50.26C551.253 49.6467 550.407 48.8 549.78 47.72C549.167 46.64 548.86 45.42 548.86 44.06C548.86 42.7 549.167 41.48 549.78 40.4C550.407 39.3067 551.253 38.46 552.32 37.86C553.387 37.2467 554.567 36.94 555.86 36.94C557.34 36.94 558.647 37.3067 559.78 38.04C560.927 38.7734 561.76 39.8067 562.28 41.14H560.1ZM574.106 45.14C574.106 45.4867 574.086 45.8534 574.046 46.24H565.286C565.353 47.32 565.72 48.1667 566.386 48.78C567.066 49.38 567.886 49.68 568.846 49.68C569.633 49.68 570.286 49.5 570.806 49.14C571.34 48.7667 571.713 48.2734 571.926 47.66H573.886C573.593 48.7134 573.006 49.5734 572.126 50.24C571.246 50.8934 570.153 51.22 568.846 51.22C567.806 51.22 566.873 50.9867 566.046 50.52C565.233 50.0534 564.593 49.3934 564.126 48.54C563.66 47.6734 563.426 46.6734 563.426 45.54C563.426 44.4067 563.653 43.4134 564.106 42.56C564.56 41.7067 565.193 41.0534 566.006 40.6C566.833 40.1334 567.78 39.9 568.846 39.9C569.886 39.9 570.806 40.1267 571.606 40.58C572.406 41.0334 573.02 41.66 573.446 42.46C573.886 43.2467 574.106 44.14 574.106 45.14ZM572.226 44.76C572.226 44.0667 572.073 43.4734 571.766 42.98C571.46 42.4734 571.04 42.0934 570.506 41.84C569.986 41.5734 569.406 41.44 568.766 41.44C567.846 41.44 567.06 41.7334 566.406 42.32C565.766 42.9067 565.4 43.72 565.306 44.76H572.226ZM577.729 41.58V48.04C577.729 48.5734 577.842 48.9534 578.069 49.18C578.295 49.3934 578.689 49.5 579.249 49.5H580.589V51.04H578.949C577.935 51.04 577.175 50.8067 576.669 50.34C576.162 49.8734 575.909 49.1067 575.909 48.04V41.58H574.489V40.08H575.909V37.32H577.729V40.08H580.589V41.58H577.729ZM590.546 51.18C589.626 51.18 588.799 51.02 588.066 50.7C587.346 50.3667 586.779 49.9134 586.366 49.34C585.953 48.7534 585.739 48.08 585.726 47.32H587.666C587.733 47.9734 587.999 48.5267 588.466 48.98C588.946 49.42 589.639 49.64 590.546 49.64C591.413 49.64 592.093 49.4267 592.586 49C593.093 48.56 593.346 48 593.346 47.32C593.346 46.7867 593.199 46.3534 592.906 46.02C592.613 45.6867 592.246 45.4334 591.806 45.26C591.366 45.0867 590.773 44.9 590.026 44.7C589.106 44.46 588.366 44.22 587.806 43.98C587.259 43.74 586.786 43.3667 586.386 42.86C585.999 42.34 585.806 41.6467 585.806 40.78C585.806 40.02 585.999 39.3467 586.386 38.76C586.773 38.1734 587.313 37.72 588.006 37.4C588.713 37.08 589.519 36.92 590.426 36.92C591.733 36.92 592.799 37.2467 593.626 37.9C594.466 38.5534 594.939 39.42 595.046 40.5H593.046C592.979 39.9667 592.699 39.5 592.206 39.1C591.713 38.6867 591.059 38.48 590.246 38.48C589.486 38.48 588.866 38.68 588.386 39.08C587.906 39.4667 587.666 40.0134 587.666 40.72C587.666 41.2267 587.806 41.64 588.086 41.96C588.379 42.28 588.733 42.5267 589.146 42.7C589.573 42.86 590.166 43.0467 590.926 43.26C591.846 43.5134 592.586 43.7667 593.146 44.02C593.706 44.26 594.186 44.64 594.586 45.16C594.986 45.6667 595.186 46.36 595.186 47.24C595.186 47.92 595.006 48.56 594.646 49.16C594.286 49.76 593.753 50.2467 593.046 50.62C592.339 50.9934 591.506 51.18 590.546 51.18ZM599.084 41.58V48.04C599.084 48.5734 599.198 48.9534 599.424 49.18C599.651 49.3934 600.044 49.5 600.604 49.5H601.944V51.04H600.304C599.291 51.04 598.531 50.8067 598.024 50.34C597.518 49.8734 597.264 49.1067 597.264 48.04V41.58H595.844V40.08H597.264V37.32H599.084V40.08H601.944V41.58H599.084ZM602.469 45.52C602.469 44.4 602.696 43.42 603.149 42.58C603.603 41.7267 604.223 41.0667 605.009 40.6C605.809 40.1334 606.696 39.9 607.669 39.9C608.629 39.9 609.463 40.1067 610.169 40.52C610.876 40.9334 611.403 41.4534 611.749 42.08V40.08H613.589V51.04H611.749V49C611.389 49.64 610.849 50.1734 610.129 50.6C609.423 51.0134 608.596 51.22 607.649 51.22C606.676 51.22 605.796 50.98 605.009 50.5C604.223 50.02 603.603 49.3467 603.149 48.48C602.696 47.6134 602.469 46.6267 602.469 45.52ZM611.749 45.54C611.749 44.7134 611.583 43.9934 611.249 43.38C610.916 42.7667 610.463 42.3 609.889 41.98C609.329 41.6467 608.709 41.48 608.029 41.48C607.349 41.48 606.729 41.64 606.169 41.96C605.609 42.28 605.163 42.7467 604.829 43.36C604.496 43.9734 604.329 44.6934 604.329 45.52C604.329 46.36 604.496 47.0934 604.829 47.72C605.163 48.3334 605.609 48.8067 606.169 49.14C606.729 49.46 607.349 49.62 608.029 49.62C608.709 49.62 609.329 49.46 609.889 49.14C610.463 48.8067 610.916 48.3334 611.249 47.72C611.583 47.0934 611.749 46.3667 611.749 45.54ZM617.485 41.86C617.805 41.2334 618.258 40.7467 618.845 40.4C619.445 40.0534 620.172 39.88 621.025 39.88V41.76H620.545C618.505 41.76 617.485 42.8667 617.485 45.08V51.04H615.665V40.08H617.485V41.86ZM624.346 41.58V48.04C624.346 48.5734 624.459 48.9534 624.686 49.18C624.913 49.3934 625.306 49.5 625.866 49.5H627.206V51.04H625.566C624.553 51.04 623.793 50.8067 623.286 50.34C622.779 49.8734 622.526 49.1067 622.526 48.04V41.58H621.106V40.08H622.526V37.32H624.346V40.08H627.206V41.58H624.346ZM638.411 45.14C638.411 45.4867 638.391 45.8534 638.351 46.24H629.591C629.658 47.32 630.024 48.1667 630.691 48.78C631.371 49.38 632.191 49.68 633.151 49.68C633.938 49.68 634.591 49.5 635.111 49.14C635.644 48.7667 636.018 48.2734 636.231 47.66H638.191C637.898 48.7134 637.311 49.5734 636.431 50.24C635.551 50.8934 634.458 51.22 633.151 51.22C632.111 51.22 631.178 50.9867 630.351 50.52C629.538 50.0534 628.898 49.3934 628.431 48.54C627.964 47.6734 627.731 46.6734 627.731 45.54C627.731 44.4067 627.958 43.4134 628.411 42.56C628.864 41.7067 629.498 41.0534 630.311 40.6C631.138 40.1334 632.084 39.9 633.151 39.9C634.191 39.9 635.111 40.1267 635.911 40.58C636.711 41.0334 637.324 41.66 637.751 42.46C638.191 43.2467 638.411 44.14 638.411 45.14ZM636.531 44.76C636.531 44.0667 636.378 43.4734 636.071 42.98C635.764 42.4734 635.344 42.0934 634.811 41.84C634.291 41.5734 633.711 41.44 633.071 41.44C632.151 41.44 631.364 41.7334 630.711 42.32C630.071 42.9067 629.704 43.72 629.611 44.76H636.531ZM639.133 45.52C639.133 44.4 639.36 43.42 639.813 42.58C640.267 41.7267 640.887 41.0667 641.673 40.6C642.473 40.1334 643.367 39.9 644.353 39.9C645.207 39.9 646 40.1 646.733 40.5C647.467 40.8867 648.027 41.4 648.413 42.04V36.24H650.253V51.04H648.413V48.98C648.053 49.6334 647.52 50.1734 646.813 50.6C646.107 51.0134 645.28 51.22 644.333 51.22C643.36 51.22 642.473 50.98 641.673 50.5C640.887 50.02 640.267 49.3467 639.813 48.48C639.36 47.6134 639.133 46.6267 639.133 45.52ZM648.413 45.54C648.413 44.7134 648.247 43.9934 647.913 43.38C647.58 42.7667 647.127 42.3 646.553 41.98C645.993 41.6467 645.373 41.48 644.693 41.48C644.013 41.48 643.393 41.64 642.833 41.96C642.273 42.28 641.827 42.7467 641.493 43.36C641.16 43.9734 640.993 44.6934 640.993 45.52C640.993 46.36 641.16 47.0934 641.493 47.72C641.827 48.3334 642.273 48.8067 642.833 49.14C643.393 49.46 644.013 49.62 644.693 49.62C645.373 49.62 645.993 49.46 646.553 49.14C647.127 48.8067 647.58 48.3334 647.913 47.72C648.247 47.0934 648.413 46.3667 648.413 45.54Z" fill="black"/>
<rect x="518.5" y="10.54" width="163" height="67" rx="33.5" stroke="black"/>
<line y1="117.04" x2="682" y2="117.04" stroke="#DEDEDE"/>
<path d="M10.54 168.72C10.54 169.36 10.38 169.973 10.06 170.56C9.74 171.133 9.26667 171.613 8.64 172C8.02667 172.387 7.28667 172.607 6.42 172.66V174.28H5.34V172.66C4.12667 172.553 3.14 172.167 2.38 171.5C1.62 170.82 1.23333 169.96 1.22 168.92H3.16C3.21333 169.48 3.42 169.967 3.78 170.38C4.15333 170.793 4.67333 171.053 5.34 171.16V166.16C4.44667 165.933 3.72667 165.7 3.18 165.46C2.63333 165.22 2.16667 164.847 1.78 164.34C1.39333 163.833 1.2 163.153 1.2 162.3C1.2 161.22 1.57333 160.327 2.32 159.62C3.08 158.913 4.08667 158.52 5.34 158.44V156.78H6.42V158.44C7.55333 158.533 8.46667 158.9 9.16 159.54C9.85333 160.167 10.2533 160.987 10.36 162H8.42C8.35333 161.533 8.14667 161.113 7.8 160.74C7.45333 160.353 6.99333 160.1 6.42 159.98V164.86C7.3 165.087 8.01333 165.32 8.56 165.56C9.12 165.787 9.58667 166.153 9.96 166.66C10.3467 167.167 10.54 167.853 10.54 168.72ZM3.06 162.2C3.06 162.853 3.25333 163.353 3.64 163.7C4.02667 164.047 4.59333 164.333 5.34 164.56V159.94C4.64667 160.007 4.09333 160.233 3.68 160.62C3.26667 160.993 3.06 161.52 3.06 162.2ZM6.42 171.18C7.14 171.1 7.7 170.84 8.1 170.4C8.51333 169.96 8.72 169.433 8.72 168.82C8.72 168.167 8.52 167.667 8.12 167.32C7.72 166.96 7.15333 166.673 6.42 166.46V171.18ZM12.4614 171.08C14.1547 169.72 15.4814 168.607 16.4414 167.74C17.4014 166.86 18.2081 165.947 18.8614 165C19.5281 164.04 19.8614 163.1 19.8614 162.18C19.8614 161.313 19.6481 160.633 19.2214 160.14C18.8081 159.633 18.1347 159.38 17.2014 159.38C16.2947 159.38 15.5881 159.667 15.0814 160.24C14.5881 160.8 14.3214 161.553 14.2814 162.5H12.5214C12.5747 161.007 13.0281 159.853 13.8814 159.04C14.7347 158.227 15.8347 157.82 17.1814 157.82C18.5547 157.82 19.6414 158.2 20.4414 158.96C21.2547 159.72 21.6614 160.767 21.6614 162.1C21.6614 163.207 21.3281 164.287 20.6614 165.34C20.0081 166.38 19.2614 167.3 18.4214 168.1C17.5814 168.887 16.5081 169.807 15.2014 170.86H22.0814V172.38H12.4614V171.08ZM32.4053 159.66H25.3853V164.22C25.692 163.793 26.1453 163.447 26.7453 163.18C27.3453 162.9 27.992 162.76 28.6853 162.76C29.792 162.76 30.692 162.993 31.3853 163.46C32.0786 163.913 32.572 164.507 32.8653 165.24C33.172 165.96 33.3253 166.727 33.3253 167.54C33.3253 168.5 33.1453 169.36 32.7853 170.12C32.4253 170.88 31.872 171.48 31.1253 171.92C30.392 172.36 29.4786 172.58 28.3853 172.58C26.9853 172.58 25.852 172.22 24.9853 171.5C24.1186 170.78 23.592 169.82 23.4053 168.62H25.1853C25.3586 169.38 25.7253 169.973 26.2853 170.4C26.8453 170.827 27.552 171.04 28.4053 171.04C29.4586 171.04 30.252 170.727 30.7853 170.1C31.3186 169.46 31.5853 168.62 31.5853 167.58C31.5853 166.54 31.3186 165.74 30.7853 165.18C30.252 164.607 29.4653 164.32 28.4253 164.32C27.7186 164.32 27.0986 164.493 26.5653 164.84C26.0453 165.173 25.6653 165.633 25.4253 166.22H23.7053V158.06H32.4053V159.66ZM34.7439 165.16C34.7439 162.867 35.1172 161.08 35.8639 159.8C36.6106 158.507 37.9172 157.86 39.7839 157.86C41.6372 157.86 42.9372 158.507 43.6839 159.8C44.4306 161.08 44.8039 162.867 44.8039 165.16C44.8039 167.493 44.4306 169.307 43.6839 170.6C42.9372 171.893 41.6372 172.54 39.7839 172.54C37.9172 172.54 36.6106 171.893 35.8639 170.6C35.1172 169.307 34.7439 167.493 34.7439 165.16ZM43.0039 165.16C43.0039 164 42.9239 163.02 42.7639 162.22C42.6172 161.407 42.3039 160.753 41.8239 160.26C41.3572 159.767 40.6772 159.52 39.7839 159.52C38.8772 159.52 38.1839 159.767 37.7039 160.26C37.2372 160.753 36.9239 161.407 36.7639 162.22C36.6172 163.02 36.5439 164 36.5439 165.16C36.5439 166.36 36.6172 167.367 36.7639 168.18C36.9239 168.993 37.2372 169.647 37.7039 170.14C38.1839 170.633 38.8772 170.88 39.7839 170.88C40.6772 170.88 41.3572 170.633 41.8239 170.14C42.3039 169.647 42.6172 168.993 42.7639 168.18C42.9239 167.367 43.0039 166.36 43.0039 165.16Z" fill="#4EB3AA"/>
<path d="M62.506 154.584L57.574 174.6H55.954L60.868 154.584H62.506ZM75.9085 161.496C76.6765 161.496 77.3605 161.658 77.9605 161.982C78.5605 162.294 79.0345 162.768 79.3825 163.404C79.7305 164.04 79.9045 164.814 79.9045 165.726V171.54H78.2845V165.96C78.2845 164.976 78.0385 164.226 77.5465 163.71C77.0665 163.182 76.4125 162.918 75.5845 162.918C74.7325 162.918 74.0545 163.194 73.5505 163.746C73.0465 164.286 72.7945 165.072 72.7945 166.104V171.54H71.1745V165.96C71.1745 164.976 70.9285 164.226 70.4365 163.71C69.9565 163.182 69.3025 162.918 68.4745 162.918C67.6225 162.918 66.9445 163.194 66.4405 163.746C65.9365 164.286 65.6845 165.072 65.6845 166.104V171.54H64.0465V161.676H65.6845V163.098C66.0085 162.582 66.4405 162.186 66.9805 161.91C67.5325 161.634 68.1385 161.496 68.7985 161.496C69.6265 161.496 70.3585 161.682 70.9945 162.054C71.6305 162.426 72.1045 162.972 72.4165 163.692C72.6925 162.996 73.1485 162.456 73.7845 162.072C74.4205 161.688 75.1285 161.496 75.9085 161.496ZM85.9935 171.702C85.0695 171.702 84.2295 171.492 83.4735 171.072C82.7295 170.652 82.1415 170.058 81.7095 169.29C81.2895 168.51 81.0795 167.61 81.0795 166.59C81.0795 165.582 81.2955 164.694 81.7275 163.926C82.1715 163.146 82.7715 162.552 83.5275 162.144C84.2835 161.724 85.1295 161.514 86.0655 161.514C87.0015 161.514 87.8475 161.724 88.6035 162.144C89.3595 162.552 89.9535 163.14 90.3855 163.908C90.8295 164.676 91.0515 165.57 91.0515 166.59C91.0515 167.61 90.8235 168.51 90.3675 169.29C89.9235 170.058 89.3175 170.652 88.5495 171.072C87.7815 171.492 86.9295 171.702 85.9935 171.702ZM85.9935 170.262C86.5815 170.262 87.1335 170.124 87.6495 169.848C88.1655 169.572 88.5795 169.158 88.8915 168.606C89.2155 168.054 89.3775 167.382 89.3775 166.59C89.3775 165.798 89.2215 165.126 88.9095 164.574C88.5975 164.022 88.1895 163.614 87.6855 163.35C87.1815 163.074 86.6355 162.936 86.0475 162.936C85.4475 162.936 84.8955 163.074 84.3915 163.35C83.8995 163.614 83.5035 164.022 83.2035 164.574C82.9035 165.126 82.7535 165.798 82.7535 166.59C82.7535 167.394 82.8975 168.072 83.1855 168.624C83.4855 169.176 83.8815 169.59 84.3735 169.866C84.8655 170.13 85.4055 170.262 85.9935 170.262ZM97.1111 161.496C98.3111 161.496 99.2831 161.862 100.027 162.594C100.771 163.314 101.143 164.358 101.143 165.726V171.54H99.5231V165.96C99.5231 164.976 99.2771 164.226 98.7851 163.71C98.2931 163.182 97.6211 162.918 96.7691 162.918C95.9051 162.918 95.2151 163.188 94.6991 163.728C94.1951 164.268 93.9431 165.054 93.9431 166.086V171.54H92.3051V161.676H93.9431V163.08C94.2671 162.576 94.7051 162.186 95.2571 161.91C95.8211 161.634 96.4391 161.496 97.1111 161.496ZM104.917 163.026V168.84C104.917 169.32 105.019 169.662 105.223 169.866C105.427 170.058 105.781 170.154 106.285 170.154H107.491V171.54H106.015C105.103 171.54 104.419 171.33 103.963 170.91C103.507 170.49 103.279 169.8 103.279 168.84V163.026H102.001V161.676H103.279V159.192H104.917V161.676H107.491V163.026H104.917ZM113.471 161.496C114.215 161.496 114.887 161.658 115.487 161.982C116.087 162.294 116.555 162.768 116.891 163.404C117.239 164.04 117.413 164.814 117.413 165.726V171.54H115.793V165.96C115.793 164.976 115.547 164.226 115.055 163.71C114.563 163.182 113.891 162.918 113.039 162.918C112.175 162.918 111.485 163.188 110.969 163.728C110.465 164.268 110.213 165.054 110.213 166.086V171.54H108.575V158.22H110.213V163.08C110.537 162.576 110.981 162.186 111.545 161.91C112.121 161.634 112.763 161.496 113.471 161.496ZM122.681 171.702C121.925 171.702 121.247 171.576 120.647 171.324C120.047 171.06 119.573 170.7 119.225 170.244C118.877 169.776 118.685 169.242 118.649 168.642H120.341C120.389 169.134 120.617 169.536 121.025 169.848C121.445 170.16 121.991 170.316 122.663 170.316C123.287 170.316 123.779 170.178 124.139 169.902C124.499 169.626 124.679 169.278 124.679 168.858C124.679 168.426 124.487 168.108 124.103 167.904C123.719 167.688 123.125 167.478 122.321 167.274C121.589 167.082 120.989 166.89 120.521 166.698C120.065 166.494 119.669 166.2 119.333 165.816C119.009 165.42 118.847 164.904 118.847 164.268C118.847 163.764 118.997 163.302 119.297 162.882C119.597 162.462 120.023 162.132 120.575 161.892C121.127 161.64 121.757 161.514 122.465 161.514C123.557 161.514 124.439 161.79 125.111 162.342C125.783 162.894 126.143 163.65 126.191 164.61H124.553C124.517 164.094 124.307 163.68 123.923 163.368C123.551 163.056 123.047 162.9 122.411 162.9C121.823 162.9 121.355 163.026 121.007 163.278C120.659 163.53 120.485 163.86 120.485 164.268C120.485 164.592 120.587 164.862 120.791 165.078C121.007 165.282 121.271 165.45 121.583 165.582C121.907 165.702 122.351 165.84 122.915 165.996C123.623 166.188 124.199 166.38 124.643 166.572C125.087 166.752 125.465 167.028 125.777 167.4C126.101 167.772 126.269 168.258 126.281 168.858C126.281 169.398 126.131 169.884 125.831 170.316C125.531 170.748 125.105 171.09 124.553 171.342C124.013 171.582 123.389 171.702 122.681 171.702Z" fill="black"/>
<line y1="213.04" x2="682" y2="213.04" stroke="#DEDEDE"/>
<path d="M13.481 261.742C12.869 261.742 12.347 261.532 11.915 261.112C11.495 260.68 11.285 260.158 11.285 259.546C11.285 258.922 11.495 258.4 11.915 257.98C12.347 257.548 12.869 257.332 13.481 257.332C14.105 257.332 14.633 257.548 15.065 257.98C15.497 258.4 15.713 258.922 15.713 259.546C15.713 260.158 15.497 260.68 15.065 261.112C14.633 261.532 14.105 261.742 13.481 261.742ZM32.292 252.994C33.66 252.994 34.842 253.252 35.838 253.768C36.846 254.272 37.614 254.998 38.142 255.946C38.682 256.894 38.952 258.01 38.952 259.294C38.952 260.578 38.682 261.694 38.142 262.642C37.614 263.578 36.846 264.298 35.838 264.802C34.842 265.294 33.66 265.54 32.292 265.54H28.386V252.994H32.292ZM32.292 264.19C33.912 264.19 35.148 263.764 36 262.912C36.852 262.048 37.278 260.842 37.278 259.294C37.278 257.734 36.846 256.516 35.982 255.64C35.13 254.764 33.9 254.326 32.292 254.326H30.024V264.19H32.292ZM49.2126 260.23C49.2126 260.542 49.1946 260.872 49.1586 261.22H41.2746C41.3346 262.192 41.6646 262.954 42.2646 263.506C42.8766 264.046 43.6146 264.316 44.4786 264.316C45.1866 264.316 45.7746 264.154 46.2426 263.83C46.7226 263.494 47.0586 263.05 47.2506 262.498H49.0146C48.7506 263.446 48.2226 264.22 47.4306 264.82C46.6386 265.408 45.6546 265.702 44.4786 265.702C43.5426 265.702 42.7026 265.492 41.9586 265.072C41.2266 264.652 40.6506 264.058 40.2306 263.29C39.8106 262.51 39.6006 261.61 39.6006 260.59C39.6006 259.57 39.8046 258.676 40.2126 257.908C40.6206 257.14 41.1906 256.552 41.9226 256.144C42.6666 255.724 43.5186 255.514 44.4786 255.514C45.4146 255.514 46.2426 255.718 46.9626 256.126C47.6826 256.534 48.2346 257.098 48.6186 257.818C49.0146 258.526 49.2126 259.33 49.2126 260.23ZM47.5206 259.888C47.5206 259.264 47.3826 258.73 47.1066 258.286C46.8306 257.83 46.4526 257.488 45.9726 257.26C45.5046 257.02 44.9826 256.9 44.4066 256.9C43.5786 256.9 42.8706 257.164 42.2826 257.692C41.7066 258.22 41.3766 258.952 41.2926 259.888H47.5206ZM49.8627 260.572C49.8627 259.564 50.0667 258.682 50.4747 257.926C50.8827 257.158 51.4407 256.564 52.1487 256.144C52.8687 255.724 53.6727 255.514 54.5607 255.514C55.3287 255.514 56.0427 255.694 56.7027 256.054C57.3627 256.402 57.8667 256.864 58.2147 257.44V252.22H59.8707V265.54H58.2147V263.686C57.8907 264.274 57.4107 264.76 56.7747 265.144C56.1387 265.516 55.3947 265.702 54.5427 265.702C53.6667 265.702 52.8687 265.486 52.1487 265.054C51.4407 264.622 50.8827 264.016 50.4747 263.236C50.0667 262.456 49.8627 261.568 49.8627 260.572ZM58.2147 260.59C58.2147 259.846 58.0647 259.198 57.7647 258.646C57.4647 258.094 57.0567 257.674 56.5407 257.386C56.0367 257.086 55.4787 256.936 54.8667 256.936C54.2547 256.936 53.6967 257.08 53.1927 257.368C52.6887 257.656 52.2867 258.076 51.9867 258.628C51.6867 259.18 51.5367 259.828 51.5367 260.572C51.5367 261.328 51.6867 261.988 51.9867 262.552C52.2867 263.104 52.6887 263.53 53.1927 263.83C53.6967 264.118 54.2547 264.262 54.8667 264.262C55.4787 264.262 56.0367 264.118 56.5407 263.83C57.0567 263.53 57.4647 263.104 57.7647 262.552C58.0647 261.988 58.2147 261.334 58.2147 260.59ZM62.5847 254.074C62.2727 254.074 62.0087 253.966 61.7927 253.75C61.5767 253.534 61.4687 253.27 61.4687 252.958C61.4687 252.646 61.5767 252.382 61.7927 252.166C62.0087 251.95 62.2727 251.842 62.5847 251.842C62.8847 251.842 63.1367 251.95 63.3407 252.166C63.5567 252.382 63.6647 252.646 63.6647 252.958C63.6647 253.27 63.5567 253.534 63.3407 253.75C63.1367 253.966 62.8847 254.074 62.5847 254.074ZM63.3767 255.676V265.54H61.7387V255.676H63.3767ZM64.6564 260.59C64.6564 259.57 64.8604 258.682 65.2684 257.926C65.6764 257.158 66.2404 256.564 66.9604 256.144C67.6924 255.724 68.5264 255.514 69.4624 255.514C70.6744 255.514 71.6704 255.808 72.4504 256.396C73.2424 256.984 73.7644 257.8 74.0164 258.844H72.2524C72.0844 258.244 71.7544 257.77 71.2624 257.422C70.7824 257.074 70.1824 256.9 69.4624 256.9C68.5264 256.9 67.7704 257.224 67.1944 257.872C66.6184 258.508 66.3304 259.414 66.3304 260.59C66.3304 261.778 66.6184 262.696 67.1944 263.344C67.7704 263.992 68.5264 264.316 69.4624 264.316C70.1824 264.316 70.7824 264.148 71.2624 263.812C71.7424 263.476 72.0724 262.996 72.2524 262.372H74.0164C73.7524 263.38 73.2244 264.19 72.4324 264.802C71.6404 265.402 70.6504 265.702 69.4624 265.702C68.5264 265.702 67.6924 265.492 66.9604 265.072C66.2404 264.652 65.6764 264.058 65.2684 263.29C64.8604 262.522 64.6564 261.622 64.6564 260.59ZM74.69 260.572C74.69 259.564 74.894 258.682 75.302 257.926C75.71 257.158 76.268 256.564 76.976 256.144C77.696 255.724 78.494 255.514 79.37 255.514C80.234 255.514 80.984 255.7 81.62 256.072C82.256 256.444 82.73 256.912 83.042 257.476V255.676H84.698V265.54H83.042V263.704C82.718 264.28 82.232 264.76 81.584 265.144C80.948 265.516 80.204 265.702 79.352 265.702C78.476 265.702 77.684 265.486 76.976 265.054C76.268 264.622 75.71 264.016 75.302 263.236C74.894 262.456 74.69 261.568 74.69 260.572ZM83.042 260.59C83.042 259.846 82.892 259.198 82.592 258.646C82.292 258.094 81.884 257.674 81.368 257.386C80.864 257.086 80.306 256.936 79.694 256.936C79.082 256.936 78.524 257.08 78.02 257.368C77.516 257.656 77.114 258.076 76.814 258.628C76.514 259.18 76.364 259.828 76.364 260.572C76.364 261.328 76.514 261.988 76.814 262.552C77.114 263.104 77.516 263.53 78.02 263.83C78.524 264.118 79.082 264.262 79.694 264.262C80.306 264.262 80.864 264.118 81.368 263.83C81.884 263.53 82.292 263.104 82.592 262.552C82.892 261.988 83.042 261.334 83.042 260.59ZM88.5641 257.026V262.84C88.5641 263.32 88.6661 263.662 88.8701 263.866C89.0741 264.058 89.4281 264.154 89.9321 264.154H91.1381V265.54H89.6621C88.7501 265.54 88.0661 265.33 87.6101 264.91C87.1541 264.49 86.9261 263.8 86.9261 262.84V257.026H85.6481V255.676H86.9261V253.192H88.5641V255.676H91.1381V257.026H88.5641ZM101.223 260.23C101.223 260.542 101.205 260.872 101.169 261.22H93.2847C93.3447 262.192 93.6747 262.954 94.2747 263.506C94.8867 264.046 95.6247 264.316 96.4887 264.316C97.1967 264.316 97.7847 264.154 98.2527 263.83C98.7327 263.494 99.0687 263.05 99.2607 262.498H101.025C100.761 263.446 100.233 264.22 99.4407 264.82C98.6487 265.408 97.6647 265.702 96.4887 265.702C95.5527 265.702 94.7127 265.492 93.9687 265.072C93.2367 264.652 92.6607 264.058 92.2407 263.29C91.8207 262.51 91.6107 261.61 91.6107 260.59C91.6107 259.57 91.8147 258.676 92.2227 257.908C92.6307 257.14 93.2007 256.552 93.9327 256.144C94.6767 255.724 95.5287 255.514 96.4887 255.514C97.4247 255.514 98.2527 255.718 98.9727 256.126C99.6927 256.534 100.245 257.098 100.629 257.818C101.025 258.526 101.223 259.33 101.223 260.23ZM99.5307 259.888C99.5307 259.264 99.3927 258.73 99.1167 258.286C98.8407 257.83 98.4627 257.488 97.9827 257.26C97.5147 257.02 96.9927 256.9 96.4167 256.9C95.5887 256.9 94.8807 257.164 94.2927 257.692C93.7167 258.22 93.3867 258.952 93.3027 259.888H99.5307ZM101.873 260.572C101.873 259.564 102.077 258.682 102.485 257.926C102.893 257.158 103.451 256.564 104.159 256.144C104.879 255.724 105.683 255.514 106.571 255.514C107.339 255.514 108.053 255.694 108.713 256.054C109.373 256.402 109.877 256.864 110.225 257.44V252.22H111.881V265.54H110.225V263.686C109.901 264.274 109.421 264.76 108.785 265.144C108.149 265.516 107.405 265.702 106.553 265.702C105.677 265.702 104.879 265.486 104.159 265.054C103.451 264.622 102.893 264.016 102.485 263.236C102.077 262.456 101.873 261.568 101.873 260.572ZM110.225 260.59C110.225 259.846 110.075 259.198 109.775 258.646C109.475 258.094 109.067 257.674 108.551 257.386C108.047 257.086 107.489 256.936 106.877 256.936C106.265 256.936 105.707 257.08 105.203 257.368C104.699 257.656 104.297 258.076 103.997 258.628C103.697 259.18 103.547 259.828 103.547 260.572C103.547 261.328 103.697 261.988 103.997 262.552C104.297 263.104 104.699 263.53 105.203 263.83C105.707 264.118 106.265 264.262 106.877 264.262C107.489 264.262 108.047 264.118 108.551 263.83C109.067 263.53 109.475 263.104 109.775 262.552C110.075 261.988 110.225 261.334 110.225 260.59ZM119.286 257.278C119.574 256.714 119.982 256.276 120.51 255.964C121.05 255.652 121.704 255.496 122.472 255.496V257.188H122.04C120.204 257.188 119.286 258.184 119.286 260.176V265.54H117.648V255.676H119.286V257.278ZM132.463 260.23C132.463 260.542 132.445 260.872 132.409 261.22H124.525C124.585 262.192 124.915 262.954 125.515 263.506C126.127 264.046 126.865 264.316 127.729 264.316C128.437 264.316 129.025 264.154 129.493 263.83C129.973 263.494 130.309 263.05 130.501 262.498H132.265C132.001 263.446 131.473 264.22 130.681 264.82C129.889 265.408 128.905 265.702 127.729 265.702C126.793 265.702 125.953 265.492 125.209 265.072C124.477 264.652 123.901 264.058 123.481 263.29C123.061 262.51 122.851 261.61 122.851 260.59C122.851 259.57 123.055 258.676 123.463 257.908C123.871 257.14 124.441 256.552 125.173 256.144C125.917 255.724 126.769 255.514 127.729 255.514C128.665 255.514 129.493 255.718 130.213 256.126C130.933 256.534 131.485 257.098 131.869 257.818C132.265 258.526 132.463 259.33 132.463 260.23ZM130.771 259.888C130.771 259.264 130.633 258.73 130.357 258.286C130.081 257.83 129.703 257.488 129.223 257.26C128.755 257.02 128.233 256.9 127.657 256.9C126.829 256.9 126.121 257.164 125.533 257.692C124.957 258.22 124.627 258.952 124.543 259.888H130.771ZM145.587 255.496C146.355 255.496 147.039 255.658 147.639 255.982C148.239 256.294 148.713 256.768 149.061 257.404C149.409 258.04 149.583 258.814 149.583 259.726V265.54H147.963V259.96C147.963 258.976 147.717 258.226 147.225 257.71C146.745 257.182 146.091 256.918 145.263 256.918C144.411 256.918 143.733 257.194 143.229 257.746C142.725 258.286 142.473 259.072 142.473 260.104V265.54H140.853V259.96C140.853 258.976 140.607 258.226 140.115 257.71C139.635 257.182 138.981 256.918 138.153 256.918C137.301 256.918 136.623 257.194 136.119 257.746C135.615 258.286 135.363 259.072 135.363 260.104V265.54H133.725V255.676H135.363V257.098C135.687 256.582 136.119 256.186 136.659 255.91C137.211 255.634 137.817 255.496 138.477 255.496C139.305 255.496 140.037 255.682 140.673 256.054C141.309 256.426 141.783 256.972 142.095 257.692C142.371 256.996 142.827 256.456 143.463 256.072C144.099 255.688 144.807 255.496 145.587 255.496ZM155.672 265.702C154.748 265.702 153.908 265.492 153.152 265.072C152.408 264.652 151.82 264.058 151.388 263.29C150.968 262.51 150.758 261.61 150.758 260.59C150.758 259.582 150.974 258.694 151.406 257.926C151.85 257.146 152.45 256.552 153.206 256.144C153.962 255.724 154.808 255.514 155.744 255.514C156.68 255.514 157.526 255.724 158.282 256.144C159.038 256.552 159.632 257.14 160.064 257.908C160.508 258.676 160.73 259.57 160.73 260.59C160.73 261.61 160.502 262.51 160.046 263.29C159.602 264.058 158.996 264.652 158.228 265.072C157.46 265.492 156.608 265.702 155.672 265.702ZM155.672 264.262C156.26 264.262 156.812 264.124 157.328 263.848C157.844 263.572 158.258 263.158 158.57 262.606C158.894 262.054 159.056 261.382 159.056 260.59C159.056 259.798 158.9 259.126 158.588 258.574C158.276 258.022 157.868 257.614 157.364 257.35C156.86 257.074 156.314 256.936 155.726 256.936C155.126 256.936 154.574 257.074 154.07 257.35C153.578 257.614 153.182 258.022 152.882 258.574C152.582 259.126 152.432 259.798 152.432 260.59C152.432 261.394 152.576 262.072 152.864 262.624C153.164 263.176 153.56 263.59 154.052 263.866C154.544 264.13 155.084 264.262 155.672 264.262ZM163.981 257.026V262.84C163.981 263.32 164.083 263.662 164.287 263.866C164.491 264.058 164.845 264.154 165.349 264.154H166.555V265.54H165.079C164.167 265.54 163.483 265.33 163.027 264.91C162.571 264.49 162.343 263.8 162.343 262.84V257.026H161.065V255.676H162.343V253.192H163.981V255.676H166.555V257.026H163.981ZM176.64 260.23C176.64 260.542 176.622 260.872 176.586 261.22H168.702C168.762 262.192 169.092 262.954 169.692 263.506C170.304 264.046 171.042 264.316 171.906 264.316C172.614 264.316 173.202 264.154 173.67 263.83C174.15 263.494 174.486 263.05 174.678 262.498H176.442C176.178 263.446 175.65 264.22 174.858 264.82C174.066 265.408 173.082 265.702 171.906 265.702C170.97 265.702 170.13 265.492 169.386 265.072C168.654 264.652 168.078 264.058 167.658 263.29C167.238 262.51 167.028 261.61 167.028 260.59C167.028 259.57 167.232 258.676 167.64 257.908C168.048 257.14 168.618 256.552 169.35 256.144C170.094 255.724 170.946 255.514 171.906 255.514C172.842 255.514 173.67 255.718 174.39 256.126C175.11 256.534 175.662 257.098 176.046 257.818C176.442 258.526 176.64 259.33 176.64 260.23ZM174.948 259.888C174.948 259.264 174.81 258.73 174.534 258.286C174.258 257.83 173.88 257.488 173.4 257.26C172.932 257.02 172.41 256.9 171.834 256.9C171.006 256.9 170.298 257.164 169.71 257.692C169.134 258.22 168.804 258.952 168.72 259.888H174.948ZM181.189 260.572C181.189 259.564 181.393 258.682 181.801 257.926C182.209 257.158 182.767 256.564 183.475 256.144C184.195 255.724 184.993 255.514 185.869 255.514C186.733 255.514 187.483 255.7 188.119 256.072C188.755 256.444 189.229 256.912 189.541 257.476V255.676H191.197V265.54H189.541V263.704C189.217 264.28 188.731 264.76 188.083 265.144C187.447 265.516 186.703 265.702 185.851 265.702C184.975 265.702 184.183 265.486 183.475 265.054C182.767 264.622 182.209 264.016 181.801 263.236C181.393 262.456 181.189 261.568 181.189 260.572ZM189.541 260.59C189.541 259.846 189.391 259.198 189.091 258.646C188.791 258.094 188.383 257.674 187.867 257.386C187.363 257.086 186.805 256.936 186.193 256.936C185.581 256.936 185.023 257.08 184.519 257.368C184.015 257.656 183.613 258.076 183.313 258.628C183.013 259.18 182.863 259.828 182.863 260.572C182.863 261.328 183.013 261.988 183.313 262.552C183.613 263.104 184.015 263.53 184.519 263.83C185.023 264.118 185.581 264.262 186.193 264.262C186.805 264.262 187.363 264.118 187.867 263.83C188.383 263.53 188.791 263.104 189.091 262.552C189.391 261.988 189.541 261.334 189.541 260.59ZM196.557 265.702C195.801 265.702 195.123 265.576 194.523 265.324C193.923 265.06 193.449 264.7 193.101 264.244C192.753 263.776 192.561 263.242 192.525 262.642H194.217C194.265 263.134 194.493 263.536 194.901 263.848C195.321 264.16 195.867 264.316 196.539 264.316C197.163 264.316 197.655 264.178 198.015 263.902C198.375 263.626 198.555 263.278 198.555 262.858C198.555 262.426 198.363 262.108 197.979 261.904C197.595 261.688 197.001 261.478 196.197 261.274C195.465 261.082 194.865 260.89 194.397 260.698C193.941 260.494 193.545 260.2 193.209 259.816C192.885 259.42 192.723 258.904 192.723 258.268C192.723 257.764 192.873 257.302 193.173 256.882C193.473 256.462 193.899 256.132 194.451 255.892C195.003 255.64 195.633 255.514 196.341 255.514C197.433 255.514 198.315 255.79 198.987 256.342C199.659 256.894 200.019 257.65 200.067 258.61H198.429C198.393 258.094 198.183 257.68 197.799 257.368C197.427 257.056 196.923 256.9 196.287 256.9C195.699 256.9 195.231 257.026 194.883 257.278C194.535 257.53 194.361 257.86 194.361 258.268C194.361 258.592 194.463 258.862 194.667 259.078C194.883 259.282 195.147 259.45 195.459 259.582C195.783 259.702 196.227 259.84 196.791 259.996C197.499 260.188 198.075 260.38 198.519 260.572C198.963 260.752 199.341 261.028 199.653 261.4C199.977 261.772 200.145 262.258 200.157 262.858C200.157 263.398 200.007 263.884 199.707 264.316C199.407 264.748 198.981 265.09 198.429 265.342C197.889 265.582 197.265 265.702 196.557 265.702ZM205.061 265.702C204.305 265.702 203.627 265.576 203.027 265.324C202.427 265.06 201.953 264.7 201.605 264.244C201.257 263.776 201.065 263.242 201.029 262.642H202.721C202.769 263.134 202.997 263.536 203.405 263.848C203.825 264.16 204.371 264.316 205.043 264.316C205.667 264.316 206.159 264.178 206.519 263.902C206.879 263.626 207.059 263.278 207.059 262.858C207.059 262.426 206.867 262.108 206.483 261.904C206.099 261.688 205.505 261.478 204.701 261.274C203.969 261.082 203.369 260.89 202.901 260.698C202.445 260.494 202.049 260.2 201.713 259.816C201.389 259.42 201.227 258.904 201.227 258.268C201.227 257.764 201.377 257.302 201.677 256.882C201.977 256.462 202.403 256.132 202.955 255.892C203.507 255.64 204.137 255.514 204.845 255.514C205.937 255.514 206.819 255.79 207.491 256.342C208.163 256.894 208.523 257.65 208.571 258.61H206.933C206.897 258.094 206.687 257.68 206.303 257.368C205.931 257.056 205.427 256.9 204.791 256.9C204.203 256.9 203.735 257.026 203.387 257.278C203.039 257.53 202.865 257.86 202.865 258.268C202.865 258.592 202.967 258.862 203.171 259.078C203.387 259.282 203.651 259.45 203.963 259.582C204.287 259.702 204.731 259.84 205.295 259.996C206.003 260.188 206.579 260.38 207.023 260.572C207.467 260.752 207.845 261.028 208.157 261.4C208.481 261.772 208.649 262.258 208.661 262.858C208.661 263.398 208.511 263.884 208.211 264.316C207.911 264.748 207.485 265.09 206.933 265.342C206.393 265.582 205.769 265.702 205.061 265.702ZM210.92 254.074C210.608 254.074 210.344 253.966 210.128 253.75C209.912 253.534 209.804 253.27 209.804 252.958C209.804 252.646 209.912 252.382 210.128 252.166C210.344 251.95 210.608 251.842 210.92 251.842C211.22 251.842 211.472 251.95 211.676 252.166C211.892 252.382 212 252.646 212 252.958C212 253.27 211.892 253.534 211.676 253.75C211.472 253.966 211.22 254.074 210.92 254.074ZM211.712 255.676V265.54H210.074V255.676H211.712ZM215.601 257.026V262.84C215.601 263.32 215.703 263.662 215.907 263.866C216.111 264.058 216.465 264.154 216.969 264.154H218.175V265.54H216.699C215.787 265.54 215.103 265.33 214.647 264.91C214.191 264.49 213.963 263.8 213.963 262.84V257.026H212.685V255.676H213.963V253.192H215.601V255.676H218.175V257.026H215.601ZM228.26 260.23C228.26 260.542 228.242 260.872 228.206 261.22H220.322C220.382 262.192 220.712 262.954 221.312 263.506C221.924 264.046 222.662 264.316 223.526 264.316C224.234 264.316 224.822 264.154 225.29 263.83C225.77 263.494 226.106 263.05 226.298 262.498H228.062C227.798 263.446 227.27 264.22 226.478 264.82C225.686 265.408 224.702 265.702 223.526 265.702C222.59 265.702 221.75 265.492 221.006 265.072C220.274 264.652 219.698 264.058 219.278 263.29C218.858 262.51 218.648 261.61 218.648 260.59C218.648 259.57 218.852 258.676 219.26 257.908C219.668 257.14 220.238 256.552 220.97 256.144C221.714 255.724 222.566 255.514 223.526 255.514C224.462 255.514 225.29 255.718 226.01 256.126C226.73 256.534 227.282 257.098 227.666 257.818C228.062 258.526 228.26 259.33 228.26 260.23ZM226.568 259.888C226.568 259.264 226.43 258.73 226.154 258.286C225.878 257.83 225.5 257.488 225.02 257.26C224.552 257.02 224.03 256.9 223.454 256.9C222.626 256.9 221.918 257.164 221.33 257.692C220.754 258.22 220.424 258.952 220.34 259.888H226.568ZM234.328 255.496C235.528 255.496 236.5 255.862 237.244 256.594C237.988 257.314 238.36 258.358 238.36 259.726V265.54H236.74V259.96C236.74 258.976 236.494 258.226 236.002 257.71C235.51 257.182 234.838 256.918 233.986 256.918C233.122 256.918 232.432 257.188 231.916 257.728C231.412 258.268 231.16 259.054 231.16 260.086V265.54H229.522V255.676H231.16V257.08C231.484 256.576 231.922 256.186 232.474 255.91C233.038 255.634 233.656 255.496 234.328 255.496ZM242.134 257.026V262.84C242.134 263.32 242.236 263.662 242.44 263.866C242.644 264.058 242.998 264.154 243.502 264.154H244.708V265.54H243.232C242.32 265.54 241.636 265.33 241.18 264.91C240.724 264.49 240.496 263.8 240.496 262.84V257.026H239.218V255.676H240.496V253.192H242.134V255.676H244.708V257.026H242.134Z" fill="#5A5A5A"/>
<path d="M13.481 313.742C12.869 313.742 12.347 313.532 11.915 313.112C11.495 312.68 11.285 312.158 11.285 311.546C11.285 310.922 11.495 310.4 11.915 309.98C12.347 309.548 12.869 309.332 13.481 309.332C14.105 309.332 14.633 309.548 15.065 309.98C15.497 310.4 15.713 310.922 15.713 311.546C15.713 312.158 15.497 312.68 15.065 313.112C14.633 313.532 14.105 313.742 13.481 313.742ZM38.754 304.994L34.02 317.54H32.13L27.396 304.994H29.142L33.084 315.812L37.026 304.994H38.754ZM40.4961 306.074C40.1841 306.074 39.9201 305.966 39.7041 305.75C39.4881 305.534 39.3801 305.27 39.3801 304.958C39.3801 304.646 39.4881 304.382 39.7041 304.166C39.9201 303.95 40.1841 303.842 40.4961 303.842C40.7961 303.842 41.0481 303.95 41.2521 304.166C41.4681 304.382 41.5761 304.646 41.5761 304.958C41.5761 305.27 41.4681 305.534 41.2521 305.75C41.0481 305.966 40.7961 306.074 40.4961 306.074ZM41.2881 307.676V317.54H39.6501V307.676H41.2881ZM44.8178 309.278C45.1058 308.714 45.5138 308.276 46.0418 307.964C46.5818 307.652 47.2358 307.496 48.0038 307.496V309.188H47.5718C45.7358 309.188 44.8178 310.184 44.8178 312.176V317.54H43.1798V307.676H44.8178V309.278ZM50.9926 309.026V314.84C50.9926 315.32 51.0946 315.662 51.2986 315.866C51.5026 316.058 51.8566 316.154 52.3606 316.154H53.5666V317.54H52.0906C51.1786 317.54 50.4946 317.33 50.0386 316.91C49.5826 316.49 49.3546 315.8 49.3546 314.84V309.026H48.0766V307.676H49.3546V305.192H50.9926V307.676H53.5666V309.026H50.9926ZM63.3992 307.676V317.54H61.7612V316.082C61.4492 316.586 61.0112 316.982 60.4472 317.27C59.8952 317.546 59.2832 317.684 58.6112 317.684C57.8432 317.684 57.1532 317.528 56.5412 317.216C55.9292 316.892 55.4432 316.412 55.0832 315.776C54.7352 315.14 54.5612 314.366 54.5612 313.454V307.676H56.1812V313.238C56.1812 314.21 56.4272 314.96 56.9192 315.488C57.4112 316.004 58.0832 316.262 58.9352 316.262C59.8112 316.262 60.5012 315.992 61.0052 315.452C61.5092 314.912 61.7612 314.126 61.7612 313.094V307.676H63.3992ZM64.6529 312.572C64.6529 311.564 64.8569 310.682 65.2649 309.926C65.6729 309.158 66.2309 308.564 66.9389 308.144C67.6589 307.724 68.4569 307.514 69.3329 307.514C70.1969 307.514 70.9469 307.7 71.5829 308.072C72.2189 308.444 72.6929 308.912 73.0049 309.476V307.676H74.6609V317.54H73.0049V315.704C72.6809 316.28 72.1949 316.76 71.5469 317.144C70.9109 317.516 70.1669 317.702 69.3149 317.702C68.4389 317.702 67.6469 317.486 66.9389 317.054C66.2309 316.622 65.6729 316.016 65.2649 315.236C64.8569 314.456 64.6529 313.568 64.6529 312.572ZM73.0049 312.59C73.0049 311.846 72.8549 311.198 72.5549 310.646C72.2549 310.094 71.8469 309.674 71.3309 309.386C70.8269 309.086 70.2689 308.936 69.6569 308.936C69.0449 308.936 68.4869 309.08 67.9829 309.368C67.4789 309.656 67.0769 310.076 66.7769 310.628C66.4769 311.18 66.3269 311.828 66.3269 312.572C66.3269 313.328 66.4769 313.988 66.7769 314.552C67.0769 315.104 67.4789 315.53 67.9829 315.83C68.4869 316.118 69.0449 316.262 69.6569 316.262C70.2689 316.262 70.8269 316.118 71.3309 315.83C71.8469 315.53 72.2549 315.104 72.5549 314.552C72.8549 313.988 73.0049 313.334 73.0049 312.59ZM78.167 304.22V317.54H76.529V304.22H78.167ZM83.3455 312.572C83.3455 311.564 83.5495 310.682 83.9575 309.926C84.3655 309.158 84.9235 308.564 85.6315 308.144C86.3515 307.724 87.1495 307.514 88.0255 307.514C88.8895 307.514 89.6395 307.7 90.2755 308.072C90.9115 308.444 91.3855 308.912 91.6975 309.476V307.676H93.3535V317.54H91.6975V315.704C91.3735 316.28 90.8875 316.76 90.2395 317.144C89.6035 317.516 88.8595 317.702 88.0075 317.702C87.1315 317.702 86.3395 317.486 85.6315 317.054C84.9235 316.622 84.3655 316.016 83.9575 315.236C83.5495 314.456 83.3455 313.568 83.3455 312.572ZM91.6975 312.59C91.6975 311.846 91.5475 311.198 91.2475 310.646C90.9475 310.094 90.5395 309.674 90.0235 309.386C89.5195 309.086 88.9615 308.936 88.3495 308.936C87.7375 308.936 87.1795 309.08 86.6755 309.368C86.1715 309.656 85.7695 310.076 85.4695 310.628C85.1695 311.18 85.0195 311.828 85.0195 312.572C85.0195 313.328 85.1695 313.988 85.4695 314.552C85.7695 315.104 86.1715 315.53 86.6755 315.83C87.1795 316.118 87.7375 316.262 88.3495 316.262C88.9615 316.262 89.5195 316.118 90.0235 315.83C90.5395 315.53 90.9475 315.104 91.2475 314.552C91.5475 313.988 91.6975 313.334 91.6975 312.59ZM96.8595 309.494C97.1835 308.93 97.6635 308.462 98.2995 308.09C98.9475 307.706 99.6975 307.514 100.55 307.514C101.426 307.514 102.218 307.724 102.926 308.144C103.646 308.564 104.21 309.158 104.618 309.926C105.026 310.682 105.23 311.564 105.23 312.572C105.23 313.568 105.026 314.456 104.618 315.236C104.21 316.016 103.646 316.622 102.926 317.054C102.218 317.486 101.426 317.702 100.55 317.702C99.7095 317.702 98.9655 317.516 98.3175 317.144C97.6815 316.76 97.1955 316.286 96.8595 315.722V322.22H95.2215V307.676H96.8595V309.494ZM103.556 312.572C103.556 311.828 103.406 311.18 103.106 310.628C102.806 310.076 102.398 309.656 101.882 309.368C101.378 309.08 100.82 308.936 100.208 308.936C99.6075 308.936 99.0495 309.086 98.5335 309.386C98.0295 309.674 97.6215 310.1 97.3095 310.664C97.0095 311.216 96.8595 311.858 96.8595 312.59C96.8595 313.334 97.0095 313.988 97.3095 314.552C97.6215 315.104 98.0295 315.53 98.5335 315.83C99.0495 316.118 99.6075 316.262 100.208 316.262C100.82 316.262 101.378 316.118 101.882 315.83C102.398 315.53 102.806 315.104 103.106 314.552C103.406 313.988 103.556 313.328 103.556 312.572ZM108.124 309.494C108.448 308.93 108.928 308.462 109.564 308.09C110.212 307.706 110.962 307.514 111.814 307.514C112.69 307.514 113.482 307.724 114.19 308.144C114.91 308.564 115.474 309.158 115.882 309.926C116.29 310.682 116.494 311.564 116.494 312.572C116.494 313.568 116.29 314.456 115.882 315.236C115.474 316.016 114.91 316.622 114.19 317.054C113.482 317.486 112.69 317.702 111.814 317.702C110.974 317.702 110.23 317.516 109.582 317.144C108.946 316.76 108.46 316.286 108.124 315.722V322.22H106.486V307.676H108.124V309.494ZM114.82 312.572C114.82 311.828 114.67 311.18 114.37 310.628C114.07 310.076 113.662 309.656 113.146 309.368C112.642 309.08 112.084 308.936 111.472 308.936C110.872 308.936 110.314 309.086 109.798 309.386C109.294 309.674 108.886 310.1 108.574 310.664C108.274 311.216 108.124 311.858 108.124 312.59C108.124 313.334 108.274 313.988 108.574 314.552C108.886 315.104 109.294 315.53 109.798 315.83C110.314 316.118 110.872 316.262 111.472 316.262C112.084 316.262 112.642 316.118 113.146 315.83C113.662 315.53 114.07 315.104 114.37 314.552C114.67 313.988 114.82 313.328 114.82 312.572ZM121.242 317.702C120.486 317.702 119.808 317.576 119.208 317.324C118.608 317.06 118.134 316.7 117.786 316.244C117.438 315.776 117.246 315.242 117.21 314.642H118.902C118.95 315.134 119.178 315.536 119.586 315.848C120.006 316.16 120.552 316.316 121.224 316.316C121.848 316.316 122.34 316.178 122.7 315.902C123.06 315.626 123.24 315.278 123.24 314.858C123.24 314.426 123.048 314.108 122.664 313.904C122.28 313.688 121.686 313.478 120.882 313.274C120.15 313.082 119.55 312.89 119.082 312.698C118.626 312.494 118.23 312.2 117.894 311.816C117.57 311.42 117.408 310.904 117.408 310.268C117.408 309.764 117.558 309.302 117.858 308.882C118.158 308.462 118.584 308.132 119.136 307.892C119.688 307.64 120.318 307.514 121.026 307.514C122.118 307.514 123 307.79 123.672 308.342C124.344 308.894 124.704 309.65 124.752 310.61H123.114C123.078 310.094 122.868 309.68 122.484 309.368C122.112 309.056 121.608 308.9 120.972 308.9C120.384 308.9 119.916 309.026 119.568 309.278C119.22 309.53 119.046 309.86 119.046 310.268C119.046 310.592 119.148 310.862 119.352 311.078C119.568 311.282 119.832 311.45 120.144 311.582C120.468 311.702 120.912 311.84 121.476 311.996C122.184 312.188 122.76 312.38 123.204 312.572C123.648 312.752 124.026 313.028 124.338 313.4C124.662 313.772 124.83 314.258 124.842 314.858C124.842 315.398 124.692 315.884 124.392 316.316C124.092 316.748 123.666 317.09 123.114 317.342C122.574 317.582 121.95 317.702 121.242 317.702ZM134.167 309.026H132.097V317.54H130.459V309.026H129.181V307.676H130.459V306.974C130.459 305.87 130.741 305.066 131.305 304.562C131.881 304.046 132.799 303.788 134.059 303.788V305.156C133.339 305.156 132.829 305.3 132.529 305.588C132.241 305.864 132.097 306.326 132.097 306.974V307.676H134.167V309.026ZM139.479 317.702C138.555 317.702 137.715 317.492 136.959 317.072C136.215 316.652 135.627 316.058 135.195 315.29C134.775 314.51 134.565 313.61 134.565 312.59C134.565 311.582 134.781 310.694 135.213 309.926C135.657 309.146 136.257 308.552 137.013 308.144C137.769 307.724 138.615 307.514 139.551 307.514C140.487 307.514 141.333 307.724 142.089 308.144C142.845 308.552 143.439 309.14 143.871 309.908C144.315 310.676 144.537 311.57 144.537 312.59C144.537 313.61 144.309 314.51 143.853 315.29C143.409 316.058 142.803 316.652 142.035 317.072C141.267 317.492 140.415 317.702 139.479 317.702ZM139.479 316.262C140.067 316.262 140.619 316.124 141.135 315.848C141.651 315.572 142.065 315.158 142.377 314.606C142.701 314.054 142.863 313.382 142.863 312.59C142.863 311.798 142.707 311.126 142.395 310.574C142.083 310.022 141.675 309.614 141.171 309.35C140.667 309.074 140.121 308.936 139.533 308.936C138.933 308.936 138.381 309.074 137.877 309.35C137.385 309.614 136.989 310.022 136.689 310.574C136.389 311.126 136.239 311.798 136.239 312.59C136.239 313.394 136.383 314.072 136.671 314.624C136.971 315.176 137.367 315.59 137.859 315.866C138.351 316.13 138.891 316.262 139.479 316.262ZM147.428 309.278C147.716 308.714 148.124 308.276 148.652 307.964C149.192 307.652 149.846 307.496 150.614 307.496V309.188H150.182C148.346 309.188 147.428 310.184 147.428 312.176V317.54H145.79V307.676H147.428V309.278ZM154.892 312.572C154.892 311.564 155.096 310.682 155.504 309.926C155.912 309.158 156.47 308.564 157.178 308.144C157.898 307.724 158.702 307.514 159.59 307.514C160.358 307.514 161.072 307.694 161.732 308.054C162.392 308.402 162.896 308.864 163.244 309.44V304.22H164.9V317.54H163.244V315.686C162.92 316.274 162.44 316.76 161.804 317.144C161.168 317.516 160.424 317.702 159.572 317.702C158.696 317.702 157.898 317.486 157.178 317.054C156.47 316.622 155.912 316.016 155.504 315.236C155.096 314.456 154.892 313.568 154.892 312.572ZM163.244 312.59C163.244 311.846 163.094 311.198 162.794 310.646C162.494 310.094 162.086 309.674 161.57 309.386C161.066 309.086 160.508 308.936 159.896 308.936C159.284 308.936 158.726 309.08 158.222 309.368C157.718 309.656 157.316 310.076 157.016 310.628C156.716 311.18 156.566 311.828 156.566 312.572C156.566 313.328 156.716 313.988 157.016 314.552C157.316 315.104 157.718 315.53 158.222 315.83C158.726 316.118 159.284 316.262 159.896 316.262C160.508 316.262 161.066 316.118 161.57 315.83C162.086 315.53 162.494 315.104 162.794 314.552C163.094 313.988 163.244 313.334 163.244 312.59ZM175.768 312.23C175.768 312.542 175.75 312.872 175.714 313.22H167.83C167.89 314.192 168.22 314.954 168.82 315.506C169.432 316.046 170.17 316.316 171.034 316.316C171.742 316.316 172.33 316.154 172.798 315.83C173.278 315.494 173.614 315.05 173.806 314.498H175.57C175.306 315.446 174.778 316.22 173.986 316.82C173.194 317.408 172.21 317.702 171.034 317.702C170.098 317.702 169.258 317.492 168.514 317.072C167.782 316.652 167.206 316.058 166.786 315.29C166.366 314.51 166.156 313.61 166.156 312.59C166.156 311.57 166.36 310.676 166.768 309.908C167.176 309.14 167.746 308.552 168.478 308.144C169.222 307.724 170.074 307.514 171.034 307.514C171.97 307.514 172.798 307.718 173.518 308.126C174.238 308.534 174.79 309.098 175.174 309.818C175.57 310.526 175.768 311.33 175.768 312.23ZM174.076 311.888C174.076 311.264 173.938 310.73 173.662 310.286C173.386 309.83 173.008 309.488 172.528 309.26C172.06 309.02 171.538 308.9 170.962 308.9C170.134 308.9 169.426 309.164 168.838 309.692C168.262 310.22 167.932 310.952 167.848 311.888H174.076ZM182.538 317.54L178.668 313.184V317.54H177.03V304.22H178.668V312.05L182.466 307.676H184.752L180.108 312.59L184.77 317.54H182.538ZM188.886 317.702C188.13 317.702 187.452 317.576 186.852 317.324C186.252 317.06 185.778 316.7 185.43 316.244C185.082 315.776 184.89 315.242 184.854 314.642H186.546C186.594 315.134 186.822 315.536 187.23 315.848C187.65 316.16 188.196 316.316 188.868 316.316C189.492 316.316 189.984 316.178 190.344 315.902C190.704 315.626 190.884 315.278 190.884 314.858C190.884 314.426 190.692 314.108 190.308 313.904C189.924 313.688 189.33 313.478 188.526 313.274C187.794 313.082 187.194 312.89 186.726 312.698C186.27 312.494 185.874 312.2 185.538 311.816C185.214 311.42 185.052 310.904 185.052 310.268C185.052 309.764 185.202 309.302 185.502 308.882C185.802 308.462 186.228 308.132 186.78 307.892C187.332 307.64 187.962 307.514 188.67 307.514C189.762 307.514 190.644 307.79 191.316 308.342C191.988 308.894 192.348 309.65 192.396 310.61H190.758C190.722 310.094 190.512 309.68 190.128 309.368C189.756 309.056 189.252 308.9 188.616 308.9C188.028 308.9 187.56 309.026 187.212 309.278C186.864 309.53 186.69 309.86 186.69 310.268C186.69 310.592 186.792 310.862 186.996 311.078C187.212 311.282 187.476 311.45 187.788 311.582C188.112 311.702 188.556 311.84 189.12 311.996C189.828 312.188 190.404 312.38 190.848 312.572C191.292 312.752 191.67 313.028 191.982 313.4C192.306 313.772 192.474 314.258 192.486 314.858C192.486 315.398 192.336 315.884 192.036 316.316C191.736 316.748 191.31 317.09 190.758 317.342C190.218 317.582 189.594 317.702 188.886 317.702ZM195.896 309.026V314.84C195.896 315.32 195.998 315.662 196.202 315.866C196.406 316.058 196.76 316.154 197.264 316.154H198.47V317.54H196.994C196.082 317.54 195.398 317.33 194.942 316.91C194.486 316.49 194.258 315.8 194.258 314.84V309.026H192.98V307.676H194.258V305.192H195.896V307.676H198.47V309.026H195.896ZM203.857 317.702C202.933 317.702 202.093 317.492 201.337 317.072C200.593 316.652 200.005 316.058 199.573 315.29C199.153 314.51 198.943 313.61 198.943 312.59C198.943 311.582 199.159 310.694 199.591 309.926C200.035 309.146 200.635 308.552 201.391 308.144C202.147 307.724 202.993 307.514 203.929 307.514C204.865 307.514 205.711 307.724 206.467 308.144C207.223 308.552 207.817 309.14 208.249 309.908C208.693 310.676 208.915 311.57 208.915 312.59C208.915 313.61 208.687 314.51 208.231 315.29C207.787 316.058 207.181 316.652 206.413 317.072C205.645 317.492 204.793 317.702 203.857 317.702ZM203.857 316.262C204.445 316.262 204.997 316.124 205.513 315.848C206.029 315.572 206.443 315.158 206.755 314.606C207.079 314.054 207.241 313.382 207.241 312.59C207.241 311.798 207.085 311.126 206.773 310.574C206.461 310.022 206.053 309.614 205.549 309.35C205.045 309.074 204.499 308.936 203.911 308.936C203.311 308.936 202.759 309.074 202.255 309.35C201.763 309.614 201.367 310.022 201.067 310.574C200.767 311.126 200.617 311.798 200.617 312.59C200.617 313.394 200.761 314.072 201.049 314.624C201.349 315.176 201.745 315.59 202.237 315.866C202.729 316.13 203.269 316.262 203.857 316.262ZM211.806 309.494C212.13 308.93 212.61 308.462 213.246 308.09C213.894 307.706 214.644 307.514 215.496 307.514C216.372 307.514 217.164 307.724 217.872 308.144C218.592 308.564 219.156 309.158 219.564 309.926C219.972 310.682 220.176 311.564 220.176 312.572C220.176 313.568 219.972 314.456 219.564 315.236C219.156 316.016 218.592 316.622 217.872 317.054C217.164 317.486 216.372 317.702 215.496 317.702C214.656 317.702 213.912 317.516 213.264 317.144C212.628 316.76 212.142 316.286 211.806 315.722V322.22H210.168V307.676H211.806V309.494ZM218.502 312.572C218.502 311.828 218.352 311.18 218.052 310.628C217.752 310.076 217.344 309.656 216.828 309.368C216.324 309.08 215.766 308.936 215.154 308.936C214.554 308.936 213.996 309.086 213.48 309.386C212.976 309.674 212.568 310.1 212.256 310.664C211.956 311.216 211.806 311.858 211.806 312.59C211.806 313.334 211.956 313.988 212.256 314.552C212.568 315.104 212.976 315.53 213.48 315.83C213.996 316.118 214.554 316.262 215.154 316.262C215.766 316.262 216.324 316.118 216.828 315.83C217.344 315.53 217.752 315.104 218.052 314.552C218.352 313.988 218.502 313.328 218.502 312.572ZM224.719 312.572C224.719 311.564 224.923 310.682 225.331 309.926C225.739 309.158 226.297 308.564 227.005 308.144C227.725 307.724 228.523 307.514 229.399 307.514C230.263 307.514 231.013 307.7 231.649 308.072C232.285 308.444 232.759 308.912 233.071 309.476V307.676H234.727V317.54H233.071V315.704C232.747 316.28 232.261 316.76 231.613 317.144C230.977 317.516 230.233 317.702 229.381 317.702C228.505 317.702 227.713 317.486 227.005 317.054C226.297 316.622 225.739 316.016 225.331 315.236C224.923 314.456 224.719 313.568 224.719 312.572ZM233.071 312.59C233.071 311.846 232.921 311.198 232.621 310.646C232.321 310.094 231.913 309.674 231.397 309.386C230.893 309.086 230.335 308.936 229.723 308.936C229.111 308.936 228.553 309.08 228.049 309.368C227.545 309.656 227.143 310.076 226.843 310.628C226.543 311.18 226.393 311.828 226.393 312.572C226.393 313.328 226.543 313.988 226.843 314.552C227.143 315.104 227.545 315.53 228.049 315.83C228.553 316.118 229.111 316.262 229.723 316.262C230.335 316.262 230.893 316.118 231.397 315.83C231.913 315.53 232.321 315.104 232.621 314.552C232.921 313.988 233.071 313.334 233.071 312.59ZM241.401 307.496C242.601 307.496 243.573 307.862 244.317 308.594C245.061 309.314 245.433 310.358 245.433 311.726V317.54H243.813V311.96C243.813 310.976 243.567 310.226 243.075 309.71C242.583 309.182 241.911 308.918 241.059 308.918C240.195 308.918 239.505 309.188 238.989 309.728C238.485 310.268 238.233 311.054 238.233 312.086V317.54H236.595V307.676H238.233V309.08C238.557 308.576 238.995 308.186 239.547 307.91C240.111 307.634 240.729 307.496 241.401 307.496ZM246.597 312.572C246.597 311.564 246.801 310.682 247.209 309.926C247.617 309.158 248.175 308.564 248.883 308.144C249.603 307.724 250.407 307.514 251.295 307.514C252.063 307.514 252.777 307.694 253.437 308.054C254.097 308.402 254.601 308.864 254.949 309.44V304.22H256.605V317.54H254.949V315.686C254.625 316.274 254.145 316.76 253.509 317.144C252.873 317.516 252.129 317.702 251.277 317.702C250.401 317.702 249.603 317.486 248.883 317.054C248.175 316.622 247.617 316.016 247.209 315.236C246.801 314.456 246.597 313.568 246.597 312.572ZM254.949 312.59C254.949 311.846 254.799 311.198 254.499 310.646C254.199 310.094 253.791 309.674 253.275 309.386C252.771 309.086 252.213 308.936 251.601 308.936C250.989 308.936 250.431 309.08 249.927 309.368C249.423 309.656 249.021 310.076 248.721 310.628C248.421 311.18 248.271 311.828 248.271 312.572C248.271 313.328 248.421 313.988 248.721 314.552C249.021 315.104 249.423 315.53 249.927 315.83C250.431 316.118 250.989 316.262 251.601 316.262C252.213 316.262 252.771 316.118 253.275 315.83C253.791 315.53 254.199 315.104 254.499 314.552C254.799 313.988 254.949 313.334 254.949 312.59ZM264.01 304.994V317.54H262.372V304.994H264.01ZM271.59 317.666C270.426 317.666 269.364 317.396 268.404 316.856C267.444 316.304 266.682 315.542 266.118 314.57C265.566 313.586 265.29 312.482 265.29 311.258C265.29 310.034 265.566 308.936 266.118 307.964C266.682 306.98 267.444 306.218 268.404 305.678C269.364 305.126 270.426 304.85 271.59 304.85C272.766 304.85 273.834 305.126 274.794 305.678C275.754 306.218 276.51 306.974 277.062 307.946C277.614 308.918 277.89 310.022 277.89 311.258C277.89 312.494 277.614 313.598 277.062 314.57C276.51 315.542 275.754 316.304 274.794 316.856C273.834 317.396 272.766 317.666 271.59 317.666ZM271.59 316.244C272.466 316.244 273.252 316.04 273.948 315.632C274.656 315.224 275.208 314.642 275.604 313.886C276.012 313.13 276.216 312.254 276.216 311.258C276.216 310.25 276.012 309.374 275.604 308.63C275.208 307.874 274.662 307.292 273.966 306.884C273.27 306.476 272.478 306.272 271.59 306.272C270.702 306.272 269.91 306.476 269.214 306.884C268.518 307.292 267.966 307.874 267.558 308.63C267.162 309.374 266.964 310.25 266.964 311.258C266.964 312.254 267.162 313.13 267.558 313.886C267.966 314.642 268.518 315.224 269.214 315.632C269.922 316.04 270.714 316.244 271.59 316.244ZM283.13 317.666C282.302 317.666 281.558 317.522 280.898 317.234C280.25 316.934 279.74 316.526 279.368 316.01C278.996 315.482 278.804 314.876 278.792 314.192H280.538C280.598 314.78 280.838 315.278 281.258 315.686C281.69 316.082 282.314 316.28 283.13 316.28C283.91 316.28 284.522 316.088 284.966 315.704C285.422 315.308 285.65 314.804 285.65 314.192C285.65 313.712 285.518 313.322 285.254 313.022C284.99 312.722 284.66 312.494 284.264 312.338C283.868 312.182 283.334 312.014 282.662 311.834C281.834 311.618 281.168 311.402 280.664 311.186C280.172 310.97 279.746 310.634 279.386 310.178C279.038 309.71 278.864 309.086 278.864 308.306C278.864 307.622 279.038 307.016 279.386 306.488C279.734 305.96 280.22 305.552 280.844 305.264C281.48 304.976 282.206 304.832 283.022 304.832C284.198 304.832 285.158 305.126 285.902 305.714C286.658 306.302 287.084 307.082 287.18 308.054H285.38C285.32 307.574 285.068 307.154 284.624 306.794C284.18 306.422 283.592 306.236 282.86 306.236C282.176 306.236 281.618 306.416 281.186 306.776C280.754 307.124 280.538 307.616 280.538 308.252C280.538 308.708 280.664 309.08 280.916 309.368C281.18 309.656 281.498 309.878 281.87 310.034C282.254 310.178 282.788 310.346 283.472 310.538C284.3 310.766 284.966 310.994 285.47 311.222C285.974 311.438 286.406 311.78 286.766 312.248C287.126 312.704 287.306 313.328 287.306 314.12C287.306 314.732 287.144 315.308 286.82 315.848C286.496 316.388 286.016 316.826 285.38 317.162C284.744 317.498 283.994 317.666 283.13 317.666Z" fill="#5A5A5A"/>
<path d="M13.481 365.742C12.869 365.742 12.347 365.532 11.915 365.112C11.495 364.68 11.285 364.158 11.285 363.546C11.285 362.922 11.495 362.4 11.915 361.98C12.347 361.548 12.869 361.332 13.481 361.332C14.105 361.332 14.633 361.548 15.065 361.98C15.497 362.4 15.713 362.922 15.713 363.546C15.713 364.158 15.497 364.68 15.065 365.112C14.633 365.532 14.105 365.742 13.481 365.742ZM37.89 360.63C37.542 359.898 37.038 359.334 36.378 358.938C35.718 358.53 34.95 358.326 34.074 358.326C33.198 358.326 32.406 358.53 31.698 358.938C31.002 359.334 30.45 359.91 30.042 360.666C29.646 361.41 29.448 362.274 29.448 363.258C29.448 364.242 29.646 365.106 30.042 365.85C30.45 366.594 31.002 367.17 31.698 367.578C32.406 367.974 33.198 368.172 34.074 368.172C35.298 368.172 36.306 367.806 37.098 367.074C37.89 366.342 38.352 365.352 38.484 364.104H33.48V362.772H40.23V364.032C40.134 365.064 39.81 366.012 39.258 366.876C38.706 367.728 37.98 368.406 37.08 368.91C36.18 369.402 35.178 369.648 34.074 369.648C32.91 369.648 31.848 369.378 30.888 368.838C29.928 368.286 29.166 367.524 28.602 366.552C28.05 365.58 27.774 364.482 27.774 363.258C27.774 362.034 28.05 360.936 28.602 359.964C29.166 358.98 29.928 358.218 30.888 357.678C31.848 357.126 32.91 356.85 34.074 356.85C35.406 356.85 36.582 357.18 37.602 357.84C38.634 358.5 39.384 359.43 39.852 360.63H37.89ZM53.3578 359.496C54.1258 359.496 54.8098 359.658 55.4098 359.982C56.0098 360.294 56.4838 360.768 56.8318 361.404C57.1798 362.04 57.3538 362.814 57.3538 363.726V369.54H55.7338V363.96C55.7338 362.976 55.4878 362.226 54.9958 361.71C54.5158 361.182 53.8618 360.918 53.0338 360.918C52.1818 360.918 51.5038 361.194 50.9998 361.746C50.4958 362.286 50.2438 363.072 50.2438 364.104V369.54H48.6238V363.96C48.6238 362.976 48.3778 362.226 47.8858 361.71C47.4058 361.182 46.7518 360.918 45.9238 360.918C45.0718 360.918 44.3938 361.194 43.8898 361.746C43.3858 362.286 43.1338 363.072 43.1338 364.104V369.54H41.4958V359.676H43.1338V361.098C43.4578 360.582 43.8898 360.186 44.4298 359.91C44.9818 359.634 45.5878 359.496 46.2478 359.496C47.0758 359.496 47.8078 359.682 48.4438 360.054C49.0798 360.426 49.5538 360.972 49.8658 361.692C50.1418 360.996 50.5978 360.456 51.2338 360.072C51.8698 359.688 52.5778 359.496 53.3578 359.496ZM58.5287 364.572C58.5287 363.564 58.7327 362.682 59.1407 361.926C59.5487 361.158 60.1067 360.564 60.8147 360.144C61.5347 359.724 62.3327 359.514 63.2087 359.514C64.0727 359.514 64.8227 359.7 65.4587 360.072C66.0947 360.444 66.5687 360.912 66.8807 361.476V359.676H68.5367V369.54H66.8807V367.704C66.5567 368.28 66.0707 368.76 65.4227 369.144C64.7867 369.516 64.0427 369.702 63.1907 369.702C62.3147 369.702 61.5227 369.486 60.8147 369.054C60.1067 368.622 59.5487 368.016 59.1407 367.236C58.7327 366.456 58.5287 365.568 58.5287 364.572ZM66.8807 364.59C66.8807 363.846 66.7307 363.198 66.4307 362.646C66.1307 362.094 65.7227 361.674 65.2067 361.386C64.7027 361.086 64.1447 360.936 63.5327 360.936C62.9207 360.936 62.3627 361.08 61.8587 361.368C61.3547 361.656 60.9527 362.076 60.6527 362.628C60.3527 363.18 60.2027 363.828 60.2027 364.572C60.2027 365.328 60.3527 365.988 60.6527 366.552C60.9527 367.104 61.3547 367.53 61.8587 367.83C62.3627 368.118 62.9207 368.262 63.5327 368.262C64.1447 368.262 64.7027 368.118 65.2067 367.83C65.7227 367.53 66.1307 367.104 66.4307 366.552C66.7307 365.988 66.8807 365.334 66.8807 364.59ZM71.2508 358.074C70.9388 358.074 70.6748 357.966 70.4588 357.75C70.2428 357.534 70.1348 357.27 70.1348 356.958C70.1348 356.646 70.2428 356.382 70.4588 356.166C70.6748 355.95 70.9388 355.842 71.2508 355.842C71.5508 355.842 71.8028 355.95 72.0068 356.166C72.2228 356.382 72.3308 356.646 72.3308 356.958C72.3308 357.27 72.2228 357.534 72.0068 357.75C71.8028 357.966 71.5508 358.074 71.2508 358.074ZM72.0428 359.676V369.54H70.4048V359.676H72.0428ZM75.5724 356.22V369.54H73.9344V356.22H75.5724ZM80.751 364.572C80.751 363.564 80.955 362.682 81.363 361.926C81.771 361.158 82.329 360.564 83.037 360.144C83.757 359.724 84.555 359.514 85.431 359.514C86.295 359.514 87.045 359.7 87.681 360.072C88.317 360.444 88.791 360.912 89.103 361.476V359.676H90.759V369.54H89.103V367.704C88.779 368.28 88.293 368.76 87.645 369.144C87.009 369.516 86.265 369.702 85.413 369.702C84.537 369.702 83.745 369.486 83.037 369.054C82.329 368.622 81.771 368.016 81.363 367.236C80.955 366.456 80.751 365.568 80.751 364.572ZM89.103 364.59C89.103 363.846 88.953 363.198 88.653 362.646C88.353 362.094 87.945 361.674 87.429 361.386C86.925 361.086 86.367 360.936 85.755 360.936C85.143 360.936 84.585 361.08 84.081 361.368C83.577 361.656 83.175 362.076 82.875 362.628C82.575 363.18 82.425 363.828 82.425 364.572C82.425 365.328 82.575 365.988 82.875 366.552C83.175 367.104 83.577 367.53 84.081 367.83C84.585 368.118 85.143 368.262 85.755 368.262C86.367 368.262 86.925 368.118 87.429 367.83C87.945 367.53 88.353 367.104 88.653 366.552C88.953 365.988 89.103 365.334 89.103 364.59ZM97.433 359.496C98.633 359.496 99.605 359.862 100.349 360.594C101.093 361.314 101.465 362.358 101.465 363.726V369.54H99.845V363.96C99.845 362.976 99.599 362.226 99.107 361.71C98.615 361.182 97.943 360.918 97.091 360.918C96.227 360.918 95.537 361.188 95.021 361.728C94.517 362.268 94.265 363.054 94.265 364.086V369.54H92.627V359.676H94.265V361.08C94.589 360.576 95.027 360.186 95.579 359.91C96.143 359.634 96.761 359.496 97.433 359.496ZM102.629 364.572C102.629 363.564 102.833 362.682 103.241 361.926C103.649 361.158 104.207 360.564 104.915 360.144C105.635 359.724 106.439 359.514 107.327 359.514C108.095 359.514 108.809 359.694 109.469 360.054C110.129 360.402 110.633 360.864 110.981 361.44V356.22H112.637V369.54H110.981V367.686C110.657 368.274 110.177 368.76 109.541 369.144C108.905 369.516 108.161 369.702 107.309 369.702C106.433 369.702 105.635 369.486 104.915 369.054C104.207 368.622 103.649 368.016 103.241 367.236C102.833 366.456 102.629 365.568 102.629 364.572ZM110.981 364.59C110.981 363.846 110.831 363.198 110.531 362.646C110.231 362.094 109.823 361.674 109.307 361.386C108.803 361.086 108.245 360.936 107.633 360.936C107.021 360.936 106.463 361.08 105.959 361.368C105.455 361.656 105.053 362.076 104.753 362.628C104.453 363.18 104.303 363.828 104.303 364.572C104.303 365.328 104.453 365.988 104.753 366.552C105.053 367.104 105.455 367.53 105.959 367.83C106.463 368.118 107.021 368.262 107.633 368.262C108.245 368.262 108.803 368.118 109.307 367.83C109.823 367.53 110.231 367.104 110.531 366.552C110.831 365.988 110.981 365.334 110.981 364.59ZM121.896 369.702C121.14 369.702 120.462 369.576 119.862 369.324C119.262 369.06 118.788 368.7 118.44 368.244C118.092 367.776 117.9 367.242 117.864 366.642H119.556C119.604 367.134 119.832 367.536 120.24 367.848C120.66 368.16 121.206 368.316 121.878 368.316C122.502 368.316 122.994 368.178 123.354 367.902C123.714 367.626 123.894 367.278 123.894 366.858C123.894 366.426 123.702 366.108 123.318 365.904C122.934 365.688 122.34 365.478 121.536 365.274C120.804 365.082 120.204 364.89 119.736 364.698C119.28 364.494 118.884 364.2 118.548 363.816C118.224 363.42 118.062 362.904 118.062 362.268C118.062 361.764 118.212 361.302 118.512 360.882C118.812 360.462 119.238 360.132 119.79 359.892C120.342 359.64 120.972 359.514 121.68 359.514C122.772 359.514 123.654 359.79 124.326 360.342C124.998 360.894 125.358 361.65 125.406 362.61H123.768C123.732 362.094 123.522 361.68 123.138 361.368C122.766 361.056 122.262 360.9 121.626 360.9C121.038 360.9 120.57 361.026 120.222 361.278C119.874 361.53 119.7 361.86 119.7 362.268C119.7 362.592 119.802 362.862 120.006 363.078C120.222 363.282 120.486 363.45 120.798 363.582C121.122 363.702 121.566 363.84 122.13 363.996C122.838 364.188 123.414 364.38 123.858 364.572C124.302 364.752 124.68 365.028 124.992 365.4C125.316 365.772 125.484 366.258 125.496 366.858C125.496 367.398 125.346 367.884 125.046 368.316C124.746 368.748 124.32 369.09 123.768 369.342C123.228 369.582 122.604 369.702 121.896 369.702ZM128.546 356.22V369.54H126.908V356.22H128.546ZM129.826 364.572C129.826 363.564 130.03 362.682 130.438 361.926C130.846 361.158 131.404 360.564 132.112 360.144C132.832 359.724 133.63 359.514 134.506 359.514C135.37 359.514 136.12 359.7 136.756 360.072C137.392 360.444 137.866 360.912 138.178 361.476V359.676H139.834V369.54H138.178V367.704C137.854 368.28 137.368 368.76 136.72 369.144C136.084 369.516 135.34 369.702 134.488 369.702C133.612 369.702 132.82 369.486 132.112 369.054C131.404 368.622 130.846 368.016 130.438 367.236C130.03 366.456 129.826 365.568 129.826 364.572ZM138.178 364.59C138.178 363.846 138.028 363.198 137.728 362.646C137.428 362.094 137.02 361.674 136.504 361.386C136 361.086 135.442 360.936 134.83 360.936C134.218 360.936 133.66 361.08 133.156 361.368C132.652 361.656 132.25 362.076 131.95 362.628C131.65 363.18 131.5 363.828 131.5 364.572C131.5 365.328 131.65 365.988 131.95 366.552C132.25 367.104 132.652 367.53 133.156 367.83C133.66 368.118 134.218 368.262 134.83 368.262C135.442 368.262 136 368.118 136.504 367.83C137.02 367.53 137.428 367.104 137.728 366.552C138.028 365.988 138.178 365.334 138.178 364.59ZM141.09 364.59C141.09 363.57 141.294 362.682 141.702 361.926C142.11 361.158 142.674 360.564 143.394 360.144C144.126 359.724 144.96 359.514 145.896 359.514C147.108 359.514 148.104 359.808 148.884 360.396C149.676 360.984 150.198 361.8 150.45 362.844H148.686C148.518 362.244 148.188 361.77 147.696 361.422C147.216 361.074 146.616 360.9 145.896 360.9C144.96 360.9 144.204 361.224 143.628 361.872C143.052 362.508 142.764 363.414 142.764 364.59C142.764 365.778 143.052 366.696 143.628 367.344C144.204 367.992 144.96 368.316 145.896 368.316C146.616 368.316 147.216 368.148 147.696 367.812C148.176 367.476 148.506 366.996 148.686 366.372H150.45C150.186 367.38 149.658 368.19 148.866 368.802C148.074 369.402 147.084 369.702 145.896 369.702C144.96 369.702 144.126 369.492 143.394 369.072C142.674 368.652 142.11 368.058 141.702 367.29C141.294 366.522 141.09 365.622 141.09 364.59ZM157.243 369.54L153.373 365.184V369.54H151.735V356.22H153.373V364.05L157.171 359.676H159.457L154.813 364.59L159.475 369.54H157.243ZM164.844 358.074C164.532 358.074 164.268 357.966 164.052 357.75C163.836 357.534 163.728 357.27 163.728 356.958C163.728 356.646 163.836 356.382 164.052 356.166C164.268 355.95 164.532 355.842 164.844 355.842C165.144 355.842 165.396 355.95 165.6 356.166C165.816 356.382 165.924 356.646 165.924 356.958C165.924 357.27 165.816 357.534 165.6 357.75C165.396 357.966 165.144 358.074 164.844 358.074ZM165.636 359.676V369.54H163.998V359.676H165.636ZM172.333 359.496C173.533 359.496 174.505 359.862 175.249 360.594C175.993 361.314 176.365 362.358 176.365 363.726V369.54H174.745V363.96C174.745 362.976 174.499 362.226 174.007 361.71C173.515 361.182 172.843 360.918 171.991 360.918C171.127 360.918 170.437 361.188 169.921 361.728C169.417 362.268 169.165 363.054 169.165 364.086V369.54H167.527V359.676H169.165V361.08C169.489 360.576 169.927 360.186 170.479 359.91C171.043 359.634 171.661 359.496 172.333 359.496ZM180.139 361.026V366.84C180.139 367.32 180.241 367.662 180.445 367.866C180.649 368.058 181.003 368.154 181.507 368.154H182.713V369.54H181.237C180.325 369.54 179.641 369.33 179.185 368.91C178.729 368.49 178.501 367.8 178.501 366.84V361.026H177.223V359.676H178.501V357.192H180.139V359.676H182.713V361.026H180.139ZM192.798 364.23C192.798 364.542 192.78 364.872 192.744 365.22H184.86C184.92 366.192 185.25 366.954 185.85 367.506C186.462 368.046 187.2 368.316 188.064 368.316C188.772 368.316 189.36 368.154 189.828 367.83C190.308 367.494 190.644 367.05 190.836 366.498H192.6C192.336 367.446 191.808 368.22 191.016 368.82C190.224 369.408 189.24 369.702 188.064 369.702C187.128 369.702 186.288 369.492 185.544 369.072C184.812 368.652 184.236 368.058 183.816 367.29C183.396 366.51 183.186 365.61 183.186 364.59C183.186 363.57 183.39 362.676 183.798 361.908C184.206 361.14 184.776 360.552 185.508 360.144C186.252 359.724 187.104 359.514 188.064 359.514C189 359.514 189.828 359.718 190.548 360.126C191.268 360.534 191.82 361.098 192.204 361.818C192.6 362.526 192.798 363.33 192.798 364.23ZM191.106 363.888C191.106 363.264 190.968 362.73 190.692 362.286C190.416 361.83 190.038 361.488 189.558 361.26C189.09 361.02 188.568 360.9 187.992 360.9C187.164 360.9 186.456 361.164 185.868 361.692C185.292 362.22 184.962 362.952 184.878 363.888H191.106ZM198.128 359.514C198.98 359.514 199.724 359.7 200.36 360.072C201.008 360.444 201.488 360.912 201.8 361.476V359.676H203.456V369.756C203.456 370.656 203.264 371.454 202.88 372.15C202.496 372.858 201.944 373.41 201.224 373.806C200.516 374.202 199.688 374.4 198.74 374.4C197.444 374.4 196.364 374.094 195.5 373.482C194.636 372.87 194.126 372.036 193.97 370.98H195.59C195.77 371.58 196.142 372.06 196.706 372.42C197.27 372.792 197.948 372.978 198.74 372.978C199.64 372.978 200.372 372.696 200.936 372.132C201.512 371.568 201.8 370.776 201.8 369.756V367.686C201.476 368.262 200.996 368.742 200.36 369.126C199.724 369.51 198.98 369.702 198.128 369.702C197.252 369.702 196.454 369.486 195.734 369.054C195.026 368.622 194.468 368.016 194.06 367.236C193.652 366.456 193.448 365.568 193.448 364.572C193.448 363.564 193.652 362.682 194.06 361.926C194.468 361.158 195.026 360.564 195.734 360.144C196.454 359.724 197.252 359.514 198.128 359.514ZM201.8 364.59C201.8 363.846 201.65 363.198 201.35 362.646C201.05 362.094 200.642 361.674 200.126 361.386C199.622 361.086 199.064 360.936 198.452 360.936C197.84 360.936 197.282 361.08 196.778 361.368C196.274 361.656 195.872 362.076 195.572 362.628C195.272 363.18 195.122 363.828 195.122 364.572C195.122 365.328 195.272 365.988 195.572 366.552C195.872 367.104 196.274 367.53 196.778 367.83C197.282 368.118 197.84 368.262 198.452 368.262C199.064 368.262 199.622 368.118 200.126 367.83C200.642 367.53 201.05 367.104 201.35 366.552C201.65 365.988 201.8 365.334 201.8 364.59ZM206.962 361.278C207.25 360.714 207.658 360.276 208.186 359.964C208.726 359.652 209.38 359.496 210.148 359.496V361.188H209.716C207.88 361.188 206.962 362.184 206.962 364.176V369.54H205.324V359.676H206.962V361.278ZM210.527 364.572C210.527 363.564 210.731 362.682 211.139 361.926C211.547 361.158 212.105 360.564 212.813 360.144C213.533 359.724 214.331 359.514 215.207 359.514C216.071 359.514 216.821 359.7 217.457 360.072C218.093 360.444 218.567 360.912 218.879 361.476V359.676H220.535V369.54H218.879V367.704C218.555 368.28 218.069 368.76 217.421 369.144C216.785 369.516 216.041 369.702 215.189 369.702C214.313 369.702 213.521 369.486 212.813 369.054C212.105 368.622 211.547 368.016 211.139 367.236C210.731 366.456 210.527 365.568 210.527 364.572ZM218.879 364.59C218.879 363.846 218.729 363.198 218.429 362.646C218.129 362.094 217.721 361.674 217.205 361.386C216.701 361.086 216.143 360.936 215.531 360.936C214.919 360.936 214.361 361.08 213.857 361.368C213.353 361.656 212.951 362.076 212.651 362.628C212.351 363.18 212.201 363.828 212.201 364.572C212.201 365.328 212.351 365.988 212.651 366.552C212.951 367.104 213.353 367.53 213.857 367.83C214.361 368.118 214.919 368.262 215.531 368.262C216.143 368.262 216.701 368.118 217.205 367.83C217.721 367.53 218.129 367.104 218.429 366.552C218.729 365.988 218.879 365.334 218.879 364.59ZM224.401 361.026V366.84C224.401 367.32 224.503 367.662 224.707 367.866C224.911 368.058 225.265 368.154 225.769 368.154H226.975V369.54H225.499C224.587 369.54 223.903 369.33 223.447 368.91C222.991 368.49 222.763 367.8 222.763 366.84V361.026H221.485V359.676H222.763V357.192H224.401V359.676H226.975V361.026H224.401ZM228.905 358.074C228.593 358.074 228.329 357.966 228.113 357.75C227.897 357.534 227.789 357.27 227.789 356.958C227.789 356.646 227.897 356.382 228.113 356.166C228.329 355.95 228.593 355.842 228.905 355.842C229.205 355.842 229.457 355.95 229.661 356.166C229.877 356.382 229.985 356.646 229.985 356.958C229.985 357.27 229.877 357.534 229.661 357.75C229.457 357.966 229.205 358.074 228.905 358.074ZM229.697 359.676V369.54H228.059V359.676H229.697ZM235.891 369.702C234.967 369.702 234.127 369.492 233.371 369.072C232.627 368.652 232.039 368.058 231.607 367.29C231.187 366.51 230.977 365.61 230.977 364.59C230.977 363.582 231.193 362.694 231.625 361.926C232.069 361.146 232.669 360.552 233.425 360.144C234.181 359.724 235.027 359.514 235.963 359.514C236.899 359.514 237.745 359.724 238.501 360.144C239.257 360.552 239.851 361.14 240.283 361.908C240.727 362.676 240.949 363.57 240.949 364.59C240.949 365.61 240.721 366.51 240.265 367.29C239.821 368.058 239.215 368.652 238.447 369.072C237.679 369.492 236.827 369.702 235.891 369.702ZM235.891 368.262C236.479 368.262 237.031 368.124 237.547 367.848C238.063 367.572 238.477 367.158 238.789 366.606C239.113 366.054 239.275 365.382 239.275 364.59C239.275 363.798 239.119 363.126 238.807 362.574C238.495 362.022 238.087 361.614 237.583 361.35C237.079 361.074 236.533 360.936 235.945 360.936C235.345 360.936 234.793 361.074 234.289 361.35C233.797 361.614 233.401 362.022 233.101 362.574C232.801 363.126 232.651 363.798 232.651 364.59C232.651 365.394 232.795 366.072 233.083 366.624C233.383 367.176 233.779 367.59 234.271 367.866C234.763 368.13 235.303 368.262 235.891 368.262ZM247.009 359.496C248.209 359.496 249.181 359.862 249.925 360.594C250.669 361.314 251.041 362.358 251.041 363.726V369.54H249.421V363.96C249.421 362.976 249.175 362.226 248.683 361.71C248.191 361.182 247.519 360.918 246.667 360.918C245.803 360.918 245.113 361.188 244.597 361.728C244.093 362.268 243.841 363.054 243.841 364.086V369.54H242.203V359.676H243.841V361.08C244.165 360.576 244.603 360.186 245.155 359.91C245.719 359.634 246.337 359.496 247.009 359.496ZM256.308 369.702C255.552 369.702 254.874 369.576 254.274 369.324C253.674 369.06 253.2 368.7 252.852 368.244C252.504 367.776 252.312 367.242 252.276 366.642H253.968C254.016 367.134 254.244 367.536 254.652 367.848C255.072 368.16 255.618 368.316 256.29 368.316C256.914 368.316 257.406 368.178 257.766 367.902C258.126 367.626 258.306 367.278 258.306 366.858C258.306 366.426 258.114 366.108 257.73 365.904C257.346 365.688 256.752 365.478 255.948 365.274C255.216 365.082 254.616 364.89 254.148 364.698C253.692 364.494 253.296 364.2 252.96 363.816C252.636 363.42 252.474 362.904 252.474 362.268C252.474 361.764 252.624 361.302 252.924 360.882C253.224 360.462 253.65 360.132 254.202 359.892C254.754 359.64 255.384 359.514 256.092 359.514C257.184 359.514 258.066 359.79 258.738 360.342C259.41 360.894 259.77 361.65 259.818 362.61H258.18C258.144 362.094 257.934 361.68 257.55 361.368C257.178 361.056 256.674 360.9 256.038 360.9C255.45 360.9 254.982 361.026 254.634 361.278C254.286 361.53 254.112 361.86 254.112 362.268C254.112 362.592 254.214 362.862 254.418 363.078C254.634 363.282 254.898 363.45 255.21 363.582C255.534 363.702 255.978 363.84 256.542 363.996C257.25 364.188 257.826 364.38 258.27 364.572C258.714 364.752 259.092 365.028 259.404 365.4C259.728 365.772 259.896 366.258 259.908 366.858C259.908 367.398 259.758 367.884 259.458 368.316C259.158 368.748 258.732 369.09 258.18 369.342C257.64 369.582 257.016 369.702 256.308 369.702Z" fill="#5A5A5A"/>
</svg>
