<svg width="682" height="380" viewBox="0 0 682 380" fill="none" xmlns="http://www.w3.org/2000/svg">
<path d="M6.016 34.068H9.056V14.772H3.424V18.58H1.12V13.204H19.744V18.58H17.44V14.772H11.808V34.068H14.848V35.54H6.016V34.068ZM28.3655 35.924C27.1922 35.924 26.1362 35.7214 25.1975 35.316C24.2802 34.8894 23.5015 34.3027 22.8615 33.556C22.2215 32.8094 21.7308 31.9027 21.3895 30.836C21.0482 29.7694 20.8775 28.5854 20.8775 27.284C20.8775 26.004 21.0588 24.8414 21.4215 23.796C21.8055 22.7294 22.3175 21.812 22.9575 21.044C23.6188 20.276 24.3975 19.6894 25.2935 19.284C26.1895 18.8574 27.1708 18.644 28.2375 18.644C29.3255 18.644 30.2962 18.836 31.1495 19.22C32.0028 19.604 32.7175 20.148 33.2935 20.852C33.8908 21.5347 34.3495 22.356 34.6695 23.316C34.9895 24.276 35.1495 25.3214 35.1495 26.452V27.188H23.7895V28.02C23.7895 29.8334 24.2375 31.2627 25.1335 32.308C26.0508 33.3534 27.2668 33.876 28.7815 33.876C30.1042 33.876 31.1495 33.6094 31.9175 33.076C32.7068 32.5214 33.3255 31.8067 33.7735 30.932L34.8295 31.604C34.6162 32.1587 34.3175 32.7027 33.9335 33.236C33.5708 33.748 33.1228 34.2067 32.5895 34.612C32.0562 34.996 31.4375 35.3054 30.7335 35.54C30.0295 35.796 29.2402 35.924 28.3655 35.924ZM23.7895 25.716H32.3975V25.396C32.3975 24.6494 32.3122 23.956 32.1415 23.316C31.9922 22.676 31.7468 22.1214 31.4055 21.652C31.0642 21.1827 30.6268 20.82 30.0935 20.564C29.5815 20.2867 28.9628 20.148 28.2375 20.148C27.5122 20.148 26.8722 20.276 26.3175 20.532C25.7628 20.788 25.2935 21.1507 24.9095 21.62C24.5468 22.0894 24.2695 22.644 24.0775 23.284C23.8855 23.9027 23.7895 24.5854 23.7895 25.332V25.716ZM43.4023 35.924C41.8663 35.924 40.6609 35.5294 39.7863 34.74C38.9329 33.9294 38.5063 32.8307 38.5063 31.444C38.5063 30.6547 38.6343 29.9614 38.8903 29.364C39.1463 28.7454 39.5623 28.2334 40.1383 27.828C40.7356 27.4227 41.5036 27.1134 42.4423 26.9C43.3809 26.6867 44.5223 26.58 45.8663 26.58H48.2343V24.148C48.2343 22.8467 47.9143 21.8547 47.2743 21.172C46.6556 20.468 45.7169 20.116 44.4583 20.116C43.9036 20.116 43.3916 20.1694 42.9223 20.276C42.4529 20.3614 42.0689 20.4894 41.7703 20.66V20.724C42.0049 20.852 42.2289 21.044 42.4423 21.3C42.6769 21.556 42.7943 21.9187 42.7943 22.388C42.7943 22.9427 42.6343 23.38 42.3143 23.7C41.9943 23.9987 41.5676 24.148 41.0343 24.148C40.5223 24.148 40.0956 23.9987 39.7543 23.7C39.4343 23.38 39.2743 22.9107 39.2743 22.292C39.2743 21.8227 39.4129 21.3747 39.6903 20.948C39.9676 20.5 40.3623 20.1054 40.8743 19.764C41.3863 19.4227 42.0156 19.156 42.7623 18.964C43.5303 18.7507 44.3943 18.644 45.3542 18.644C47.0823 18.644 48.4263 19.092 49.3863 19.988C50.3676 20.884 50.8583 22.1427 50.8583 23.764V34.164H53.2583V35.284C53.0236 35.4547 52.7036 35.604 52.2983 35.732C51.9143 35.86 51.4769 35.924 50.9863 35.924C50.1543 35.924 49.5143 35.6894 49.0663 35.22C48.6183 34.7507 48.3943 34.1214 48.3943 33.332V33.108H48.2343C48.0849 33.4707 47.8823 33.8227 47.6263 34.164C47.3916 34.5054 47.0823 34.804 46.6983 35.06C46.3143 35.316 45.8449 35.5187 45.2903 35.668C44.7569 35.8387 44.1276 35.924 43.4023 35.924ZM44.5223 34.164C45.5463 34.164 46.4209 33.908 47.1463 33.396C47.8716 32.8627 48.2343 32.052 48.2343 30.964V27.86H46.1543C45.2369 27.86 44.4689 27.9347 43.8503 28.084C43.2316 28.212 42.7409 28.4147 42.3783 28.692C42.0156 28.948 41.7489 29.268 41.5783 29.652C41.4289 30.036 41.3543 30.484 41.3543 30.996V31.668C41.3543 32.4787 41.6316 33.0974 42.1863 33.524C42.7409 33.9507 43.5196 34.164 44.5223 34.164ZM55.975 34.068H58.343V21.108L55.975 20.692V19.604L60.903 18.644V21.524H61.031C61.159 21.1827 61.351 20.8414 61.607 20.5C61.863 20.1587 62.183 19.8494 62.567 19.572C62.9723 19.2947 63.431 19.0707 63.943 18.9C64.455 18.7294 65.031 18.644 65.671 18.644C67.079 18.644 68.199 18.9107 69.031 19.444C69.863 19.9774 70.439 20.7987 70.759 21.908H70.855C71.0257 21.524 71.2497 21.14 71.527 20.756C71.8043 20.372 72.1457 20.02 72.551 19.7C72.9563 19.38 73.4257 19.124 73.959 18.932C74.5137 18.74 75.1537 18.644 75.879 18.644C77.863 18.644 79.271 19.1667 80.103 20.212C80.9563 21.2574 81.383 22.8147 81.383 24.884V34.068H83.751V35.54H76.391V34.068H78.759V25.076C78.759 22.004 77.4897 20.468 74.951 20.468C74.4817 20.468 74.0123 20.5427 73.543 20.692C73.095 20.82 72.6897 21.0227 72.327 21.3C71.9857 21.556 71.7083 21.8974 71.495 22.324C71.2817 22.7294 71.175 23.2094 71.175 23.764V34.068H73.543V35.54H66.183V34.068H68.551V25.076C68.551 22.004 67.2923 20.468 64.775 20.468C64.2843 20.468 63.815 20.5427 63.367 20.692C62.919 20.82 62.5137 21.0227 62.151 21.3C61.7883 21.556 61.5003 21.8974 61.287 22.324C61.0737 22.7294 60.967 23.2094 60.967 23.764V34.068H63.335V35.54H55.975V34.068Z" fill="black"/>
<path d="M9.774 68.666C9.774 69.71 9.414 70.58 8.694 71.276C7.986 71.96 6.9 72.302 5.436 72.302H3.024V77.54H1.386V64.994H5.436C6.852 64.994 7.926 65.336 8.658 66.02C9.402 66.704 9.774 67.586 9.774 68.666ZM5.436 70.952C6.348 70.952 7.02 70.754 7.452 70.358C7.884 69.962 8.1 69.398 8.1 68.666C8.1 67.118 7.212 66.344 5.436 66.344H3.024V70.952H5.436ZM19.9098 72.23C19.9098 72.542 19.8918 72.872 19.8558 73.22H11.9718C12.0318 74.192 12.3618 74.954 12.9618 75.506C13.5738 76.046 14.3118 76.316 15.1758 76.316C15.8838 76.316 16.4718 76.154 16.9398 75.83C17.4198 75.494 17.7558 75.05 17.9478 74.498H19.7118C19.4478 75.446 18.9198 76.22 18.1278 76.82C17.3358 77.408 16.3518 77.702 15.1758 77.702C14.2398 77.702 13.3998 77.492 12.6558 77.072C11.9238 76.652 11.3478 76.058 10.9278 75.29C10.5078 74.51 10.2978 73.61 10.2978 72.59C10.2978 71.57 10.5018 70.676 10.9098 69.908C11.3178 69.14 11.8878 68.552 12.6198 68.144C13.3638 67.724 14.2158 67.514 15.1758 67.514C16.1118 67.514 16.9398 67.718 17.6598 68.126C18.3798 68.534 18.9318 69.098 19.3158 69.818C19.7118 70.526 19.9098 71.33 19.9098 72.23ZM18.2178 71.888C18.2178 71.264 18.0798 70.73 17.8038 70.286C17.5278 69.83 17.1498 69.488 16.6698 69.26C16.2018 69.02 15.6798 68.9 15.1038 68.9C14.2758 68.9 13.5678 69.164 12.9798 69.692C12.4038 70.22 12.0738 70.952 11.9898 71.888H18.2178ZM22.8099 69.278C23.0979 68.714 23.5059 68.276 24.0339 67.964C24.5739 67.652 25.2279 67.496 25.9959 67.496V69.188H25.5639C23.7279 69.188 22.8099 70.184 22.8099 72.176V77.54H21.1719V67.676H22.8099V69.278ZM31.0008 69.026H28.9308V77.54H27.2928V69.026H26.0148V67.676H27.2928V66.974C27.2928 65.87 27.5748 65.066 28.1388 64.562C28.7148 64.046 29.6328 63.788 30.8928 63.788V65.156C30.1728 65.156 29.6628 65.3 29.3628 65.588C29.0748 65.864 28.9308 66.326 28.9308 66.974V67.676H31.0008V69.026ZM41.0106 72.23C41.0106 72.542 40.9926 72.872 40.9566 73.22H33.0726C33.1326 74.192 33.4626 74.954 34.0626 75.506C34.6746 76.046 35.4126 76.316 36.2766 76.316C36.9846 76.316 37.5726 76.154 38.0406 75.83C38.5206 75.494 38.8566 75.05 39.0486 74.498H40.8126C40.5486 75.446 40.0206 76.22 39.2286 76.82C38.4366 77.408 37.4526 77.702 36.2766 77.702C35.3406 77.702 34.5006 77.492 33.7566 77.072C33.0246 76.652 32.4486 76.058 32.0286 75.29C31.6086 74.51 31.3986 73.61 31.3986 72.59C31.3986 71.57 31.6026 70.676 32.0106 69.908C32.4186 69.14 32.9886 68.552 33.7206 68.144C34.4646 67.724 35.3166 67.514 36.2766 67.514C37.2126 67.514 38.0406 67.718 38.7606 68.126C39.4806 68.534 40.0326 69.098 40.4166 69.818C40.8126 70.526 41.0106 71.33 41.0106 72.23ZM39.3186 71.888C39.3186 71.264 39.1806 70.73 38.9046 70.286C38.6286 69.83 38.2506 69.488 37.7706 69.26C37.3026 69.02 36.7806 68.9 36.2046 68.9C35.3766 68.9 34.6686 69.164 34.0806 69.692C33.5046 70.22 33.1746 70.952 33.0906 71.888H39.3186ZM41.6607 72.59C41.6607 71.57 41.8647 70.682 42.2727 69.926C42.6807 69.158 43.2447 68.564 43.9647 68.144C44.6967 67.724 45.5307 67.514 46.4667 67.514C47.6787 67.514 48.6747 67.808 49.4547 68.396C50.2467 68.984 50.7687 69.8 51.0207 70.844H49.2567C49.0887 70.244 48.7587 69.77 48.2667 69.422C47.7867 69.074 47.1867 68.9 46.4667 68.9C45.5307 68.9 44.7747 69.224 44.1987 69.872C43.6227 70.508 43.3347 71.414 43.3347 72.59C43.3347 73.778 43.6227 74.696 44.1987 75.344C44.7747 75.992 45.5307 76.316 46.4667 76.316C47.1867 76.316 47.7867 76.148 48.2667 75.812C48.7467 75.476 49.0767 74.996 49.2567 74.372H51.0207C50.7567 75.38 50.2287 76.19 49.4367 76.802C48.6447 77.402 47.6547 77.702 46.4667 77.702C45.5307 77.702 44.6967 77.492 43.9647 77.072C43.2447 76.652 42.6807 76.058 42.2727 75.29C41.8647 74.522 41.6607 73.622 41.6607 72.59ZM54.3043 69.026V74.84C54.3043 75.32 54.4063 75.662 54.6103 75.866C54.8143 76.058 55.1683 76.154 55.6723 76.154H56.8783V77.54H55.4023C54.4903 77.54 53.8063 77.33 53.3503 76.91C52.8943 76.49 52.6663 75.8 52.6663 74.84V69.026H51.3883V67.676H52.6663V65.192H54.3043V67.676H56.8783V69.026H54.3043ZM65.8758 69.026H63.8058V77.54H62.1678V69.026H60.8898V67.676H62.1678V66.974C62.1678 65.87 62.4498 65.066 63.0138 64.562C63.5898 64.046 64.5078 63.788 65.7678 63.788V65.156C65.0478 65.156 64.5378 65.3 64.2378 65.588C63.9498 65.864 63.8058 66.326 63.8058 66.974V67.676H65.8758V69.026ZM71.1876 77.702C70.2636 77.702 69.4236 77.492 68.6676 77.072C67.9236 76.652 67.3356 76.058 66.9036 75.29C66.4836 74.51 66.2736 73.61 66.2736 72.59C66.2736 71.582 66.4896 70.694 66.9216 69.926C67.3656 69.146 67.9656 68.552 68.7216 68.144C69.4776 67.724 70.3236 67.514 71.2596 67.514C72.1956 67.514 73.0416 67.724 73.7976 68.144C74.5536 68.552 75.1476 69.14 75.5796 69.908C76.0236 70.676 76.2456 71.57 76.2456 72.59C76.2456 73.61 76.0176 74.51 75.5616 75.29C75.1176 76.058 74.5116 76.652 73.7436 77.072C72.9756 77.492 72.1236 77.702 71.1876 77.702ZM71.1876 76.262C71.7756 76.262 72.3276 76.124 72.8436 75.848C73.3596 75.572 73.7736 75.158 74.0856 74.606C74.4096 74.054 74.5716 73.382 74.5716 72.59C74.5716 71.798 74.4156 71.126 74.1036 70.574C73.7916 70.022 73.3836 69.614 72.8796 69.35C72.3756 69.074 71.8296 68.936 71.2416 68.936C70.6416 68.936 70.0896 69.074 69.5856 69.35C69.0936 69.614 68.6976 70.022 68.3976 70.574C68.0976 71.126 67.9476 71.798 67.9476 72.59C67.9476 73.394 68.0916 74.072 68.3796 74.624C68.6796 75.176 69.0756 75.59 69.5676 75.866C70.0596 76.13 70.5996 76.262 71.1876 76.262ZM79.1373 69.278C79.4253 68.714 79.8333 68.276 80.3613 67.964C80.9013 67.652 81.5553 67.496 82.3233 67.496V69.188H81.8913C80.0553 69.188 79.1373 70.184 79.1373 72.176V77.54H77.4993V67.676H79.1373V69.278ZM89.211 69.026V74.84C89.211 75.32 89.313 75.662 89.517 75.866C89.721 76.058 90.075 76.154 90.579 76.154H91.785V77.54H90.309C89.397 77.54 88.713 77.33 88.257 76.91C87.801 76.49 87.573 75.8 87.573 74.84V69.026H86.295V67.676H87.573V65.192H89.211V67.676H91.785V69.026H89.211ZM101.87 72.23C101.87 72.542 101.852 72.872 101.816 73.22H93.9316C93.9916 74.192 94.3216 74.954 94.9216 75.506C95.5336 76.046 96.2716 76.316 97.1356 76.316C97.8436 76.316 98.4316 76.154 98.8996 75.83C99.3796 75.494 99.7156 75.05 99.9076 74.498H101.672C101.408 75.446 100.88 76.22 100.088 76.82C99.2956 77.408 98.3116 77.702 97.1356 77.702C96.1996 77.702 95.3596 77.492 94.6156 77.072C93.8836 76.652 93.3076 76.058 92.8876 75.29C92.4676 74.51 92.2576 73.61 92.2576 72.59C92.2576 71.57 92.4616 70.676 92.8696 69.908C93.2776 69.14 93.8476 68.552 94.5796 68.144C95.3236 67.724 96.1756 67.514 97.1356 67.514C98.0716 67.514 98.8996 67.718 99.6196 68.126C100.34 68.534 100.892 69.098 101.276 69.818C101.672 70.526 101.87 71.33 101.87 72.23ZM100.178 71.888C100.178 71.264 100.04 70.73 99.7636 70.286C99.4876 69.83 99.1096 69.488 98.6296 69.26C98.1616 69.02 97.6396 68.9 97.0636 68.9C96.2356 68.9 95.5276 69.164 94.9396 69.692C94.3636 70.22 94.0336 70.952 93.9496 71.888H100.178ZM106.624 77.702C105.868 77.702 105.19 77.576 104.59 77.324C103.99 77.06 103.516 76.7 103.168 76.244C102.82 75.776 102.628 75.242 102.592 74.642H104.284C104.332 75.134 104.56 75.536 104.968 75.848C105.388 76.16 105.934 76.316 106.606 76.316C107.23 76.316 107.722 76.178 108.082 75.902C108.442 75.626 108.622 75.278 108.622 74.858C108.622 74.426 108.43 74.108 108.046 73.904C107.662 73.688 107.068 73.478 106.264 73.274C105.532 73.082 104.932 72.89 104.464 72.698C104.008 72.494 103.612 72.2 103.276 71.816C102.952 71.42 102.79 70.904 102.79 70.268C102.79 69.764 102.94 69.302 103.24 68.882C103.54 68.462 103.966 68.132 104.518 67.892C105.07 67.64 105.7 67.514 106.408 67.514C107.5 67.514 108.382 67.79 109.054 68.342C109.726 68.894 110.086 69.65 110.134 70.61H108.496C108.46 70.094 108.25 69.68 107.866 69.368C107.494 69.056 106.99 68.9 106.354 68.9C105.766 68.9 105.298 69.026 104.95 69.278C104.602 69.53 104.428 69.86 104.428 70.268C104.428 70.592 104.53 70.862 104.734 71.078C104.95 71.282 105.214 71.45 105.526 71.582C105.85 71.702 106.294 71.84 106.858 71.996C107.566 72.188 108.142 72.38 108.586 72.572C109.03 72.752 109.408 73.028 109.72 73.4C110.044 73.772 110.212 74.258 110.224 74.858C110.224 75.398 110.074 75.884 109.774 76.316C109.474 76.748 109.048 77.09 108.496 77.342C107.956 77.582 107.332 77.702 106.624 77.702ZM113.634 69.026V74.84C113.634 75.32 113.736 75.662 113.94 75.866C114.144 76.058 114.498 76.154 115.002 76.154H116.208V77.54H114.732C113.82 77.54 113.136 77.33 112.68 76.91C112.224 76.49 111.996 75.8 111.996 74.84V69.026H110.718V67.676H111.996V65.192H113.634V67.676H116.208V69.026H113.634ZM118.139 66.074C117.827 66.074 117.563 65.966 117.347 65.75C117.131 65.534 117.023 65.27 117.023 64.958C117.023 64.646 117.131 64.382 117.347 64.166C117.563 63.95 117.827 63.842 118.139 63.842C118.439 63.842 118.691 63.95 118.895 64.166C119.111 64.382 119.219 64.646 119.219 64.958C119.219 65.27 119.111 65.534 118.895 65.75C118.691 65.966 118.439 66.074 118.139 66.074ZM118.931 67.676V77.54H117.293V67.676H118.931ZM125.628 67.496C126.828 67.496 127.8 67.862 128.544 68.594C129.288 69.314 129.66 70.358 129.66 71.726V77.54H128.04V71.96C128.04 70.976 127.794 70.226 127.302 69.71C126.81 69.182 126.138 68.918 125.286 68.918C124.422 68.918 123.732 69.188 123.216 69.728C122.712 70.268 122.46 71.054 122.46 72.086V77.54H120.822V67.676H122.46V69.08C122.784 68.576 123.222 68.186 123.774 67.91C124.338 67.634 124.956 67.496 125.628 67.496ZM135.504 67.514C136.356 67.514 137.1 67.7 137.736 68.072C138.384 68.444 138.864 68.912 139.176 69.476V67.676H140.832V77.756C140.832 78.656 140.64 79.454 140.256 80.15C139.872 80.858 139.32 81.41 138.6 81.806C137.892 82.202 137.064 82.4 136.116 82.4C134.82 82.4 133.74 82.094 132.876 81.482C132.012 80.87 131.502 80.036 131.346 78.98H132.966C133.146 79.58 133.518 80.06 134.082 80.42C134.646 80.792 135.324 80.978 136.116 80.978C137.016 80.978 137.748 80.696 138.312 80.132C138.888 79.568 139.176 78.776 139.176 77.756V75.686C138.852 76.262 138.372 76.742 137.736 77.126C137.1 77.51 136.356 77.702 135.504 77.702C134.628 77.702 133.83 77.486 133.11 77.054C132.402 76.622 131.844 76.016 131.436 75.236C131.028 74.456 130.824 73.568 130.824 72.572C130.824 71.564 131.028 70.682 131.436 69.926C131.844 69.158 132.402 68.564 133.11 68.144C133.83 67.724 134.628 67.514 135.504 67.514ZM139.176 72.59C139.176 71.846 139.026 71.198 138.726 70.646C138.426 70.094 138.018 69.674 137.502 69.386C136.998 69.086 136.44 68.936 135.828 68.936C135.216 68.936 134.658 69.08 134.154 69.368C133.65 69.656 133.248 70.076 132.948 70.628C132.648 71.18 132.498 71.828 132.498 72.572C132.498 73.328 132.648 73.988 132.948 74.552C133.248 75.104 133.65 75.53 134.154 75.83C134.658 76.118 135.216 76.262 135.828 76.262C136.44 76.262 136.998 76.118 137.502 75.83C138.018 75.53 138.426 75.104 138.726 74.552C139.026 73.988 139.176 73.334 139.176 72.59Z" fill="#5A5A5A"/>
<rect x="518" y="10.04" width="164" height="68" rx="34" fill="black"/>
<path d="M560.1 41.14C559.713 40.3267 559.153 39.7 558.42 39.26C557.687 38.8067 556.833 38.58 555.86 38.58C554.887 38.58 554.007 38.8067 553.22 39.26C552.447 39.7 551.833 40.34 551.38 41.18C550.94 42.0067 550.72 42.9667 550.72 44.06C550.72 45.1534 550.94 46.1134 551.38 46.94C551.833 47.7667 552.447 48.4067 553.22 48.86C554.007 49.3 554.887 49.52 555.86 49.52C557.22 49.52 558.34 49.1134 559.22 48.3C560.1 47.4867 560.613 46.3867 560.76 45H555.2V43.52H562.7V44.92C562.593 46.0667 562.233 47.12 561.62 48.08C561.007 49.0267 560.2 49.78 559.2 50.34C558.2 50.8867 557.087 51.16 555.86 51.16C554.567 51.16 553.387 50.86 552.32 50.26C551.253 49.6467 550.407 48.8 549.78 47.72C549.167 46.64 548.86 45.42 548.86 44.06C548.86 42.7 549.167 41.48 549.78 40.4C550.407 39.3067 551.253 38.46 552.32 37.86C553.387 37.2467 554.567 36.94 555.86 36.94C557.34 36.94 558.647 37.3067 559.78 38.04C560.927 38.7734 561.76 39.8067 562.28 41.14H560.1ZM574.106 45.14C574.106 45.4867 574.086 45.8534 574.046 46.24H565.286C565.353 47.32 565.72 48.1667 566.386 48.78C567.066 49.38 567.886 49.68 568.846 49.68C569.633 49.68 570.286 49.5 570.806 49.14C571.34 48.7667 571.713 48.2734 571.926 47.66H573.886C573.593 48.7134 573.006 49.5734 572.126 50.24C571.246 50.8934 570.153 51.22 568.846 51.22C567.806 51.22 566.873 50.9867 566.046 50.52C565.233 50.0534 564.593 49.3934 564.126 48.54C563.66 47.6734 563.426 46.6734 563.426 45.54C563.426 44.4067 563.653 43.4134 564.106 42.56C564.56 41.7067 565.193 41.0534 566.006 40.6C566.833 40.1334 567.78 39.9 568.846 39.9C569.886 39.9 570.806 40.1267 571.606 40.58C572.406 41.0334 573.02 41.66 573.446 42.46C573.886 43.2467 574.106 44.14 574.106 45.14ZM572.226 44.76C572.226 44.0667 572.073 43.4734 571.766 42.98C571.46 42.4734 571.04 42.0934 570.506 41.84C569.986 41.5734 569.406 41.44 568.766 41.44C567.846 41.44 567.06 41.7334 566.406 42.32C565.766 42.9067 565.4 43.72 565.306 44.76H572.226ZM577.729 41.58V48.04C577.729 48.5734 577.842 48.9534 578.069 49.18C578.295 49.3934 578.689 49.5 579.249 49.5H580.589V51.04H578.949C577.935 51.04 577.175 50.8067 576.669 50.34C576.162 49.8734 575.909 49.1067 575.909 48.04V41.58H574.489V40.08H575.909V37.32H577.729V40.08H580.589V41.58H577.729ZM590.546 51.18C589.626 51.18 588.799 51.02 588.066 50.7C587.346 50.3667 586.779 49.9134 586.366 49.34C585.953 48.7534 585.739 48.08 585.726 47.32H587.666C587.733 47.9734 587.999 48.5267 588.466 48.98C588.946 49.42 589.639 49.64 590.546 49.64C591.413 49.64 592.093 49.4267 592.586 49C593.093 48.56 593.346 48 593.346 47.32C593.346 46.7867 593.199 46.3534 592.906 46.02C592.613 45.6867 592.246 45.4334 591.806 45.26C591.366 45.0867 590.773 44.9 590.026 44.7C589.106 44.46 588.366 44.22 587.806 43.98C587.259 43.74 586.786 43.3667 586.386 42.86C585.999 42.34 585.806 41.6467 585.806 40.78C585.806 40.02 585.999 39.3467 586.386 38.76C586.773 38.1734 587.313 37.72 588.006 37.4C588.713 37.08 589.519 36.92 590.426 36.92C591.733 36.92 592.799 37.2467 593.626 37.9C594.466 38.5534 594.939 39.42 595.046 40.5H593.046C592.979 39.9667 592.699 39.5 592.206 39.1C591.713 38.6867 591.059 38.48 590.246 38.48C589.486 38.48 588.866 38.68 588.386 39.08C587.906 39.4667 587.666 40.0134 587.666 40.72C587.666 41.2267 587.806 41.64 588.086 41.96C588.379 42.28 588.733 42.5267 589.146 42.7C589.573 42.86 590.166 43.0467 590.926 43.26C591.846 43.5134 592.586 43.7667 593.146 44.02C593.706 44.26 594.186 44.64 594.586 45.16C594.986 45.6667 595.186 46.36 595.186 47.24C595.186 47.92 595.006 48.56 594.646 49.16C594.286 49.76 593.753 50.2467 593.046 50.62C592.339 50.9934 591.506 51.18 590.546 51.18ZM599.084 41.58V48.04C599.084 48.5734 599.198 48.9534 599.424 49.18C599.651 49.3934 600.044 49.5 600.604 49.5H601.944V51.04H600.304C599.291 51.04 598.531 50.8067 598.024 50.34C597.518 49.8734 597.264 49.1067 597.264 48.04V41.58H595.844V40.08H597.264V37.32H599.084V40.08H601.944V41.58H599.084ZM602.469 45.52C602.469 44.4 602.696 43.42 603.149 42.58C603.603 41.7267 604.223 41.0667 605.009 40.6C605.809 40.1334 606.696 39.9 607.669 39.9C608.629 39.9 609.463 40.1067 610.169 40.52C610.876 40.9334 611.403 41.4534 611.749 42.08V40.08H613.589V51.04H611.749V49C611.389 49.64 610.849 50.1734 610.129 50.6C609.423 51.0134 608.596 51.22 607.649 51.22C606.676 51.22 605.796 50.98 605.009 50.5C604.223 50.02 603.603 49.3467 603.149 48.48C602.696 47.6134 602.469 46.6267 602.469 45.52ZM611.749 45.54C611.749 44.7134 611.583 43.9934 611.249 43.38C610.916 42.7667 610.463 42.3 609.889 41.98C609.329 41.6467 608.709 41.48 608.029 41.48C607.349 41.48 606.729 41.64 606.169 41.96C605.609 42.28 605.163 42.7467 604.829 43.36C604.496 43.9734 604.329 44.6934 604.329 45.52C604.329 46.36 604.496 47.0934 604.829 47.72C605.163 48.3334 605.609 48.8067 606.169 49.14C606.729 49.46 607.349 49.62 608.029 49.62C608.709 49.62 609.329 49.46 609.889 49.14C610.463 48.8067 610.916 48.3334 611.249 47.72C611.583 47.0934 611.749 46.3667 611.749 45.54ZM617.485 41.86C617.805 41.2334 618.258 40.7467 618.845 40.4C619.445 40.0534 620.172 39.88 621.025 39.88V41.76H620.545C618.505 41.76 617.485 42.8667 617.485 45.08V51.04H615.665V40.08H617.485V41.86ZM624.346 41.58V48.04C624.346 48.5734 624.459 48.9534 624.686 49.18C624.913 49.3934 625.306 49.5 625.866 49.5H627.206V51.04H625.566C624.553 51.04 623.793 50.8067 623.286 50.34C622.779 49.8734 622.526 49.1067 622.526 48.04V41.58H621.106V40.08H622.526V37.32H624.346V40.08H627.206V41.58H624.346ZM638.411 45.14C638.411 45.4867 638.391 45.8534 638.351 46.24H629.591C629.658 47.32 630.024 48.1667 630.691 48.78C631.371 49.38 632.191 49.68 633.151 49.68C633.938 49.68 634.591 49.5 635.111 49.14C635.644 48.7667 636.018 48.2734 636.231 47.66H638.191C637.898 48.7134 637.311 49.5734 636.431 50.24C635.551 50.8934 634.458 51.22 633.151 51.22C632.111 51.22 631.178 50.9867 630.351 50.52C629.538 50.0534 628.898 49.3934 628.431 48.54C627.964 47.6734 627.731 46.6734 627.731 45.54C627.731 44.4067 627.958 43.4134 628.411 42.56C628.864 41.7067 629.498 41.0534 630.311 40.6C631.138 40.1334 632.084 39.9 633.151 39.9C634.191 39.9 635.111 40.1267 635.911 40.58C636.711 41.0334 637.324 41.66 637.751 42.46C638.191 43.2467 638.411 44.14 638.411 45.14ZM636.531 44.76C636.531 44.0667 636.378 43.4734 636.071 42.98C635.764 42.4734 635.344 42.0934 634.811 41.84C634.291 41.5734 633.711 41.44 633.071 41.44C632.151 41.44 631.364 41.7334 630.711 42.32C630.071 42.9067 629.704 43.72 629.611 44.76H636.531ZM639.133 45.52C639.133 44.4 639.36 43.42 639.813 42.58C640.267 41.7267 640.887 41.0667 641.673 40.6C642.473 40.1334 643.367 39.9 644.353 39.9C645.207 39.9 646 40.1 646.733 40.5C647.467 40.8867 648.027 41.4 648.413 42.04V36.24H650.253V51.04H648.413V48.98C648.053 49.6334 647.52 50.1734 646.813 50.6C646.107 51.0134 645.28 51.22 644.333 51.22C643.36 51.22 642.473 50.98 641.673 50.5C640.887 50.02 640.267 49.3467 639.813 48.48C639.36 47.6134 639.133 46.6267 639.133 45.52ZM648.413 45.54C648.413 44.7134 648.247 43.9934 647.913 43.38C647.58 42.7667 647.127 42.3 646.553 41.98C645.993 41.6467 645.373 41.48 644.693 41.48C644.013 41.48 643.393 41.64 642.833 41.96C642.273 42.28 641.827 42.7467 641.493 43.36C641.16 43.9734 640.993 44.6934 640.993 45.52C640.993 46.36 641.16 47.0934 641.493 47.72C641.827 48.3334 642.273 48.8067 642.833 49.14C643.393 49.46 644.013 49.62 644.693 49.62C645.373 49.62 645.993 49.46 646.553 49.14C647.127 48.8067 647.58 48.3334 647.913 47.72C648.247 47.0934 648.413 46.3667 648.413 45.54Z" fill="white"/>
<line y1="117.04" x2="682" y2="117.04" stroke="#DEDEDE"/>
<path d="M10.54 168.72C10.54 169.36 10.38 169.973 10.06 170.56C9.74 171.133 9.26667 171.613 8.64 172C8.02667 172.387 7.28667 172.607 6.42 172.66V174.28H5.34V172.66C4.12667 172.553 3.14 172.167 2.38 171.5C1.62 170.82 1.23333 169.96 1.22 168.92H3.16C3.21333 169.48 3.42 169.967 3.78 170.38C4.15333 170.793 4.67333 171.053 5.34 171.16V166.16C4.44667 165.933 3.72667 165.7 3.18 165.46C2.63333 165.22 2.16667 164.847 1.78 164.34C1.39333 163.833 1.2 163.153 1.2 162.3C1.2 161.22 1.57333 160.327 2.32 159.62C3.08 158.913 4.08667 158.52 5.34 158.44V156.78H6.42V158.44C7.55333 158.533 8.46667 158.9 9.16 159.54C9.85333 160.167 10.2533 160.987 10.36 162H8.42C8.35333 161.533 8.14667 161.113 7.8 160.74C7.45333 160.353 6.99333 160.1 6.42 159.98V164.86C7.3 165.087 8.01333 165.32 8.56 165.56C9.12 165.787 9.58667 166.153 9.96 166.66C10.3467 167.167 10.54 167.853 10.54 168.72ZM3.06 162.2C3.06 162.853 3.25333 163.353 3.64 163.7C4.02667 164.047 4.59333 164.333 5.34 164.56V159.94C4.64667 160.007 4.09333 160.233 3.68 160.62C3.26667 160.993 3.06 161.52 3.06 162.2ZM6.42 171.18C7.14 171.1 7.7 170.84 8.1 170.4C8.51333 169.96 8.72 169.433 8.72 168.82C8.72 168.167 8.52 167.667 8.12 167.32C7.72 166.96 7.15333 166.673 6.42 166.46V171.18ZM21.9014 159.66H14.8814V164.22C15.1881 163.793 15.6414 163.447 16.2414 163.18C16.8414 162.9 17.4881 162.76 18.1814 162.76C19.2881 162.76 20.1881 162.993 20.8814 163.46C21.5747 163.913 22.0681 164.507 22.3614 165.24C22.6681 165.96 22.8214 166.727 22.8214 167.54C22.8214 168.5 22.6414 169.36 22.2814 170.12C21.9214 170.88 21.3681 171.48 20.6214 171.92C19.8881 172.36 18.9747 172.58 17.8814 172.58C16.4814 172.58 15.3481 172.22 14.4814 171.5C13.6147 170.78 13.0881 169.82 12.9014 168.62H14.6814C14.8547 169.38 15.2214 169.973 15.7814 170.4C16.3414 170.827 17.0481 171.04 17.9014 171.04C18.9547 171.04 19.7481 170.727 20.2814 170.1C20.8147 169.46 21.0814 168.62 21.0814 167.58C21.0814 166.54 20.8147 165.74 20.2814 165.18C19.7481 164.607 18.9614 164.32 17.9214 164.32C17.2147 164.32 16.5947 164.493 16.0614 164.84C15.5414 165.173 15.1614 165.633 14.9214 166.22H13.2014V158.06H21.9014V159.66ZM24.24 165.16C24.24 162.867 24.6133 161.08 25.36 159.8C26.1067 158.507 27.4133 157.86 29.28 157.86C31.1333 157.86 32.4333 158.507 33.18 159.8C33.9267 161.08 34.3 162.867 34.3 165.16C34.3 167.493 33.9267 169.307 33.18 170.6C32.4333 171.893 31.1333 172.54 29.28 172.54C27.4133 172.54 26.1067 171.893 25.36 170.6C24.6133 169.307 24.24 167.493 24.24 165.16ZM32.5 165.16C32.5 164 32.42 163.02 32.26 162.22C32.1133 161.407 31.8 160.753 31.32 160.26C30.8533 159.767 30.1733 159.52 29.28 159.52C28.3733 159.52 27.68 159.767 27.2 160.26C26.7333 160.753 26.42 161.407 26.26 162.22C26.1133 163.02 26.04 164 26.04 165.16C26.04 166.36 26.1133 167.367 26.26 168.18C26.42 168.993 26.7333 169.647 27.2 170.14C27.68 170.633 28.3733 170.88 29.28 170.88C30.1733 170.88 30.8533 170.633 31.32 170.14C31.8 169.647 32.1133 168.993 32.26 168.18C32.42 167.367 32.5 166.36 32.5 165.16ZM35.7986 165.16C35.7986 162.867 36.1719 161.08 36.9186 159.8C37.6653 158.507 38.9719 157.86 40.8386 157.86C42.6919 157.86 43.9919 158.507 44.7386 159.8C45.4853 161.08 45.8586 162.867 45.8586 165.16C45.8586 167.493 45.4853 169.307 44.7386 170.6C43.9919 171.893 42.6919 172.54 40.8386 172.54C38.9719 172.54 37.6653 171.893 36.9186 170.6C36.1719 169.307 35.7986 167.493 35.7986 165.16ZM44.0586 165.16C44.0586 164 43.9786 163.02 43.8186 162.22C43.6719 161.407 43.3586 160.753 42.8786 160.26C42.4119 159.767 41.7319 159.52 40.8386 159.52C39.9319 159.52 39.2386 159.767 38.7586 160.26C38.2919 160.753 37.9786 161.407 37.8186 162.22C37.6719 163.02 37.5986 164 37.5986 165.16C37.5986 166.36 37.6719 167.367 37.8186 168.18C37.9786 168.993 38.2919 169.647 38.7586 170.14C39.2386 170.633 39.9319 170.88 40.8386 170.88C41.7319 170.88 42.4119 170.633 42.8786 170.14C43.3586 169.647 43.6719 168.993 43.8186 168.18C43.9786 167.367 44.0586 166.36 44.0586 165.16Z" fill="#4EB3AA"/>
<path d="M63.506 154.584L58.574 174.6H56.954L61.868 154.584H63.506ZM76.9085 161.496C77.6765 161.496 78.3605 161.658 78.9605 161.982C79.5605 162.294 80.0345 162.768 80.3825 163.404C80.7305 164.04 80.9045 164.814 80.9045 165.726V171.54H79.2845V165.96C79.2845 164.976 79.0385 164.226 78.5465 163.71C78.0665 163.182 77.4125 162.918 76.5845 162.918C75.7325 162.918 75.0545 163.194 74.5505 163.746C74.0465 164.286 73.7945 165.072 73.7945 166.104V171.54H72.1745V165.96C72.1745 164.976 71.9285 164.226 71.4365 163.71C70.9565 163.182 70.3025 162.918 69.4745 162.918C68.6225 162.918 67.9445 163.194 67.4405 163.746C66.9365 164.286 66.6845 165.072 66.6845 166.104V171.54H65.0465V161.676H66.6845V163.098C67.0085 162.582 67.4405 162.186 67.9805 161.91C68.5325 161.634 69.1385 161.496 69.7985 161.496C70.6265 161.496 71.3585 161.682 71.9945 162.054C72.6305 162.426 73.1045 162.972 73.4165 163.692C73.6925 162.996 74.1485 162.456 74.7845 162.072C75.4205 161.688 76.1285 161.496 76.9085 161.496ZM86.9935 171.702C86.0695 171.702 85.2295 171.492 84.4735 171.072C83.7295 170.652 83.1415 170.058 82.7095 169.29C82.2895 168.51 82.0795 167.61 82.0795 166.59C82.0795 165.582 82.2955 164.694 82.7275 163.926C83.1715 163.146 83.7715 162.552 84.5275 162.144C85.2835 161.724 86.1295 161.514 87.0655 161.514C88.0015 161.514 88.8475 161.724 89.6035 162.144C90.3595 162.552 90.9535 163.14 91.3855 163.908C91.8295 164.676 92.0515 165.57 92.0515 166.59C92.0515 167.61 91.8235 168.51 91.3675 169.29C90.9235 170.058 90.3175 170.652 89.5495 171.072C88.7815 171.492 87.9295 171.702 86.9935 171.702ZM86.9935 170.262C87.5815 170.262 88.1335 170.124 88.6495 169.848C89.1655 169.572 89.5795 169.158 89.8915 168.606C90.2155 168.054 90.3775 167.382 90.3775 166.59C90.3775 165.798 90.2215 165.126 89.9095 164.574C89.5975 164.022 89.1895 163.614 88.6855 163.35C88.1815 163.074 87.6355 162.936 87.0475 162.936C86.4475 162.936 85.8955 163.074 85.3915 163.35C84.8995 163.614 84.5035 164.022 84.2035 164.574C83.9035 165.126 83.7535 165.798 83.7535 166.59C83.7535 167.394 83.8975 168.072 84.1855 168.624C84.4855 169.176 84.8815 169.59 85.3735 169.866C85.8655 170.13 86.4055 170.262 86.9935 170.262ZM98.1111 161.496C99.3111 161.496 100.283 161.862 101.027 162.594C101.771 163.314 102.143 164.358 102.143 165.726V171.54H100.523V165.96C100.523 164.976 100.277 164.226 99.7851 163.71C99.2931 163.182 98.6211 162.918 97.7691 162.918C96.9051 162.918 96.2151 163.188 95.6991 163.728C95.1951 164.268 94.9431 165.054 94.9431 166.086V171.54H93.3051V161.676H94.9431V163.08C95.2671 162.576 95.7051 162.186 96.2571 161.91C96.8211 161.634 97.4391 161.496 98.1111 161.496ZM105.917 163.026V168.84C105.917 169.32 106.019 169.662 106.223 169.866C106.427 170.058 106.781 170.154 107.285 170.154H108.491V171.54H107.015C106.103 171.54 105.419 171.33 104.963 170.91C104.507 170.49 104.279 169.8 104.279 168.84V163.026H103.001V161.676H104.279V159.192H105.917V161.676H108.491V163.026H105.917ZM114.471 161.496C115.215 161.496 115.887 161.658 116.487 161.982C117.087 162.294 117.555 162.768 117.891 163.404C118.239 164.04 118.413 164.814 118.413 165.726V171.54H116.793V165.96C116.793 164.976 116.547 164.226 116.055 163.71C115.563 163.182 114.891 162.918 114.039 162.918C113.175 162.918 112.485 163.188 111.969 163.728C111.465 164.268 111.213 165.054 111.213 166.086V171.54H109.575V158.22H111.213V163.08C111.537 162.576 111.981 162.186 112.545 161.91C113.121 161.634 113.763 161.496 114.471 161.496ZM123.681 171.702C122.925 171.702 122.247 171.576 121.647 171.324C121.047 171.06 120.573 170.7 120.225 170.244C119.877 169.776 119.685 169.242 119.649 168.642H121.341C121.389 169.134 121.617 169.536 122.025 169.848C122.445 170.16 122.991 170.316 123.663 170.316C124.287 170.316 124.779 170.178 125.139 169.902C125.499 169.626 125.679 169.278 125.679 168.858C125.679 168.426 125.487 168.108 125.103 167.904C124.719 167.688 124.125 167.478 123.321 167.274C122.589 167.082 121.989 166.89 121.521 166.698C121.065 166.494 120.669 166.2 120.333 165.816C120.009 165.42 119.847 164.904 119.847 164.268C119.847 163.764 119.997 163.302 120.297 162.882C120.597 162.462 121.023 162.132 121.575 161.892C122.127 161.64 122.757 161.514 123.465 161.514C124.557 161.514 125.439 161.79 126.111 162.342C126.783 162.894 127.143 163.65 127.191 164.61H125.553C125.517 164.094 125.307 163.68 124.923 163.368C124.551 163.056 124.047 162.9 123.411 162.9C122.823 162.9 122.355 163.026 122.007 163.278C121.659 163.53 121.485 163.86 121.485 164.268C121.485 164.592 121.587 164.862 121.791 165.078C122.007 165.282 122.271 165.45 122.583 165.582C122.907 165.702 123.351 165.84 123.915 165.996C124.623 166.188 125.199 166.38 125.643 166.572C126.087 166.752 126.465 167.028 126.777 167.4C127.101 167.772 127.269 168.258 127.281 168.858C127.281 169.398 127.131 169.884 126.831 170.316C126.531 170.748 126.105 171.09 125.553 171.342C125.013 171.582 124.389 171.702 123.681 171.702Z" fill="black"/>
<line y1="213.04" x2="682" y2="213.04" stroke="#DEDEDE"/>
<path d="M13.481 261.742C12.869 261.742 12.347 261.532 11.915 261.112C11.495 260.68 11.285 260.158 11.285 259.546C11.285 258.922 11.495 258.4 11.915 257.98C12.347 257.548 12.869 257.332 13.481 257.332C14.105 257.332 14.633 257.548 15.065 257.98C15.497 258.4 15.713 258.922 15.713 259.546C15.713 260.158 15.497 260.68 15.065 261.112C14.633 261.532 14.105 261.742 13.481 261.742ZM35.802 262.75H30.33L29.322 265.54H27.594L32.13 253.066H34.02L38.538 265.54H36.81L35.802 262.75ZM35.334 261.418L33.066 255.082L30.798 261.418H35.334ZM41.2529 252.22V265.54H39.6149V252.22H41.2529ZM44.7826 252.22V265.54H43.1446V252.22H44.7826ZM58.9611 256.666C58.9611 257.71 58.6011 258.58 57.8811 259.276C57.1731 259.96 56.0871 260.302 54.6231 260.302H52.2111V265.54H50.5731V252.994H54.6231C56.0391 252.994 57.1131 253.336 57.8451 254.02C58.5891 254.704 58.9611 255.586 58.9611 256.666ZM54.6231 258.952C55.5351 258.952 56.2071 258.754 56.6391 258.358C57.0711 257.962 57.2871 257.398 57.2871 256.666C57.2871 255.118 56.3991 254.344 54.6231 254.344H52.2111V258.952H54.6231ZM61.7349 257.278C62.0229 256.714 62.4309 256.276 62.9589 255.964C63.4989 255.652 64.1529 255.496 64.9209 255.496V257.188H64.4889C62.6529 257.188 61.7349 258.184 61.7349 260.176V265.54H60.0969V255.676H61.7349V257.278ZM70.2138 265.702C69.2898 265.702 68.4498 265.492 67.6938 265.072C66.9498 264.652 66.3618 264.058 65.9298 263.29C65.5098 262.51 65.2998 261.61 65.2998 260.59C65.2998 259.582 65.5158 258.694 65.9478 257.926C66.3918 257.146 66.9918 256.552 67.7478 256.144C68.5038 255.724 69.3498 255.514 70.2858 255.514C71.2218 255.514 72.0678 255.724 72.8238 256.144C73.5798 256.552 74.1738 257.14 74.6058 257.908C75.0498 258.676 75.2718 259.57 75.2718 260.59C75.2718 261.61 75.0438 262.51 74.5878 263.29C74.1438 264.058 73.5378 264.652 72.7698 265.072C72.0018 265.492 71.1498 265.702 70.2138 265.702ZM70.2138 264.262C70.8018 264.262 71.3538 264.124 71.8698 263.848C72.3858 263.572 72.7998 263.158 73.1118 262.606C73.4358 262.054 73.5978 261.382 73.5978 260.59C73.5978 259.798 73.4418 259.126 73.1298 258.574C72.8178 258.022 72.4098 257.614 71.9058 257.35C71.4018 257.074 70.8558 256.936 70.2678 256.936C69.6678 256.936 69.1158 257.074 68.6118 257.35C68.1198 257.614 67.7238 258.022 67.4238 258.574C67.1238 259.126 66.9738 259.798 66.9738 260.59C66.9738 261.394 67.1178 262.072 67.4058 262.624C67.7058 263.176 68.1018 263.59 68.5938 263.866C69.0858 264.13 69.6258 264.262 70.2138 264.262ZM87.5163 252.994V254.326H82.0623V258.556H86.4903V259.888H82.0623V265.54H80.4243V252.994H87.5163ZM97.5946 260.23C97.5946 260.542 97.5766 260.872 97.5406 261.22H89.6566C89.7166 262.192 90.0466 262.954 90.6466 263.506C91.2586 264.046 91.9966 264.316 92.8606 264.316C93.5686 264.316 94.1566 264.154 94.6246 263.83C95.1046 263.494 95.4406 263.05 95.6326 262.498H97.3966C97.1326 263.446 96.6046 264.22 95.8126 264.82C95.0206 265.408 94.0366 265.702 92.8606 265.702C91.9246 265.702 91.0846 265.492 90.3406 265.072C89.6086 264.652 89.0326 264.058 88.6126 263.29C88.1926 262.51 87.9826 261.61 87.9826 260.59C87.9826 259.57 88.1866 258.676 88.5946 257.908C89.0026 257.14 89.5726 256.552 90.3046 256.144C91.0486 255.724 91.9006 255.514 92.8606 255.514C93.7966 255.514 94.6246 255.718 95.3446 256.126C96.0646 256.534 96.6166 257.098 97.0006 257.818C97.3966 258.526 97.5946 259.33 97.5946 260.23ZM95.9026 259.888C95.9026 259.264 95.7646 258.73 95.4886 258.286C95.2126 257.83 94.8346 257.488 94.3546 257.26C93.8866 257.02 93.3646 256.9 92.7886 256.9C91.9606 256.9 91.2526 257.164 90.6646 257.692C90.0886 258.22 89.7586 258.952 89.6746 259.888H95.9026ZM98.2447 260.572C98.2447 259.564 98.4487 258.682 98.8567 257.926C99.2647 257.158 99.8227 256.564 100.531 256.144C101.251 255.724 102.049 255.514 102.925 255.514C103.789 255.514 104.539 255.7 105.175 256.072C105.811 256.444 106.285 256.912 106.597 257.476V255.676H108.253V265.54H106.597V263.704C106.273 264.28 105.787 264.76 105.139 265.144C104.503 265.516 103.759 265.702 102.907 265.702C102.031 265.702 101.239 265.486 100.531 265.054C99.8227 264.622 99.2647 264.016 98.8567 263.236C98.4487 262.456 98.2447 261.568 98.2447 260.572ZM106.597 260.59C106.597 259.846 106.447 259.198 106.147 258.646C105.847 258.094 105.439 257.674 104.923 257.386C104.419 257.086 103.861 256.936 103.249 256.936C102.637 256.936 102.079 257.08 101.575 257.368C101.071 257.656 100.669 258.076 100.369 258.628C100.069 259.18 99.9187 259.828 99.9187 260.572C99.9187 261.328 100.069 261.988 100.369 262.552C100.669 263.104 101.071 263.53 101.575 263.83C102.079 264.118 102.637 264.262 103.249 264.262C103.861 264.262 104.419 264.118 104.923 263.83C105.439 263.53 105.847 263.104 106.147 262.552C106.447 261.988 106.597 261.334 106.597 260.59ZM112.119 257.026V262.84C112.119 263.32 112.221 263.662 112.425 263.866C112.629 264.058 112.983 264.154 113.487 264.154H114.693V265.54H113.217C112.305 265.54 111.621 265.33 111.165 264.91C110.709 264.49 110.481 263.8 110.481 262.84V257.026H109.203V255.676H110.481V253.192H112.119V255.676H114.693V257.026H112.119ZM124.525 255.676V265.54H122.887V264.082C122.575 264.586 122.137 264.982 121.573 265.27C121.021 265.546 120.409 265.684 119.737 265.684C118.969 265.684 118.279 265.528 117.667 265.216C117.055 264.892 116.569 264.412 116.209 263.776C115.861 263.14 115.687 262.366 115.687 261.454V255.676H117.307V261.238C117.307 262.21 117.553 262.96 118.045 263.488C118.537 264.004 119.209 264.262 120.061 264.262C120.937 264.262 121.627 263.992 122.131 263.452C122.635 262.912 122.887 262.126 122.887 261.094V255.676H124.525ZM128.029 257.278C128.317 256.714 128.725 256.276 129.253 255.964C129.793 255.652 130.447 255.496 131.215 255.496V257.188H130.783C128.947 257.188 128.029 258.184 128.029 260.176V265.54H126.391V255.676H128.029V257.278ZM141.206 260.23C141.206 260.542 141.188 260.872 141.152 261.22H133.268C133.328 262.192 133.658 262.954 134.258 263.506C134.87 264.046 135.608 264.316 136.472 264.316C137.18 264.316 137.768 264.154 138.236 263.83C138.716 263.494 139.052 263.05 139.244 262.498H141.008C140.744 263.446 140.216 264.22 139.424 264.82C138.632 265.408 137.648 265.702 136.472 265.702C135.536 265.702 134.696 265.492 133.952 265.072C133.22 264.652 132.644 264.058 132.224 263.29C131.804 262.51 131.594 261.61 131.594 260.59C131.594 259.57 131.798 258.676 132.206 257.908C132.614 257.14 133.184 256.552 133.916 256.144C134.66 255.724 135.512 255.514 136.472 255.514C137.408 255.514 138.236 255.718 138.956 256.126C139.676 256.534 140.228 257.098 140.612 257.818C141.008 258.526 141.206 259.33 141.206 260.23ZM139.514 259.888C139.514 259.264 139.376 258.73 139.1 258.286C138.824 257.83 138.446 257.488 137.966 257.26C137.498 257.02 136.976 256.9 136.4 256.9C135.572 256.9 134.864 257.164 134.276 257.692C133.7 258.22 133.37 258.952 133.286 259.888H139.514ZM145.96 265.702C145.204 265.702 144.526 265.576 143.926 265.324C143.326 265.06 142.852 264.7 142.504 264.244C142.156 263.776 141.964 263.242 141.928 262.642H143.62C143.668 263.134 143.896 263.536 144.304 263.848C144.724 264.16 145.27 264.316 145.942 264.316C146.566 264.316 147.058 264.178 147.418 263.902C147.778 263.626 147.958 263.278 147.958 262.858C147.958 262.426 147.766 262.108 147.382 261.904C146.998 261.688 146.404 261.478 145.6 261.274C144.868 261.082 144.268 260.89 143.8 260.698C143.344 260.494 142.948 260.2 142.612 259.816C142.288 259.42 142.126 258.904 142.126 258.268C142.126 257.764 142.276 257.302 142.576 256.882C142.876 256.462 143.302 256.132 143.854 255.892C144.406 255.64 145.036 255.514 145.744 255.514C146.836 255.514 147.718 255.79 148.39 256.342C149.062 256.894 149.422 257.65 149.47 258.61H147.832C147.796 258.094 147.586 257.68 147.202 257.368C146.83 257.056 146.326 256.9 145.69 256.9C145.102 256.9 144.634 257.026 144.286 257.278C143.938 257.53 143.764 257.86 143.764 258.268C143.764 258.592 143.866 258.862 144.07 259.078C144.286 259.282 144.55 259.45 144.862 259.582C145.186 259.702 145.63 259.84 146.194 259.996C146.902 260.188 147.478 260.38 147.922 260.572C148.366 260.752 148.744 261.028 149.056 261.4C149.38 261.772 149.548 262.258 149.56 262.858C149.56 263.398 149.41 263.884 149.11 264.316C148.81 264.748 148.384 265.09 147.832 265.342C147.292 265.582 146.668 265.702 145.96 265.702Z" fill="#5A5A5A"/>
<path d="M13.481 313.742C12.869 313.742 12.347 313.532 11.915 313.112C11.495 312.68 11.285 312.158 11.285 311.546C11.285 310.922 11.495 310.4 11.915 309.98C12.347 309.548 12.869 309.332 13.481 309.332C14.105 309.332 14.633 309.548 15.065 309.98C15.497 310.4 15.713 310.922 15.713 311.546C15.713 312.158 15.497 312.68 15.065 313.112C14.633 313.532 14.105 313.742 13.481 313.742ZM38.754 304.994L34.02 317.54H32.13L27.396 304.994H29.142L33.084 315.812L37.026 304.994H38.754ZM40.4961 306.074C40.1841 306.074 39.9201 305.966 39.7041 305.75C39.4881 305.534 39.3801 305.27 39.3801 304.958C39.3801 304.646 39.4881 304.382 39.7041 304.166C39.9201 303.95 40.1841 303.842 40.4961 303.842C40.7961 303.842 41.0481 303.95 41.2521 304.166C41.4681 304.382 41.5761 304.646 41.5761 304.958C41.5761 305.27 41.4681 305.534 41.2521 305.75C41.0481 305.966 40.7961 306.074 40.4961 306.074ZM41.2881 307.676V317.54H39.6501V307.676H41.2881ZM44.8178 309.278C45.1058 308.714 45.5138 308.276 46.0418 307.964C46.5818 307.652 47.2358 307.496 48.0038 307.496V309.188H47.5718C45.7358 309.188 44.8178 310.184 44.8178 312.176V317.54H43.1798V307.676H44.8178V309.278ZM50.9926 309.026V314.84C50.9926 315.32 51.0946 315.662 51.2986 315.866C51.5026 316.058 51.8566 316.154 52.3606 316.154H53.5666V317.54H52.0906C51.1786 317.54 50.4946 317.33 50.0386 316.91C49.5826 316.49 49.3546 315.8 49.3546 314.84V309.026H48.0766V307.676H49.3546V305.192H50.9926V307.676H53.5666V309.026H50.9926ZM63.3992 307.676V317.54H61.7612V316.082C61.4492 316.586 61.0112 316.982 60.4472 317.27C59.8952 317.546 59.2832 317.684 58.6112 317.684C57.8432 317.684 57.1532 317.528 56.5412 317.216C55.9292 316.892 55.4432 316.412 55.0832 315.776C54.7352 315.14 54.5612 314.366 54.5612 313.454V307.676H56.1812V313.238C56.1812 314.21 56.4272 314.96 56.9192 315.488C57.4112 316.004 58.0832 316.262 58.9352 316.262C59.8112 316.262 60.5012 315.992 61.0052 315.452C61.5092 314.912 61.7612 314.126 61.7612 313.094V307.676H63.3992ZM64.6529 312.572C64.6529 311.564 64.8569 310.682 65.2649 309.926C65.6729 309.158 66.2309 308.564 66.9389 308.144C67.6589 307.724 68.4569 307.514 69.3329 307.514C70.1969 307.514 70.9469 307.7 71.5829 308.072C72.2189 308.444 72.6929 308.912 73.0049 309.476V307.676H74.6609V317.54H73.0049V315.704C72.6809 316.28 72.1949 316.76 71.5469 317.144C70.9109 317.516 70.1669 317.702 69.3149 317.702C68.4389 317.702 67.6469 317.486 66.9389 317.054C66.2309 316.622 65.6729 316.016 65.2649 315.236C64.8569 314.456 64.6529 313.568 64.6529 312.572ZM73.0049 312.59C73.0049 311.846 72.8549 311.198 72.5549 310.646C72.2549 310.094 71.8469 309.674 71.3309 309.386C70.8269 309.086 70.2689 308.936 69.6569 308.936C69.0449 308.936 68.4869 309.08 67.9829 309.368C67.4789 309.656 67.0769 310.076 66.7769 310.628C66.4769 311.18 66.3269 311.828 66.3269 312.572C66.3269 313.328 66.4769 313.988 66.7769 314.552C67.0769 315.104 67.4789 315.53 67.9829 315.83C68.4869 316.118 69.0449 316.262 69.6569 316.262C70.2689 316.262 70.8269 316.118 71.3309 315.83C71.8469 315.53 72.2549 315.104 72.5549 314.552C72.8549 313.988 73.0049 313.334 73.0049 312.59ZM78.167 304.22V317.54H76.529V304.22H78.167ZM83.3455 312.572C83.3455 311.564 83.5495 310.682 83.9575 309.926C84.3655 309.158 84.9235 308.564 85.6315 308.144C86.3515 307.724 87.1495 307.514 88.0255 307.514C88.8895 307.514 89.6395 307.7 90.2755 308.072C90.9115 308.444 91.3855 308.912 91.6975 309.476V307.676H93.3535V317.54H91.6975V315.704C91.3735 316.28 90.8875 316.76 90.2395 317.144C89.6035 317.516 88.8595 317.702 88.0075 317.702C87.1315 317.702 86.3395 317.486 85.6315 317.054C84.9235 316.622 84.3655 316.016 83.9575 315.236C83.5495 314.456 83.3455 313.568 83.3455 312.572ZM91.6975 312.59C91.6975 311.846 91.5475 311.198 91.2475 310.646C90.9475 310.094 90.5395 309.674 90.0235 309.386C89.5195 309.086 88.9615 308.936 88.3495 308.936C87.7375 308.936 87.1795 309.08 86.6755 309.368C86.1715 309.656 85.7695 310.076 85.4695 310.628C85.1695 311.18 85.0195 311.828 85.0195 312.572C85.0195 313.328 85.1695 313.988 85.4695 314.552C85.7695 315.104 86.1715 315.53 86.6755 315.83C87.1795 316.118 87.7375 316.262 88.3495 316.262C88.9615 316.262 89.5195 316.118 90.0235 315.83C90.5395 315.53 90.9475 315.104 91.2475 314.552C91.5475 313.988 91.6975 313.334 91.6975 312.59ZM96.8595 309.494C97.1835 308.93 97.6635 308.462 98.2995 308.09C98.9475 307.706 99.6975 307.514 100.55 307.514C101.426 307.514 102.218 307.724 102.926 308.144C103.646 308.564 104.21 309.158 104.618 309.926C105.026 310.682 105.23 311.564 105.23 312.572C105.23 313.568 105.026 314.456 104.618 315.236C104.21 316.016 103.646 316.622 102.926 317.054C102.218 317.486 101.426 317.702 100.55 317.702C99.7095 317.702 98.9655 317.516 98.3175 317.144C97.6815 316.76 97.1955 316.286 96.8595 315.722V322.22H95.2215V307.676H96.8595V309.494ZM103.556 312.572C103.556 311.828 103.406 311.18 103.106 310.628C102.806 310.076 102.398 309.656 101.882 309.368C101.378 309.08 100.82 308.936 100.208 308.936C99.6075 308.936 99.0495 309.086 98.5335 309.386C98.0295 309.674 97.6215 310.1 97.3095 310.664C97.0095 311.216 96.8595 311.858 96.8595 312.59C96.8595 313.334 97.0095 313.988 97.3095 314.552C97.6215 315.104 98.0295 315.53 98.5335 315.83C99.0495 316.118 99.6075 316.262 100.208 316.262C100.82 316.262 101.378 316.118 101.882 315.83C102.398 315.53 102.806 315.104 103.106 314.552C103.406 313.988 103.556 313.328 103.556 312.572ZM108.124 309.494C108.448 308.93 108.928 308.462 109.564 308.09C110.212 307.706 110.962 307.514 111.814 307.514C112.69 307.514 113.482 307.724 114.19 308.144C114.91 308.564 115.474 309.158 115.882 309.926C116.29 310.682 116.494 311.564 116.494 312.572C116.494 313.568 116.29 314.456 115.882 315.236C115.474 316.016 114.91 316.622 114.19 317.054C113.482 317.486 112.69 317.702 111.814 317.702C110.974 317.702 110.23 317.516 109.582 317.144C108.946 316.76 108.46 316.286 108.124 315.722V322.22H106.486V307.676H108.124V309.494ZM114.82 312.572C114.82 311.828 114.67 311.18 114.37 310.628C114.07 310.076 113.662 309.656 113.146 309.368C112.642 309.08 112.084 308.936 111.472 308.936C110.872 308.936 110.314 309.086 109.798 309.386C109.294 309.674 108.886 310.1 108.574 310.664C108.274 311.216 108.124 311.858 108.124 312.59C108.124 313.334 108.274 313.988 108.574 314.552C108.886 315.104 109.294 315.53 109.798 315.83C110.314 316.118 110.872 316.262 111.472 316.262C112.084 316.262 112.642 316.118 113.146 315.83C113.662 315.53 114.07 315.104 114.37 314.552C114.67 313.988 114.82 313.328 114.82 312.572ZM121.242 317.702C120.486 317.702 119.808 317.576 119.208 317.324C118.608 317.06 118.134 316.7 117.786 316.244C117.438 315.776 117.246 315.242 117.21 314.642H118.902C118.95 315.134 119.178 315.536 119.586 315.848C120.006 316.16 120.552 316.316 121.224 316.316C121.848 316.316 122.34 316.178 122.7 315.902C123.06 315.626 123.24 315.278 123.24 314.858C123.24 314.426 123.048 314.108 122.664 313.904C122.28 313.688 121.686 313.478 120.882 313.274C120.15 313.082 119.55 312.89 119.082 312.698C118.626 312.494 118.23 312.2 117.894 311.816C117.57 311.42 117.408 310.904 117.408 310.268C117.408 309.764 117.558 309.302 117.858 308.882C118.158 308.462 118.584 308.132 119.136 307.892C119.688 307.64 120.318 307.514 121.026 307.514C122.118 307.514 123 307.79 123.672 308.342C124.344 308.894 124.704 309.65 124.752 310.61H123.114C123.078 310.094 122.868 309.68 122.484 309.368C122.112 309.056 121.608 308.9 120.972 308.9C120.384 308.9 119.916 309.026 119.568 309.278C119.22 309.53 119.046 309.86 119.046 310.268C119.046 310.592 119.148 310.862 119.352 311.078C119.568 311.282 119.832 311.45 120.144 311.582C120.468 311.702 120.912 311.84 121.476 311.996C122.184 312.188 122.76 312.38 123.204 312.572C123.648 312.752 124.026 313.028 124.338 313.4C124.662 313.772 124.83 314.258 124.842 314.858C124.842 315.398 124.692 315.884 124.392 316.316C124.092 316.748 123.666 317.09 123.114 317.342C122.574 317.582 121.95 317.702 121.242 317.702ZM134.167 309.026H132.097V317.54H130.459V309.026H129.181V307.676H130.459V306.974C130.459 305.87 130.741 305.066 131.305 304.562C131.881 304.046 132.799 303.788 134.059 303.788V305.156C133.339 305.156 132.829 305.3 132.529 305.588C132.241 305.864 132.097 306.326 132.097 306.974V307.676H134.167V309.026ZM139.479 317.702C138.555 317.702 137.715 317.492 136.959 317.072C136.215 316.652 135.627 316.058 135.195 315.29C134.775 314.51 134.565 313.61 134.565 312.59C134.565 311.582 134.781 310.694 135.213 309.926C135.657 309.146 136.257 308.552 137.013 308.144C137.769 307.724 138.615 307.514 139.551 307.514C140.487 307.514 141.333 307.724 142.089 308.144C142.845 308.552 143.439 309.14 143.871 309.908C144.315 310.676 144.537 311.57 144.537 312.59C144.537 313.61 144.309 314.51 143.853 315.29C143.409 316.058 142.803 316.652 142.035 317.072C141.267 317.492 140.415 317.702 139.479 317.702ZM139.479 316.262C140.067 316.262 140.619 316.124 141.135 315.848C141.651 315.572 142.065 315.158 142.377 314.606C142.701 314.054 142.863 313.382 142.863 312.59C142.863 311.798 142.707 311.126 142.395 310.574C142.083 310.022 141.675 309.614 141.171 309.35C140.667 309.074 140.121 308.936 139.533 308.936C138.933 308.936 138.381 309.074 137.877 309.35C137.385 309.614 136.989 310.022 136.689 310.574C136.389 311.126 136.239 311.798 136.239 312.59C136.239 313.394 136.383 314.072 136.671 314.624C136.971 315.176 137.367 315.59 137.859 315.866C138.351 316.13 138.891 316.262 139.479 316.262ZM147.428 309.278C147.716 308.714 148.124 308.276 148.652 307.964C149.192 307.652 149.846 307.496 150.614 307.496V309.188H150.182C148.346 309.188 147.428 310.184 147.428 312.176V317.54H145.79V307.676H147.428V309.278ZM154.892 312.572C154.892 311.564 155.096 310.682 155.504 309.926C155.912 309.158 156.47 308.564 157.178 308.144C157.898 307.724 158.702 307.514 159.59 307.514C160.358 307.514 161.072 307.694 161.732 308.054C162.392 308.402 162.896 308.864 163.244 309.44V304.22H164.9V317.54H163.244V315.686C162.92 316.274 162.44 316.76 161.804 317.144C161.168 317.516 160.424 317.702 159.572 317.702C158.696 317.702 157.898 317.486 157.178 317.054C156.47 316.622 155.912 316.016 155.504 315.236C155.096 314.456 154.892 313.568 154.892 312.572ZM163.244 312.59C163.244 311.846 163.094 311.198 162.794 310.646C162.494 310.094 162.086 309.674 161.57 309.386C161.066 309.086 160.508 308.936 159.896 308.936C159.284 308.936 158.726 309.08 158.222 309.368C157.718 309.656 157.316 310.076 157.016 310.628C156.716 311.18 156.566 311.828 156.566 312.572C156.566 313.328 156.716 313.988 157.016 314.552C157.316 315.104 157.718 315.53 158.222 315.83C158.726 316.118 159.284 316.262 159.896 316.262C160.508 316.262 161.066 316.118 161.57 315.83C162.086 315.53 162.494 315.104 162.794 314.552C163.094 313.988 163.244 313.334 163.244 312.59ZM175.768 312.23C175.768 312.542 175.75 312.872 175.714 313.22H167.83C167.89 314.192 168.22 314.954 168.82 315.506C169.432 316.046 170.17 316.316 171.034 316.316C171.742 316.316 172.33 316.154 172.798 315.83C173.278 315.494 173.614 315.05 173.806 314.498H175.57C175.306 315.446 174.778 316.22 173.986 316.82C173.194 317.408 172.21 317.702 171.034 317.702C170.098 317.702 169.258 317.492 168.514 317.072C167.782 316.652 167.206 316.058 166.786 315.29C166.366 314.51 166.156 313.61 166.156 312.59C166.156 311.57 166.36 310.676 166.768 309.908C167.176 309.14 167.746 308.552 168.478 308.144C169.222 307.724 170.074 307.514 171.034 307.514C171.97 307.514 172.798 307.718 173.518 308.126C174.238 308.534 174.79 309.098 175.174 309.818C175.57 310.526 175.768 311.33 175.768 312.23ZM174.076 311.888C174.076 311.264 173.938 310.73 173.662 310.286C173.386 309.83 173.008 309.488 172.528 309.26C172.06 309.02 171.538 308.9 170.962 308.9C170.134 308.9 169.426 309.164 168.838 309.692C168.262 310.22 167.932 310.952 167.848 311.888H174.076ZM182.538 317.54L178.668 313.184V317.54H177.03V304.22H178.668V312.05L182.466 307.676H184.752L180.108 312.59L184.77 317.54H182.538ZM188.886 317.702C188.13 317.702 187.452 317.576 186.852 317.324C186.252 317.06 185.778 316.7 185.43 316.244C185.082 315.776 184.89 315.242 184.854 314.642H186.546C186.594 315.134 186.822 315.536 187.23 315.848C187.65 316.16 188.196 316.316 188.868 316.316C189.492 316.316 189.984 316.178 190.344 315.902C190.704 315.626 190.884 315.278 190.884 314.858C190.884 314.426 190.692 314.108 190.308 313.904C189.924 313.688 189.33 313.478 188.526 313.274C187.794 313.082 187.194 312.89 186.726 312.698C186.27 312.494 185.874 312.2 185.538 311.816C185.214 311.42 185.052 310.904 185.052 310.268C185.052 309.764 185.202 309.302 185.502 308.882C185.802 308.462 186.228 308.132 186.78 307.892C187.332 307.64 187.962 307.514 188.67 307.514C189.762 307.514 190.644 307.79 191.316 308.342C191.988 308.894 192.348 309.65 192.396 310.61H190.758C190.722 310.094 190.512 309.68 190.128 309.368C189.756 309.056 189.252 308.9 188.616 308.9C188.028 308.9 187.56 309.026 187.212 309.278C186.864 309.53 186.69 309.86 186.69 310.268C186.69 310.592 186.792 310.862 186.996 311.078C187.212 311.282 187.476 311.45 187.788 311.582C188.112 311.702 188.556 311.84 189.12 311.996C189.828 312.188 190.404 312.38 190.848 312.572C191.292 312.752 191.67 313.028 191.982 313.4C192.306 313.772 192.474 314.258 192.486 314.858C192.486 315.398 192.336 315.884 192.036 316.316C191.736 316.748 191.31 317.09 190.758 317.342C190.218 317.582 189.594 317.702 188.886 317.702ZM195.896 309.026V314.84C195.896 315.32 195.998 315.662 196.202 315.866C196.406 316.058 196.76 316.154 197.264 316.154H198.47V317.54H196.994C196.082 317.54 195.398 317.33 194.942 316.91C194.486 316.49 194.258 315.8 194.258 314.84V309.026H192.98V307.676H194.258V305.192H195.896V307.676H198.47V309.026H195.896ZM203.857 317.702C202.933 317.702 202.093 317.492 201.337 317.072C200.593 316.652 200.005 316.058 199.573 315.29C199.153 314.51 198.943 313.61 198.943 312.59C198.943 311.582 199.159 310.694 199.591 309.926C200.035 309.146 200.635 308.552 201.391 308.144C202.147 307.724 202.993 307.514 203.929 307.514C204.865 307.514 205.711 307.724 206.467 308.144C207.223 308.552 207.817 309.14 208.249 309.908C208.693 310.676 208.915 311.57 208.915 312.59C208.915 313.61 208.687 314.51 208.231 315.29C207.787 316.058 207.181 316.652 206.413 317.072C205.645 317.492 204.793 317.702 203.857 317.702ZM203.857 316.262C204.445 316.262 204.997 316.124 205.513 315.848C206.029 315.572 206.443 315.158 206.755 314.606C207.079 314.054 207.241 313.382 207.241 312.59C207.241 311.798 207.085 311.126 206.773 310.574C206.461 310.022 206.053 309.614 205.549 309.35C205.045 309.074 204.499 308.936 203.911 308.936C203.311 308.936 202.759 309.074 202.255 309.35C201.763 309.614 201.367 310.022 201.067 310.574C200.767 311.126 200.617 311.798 200.617 312.59C200.617 313.394 200.761 314.072 201.049 314.624C201.349 315.176 201.745 315.59 202.237 315.866C202.729 316.13 203.269 316.262 203.857 316.262ZM211.806 309.494C212.13 308.93 212.61 308.462 213.246 308.09C213.894 307.706 214.644 307.514 215.496 307.514C216.372 307.514 217.164 307.724 217.872 308.144C218.592 308.564 219.156 309.158 219.564 309.926C219.972 310.682 220.176 311.564 220.176 312.572C220.176 313.568 219.972 314.456 219.564 315.236C219.156 316.016 218.592 316.622 217.872 317.054C217.164 317.486 216.372 317.702 215.496 317.702C214.656 317.702 213.912 317.516 213.264 317.144C212.628 316.76 212.142 316.286 211.806 315.722V322.22H210.168V307.676H211.806V309.494ZM218.502 312.572C218.502 311.828 218.352 311.18 218.052 310.628C217.752 310.076 217.344 309.656 216.828 309.368C216.324 309.08 215.766 308.936 215.154 308.936C214.554 308.936 213.996 309.086 213.48 309.386C212.976 309.674 212.568 310.1 212.256 310.664C211.956 311.216 211.806 311.858 211.806 312.59C211.806 313.334 211.956 313.988 212.256 314.552C212.568 315.104 212.976 315.53 213.48 315.83C213.996 316.118 214.554 316.262 215.154 316.262C215.766 316.262 216.324 316.118 216.828 315.83C217.344 315.53 217.752 315.104 218.052 314.552C218.352 313.988 218.502 313.328 218.502 312.572ZM224.719 312.572C224.719 311.564 224.923 310.682 225.331 309.926C225.739 309.158 226.297 308.564 227.005 308.144C227.725 307.724 228.523 307.514 229.399 307.514C230.263 307.514 231.013 307.7 231.649 308.072C232.285 308.444 232.759 308.912 233.071 309.476V307.676H234.727V317.54H233.071V315.704C232.747 316.28 232.261 316.76 231.613 317.144C230.977 317.516 230.233 317.702 229.381 317.702C228.505 317.702 227.713 317.486 227.005 317.054C226.297 316.622 225.739 316.016 225.331 315.236C224.923 314.456 224.719 313.568 224.719 312.572ZM233.071 312.59C233.071 311.846 232.921 311.198 232.621 310.646C232.321 310.094 231.913 309.674 231.397 309.386C230.893 309.086 230.335 308.936 229.723 308.936C229.111 308.936 228.553 309.08 228.049 309.368C227.545 309.656 227.143 310.076 226.843 310.628C226.543 311.18 226.393 311.828 226.393 312.572C226.393 313.328 226.543 313.988 226.843 314.552C227.143 315.104 227.545 315.53 228.049 315.83C228.553 316.118 229.111 316.262 229.723 316.262C230.335 316.262 230.893 316.118 231.397 315.83C231.913 315.53 232.321 315.104 232.621 314.552C232.921 313.988 233.071 313.334 233.071 312.59ZM241.401 307.496C242.601 307.496 243.573 307.862 244.317 308.594C245.061 309.314 245.433 310.358 245.433 311.726V317.54H243.813V311.96C243.813 310.976 243.567 310.226 243.075 309.71C242.583 309.182 241.911 308.918 241.059 308.918C240.195 308.918 239.505 309.188 238.989 309.728C238.485 310.268 238.233 311.054 238.233 312.086V317.54H236.595V307.676H238.233V309.08C238.557 308.576 238.995 308.186 239.547 307.91C240.111 307.634 240.729 307.496 241.401 307.496ZM246.597 312.572C246.597 311.564 246.801 310.682 247.209 309.926C247.617 309.158 248.175 308.564 248.883 308.144C249.603 307.724 250.407 307.514 251.295 307.514C252.063 307.514 252.777 307.694 253.437 308.054C254.097 308.402 254.601 308.864 254.949 309.44V304.22H256.605V317.54H254.949V315.686C254.625 316.274 254.145 316.76 253.509 317.144C252.873 317.516 252.129 317.702 251.277 317.702C250.401 317.702 249.603 317.486 248.883 317.054C248.175 316.622 247.617 316.016 247.209 315.236C246.801 314.456 246.597 313.568 246.597 312.572ZM254.949 312.59C254.949 311.846 254.799 311.198 254.499 310.646C254.199 310.094 253.791 309.674 253.275 309.386C252.771 309.086 252.213 308.936 251.601 308.936C250.989 308.936 250.431 309.08 249.927 309.368C249.423 309.656 249.021 310.076 248.721 310.628C248.421 311.18 248.271 311.828 248.271 312.572C248.271 313.328 248.421 313.988 248.721 314.552C249.021 315.104 249.423 315.53 249.927 315.83C250.431 316.118 250.989 316.262 251.601 316.262C252.213 316.262 252.771 316.118 253.275 315.83C253.791 315.53 254.199 315.104 254.499 314.552C254.799 313.988 254.949 313.334 254.949 312.59ZM264.01 304.994V317.54H262.372V304.994H264.01ZM271.59 317.666C270.426 317.666 269.364 317.396 268.404 316.856C267.444 316.304 266.682 315.542 266.118 314.57C265.566 313.586 265.29 312.482 265.29 311.258C265.29 310.034 265.566 308.936 266.118 307.964C266.682 306.98 267.444 306.218 268.404 305.678C269.364 305.126 270.426 304.85 271.59 304.85C272.766 304.85 273.834 305.126 274.794 305.678C275.754 306.218 276.51 306.974 277.062 307.946C277.614 308.918 277.89 310.022 277.89 311.258C277.89 312.494 277.614 313.598 277.062 314.57C276.51 315.542 275.754 316.304 274.794 316.856C273.834 317.396 272.766 317.666 271.59 317.666ZM271.59 316.244C272.466 316.244 273.252 316.04 273.948 315.632C274.656 315.224 275.208 314.642 275.604 313.886C276.012 313.13 276.216 312.254 276.216 311.258C276.216 310.25 276.012 309.374 275.604 308.63C275.208 307.874 274.662 307.292 273.966 306.884C273.27 306.476 272.478 306.272 271.59 306.272C270.702 306.272 269.91 306.476 269.214 306.884C268.518 307.292 267.966 307.874 267.558 308.63C267.162 309.374 266.964 310.25 266.964 311.258C266.964 312.254 267.162 313.13 267.558 313.886C267.966 314.642 268.518 315.224 269.214 315.632C269.922 316.04 270.714 316.244 271.59 316.244ZM283.13 317.666C282.302 317.666 281.558 317.522 280.898 317.234C280.25 316.934 279.74 316.526 279.368 316.01C278.996 315.482 278.804 314.876 278.792 314.192H280.538C280.598 314.78 280.838 315.278 281.258 315.686C281.69 316.082 282.314 316.28 283.13 316.28C283.91 316.28 284.522 316.088 284.966 315.704C285.422 315.308 285.65 314.804 285.65 314.192C285.65 313.712 285.518 313.322 285.254 313.022C284.99 312.722 284.66 312.494 284.264 312.338C283.868 312.182 283.334 312.014 282.662 311.834C281.834 311.618 281.168 311.402 280.664 311.186C280.172 310.97 279.746 310.634 279.386 310.178C279.038 309.71 278.864 309.086 278.864 308.306C278.864 307.622 279.038 307.016 279.386 306.488C279.734 305.96 280.22 305.552 280.844 305.264C281.48 304.976 282.206 304.832 283.022 304.832C284.198 304.832 285.158 305.126 285.902 305.714C286.658 306.302 287.084 307.082 287.18 308.054H285.38C285.32 307.574 285.068 307.154 284.624 306.794C284.18 306.422 283.592 306.236 282.86 306.236C282.176 306.236 281.618 306.416 281.186 306.776C280.754 307.124 280.538 307.616 280.538 308.252C280.538 308.708 280.664 309.08 280.916 309.368C281.18 309.656 281.498 309.878 281.87 310.034C282.254 310.178 282.788 310.346 283.472 310.538C284.3 310.766 284.966 310.994 285.47 311.222C285.974 311.438 286.406 311.78 286.766 312.248C287.126 312.704 287.306 313.328 287.306 314.12C287.306 314.732 287.144 315.308 286.82 315.848C286.496 316.388 286.016 316.826 285.38 317.162C284.744 317.498 283.994 317.666 283.13 317.666Z" fill="#5A5A5A"/>
<path d="M13.481 365.742C12.869 365.742 12.347 365.532 11.915 365.112C11.495 364.68 11.285 364.158 11.285 363.546C11.285 362.922 11.495 362.4 11.915 361.98C12.347 361.548 12.869 361.332 13.481 361.332C14.105 361.332 14.633 361.548 15.065 361.98C15.497 362.4 15.713 362.922 15.713 363.546C15.713 364.158 15.497 364.68 15.065 365.112C14.633 365.532 14.105 365.742 13.481 365.742ZM36.774 360.666C36.774 361.71 36.414 362.58 35.694 363.276C34.986 363.96 33.9 364.302 32.436 364.302H30.024V369.54H28.386V356.994H32.436C33.852 356.994 34.926 357.336 35.658 358.02C36.402 358.704 36.774 359.586 36.774 360.666ZM32.436 362.952C33.348 362.952 34.02 362.754 34.452 362.358C34.884 361.962 35.1 361.398 35.1 360.666C35.1 359.118 34.212 358.344 32.436 358.344H30.024V362.952H32.436ZM39.5478 361.278C39.8358 360.714 40.2438 360.276 40.7718 359.964C41.3118 359.652 41.9658 359.496 42.7338 359.496V361.188H42.3018C40.4658 361.188 39.5478 362.184 39.5478 364.176V369.54H37.9098V359.676H39.5478V361.278ZM44.5707 358.074C44.2587 358.074 43.9947 357.966 43.7787 357.75C43.5627 357.534 43.4547 357.27 43.4547 356.958C43.4547 356.646 43.5627 356.382 43.7787 356.166C43.9947 355.95 44.2587 355.842 44.5707 355.842C44.8707 355.842 45.1227 355.95 45.3267 356.166C45.5427 356.382 45.6507 356.646 45.6507 356.958C45.6507 357.27 45.5427 357.534 45.3267 357.75C45.1227 357.966 44.8707 358.074 44.5707 358.074ZM45.3627 359.676V369.54H43.7247V359.676H45.3627ZM51.5564 369.702C50.6324 369.702 49.7924 369.492 49.0364 369.072C48.2924 368.652 47.7044 368.058 47.2724 367.29C46.8524 366.51 46.6424 365.61 46.6424 364.59C46.6424 363.582 46.8584 362.694 47.2904 361.926C47.7344 361.146 48.3344 360.552 49.0904 360.144C49.8464 359.724 50.6924 359.514 51.6284 359.514C52.5644 359.514 53.4104 359.724 54.1664 360.144C54.9224 360.552 55.5164 361.14 55.9484 361.908C56.3924 362.676 56.6144 363.57 56.6144 364.59C56.6144 365.61 56.3864 366.51 55.9304 367.29C55.4864 368.058 54.8804 368.652 54.1124 369.072C53.3444 369.492 52.4924 369.702 51.5564 369.702ZM51.5564 368.262C52.1444 368.262 52.6964 368.124 53.2124 367.848C53.7284 367.572 54.1424 367.158 54.4544 366.606C54.7784 366.054 54.9404 365.382 54.9404 364.59C54.9404 363.798 54.7844 363.126 54.4724 362.574C54.1604 362.022 53.7524 361.614 53.2484 361.35C52.7444 361.074 52.1984 360.936 51.6104 360.936C51.0104 360.936 50.4584 361.074 49.9544 361.35C49.4624 361.614 49.0664 362.022 48.7664 362.574C48.4664 363.126 48.3164 363.798 48.3164 364.59C48.3164 365.394 48.4604 366.072 48.7484 366.624C49.0484 367.176 49.4444 367.59 49.9364 367.866C50.4284 368.13 50.9684 368.262 51.5564 368.262ZM59.506 361.278C59.794 360.714 60.202 360.276 60.73 359.964C61.27 359.652 61.924 359.496 62.692 359.496V361.188H62.26C60.424 361.188 59.506 362.184 59.506 364.176V369.54H57.868V359.676H59.506V361.278ZM64.5289 358.074C64.2169 358.074 63.9529 357.966 63.7369 357.75C63.5209 357.534 63.4129 357.27 63.4129 356.958C63.4129 356.646 63.5209 356.382 63.7369 356.166C63.9529 355.95 64.2169 355.842 64.5289 355.842C64.8289 355.842 65.0809 355.95 65.2849 356.166C65.5009 356.382 65.6089 356.646 65.6089 356.958C65.6089 357.27 65.5009 357.534 65.2849 357.75C65.0809 357.966 64.8289 358.074 64.5289 358.074ZM65.3209 359.676V369.54H63.6829V359.676H65.3209ZM69.2106 361.026V366.84C69.2106 367.32 69.3126 367.662 69.5166 367.866C69.7206 368.058 70.0746 368.154 70.5786 368.154H71.7846V369.54H70.3086C69.3966 369.54 68.7126 369.33 68.2566 368.91C67.8006 368.49 67.5726 367.8 67.5726 366.84V361.026H66.2946V359.676H67.5726V357.192H69.2106V359.676H71.7846V361.026H69.2106ZM81.3652 359.676L75.4252 374.184H73.7332L75.6772 369.432L71.6992 359.676H73.5172L76.6132 367.668L79.6732 359.676H81.3652ZM89.9886 369.666C89.1606 369.666 88.4166 369.522 87.7566 369.234C87.1086 368.934 86.5986 368.526 86.2266 368.01C85.8546 367.482 85.6626 366.876 85.6506 366.192H87.3966C87.4566 366.78 87.6966 367.278 88.1166 367.686C88.5486 368.082 89.1726 368.28 89.9886 368.28C90.7686 368.28 91.3806 368.088 91.8246 367.704C92.2806 367.308 92.5086 366.804 92.5086 366.192C92.5086 365.712 92.3766 365.322 92.1126 365.022C91.8486 364.722 91.5186 364.494 91.1226 364.338C90.7266 364.182 90.1926 364.014 89.5206 363.834C88.6926 363.618 88.0266 363.402 87.5226 363.186C87.0306 362.97 86.6046 362.634 86.2446 362.178C85.8966 361.71 85.7226 361.086 85.7226 360.306C85.7226 359.622 85.8966 359.016 86.2446 358.488C86.5926 357.96 87.0786 357.552 87.7026 357.264C88.3386 356.976 89.0646 356.832 89.8806 356.832C91.0566 356.832 92.0166 357.126 92.7606 357.714C93.5166 358.302 93.9426 359.082 94.0386 360.054H92.2386C92.1786 359.574 91.9266 359.154 91.4826 358.794C91.0386 358.422 90.4506 358.236 89.7186 358.236C89.0346 358.236 88.4766 358.416 88.0446 358.776C87.6126 359.124 87.3966 359.616 87.3966 360.252C87.3966 360.708 87.5226 361.08 87.7746 361.368C88.0386 361.656 88.3566 361.878 88.7286 362.034C89.1126 362.178 89.6466 362.346 90.3306 362.538C91.1586 362.766 91.8246 362.994 92.3286 363.222C92.8326 363.438 93.2646 363.78 93.6246 364.248C93.9846 364.704 94.1646 365.328 94.1646 366.12C94.1646 366.732 94.0026 367.308 93.6786 367.848C93.3546 368.388 92.8746 368.826 92.2386 369.162C91.6026 369.498 90.8526 369.666 89.9886 369.666ZM104.423 359.676V369.54H102.785V368.082C102.473 368.586 102.035 368.982 101.471 369.27C100.919 369.546 100.307 369.684 99.6351 369.684C98.8671 369.684 98.1771 369.528 97.5651 369.216C96.9531 368.892 96.4671 368.412 96.1071 367.776C95.7591 367.14 95.5851 366.366 95.5851 365.454V359.676H97.2051V365.238C97.2051 366.21 97.4511 366.96 97.9431 367.488C98.4351 368.004 99.1071 368.262 99.9591 368.262C100.835 368.262 101.525 367.992 102.029 367.452C102.533 366.912 102.785 366.126 102.785 365.094V359.676H104.423ZM107.927 361.494C108.251 360.93 108.731 360.462 109.367 360.09C110.015 359.706 110.765 359.514 111.617 359.514C112.493 359.514 113.285 359.724 113.993 360.144C114.713 360.564 115.277 361.158 115.685 361.926C116.093 362.682 116.297 363.564 116.297 364.572C116.297 365.568 116.093 366.456 115.685 367.236C115.277 368.016 114.713 368.622 113.993 369.054C113.285 369.486 112.493 369.702 111.617 369.702C110.777 369.702 110.033 369.516 109.385 369.144C108.749 368.76 108.263 368.286 107.927 367.722V374.22H106.289V359.676H107.927V361.494ZM114.623 364.572C114.623 363.828 114.473 363.18 114.173 362.628C113.873 362.076 113.465 361.656 112.949 361.368C112.445 361.08 111.887 360.936 111.275 360.936C110.675 360.936 110.117 361.086 109.601 361.386C109.097 361.674 108.689 362.1 108.377 362.664C108.077 363.216 107.927 363.858 107.927 364.59C107.927 365.334 108.077 365.988 108.377 366.552C108.689 367.104 109.097 367.53 109.601 367.83C110.117 368.118 110.675 368.262 111.275 368.262C111.887 368.262 112.445 368.118 112.949 367.83C113.465 367.53 113.873 367.104 114.173 366.552C114.473 365.988 114.623 365.328 114.623 364.572ZM119.191 361.494C119.515 360.93 119.995 360.462 120.631 360.09C121.279 359.706 122.029 359.514 122.881 359.514C123.757 359.514 124.549 359.724 125.257 360.144C125.977 360.564 126.541 361.158 126.949 361.926C127.357 362.682 127.561 363.564 127.561 364.572C127.561 365.568 127.357 366.456 126.949 367.236C126.541 368.016 125.977 368.622 125.257 369.054C124.549 369.486 123.757 369.702 122.881 369.702C122.041 369.702 121.297 369.516 120.649 369.144C120.013 368.76 119.527 368.286 119.191 367.722V374.22H117.553V359.676H119.191V361.494ZM125.887 364.572C125.887 363.828 125.737 363.18 125.437 362.628C125.137 362.076 124.729 361.656 124.213 361.368C123.709 361.08 123.151 360.936 122.539 360.936C121.939 360.936 121.381 361.086 120.865 361.386C120.361 361.674 119.953 362.1 119.641 362.664C119.341 363.216 119.191 363.858 119.191 364.59C119.191 365.334 119.341 365.988 119.641 366.552C119.953 367.104 120.361 367.53 120.865 367.83C121.381 368.118 121.939 368.262 122.539 368.262C123.151 368.262 123.709 368.118 124.213 367.83C124.729 367.53 125.137 367.104 125.437 366.552C125.737 365.988 125.887 365.328 125.887 364.572ZM133.119 369.702C132.195 369.702 131.355 369.492 130.599 369.072C129.855 368.652 129.267 368.058 128.835 367.29C128.415 366.51 128.205 365.61 128.205 364.59C128.205 363.582 128.421 362.694 128.853 361.926C129.297 361.146 129.897 360.552 130.653 360.144C131.409 359.724 132.255 359.514 133.191 359.514C134.127 359.514 134.973 359.724 135.729 360.144C136.485 360.552 137.079 361.14 137.511 361.908C137.955 362.676 138.177 363.57 138.177 364.59C138.177 365.61 137.949 366.51 137.493 367.29C137.049 368.058 136.443 368.652 135.675 369.072C134.907 369.492 134.055 369.702 133.119 369.702ZM133.119 368.262C133.707 368.262 134.259 368.124 134.775 367.848C135.291 367.572 135.705 367.158 136.017 366.606C136.341 366.054 136.503 365.382 136.503 364.59C136.503 363.798 136.347 363.126 136.035 362.574C135.723 362.022 135.315 361.614 134.811 361.35C134.307 361.074 133.761 360.936 133.173 360.936C132.573 360.936 132.021 361.074 131.517 361.35C131.025 361.614 130.629 362.022 130.329 362.574C130.029 363.126 129.879 363.798 129.879 364.59C129.879 365.394 130.023 366.072 130.311 366.624C130.611 367.176 131.007 367.59 131.499 367.866C131.991 368.13 132.531 368.262 133.119 368.262ZM141.069 361.278C141.357 360.714 141.765 360.276 142.293 359.964C142.833 359.652 143.487 359.496 144.255 359.496V361.188H143.823C141.987 361.188 141.069 362.184 141.069 364.176V369.54H139.431V359.676H141.069V361.278ZM147.243 361.026V366.84C147.243 367.32 147.345 367.662 147.549 367.866C147.753 368.058 148.107 368.154 148.611 368.154H149.817V369.54H148.341C147.429 369.54 146.745 369.33 146.289 368.91C145.833 368.49 145.605 367.8 145.605 366.84V361.026H144.327V359.676H145.605V357.192H147.243V359.676H149.817V361.026H147.243Z" fill="#5A5A5A"/>
</svg>
